<svg width="255" height="262" viewBox="0 0 255 262" fill="none" xmlns="http://www.w3.org/2000/svg">
<path d="M37.862 239.861C-11.6662 211.267 -11.6662 164.928 37.862 136.308C87.3901 107.688 167.687 107.714 217.21 136.308C266.733 164.902 266.739 211.241 217.21 239.861C167.682 268.481 87.3849 268.454 37.862 239.861Z" fill="#FAFAFA"/>
<path d="M201.159 203.304C193.697 207.523 193.697 214.355 201.159 218.58C208.622 222.806 220.718 222.799 228.18 218.58C235.643 214.362 235.643 207.53 228.18 203.304C220.718 199.079 208.622 199.111 201.159 203.304Z" fill="#EBEBEB"/>
<path d="M48.5684 202.557C55.0599 206.455 55.0599 212.77 48.5684 216.66C42.0769 220.55 31.5644 220.558 25.0729 216.66C18.5814 212.763 18.5888 206.455 25.0729 202.557C31.5569 198.66 42.0843 198.682 48.5684 202.557Z" fill="#EBEBEB"/>
<path d="M71.6855 88.9086L72.6066 89.4602L91.5062 78.5482L90.5851 77.9966L71.6855 88.9086Z" fill="#FAFAFA"/>
<path d="M90.585 77.9968L72.6064 88.378V32.5691L90.585 22.1982V77.9968Z" fill="white"/>
<path d="M93.2438 18.6499L70.8682 31.5653V92.4478L93.2438 79.5324V18.6499ZM91.5058 78.5489L72.6062 89.4765V32.5696L91.5058 21.642V78.5489Z" fill="#F0F0F0"/>
<path d="M91.506 78.5476L90.585 77.996V22.1974L91.506 21.6562V78.5476Z" fill="#E0E0E0"/>
<path d="M93.2439 18.6488L92.3073 18.1128L69.9316 31.0334L70.8683 31.5642L93.2439 18.6488Z" fill="#FAFAFA"/>
<path d="M69.9316 31.0347L70.8683 31.5654V92.4688L69.9316 91.9328V31.0347Z" fill="#E0E0E0"/>
<path d="M89.2372 76.9245L73.9541 85.7446V34.1922L89.2372 25.3721V76.9245Z" fill="#F0F0F0"/>
<path d="M89.2372 76.9245L73.9541 85.7446V34.1922L89.2372 25.3721V76.9245Z" fill="#F0F0F0"/>
<path d="M73.9381 70.9255C74.6656 70.9802 75.3962 70.9802 76.1237 70.9255C78.6669 70.7322 81.1711 70.1876 83.5649 69.3071C85.4122 68.6255 87.2646 67.746 89.2212 67.6836V76.9409L87.1398 78.1325C86.3307 77.3959 85.3589 76.861 84.3038 76.5714C81.3585 75.7961 78.3404 77.2739 75.3119 77.6121C74.8522 77.6607 74.39 77.6833 73.9277 77.6798L73.9381 70.9255Z" fill="#FAFAFA"/>
<path d="M73.9385 52.7483C77.3573 51.7388 80.8645 50.8958 83.305 48.3876C85.272 46.3634 86.1982 43.5639 86.8435 40.8215C87.4887 38.0792 87.9362 35.238 89.1799 32.7091C89.1918 32.6837 89.2057 32.6594 89.2215 32.6362V60.1843C89.029 60.4705 88.8365 60.7567 88.6335 61.0325C86.3856 64.0766 83.0813 66.616 79.3034 66.8137C77.529 66.9022 75.6973 66.4859 73.9385 66.4963V52.7483Z" fill="#FAFAFA"/>
<path d="M73.9385 42.5818C75.2583 41.4176 76.2613 39.9377 76.8537 38.2805C77.4461 36.6233 77.6086 34.843 77.326 33.1059C77.2792 32.8458 77.2168 32.5856 77.1543 32.341L83.0292 28.9482C83.0292 29.3333 82.9876 29.7184 82.9772 30.1034C82.9147 32.3514 82.9772 34.6254 82.4985 36.8109C82.0661 38.6491 81.2445 40.3732 80.0893 41.8669C78.934 43.3606 77.4718 44.5892 75.8014 45.4698C75.202 45.7773 74.5791 46.0366 73.9385 46.2451V42.5818Z" fill="#FAFAFA"/>
<path d="M187.44 46.6904L186.638 47.1639L170.299 37.7245L171.09 37.251L187.44 46.6904Z" fill="#FAFAFA"/>
<path d="M171.09 37.2521L186.638 46.2283V29.9462L171.09 20.9751V37.2521Z" fill="white"/>
<path d="M168.795 38.593L188.142 49.7652V29.0755L168.795 17.9033V38.593ZM170.294 20.5051L186.638 29.9445V47.1633L170.294 37.724V20.5051Z" fill="#F0F0F0"/>
<path d="M170.299 37.7247L171.09 37.2512V20.9742L170.294 20.5059L170.299 37.7247Z" fill="#E0E0E0"/>
<path d="M168.795 17.904L169.601 17.4409L188.954 28.6131L188.142 29.0762L168.795 17.904Z" fill="#FAFAFA"/>
<path d="M188.954 28.6138L188.143 29.0769V49.7665L188.954 49.3034V28.6138Z" fill="#E0E0E0"/>
<path d="M171.698 36.7616L186.034 45.0405V40.9036L182.449 32.6247L180.217 34.6957L181.018 38.1613L176.069 27.5771L171.698 32.6247V36.7616Z" fill="#F0F0F0"/>
<path d="M180.352 28.6289C180.657 28.8328 180.909 29.1051 181.09 29.424C181.271 29.743 181.374 30.0997 181.393 30.4658C181.393 31.1423 180.914 31.4181 180.352 31.0798C180.046 30.8768 179.793 30.6048 179.612 30.2856C179.431 29.9665 179.328 29.6093 179.311 29.243C179.29 28.5665 179.764 28.2907 180.352 28.6289Z" fill="#F0F0F0"/>
<path d="M171.023 63.6813L170.226 64.1548L153.882 54.7206L154.678 54.2471L171.023 63.6813Z" fill="#FAFAFA"/>
<path d="M154.678 54.2467L170.226 63.2178V46.9356L154.678 37.9697V54.2467Z" fill="white"/>
<path d="M152.378 55.5895L171.73 66.7617V46.0721L152.378 34.8999V55.5895ZM153.882 37.5017L170.206 46.9411V64.1599L153.882 54.7205V37.5017Z" fill="#F0F0F0"/>
<path d="M153.882 54.7193L154.678 54.2458V37.9688L153.882 37.5005V54.7193Z" fill="#E0E0E0"/>
<path d="M152.378 34.8987L153.19 34.4355L172.542 45.6077L171.73 46.0709L152.378 34.8987Z" fill="#FAFAFA"/>
<path d="M172.542 45.6084L171.73 46.0715V66.7612L172.542 66.298V45.6084Z" fill="#E0E0E0"/>
<path d="M155.287 53.7562L169.623 62.0352V57.8931L166.038 49.6193L163.805 51.6903L164.607 55.156L159.658 44.5718L155.287 49.6193V53.7562Z" fill="#F0F0F0"/>
<path d="M163.962 45.6236C164.267 45.8275 164.52 46.0997 164.7 46.4187C164.881 46.7376 164.985 47.0943 165.003 47.4604C165.003 48.1369 164.524 48.4127 163.962 48.0745C163.657 47.8715 163.403 47.5994 163.223 47.2803C163.042 46.9612 162.939 46.604 162.921 46.2376C162.88 45.5611 163.353 45.2853 163.962 45.6236Z" fill="#F0F0F0"/>
<path d="M15.2158 128.6L16.319 129.26L53.8528 107.587L52.7496 106.932L15.2158 128.6Z" fill="#FAFAFA"/>
<path d="M52.75 106.934L16.3193 127.962V44.0324L52.75 23.0098V106.934Z" fill="white"/>
<path d="M55.9392 18.752L14.2373 42.8292V132.852L55.9392 108.775V18.752ZM53.8526 107.588L16.3188 129.262V44.0312L53.8526 22.3633V107.588Z" fill="#F0F0F0"/>
<path d="M53.8532 107.587L52.75 106.932V23.0076L53.8532 22.3623V107.587Z" fill="#E0E0E0"/>
<path d="M16.3193 98.7624V100.058L53.8531 78.385L52.75 77.7241L16.3193 98.7624Z" fill="#FAFAFA"/>
<path d="M16.3193 69.5443V70.84L53.8531 49.1669L52.75 48.5112L16.3193 69.5443Z" fill="#FAFAFA"/>
<path d="M55.9392 18.7566L54.8152 18.1113L13.1133 42.1885L14.2373 42.8286L55.9392 18.7566Z" fill="#FAFAFA"/>
<path d="M13.1133 42.1885L14.2373 42.8285V132.867L13.1133 132.222V42.1885Z" fill="#E0E0E0"/>
<path d="M32.3721 34.7629L33.4961 34.1177V119.348L32.3721 118.708V34.7629Z" fill="#E0E0E0"/>
<path d="M35.5775 32.9204L33.4961 34.1172V119.348L35.5775 118.14V32.9204Z" fill="#F0F0F0"/>
<path d="M55.9392 47.9644V50.3684L14.2373 74.4404V72.0416L55.9392 47.9644Z" fill="#F0F0F0"/>
<path d="M55.9392 77.1772V79.5761L14.2373 103.653V101.249L55.9392 77.1772Z" fill="#F0F0F0"/>
<path d="M33.4965 60.9216L32.3725 60.2764L16.3193 69.544V70.8397L33.4965 60.9216Z" fill="#FAFAFA"/>
<path d="M33.4965 90.1247L32.3725 89.4795L16.3193 98.7472V100.043L33.4965 90.1247Z" fill="#FAFAFA"/>
<path d="M241.964 53.7721C241.964 41.0232 233.566 25.839 223.231 19.86C217.747 16.691 212.824 16.7379 209.384 19.3813C205.123 21.1505 202.391 26.0524 202.391 33.3166V107.265L239.878 128.923L241.959 127.721L241.964 53.7721Z" fill="#E6E6E6"/>
<path d="M239.877 128.922V54.9729C239.877 42.224 231.484 27.0398 221.144 21.0608C210.805 15.0818 202.411 20.5664 202.411 33.3153V107.264L239.877 128.922Z" fill="#F5F5F5"/>
<path d="M237.853 54.9724V125.367L204.425 106.077V33.3201C204.425 26.9457 206.662 22.5538 210.435 21.1644C211.31 20.8466 212.236 20.688 213.167 20.6961C215.3 20.6961 217.632 21.4142 220.098 22.84C229.876 28.4911 237.853 42.8948 237.853 54.9724Z" fill="#E0E0E0"/>
<path d="M204.42 106.079L206.543 104.861L237.827 122.928V125.369L204.42 106.079Z" fill="#EBEBEB"/>
<path d="M237.854 54.9724V122.927L206.569 104.86V32.0921C206.569 27.0289 207.99 23.2147 210.467 21.1644C211.342 20.8466 212.267 20.688 213.199 20.6961C215.332 20.6961 217.663 21.4142 220.13 22.84C229.876 28.4911 237.854 42.8948 237.854 54.9724Z" fill="white"/>
<path d="M222.149 116.313L220.099 115.132V22.0962H222.149V116.313Z" fill="#F5F5F5"/>
<path d="M224.204 25.8071V115.133L222.153 116.314V24.168C222.851 24.6727 223.532 25.2139 224.204 25.8071Z" fill="#E0E0E0"/>
<path d="M204.42 91.6064L220.098 100.661V103.065L204.42 94.0157V91.6064Z" fill="#F5F5F5"/>
<path d="M206.543 90.3833L204.42 91.6061L220.098 100.66V98.2512L206.543 90.3833Z" fill="#EBEBEB"/>
<path d="M222.148 101.843L237.827 110.892V113.302L222.148 104.253V101.843Z" fill="#F5F5F5"/>
<path d="M224.266 100.62L222.148 101.842L237.827 110.892V108.488L224.266 100.62Z" fill="#EBEBEB"/>
<path d="M204.42 37.8901L220.098 46.9393V49.3433L204.42 40.2994V37.8901Z" fill="#F5F5F5"/>
<path d="M206.543 36.6665L204.42 37.8894L220.098 46.9385V44.5344L206.543 36.6665Z" fill="#EBEBEB"/>
<path d="M222.148 48.1201L237.827 57.1744V59.5785L222.148 50.5294V48.1201Z" fill="#F5F5F5"/>
<path d="M224.266 46.9019L222.148 48.1195L237.827 57.1738V54.7645L224.266 46.9019Z" fill="#EBEBEB"/>
<path d="M203.816 212.701C197.817 206.496 194.272 192.173 200.137 187.248H229.969C235.834 192.167 232.302 206.49 226.297 212.695L226.13 212.868L225.923 213.068C225.757 213.235 225.577 213.401 225.383 213.561L225.237 213.674C225.09 213.788 224.944 213.908 224.784 214.021C224.533 214.202 224.273 214.369 224.004 214.521C219.065 217.407 211.047 217.407 206.102 214.521C205.83 214.368 205.567 214.199 205.315 214.014L204.896 213.694L204.716 213.554C204.529 213.395 204.356 213.241 204.196 213.081L203.956 212.841L203.816 212.701Z" fill="#37474F"/>
<path d="M227.376 185.27C234.188 189.269 234.188 195.688 227.376 199.66C220.565 203.632 209.534 203.659 202.716 199.66C195.898 195.661 195.911 189.243 202.716 185.27C209.521 181.298 220.571 181.298 227.376 185.27Z" fill="#455A64"/>
<path d="M224.103 187.182C229.102 190.101 229.102 194.833 224.103 197.753C219.104 200.672 211 200.672 206.001 197.753C201.002 194.833 201.002 190.101 206.001 187.182C211 184.263 219.104 184.263 224.103 187.182Z" fill="#263238"/>
<path d="M206.001 192.173C211 189.254 219.105 189.254 224.103 192.173C225.318 192.831 226.347 193.785 227.096 194.946C226.346 196.108 225.317 197.063 224.103 197.725C219.105 200.644 211 200.644 206.001 197.725C204.789 197.061 203.761 196.106 203.009 194.946C203.759 193.786 204.788 192.833 206.001 192.173Z" fill="#FAFAFA"/>
<path d="M213.199 158.182C213.419 160.049 214.572 162.455 216.392 163.348C217.073 163.717 217.841 163.898 218.616 163.871C219.39 163.844 220.143 163.611 220.797 163.194C221.597 162.561 219.178 162.748 217.698 161.695C216.219 160.642 216.119 159.955 217.598 160.795C219.078 161.635 221.597 162.548 223.017 162.388C224.436 162.228 225.563 160.535 225.343 160.169C225.123 159.802 223.883 160.662 221.757 160.575C219.631 160.489 217.971 159.555 217.378 158.629C216.785 157.703 217.192 157.863 219.098 158.769C221.004 159.675 224.536 160.355 225.823 159.309C227.109 158.262 227.156 156.643 226.936 156.29C226.716 155.936 225.13 157.436 222.53 157.363C219.931 157.289 217.798 156.17 218.065 155.157C218.331 154.143 219.178 154.603 221.191 154.917C223.203 155.23 227.069 155.297 228.095 154.583C229.122 153.87 229.275 151.518 228.829 151.304C228.382 151.091 226.729 152.637 224.083 152.824C221.437 153.01 220.164 152.271 221.164 151.877C222.164 151.484 227.409 151.478 228.109 150.838C228.809 150.198 228.975 145.972 228.975 145.972C228.975 145.972 225.903 144.679 225.123 144.779C224.343 144.879 221.83 147.525 221.244 148.778C220.657 150.031 220.231 148.778 220.577 147.838C220.924 146.899 222.637 144.506 223.73 144.039C222.29 143.373 220.564 142.893 219.871 144.039C218.984 145.929 218.433 147.959 218.245 150.038C218.138 151.757 216.912 153.37 216.745 151.158C216.578 148.945 217.452 144.839 218.745 143.826C217.372 143.946 213.826 145.319 213.866 147.759C213.906 150.198 214.752 152.517 214.712 153.29C214.672 154.064 213.786 153.337 213.206 151.651C212.626 149.965 212.086 147.652 212.953 146.452C211.54 146.912 210.16 147.505 210.88 150.138C211.6 152.771 212.993 153.597 212.819 154.09C212.646 154.583 210.967 152.844 210.447 151.338C210.019 151.933 209.776 152.641 209.748 153.373C209.719 154.105 209.907 154.83 210.287 155.456C210.935 156.658 211.958 157.615 213.199 158.182Z" fill="#F9B233"/>
<path opacity="0.25" d="M213.199 158.182C213.419 160.049 214.572 162.455 216.392 163.348C217.073 163.717 217.841 163.898 218.616 163.871C219.39 163.844 220.143 163.611 220.797 163.194C221.597 162.561 219.178 162.748 217.698 161.695C216.219 160.642 216.119 159.955 217.598 160.795C219.078 161.635 221.597 162.548 223.017 162.388C224.436 162.228 225.563 160.535 225.343 160.169C225.123 159.802 223.883 160.662 221.757 160.575C219.631 160.489 217.971 159.555 217.378 158.629C216.785 157.703 217.192 157.863 219.098 158.769C221.004 159.675 224.536 160.355 225.823 159.309C227.109 158.262 227.156 156.643 226.936 156.29C226.716 155.936 225.13 157.436 222.53 157.363C219.931 157.289 217.798 156.17 218.065 155.157C218.331 154.143 219.178 154.603 221.191 154.917C223.203 155.23 227.069 155.297 228.095 154.583C229.122 153.87 229.275 151.518 228.829 151.304C228.382 151.091 226.729 152.637 224.083 152.824C221.437 153.01 220.164 152.271 221.164 151.877C222.164 151.484 227.409 151.478 228.109 150.838C228.809 150.198 228.975 145.972 228.975 145.972C228.975 145.972 225.903 144.679 225.123 144.779C224.343 144.879 221.83 147.525 221.244 148.778C220.657 150.031 220.231 148.778 220.577 147.838C220.924 146.899 222.637 144.506 223.73 144.039C222.29 143.373 220.564 142.893 219.871 144.039C218.984 145.929 218.433 147.959 218.245 150.038C218.138 151.757 216.912 153.37 216.745 151.158C216.578 148.945 217.452 144.839 218.745 143.826C217.372 143.946 213.826 145.319 213.866 147.759C213.906 150.198 214.752 152.517 214.712 153.29C214.672 154.064 213.786 153.337 213.206 151.651C212.626 149.965 212.086 147.652 212.953 146.452C211.54 146.912 210.16 147.505 210.88 150.138C211.6 152.771 212.993 153.597 212.819 154.09C212.646 154.583 210.967 152.844 210.447 151.338C210.019 151.933 209.776 152.641 209.748 153.373C209.719 154.105 209.907 154.83 210.287 155.456C210.935 156.658 211.958 157.615 213.199 158.182Z" fill="white"/>
<path d="M207.155 165.235C208.801 165.336 210.37 165.967 211.627 167.034C213.323 168.438 214.639 170.247 215.453 172.293C216.382 174.689 216.996 177.196 217.279 179.751C217.653 182.375 217.798 185.027 217.712 187.676C217.685 190.676 217.109 193.647 216.013 196.44C215.926 196.64 215.713 196.547 215.759 196.34C216.358 193.975 216.779 191.569 217.019 189.142C217.193 186.672 217.144 184.192 216.872 181.731C216.406 177.265 215.626 172.286 212.593 168.774C211.14 167.135 209.259 165.933 207.162 165.302C207.162 165.302 207.128 165.235 207.155 165.235Z" fill="#455A64"/>
<path d="M208.135 173.332C211.394 175.591 213.333 179.297 214.34 183.049C214.906 185.277 215.213 187.563 215.253 189.861C215.377 192.18 215.216 194.506 214.773 196.786C214.773 196.919 214.386 196.952 214.42 196.706C214.759 194.479 214.878 192.224 214.773 189.974C214.689 187.757 214.399 185.553 213.907 183.389C212.962 179.589 210.952 176.137 208.115 173.438C208.115 173.438 208.081 173.298 208.135 173.332Z" fill="#455A64"/>
<path d="M211.673 180.576C211.673 180.47 211.787 180.576 211.787 180.63C211.794 183.217 211.939 185.802 212.22 188.374C212.367 189.621 212.56 190.867 212.806 192.1C213.053 193.333 213.426 194.633 213.64 195.919C213.64 196.066 213.46 196.352 213.366 196.119C212.4 193.8 212.033 191.1 211.773 188.621C211.437 185.952 211.403 183.253 211.673 180.576Z" fill="#455A64"/>
<path d="M216.512 153.598C214.421 155.808 212.818 158.433 211.807 161.302C211.328 162.626 210.954 163.986 210.687 165.368C210.351 166.759 210.219 168.191 210.294 169.62C210.294 169.8 210.567 169.993 210.621 169.727C210.723 169.015 210.785 168.299 210.807 167.581C210.887 166.874 210.994 166.168 211.127 165.468C211.413 164 211.825 162.559 212.36 161.162C213.414 158.494 214.824 155.981 216.552 153.691C216.586 153.644 216.579 153.518 216.512 153.598Z" fill="#455A64"/>
<path d="M211.02 167.82C211.613 170.933 208.114 174.758 203.609 174.172C205.542 172.746 207.661 170.22 206.728 169.466C205.795 168.713 206.135 171.832 202.949 173.565C202.949 173.565 201.476 173.752 200.19 171.739C203.429 170.766 205.868 167.34 204.755 167.567C204.315 167.654 203.042 169.333 201.07 170.006C199.097 170.679 197.504 170.226 195.824 167.474C197.317 167.707 199.53 167.833 201.156 166.807C202.329 166.061 202.809 165.474 200.49 166.034C198.17 166.594 197.384 166.874 195.578 166.194C193.772 165.514 192.832 163.075 192.832 163.075C192.832 163.075 195.718 164.361 196.724 163.635C197.73 162.908 194.105 163.268 192.312 161.728C191.222 160.779 190.301 159.652 189.586 158.396C189.586 158.396 191.365 156.343 192.252 155.997C193.412 157.696 194.811 159.996 195.224 159.742C195.638 159.489 195.431 158.036 193.498 156.123C193.752 155.758 194.116 155.483 194.536 155.336C194.956 155.19 195.412 155.181 195.838 155.31C195.838 155.31 196.964 155.883 197.69 159.569C197.837 160.342 198.464 161.195 197.864 158.236C197.682 156.984 197.227 155.787 196.531 154.73C197.259 154.543 198.03 154.607 198.718 154.913C199.405 155.219 199.969 155.749 200.316 156.416C202.749 160.415 202.409 161.895 202.982 161.848C203.196 161.848 203.176 161.002 202.496 158.783C202.165 157.596 201.645 156.471 200.956 155.45C200.956 155.45 202.956 154.244 204.829 156.616C206.701 158.989 206.995 162.755 207.141 162.868C207.521 163.168 207.748 160.322 207.281 158.589C206.841 156.976 206.561 156.21 206.561 156.21C207.356 156.22 208.126 156.484 208.759 156.964C209.393 157.444 209.856 158.114 210.081 158.876C211.054 161.668 209.701 164.841 210.307 164.874C210.914 164.908 211.64 159.389 211.64 159.389C211.64 159.389 215.093 165.587 211.02 167.82Z" fill="#F9B233"/>
<path opacity="0.2" d="M211.02 167.82C211.613 170.933 208.114 174.758 203.609 174.172C205.542 172.746 207.661 170.22 206.728 169.466C205.795 168.713 206.135 171.832 202.949 173.565C202.949 173.565 201.476 173.752 200.19 171.739C203.429 170.766 205.868 167.34 204.755 167.567C204.315 167.654 203.042 169.333 201.07 170.006C199.097 170.679 197.504 170.226 195.824 167.474C197.317 167.707 199.53 167.833 201.156 166.807C202.329 166.061 202.809 165.474 200.49 166.034C198.17 166.594 197.384 166.874 195.578 166.194C193.772 165.514 192.832 163.075 192.832 163.075C192.832 163.075 195.718 164.361 196.724 163.635C197.73 162.908 194.105 163.268 192.312 161.728C191.222 160.779 190.301 159.652 189.586 158.396C189.586 158.396 191.365 156.343 192.252 155.997C193.412 157.696 194.811 159.996 195.224 159.742C195.638 159.489 195.431 158.036 193.498 156.123C193.752 155.758 194.116 155.483 194.536 155.336C194.956 155.19 195.412 155.181 195.838 155.31C195.838 155.31 196.964 155.883 197.69 159.569C197.837 160.342 198.464 161.195 197.864 158.236C197.682 156.984 197.227 155.787 196.531 154.73C197.259 154.543 198.03 154.607 198.718 154.913C199.405 155.219 199.969 155.749 200.316 156.416C202.749 160.415 202.409 161.895 202.982 161.848C203.196 161.848 203.176 161.002 202.496 158.783C202.165 157.596 201.645 156.471 200.956 155.45C200.956 155.45 202.956 154.244 204.829 156.616C206.701 158.989 206.995 162.755 207.141 162.868C207.521 163.168 207.748 160.322 207.281 158.589C206.841 156.976 206.561 156.21 206.561 156.21C207.356 156.22 208.126 156.484 208.759 156.964C209.393 157.444 209.856 158.114 210.081 158.876C211.054 161.668 209.701 164.841 210.307 164.874C210.914 164.908 211.64 159.389 211.64 159.389C211.64 159.389 215.093 165.587 211.02 167.82Z" fill="white"/>
<path d="M217.979 174.679C218.932 173.093 222.725 171.586 227.977 173.213C229.865 173.819 231.609 174.806 233.102 176.112C229.643 175.145 224.951 174.212 224.298 175.445C223.644 176.678 225.631 176.405 227.497 176.305C229.584 176.131 231.685 176.275 233.728 176.732C235.253 177.842 236.46 179.334 237.227 181.057C233.942 178.525 229.476 177.771 227.457 178.138C225.437 178.505 225.231 179.298 226.85 179.271C228.47 179.244 231.656 179.071 238.48 183.057C238.48 183.057 239.667 184.55 239.267 187.782C238.274 186.176 236.468 185.063 234.861 184.156C233.244 183.195 231.519 182.425 229.723 181.864C229.403 181.777 228.756 181.61 228.49 181.864C228.223 182.117 228.456 182.597 228.71 182.803C229.27 183.207 229.894 183.513 230.556 183.71C231.411 184.005 232.25 184.346 233.069 184.73C234.456 185.281 235.794 185.95 237.068 186.729C237.734 187.182 238.66 189.628 237.861 191.794C236.214 190.841 233.055 187.416 230.283 186.842C227.51 186.269 230.529 187.789 232.502 189.315C234.195 190.648 237.167 193.274 237.167 193.274C236.362 195.049 235.443 196.77 234.415 198.426C232.451 198.16 230.547 197.563 228.783 196.66C228.783 196.66 228.683 190.868 227.51 189.955C226.337 189.042 226.71 191.455 227.297 193.654C227.883 195.853 228.017 196.653 228.017 196.653C228.017 196.653 222.265 195.907 220.632 193.387C220.918 192.254 221.998 189.388 222.631 187.502C223.298 185.503 224.324 183.943 223.824 183.39C223.324 182.837 222.205 184.27 221.198 186.129C220.264 188.029 219.592 190.047 219.199 192.128C219.199 192.128 215.62 190.188 214.66 188.682C214.207 184.963 217.159 181.837 217.726 181.41C218.292 180.984 218.033 178.938 215.34 180.744C214.509 181.277 213.825 182.009 213.35 182.874C212.875 183.739 212.625 184.709 212.621 185.696C212.621 185.696 209.955 184.536 209.548 181.784C208.928 177.325 211.774 173.886 217.979 174.679Z" fill="#F9B233"/>
<path opacity="0.25" d="M217.979 174.679C218.932 173.093 222.725 171.586 227.977 173.213C229.865 173.819 231.609 174.806 233.102 176.112C229.643 175.145 224.951 174.212 224.298 175.445C223.644 176.678 225.631 176.405 227.497 176.305C229.584 176.131 231.685 176.275 233.728 176.732C235.253 177.842 236.46 179.334 237.227 181.057C233.942 178.525 229.476 177.771 227.457 178.138C225.437 178.505 225.231 179.298 226.85 179.271C228.47 179.244 231.656 179.071 238.48 183.057C238.48 183.057 239.667 184.55 239.267 187.782C238.274 186.176 236.468 185.063 234.861 184.156C233.244 183.195 231.519 182.425 229.723 181.864C229.403 181.777 228.756 181.61 228.49 181.864C228.223 182.117 228.456 182.597 228.71 182.803C229.27 183.207 229.894 183.513 230.556 183.71C231.411 184.005 232.25 184.346 233.069 184.73C234.456 185.281 235.794 185.95 237.068 186.729C237.734 187.182 238.66 189.628 237.861 191.794C236.214 190.841 233.055 187.416 230.283 186.842C227.51 186.269 230.529 187.789 232.502 189.315C234.195 190.648 237.167 193.274 237.167 193.274C236.362 195.049 235.443 196.77 234.415 198.426C232.451 198.16 230.547 197.563 228.783 196.66C228.783 196.66 228.683 190.868 227.51 189.955C226.337 189.042 226.71 191.455 227.297 193.654C227.883 195.853 228.017 196.653 228.017 196.653C228.017 196.653 222.265 195.907 220.632 193.387C220.918 192.254 221.998 189.388 222.631 187.502C223.298 185.503 224.324 183.943 223.824 183.39C223.324 182.837 222.205 184.27 221.198 186.129C220.264 188.029 219.592 190.047 219.199 192.128C219.199 192.128 215.62 190.188 214.66 188.682C214.207 184.963 217.159 181.837 217.726 181.41C218.292 180.984 218.033 178.938 215.34 180.744C214.509 181.277 213.825 182.009 213.35 182.874C212.875 183.739 212.625 184.709 212.621 185.696C212.621 185.696 209.955 184.536 209.548 181.784C208.928 177.325 211.774 173.886 217.979 174.679Z" fill="white"/>
<path d="M206.388 170.093C208.914 169.6 212.54 170.093 214.472 172.092C216.405 174.092 216.605 176.598 216.112 177.904C215.619 179.211 214.859 175.985 212.853 174.492C210.847 172.999 209.927 173.159 211.64 174.738C213.353 176.318 215.639 179.244 215.999 181.143C216.359 183.043 214.666 185.236 214.079 185.102C213.493 184.969 214.079 182.996 213.106 180.257C212.133 177.518 210.187 175.752 208.727 175.365C207.268 174.978 207.648 175.445 209.634 177.551C211.62 179.657 213.986 183.976 213.16 186.095C212.333 188.215 210.254 188.981 209.687 188.808C209.121 188.635 210.42 185.976 209.241 182.616C208.061 179.257 205.695 176.938 204.488 177.718C203.282 178.497 204.235 179.404 205.488 181.897C206.741 184.389 208.454 189.408 207.948 191.048C207.441 192.687 204.448 193.873 203.982 193.38C203.515 192.887 204.815 190.088 203.982 186.549C203.149 183.01 201.616 181.67 201.523 183.136C201.429 184.603 203.622 191.447 203.082 192.634C202.542 193.82 197.084 195.813 197.084 195.813C197.084 195.813 194.104 192.347 193.905 191.287C193.705 190.228 196.104 185.829 197.464 184.556C198.823 183.283 197.064 183.223 195.971 184.096C194.878 184.969 192.485 188.182 192.338 189.808C190.845 188.202 189.506 186.155 190.725 184.763C191.945 183.37 195.657 180.99 197.857 180.097C200.056 179.204 201.623 176.998 198.69 177.678C195.757 178.358 190.739 181.25 189.919 183.35C189.499 181.503 189.799 176.298 192.998 175.352C196.197 174.405 199.576 174.512 200.576 174.132C201.576 173.752 200.25 172.906 197.804 172.859C195.358 172.812 192.112 173.079 190.912 174.712C190.912 172.679 191.112 170.626 194.851 170.46C198.59 170.293 200.25 171.793 200.849 171.326C201.449 170.859 198.443 169.433 196.257 169.387C196.857 168.575 197.683 167.959 198.632 167.615C199.58 167.272 200.609 167.215 201.589 167.454C203.432 167.792 205.116 168.718 206.388 170.093Z" fill="#F9B233"/>
<path d="M218.145 163.609C218.052 160.943 221.071 158.724 222.984 158.724C221.444 159.91 220.604 161.929 221.384 161.083C223.017 159.304 224.11 158.35 226.656 157.791C227.393 157.631 228.158 157.665 228.878 157.889C229.597 158.113 230.246 158.52 230.762 159.07C228.999 159.261 227.282 159.75 225.683 160.517C224.923 160.91 223.017 162.136 225.543 161.03C229.542 159.284 231.635 160.063 231.635 160.063C232.75 160.519 233.698 161.308 234.347 162.323C231.295 160.99 227.749 162.129 226.436 162.556C225.123 162.983 224.27 164.136 226.436 163.382C228.602 162.629 232.974 162.403 235.027 163.976C237.08 165.549 237.653 169.141 237.653 169.141C237.653 169.141 230.182 164.755 228.775 166.268C229.169 167.261 235.527 168.361 237.16 169.814C238.793 171.267 238.593 175.813 238.593 175.813C238.593 175.813 233.887 177.492 232.368 177.239C230.848 176.986 229.115 171.794 228.162 171.314C227.209 170.834 227.163 175.393 229.375 178.332C229.375 178.332 227.236 179.665 226.043 178.045C224.85 176.426 224.043 172.333 224.363 170.214C224.683 168.095 223.177 169.154 222.877 170.8C222.577 172.447 222.67 175.766 223.737 177.525C223.737 177.525 220.558 177.452 219.258 176.346C217.958 175.239 218.811 170.414 219.651 168.934C220.491 167.455 219.045 167.168 218.205 168.648C217.365 170.127 216.559 173.886 216.985 175.439C214.499 173.473 212.953 170.274 214.206 166.908C215.479 163.369 218.145 163.609 218.145 163.609Z" fill="#F9B233"/>
<path d="M26.1522 210.737C20.7761 205.182 17.6163 191.27 22.8576 186.83H49.5508C54.7921 191.232 51.6398 205.174 46.2638 210.73L46.1215 210.88L45.9343 211.067C45.7846 211.217 45.6198 211.359 45.4476 211.501L45.3203 211.606C45.1856 211.711 45.0583 211.816 44.9085 211.913C44.6888 212.077 44.4587 212.227 44.2197 212.362C39.7945 214.945 32.6214 214.945 28.1963 212.362C27.9539 212.225 27.719 212.075 27.4924 211.913C27.3577 211.816 27.2379 211.718 27.1181 211.621L26.9608 211.494C26.7886 211.359 26.6389 211.217 26.4891 211.074L26.272 210.865L26.1522 210.737Z" fill="#37474F"/>
<path d="M47.2372 185.068C53.3246 188.625 53.3246 194.391 47.2372 197.947C41.1498 201.504 31.2662 201.504 25.1788 197.947C19.0914 194.391 19.0914 188.625 25.1788 185.076C31.2662 181.527 41.1423 181.534 47.2372 185.068Z" fill="#455A64"/>
<path d="M44.3016 186.776C48.7941 189.389 48.7941 193.62 44.3016 196.233C39.809 198.846 32.5835 198.846 28.106 196.233C23.6284 193.62 23.6134 189.389 28.106 186.776C32.5985 184.163 39.8315 184.17 44.3016 186.776Z" fill="#263238"/>
<path d="M28.1063 191.268C32.5989 188.662 39.8319 188.662 44.3019 191.268C45.3871 191.862 46.3081 192.716 46.9825 193.754C46.3081 194.791 45.3871 195.645 44.3019 196.239C39.8094 198.853 32.5839 198.853 28.1063 196.239C27.0211 195.645 26.1002 194.791 25.4258 193.754C26.1002 192.716 27.0211 191.862 28.1063 191.268Z" fill="#FAFAFA"/>
<path d="M34.41 155.672C32.3659 157.918 26.6754 158.502 24.3243 152.512C22.078 146.896 19.7344 141.573 19.083 139.506C18.9872 139.237 18.9467 138.951 18.9638 138.666C18.9808 138.381 19.0552 138.102 19.1824 137.846C19.3096 137.591 19.487 137.363 19.704 137.177C19.9211 136.992 20.1733 136.852 20.4457 136.766C20.4457 136.766 20.603 133.681 25.8368 135.77C31.0706 137.859 34.7545 141.011 37.0681 146.17C39.3818 151.329 37.9067 154.983 34.41 155.672Z" fill="#F9B233"/>
<path opacity="0.45" d="M34.41 155.672C32.3659 157.918 26.6754 158.502 24.3243 152.512C22.078 146.896 19.7344 141.573 19.083 139.506C18.9872 139.237 18.9467 138.951 18.9638 138.666C18.9808 138.381 19.0552 138.102 19.1824 137.846C19.3096 137.591 19.487 137.363 19.704 137.177C19.9211 136.992 20.1733 136.852 20.4457 136.766C20.4457 136.766 20.603 133.681 25.8368 135.77C31.0706 137.859 34.7545 141.011 37.0681 146.17C39.3818 151.329 37.9067 154.983 34.41 155.672Z" fill="white"/>
<path d="M36.6716 163.564C36.5823 162.516 36.4323 161.473 36.2224 160.442C35.7874 158.394 35.2069 156.38 34.4852 154.414C33.0158 150.413 30.9755 146.645 28.4278 143.228C27.0131 141.281 25.4187 139.471 23.6657 137.822C23.6058 137.777 23.5684 137.897 23.6058 137.934C26.5522 141.017 29.0706 144.483 31.0934 148.237C33.0335 151.929 34.4833 155.858 35.4062 159.925C35.6683 161.063 35.9079 162.209 36.155 163.355C36.4021 164.5 36.4919 165.698 36.6866 166.866C36.6866 166.986 36.8888 167.053 36.8962 166.866C36.9061 165.761 36.831 164.657 36.6716 163.564Z" fill="#F9B233"/>
<path opacity="0.3" d="M36.6716 163.564C36.5823 162.516 36.4323 161.473 36.2224 160.442C35.7874 158.394 35.2069 156.38 34.4852 154.414C33.0158 150.413 30.9755 146.645 28.4278 143.228C27.0131 141.281 25.4187 139.471 23.6657 137.822C23.6058 137.777 23.5684 137.897 23.6058 137.934C26.5522 141.017 29.0706 144.483 31.0934 148.237C33.0335 151.929 34.4833 155.858 35.4062 159.925C35.6683 161.063 35.9079 162.209 36.155 163.355C36.4021 164.5 36.4919 165.698 36.6866 166.866C36.6866 166.986 36.8888 167.053 36.8962 166.866C36.9061 165.761 36.831 164.657 36.6716 163.564Z" fill="black"/>
<path d="M38.4233 154.123C33.7211 155.575 30.2319 151.876 31.4449 146.156C32.6579 140.435 38.6929 134.026 40.9691 135.741C42.3917 134.318 45.5365 134.827 47.0116 139.484C48.4866 144.142 47.1463 156.159 38.4233 154.123Z" fill="#F9B233"/>
<path opacity="0.25" d="M38.4233 154.123C33.7211 155.575 30.2319 151.876 31.4449 146.156C32.6579 140.435 38.6929 134.026 40.9691 135.741C42.3917 134.318 45.5365 134.827 47.0116 139.484C48.4866 144.142 47.1463 156.159 38.4233 154.123Z" fill="white"/>
<path d="M41.1795 139.238C39.8438 142.587 38.7991 146.044 38.0572 149.571C37.2545 153.14 36.6446 156.749 36.2302 160.383C35.4768 167.423 35.1642 174.502 35.2943 181.581C35.2943 183.542 35.3317 185.497 35.3692 187.451C35.4066 189.405 35.3692 191.502 35.5489 193.508C35.6163 194.257 36.7094 194.07 36.7244 193.366C36.7918 189.847 36.5971 186.305 36.5597 182.786C36.5222 179.267 36.5597 175.823 36.6271 172.341C36.7471 165.246 37.3827 158.169 38.5289 151.166C38.8659 149.219 39.2327 147.273 39.6895 145.348C40.1462 143.424 40.7527 141.327 41.2843 139.321C41.3143 139.238 41.2244 139.134 41.1795 139.238Z" fill="#F9B233"/>
<path opacity="0.3" d="M41.1795 139.238C39.8438 142.587 38.7991 146.044 38.0572 149.571C37.2545 153.14 36.6446 156.749 36.2302 160.383C35.4768 167.423 35.1642 174.502 35.2943 181.581C35.2943 183.542 35.3317 185.497 35.3692 187.451C35.4066 189.405 35.3692 191.502 35.5489 193.508C35.6163 194.257 36.7094 194.07 36.7244 193.366C36.7918 189.847 36.5971 186.305 36.5597 182.786C36.5222 179.267 36.5597 175.823 36.6271 172.341C36.7471 165.246 37.3827 158.169 38.5289 151.166C38.8659 149.219 39.2327 147.273 39.6895 145.348C40.1462 143.424 40.7527 141.327 41.2843 139.321C41.3143 139.238 41.2244 139.134 41.1795 139.238Z" fill="black"/>
<path d="M30.7783 170.982C28.7267 173.303 24.0395 173.094 20.8647 168.953C17.69 164.812 15.8181 149.216 20.2583 150.234C21.2017 148.152 33.4663 153.147 35.0387 163.322C36.1843 170.698 30.7783 170.982 30.7783 170.982Z" fill="#F9B233"/>
<path opacity="0.25" d="M30.7783 170.982C28.7267 173.303 24.0395 173.094 20.8647 168.953C17.69 164.812 15.8181 149.216 20.2583 150.234C21.2017 148.152 33.4663 153.147 35.0387 163.322C36.1843 170.698 30.7783 170.982 30.7783 170.982Z" fill="white"/>
<path d="M34.4478 178.344C34.3091 177.385 34.1065 176.437 33.8414 175.506C33.3422 173.599 32.7332 171.72 32.0144 169.868C30.5592 166.103 28.7227 162.498 26.5335 159.108C25.3556 157.196 24.0577 155.36 22.6474 153.612C22.6474 153.567 22.5726 153.672 22.595 153.709C23.6882 155.304 24.7964 156.884 25.7847 158.554C26.8008 160.288 27.7279 162.072 28.5626 163.9C30.1916 167.406 31.5459 171.034 32.6134 174.749C32.9129 175.805 33.16 176.876 33.467 177.932C33.774 178.987 34.2157 180.096 34.4778 181.196C34.5152 181.361 34.7249 181.421 34.7024 181.196C34.6051 180.253 34.5751 179.287 34.4478 178.344Z" fill="#F9B233"/>
<path opacity="0.3" d="M34.4478 178.344C34.3091 177.385 34.1065 176.437 33.8414 175.506C33.3422 173.599 32.7332 171.72 32.0144 169.868C30.5592 166.103 28.7227 162.498 26.5335 159.108C25.3556 157.196 24.0577 155.36 22.6474 153.612C22.6474 153.567 22.5726 153.672 22.595 153.709C23.6882 155.304 24.7964 156.884 25.7847 158.554C26.8008 160.288 27.7279 162.072 28.5626 163.9C30.1916 167.406 31.5459 171.034 32.6134 174.749C32.9129 175.805 33.16 176.876 33.467 177.932C33.774 178.987 34.2157 180.096 34.4778 181.196C34.5152 181.361 34.7249 181.421 34.7024 181.196C34.6051 180.253 34.5751 179.287 34.4478 178.344Z" fill="black"/>
<path d="M38.2897 168.677C35.6016 168.063 35.4669 164.843 38.8213 160.883C42.1757 156.922 50.6367 155.199 51.0335 156.869C52.9129 156.869 52.9129 162.754 48.7872 168.16C44.6616 173.567 38.5368 172.309 38.2897 168.677Z" fill="#F9B233"/>
<path opacity="0.25" d="M38.2897 168.677C35.6016 168.063 35.4669 164.843 38.8213 160.883C42.1757 156.922 50.6367 155.199 51.0335 156.869C52.9129 156.869 52.9129 162.754 48.7872 168.16C44.6616 173.567 38.5368 172.309 38.2897 168.677Z" fill="white"/>
<path d="M43.545 162.922C39.9974 165.401 37.2869 168.9 35.7729 172.955C35.6905 173.187 36.0874 173.524 36.1772 173.27C37.7006 169.256 40.2454 165.71 43.56 162.982C43.56 162.982 43.5824 162.899 43.545 162.922Z" fill="#F9B233"/>
<path opacity="0.3" d="M43.545 162.922C39.9974 165.401 37.2869 168.9 35.7729 172.955C35.6905 173.187 36.0874 173.524 36.1772 173.27C37.7006 169.256 40.2454 165.71 43.56 162.982C43.56 162.982 43.5824 162.899 43.545 162.922Z" fill="black"/>
<path d="M41.3515 188.318C37.6077 189.815 39.2325 194.248 42.849 197.617C45.9905 200.346 50.0403 201.8 54.2002 201.691C56.6935 201.511 57.33 201.166 57.33 201.166C57.5548 199.121 57.5548 197.057 57.33 195.012C56.9277 192.763 55.8873 190.677 54.3327 189.003C52.7781 187.329 50.775 186.137 48.562 185.57C42.7442 184.005 41.3515 186.101 41.3515 188.318Z" fill="#F9B233"/>
<path opacity="0.45" d="M41.3515 188.318C37.6077 189.815 39.2325 194.248 42.849 197.617C45.9905 200.346 50.0403 201.8 54.2002 201.691C56.6935 201.511 57.33 201.166 57.33 201.166C57.5548 199.121 57.5548 197.057 57.33 195.012C56.9277 192.763 55.8873 190.677 54.3327 189.003C52.7781 187.329 50.775 186.137 48.562 185.57C42.7442 184.005 41.3515 186.101 41.3515 188.318Z" fill="white"/>
<path d="M51.6475 194.855C49.9839 192.87 48.0712 191.109 45.9569 189.613C43.8379 188.221 41.0151 187.03 38.4693 187.899C37.481 188.236 35.9535 189.217 36.1407 190.43C36.1407 190.557 36.3728 190.856 36.5151 190.684C36.9087 190.122 37.3577 189.6 37.8554 189.127C38.4403 188.698 39.132 188.439 39.8545 188.378C41.6803 188.244 43.5047 188.656 45.0958 189.561C47.6117 190.894 49.6408 192.96 51.64 194.945C51.64 194.937 51.6624 194.877 51.6475 194.855Z" fill="#F9B233"/>
<path opacity="0.3" d="M51.6475 194.855C49.9839 192.87 48.0712 191.109 45.9569 189.613C43.8379 188.221 41.0151 187.03 38.4693 187.899C37.481 188.236 35.9535 189.217 36.1407 190.43C36.1407 190.557 36.3728 190.856 36.5151 190.684C36.9087 190.122 37.3577 189.6 37.8554 189.127C38.4403 188.698 39.132 188.439 39.8545 188.378C41.6803 188.244 43.5047 188.656 45.0958 189.561C47.6117 190.894 49.6408 192.96 51.64 194.945C51.64 194.937 51.6624 194.877 51.6475 194.855Z" fill="black"/>
<path d="M27.1927 169.278C27.5521 167.585 25.1037 163.527 17.4588 162.756C9.81404 161.985 4.14595 165.212 2.99286 166.687C1.83978 168.162 1.26324 169.719 2.64095 170.109C4.01866 170.498 8.78824 170.955 11.918 172.4C15.0479 173.845 21.4048 178.091 25.7476 176.825C30.0904 175.56 29.3566 170.962 27.1927 169.278Z" fill="#F9B233"/>
<path opacity="0.45" d="M27.1927 169.278C27.5521 167.585 25.1037 163.527 17.4588 162.756C9.81404 161.985 4.14595 165.212 2.99286 166.687C1.83978 168.162 1.26324 169.719 2.64095 170.109C4.01866 170.498 8.78824 170.955 11.918 172.4C15.0479 173.845 21.4048 178.091 25.7476 176.825C30.0904 175.56 29.3566 170.962 27.1927 169.278Z" fill="white"/>
<path d="M32.9876 175.177C29.7755 168.536 21.4867 166.514 14.718 166.551C12.4871 166.558 10.2659 166.845 8.10645 167.405C8.10645 167.405 8.10645 167.487 8.10645 167.48C11.7569 166.865 15.4816 166.829 19.1431 167.375C22.7645 167.847 26.2202 169.18 29.2214 171.261C30.6831 172.353 31.9104 173.728 32.8304 175.304C32.9352 175.469 33.055 175.312 32.9876 175.177Z" fill="#F9B233"/>
<path opacity="0.3" d="M32.9876 175.177C29.7755 168.536 21.4867 166.514 14.718 166.551C12.4871 166.558 10.2659 166.845 8.10645 167.405C8.10645 167.405 8.10645 167.487 8.10645 167.48C11.7569 166.865 15.4816 166.829 19.1431 167.375C22.7645 167.847 26.2202 169.18 29.2214 171.261C30.6831 172.353 31.9104 173.728 32.8304 175.304C32.9352 175.469 33.055 175.312 32.9876 175.177Z" fill="black"/>
<path d="M44.9601 160.381C44.8553 163.046 48.6141 164.596 52.2455 162.29C55.877 159.984 59.6807 157.737 63.0426 156.869C66.4045 156 68.0069 153.252 66.9436 151.927C65.8804 150.602 64.1882 147.247 55.3454 148.341C46.5026 149.434 43.3653 153.425 42.1523 156.232C40.9393 159.04 43.6274 161.144 44.9601 160.381Z" fill="#F9B233"/>
<path opacity="0.45" d="M44.9601 160.381C44.8553 163.046 48.6141 164.596 52.2455 162.29C55.877 159.984 59.6807 157.737 63.0426 156.869C66.4045 156 68.0069 153.252 66.9436 151.927C65.8804 150.602 64.1882 147.247 55.3454 148.341C46.5026 149.434 43.3653 153.425 42.1523 156.232C40.9393 159.04 43.6274 161.144 44.9601 160.381Z" fill="white"/>
<path d="M59.3514 151.912C58.0741 151.792 56.7857 151.929 55.5627 152.316C54.446 152.602 53.3581 152.99 52.3131 153.477C50.2295 154.446 48.3511 155.806 46.7797 157.483C46.3312 157.954 45.9135 158.455 45.5293 158.98C45.1427 159.463 44.8252 159.997 44.5859 160.567C44.526 160.747 44.7881 161.032 44.9378 160.852C45.3796 160.35 45.6866 159.729 46.1134 159.197C46.5579 158.628 47.0355 158.086 47.5435 157.572C48.5643 156.54 49.7086 155.637 50.9503 154.884C52.1347 154.149 53.3887 153.532 54.6941 153.042C55.4429 152.78 56.1916 152.571 56.8955 152.384C57.6758 152.143 58.4902 152.032 59.3065 152.054C59.3065 152.054 59.3963 151.919 59.3514 151.912Z" fill="#F9B233"/>
<path opacity="0.3" d="M59.3514 151.912C58.0741 151.792 56.7857 151.929 55.5627 152.316C54.446 152.602 53.3581 152.99 52.3131 153.477C50.2295 154.446 48.3511 155.806 46.7797 157.483C46.3312 157.954 45.9135 158.455 45.5293 158.98C45.1427 159.463 44.8252 159.997 44.5859 160.567C44.526 160.747 44.7881 161.032 44.9378 160.852C45.3796 160.35 45.6866 159.729 46.1134 159.197C46.5579 158.628 47.0355 158.086 47.5435 157.572C48.5643 156.54 49.7086 155.637 50.9503 154.884C52.1347 154.149 53.3887 153.532 54.6941 153.042C55.4429 152.78 56.1916 152.571 56.8955 152.384C57.6758 152.143 58.4902 152.032 59.3065 152.054C59.3065 152.054 59.3963 151.919 59.3514 151.912Z" fill="black"/>
<path d="M38.6113 174.795C37.3683 173.552 34.0064 173.844 32.4116 177.505C30.8167 181.167 34.1636 185.18 34.538 186.303C36.0355 185.42 37.271 185.944 39.974 185.42C41.4817 185.064 42.8208 184.2 43.7658 182.972C44.7109 181.745 45.2043 180.229 45.1629 178.681C44.9832 175.304 43.568 173.088 38.6113 174.795Z" fill="#F9B233"/>
<path opacity="0.45" d="M38.6113 174.795C37.3683 173.552 34.0064 173.844 32.4116 177.505C30.8167 181.167 34.1636 185.18 34.538 186.303C36.0355 185.42 37.271 185.944 39.974 185.42C41.4817 185.064 42.8208 184.2 43.7658 182.972C44.7109 181.745 45.2043 180.229 45.1629 178.681C44.9832 175.304 43.568 173.088 38.6113 174.795Z" fill="white"/>
<path d="M38.5662 174.407C37.89 174.834 37.3253 175.417 36.9189 176.106C36.4811 176.743 36.1239 177.433 35.8557 178.158C35.2771 179.641 35.1165 181.254 35.3915 182.823C35.3915 182.882 35.4514 182.823 35.4439 182.823C35.3116 181.247 35.5687 179.663 36.1927 178.21C36.5006 177.528 36.8876 176.885 37.3457 176.293C37.577 175.991 37.8271 175.703 38.0945 175.432C38.3553 175.22 38.5937 174.982 38.8058 174.721C38.8957 174.616 38.7534 174.309 38.5662 174.407Z" fill="#F9B233"/>
<path opacity="0.3" d="M38.5662 174.407C37.89 174.834 37.3253 175.417 36.9189 176.106C36.4811 176.743 36.1239 177.433 35.8557 178.158C35.2771 179.641 35.1165 181.254 35.3915 182.823C35.3915 182.882 35.4514 182.823 35.4439 182.823C35.3116 181.247 35.5687 179.663 36.1927 178.21C36.5006 177.528 36.8876 176.885 37.3457 176.293C37.577 175.991 37.8271 175.703 38.0945 175.432C38.3553 175.22 38.5937 174.982 38.8058 174.721C38.8957 174.616 38.7534 174.309 38.5662 174.407Z" fill="black"/>
<path d="M32.7778 182.194C32.658 179.468 29.7079 177.312 25.4999 176.062C23.4353 175.414 21.2294 175.364 19.138 175.92C17.0467 176.475 15.1557 177.612 13.6845 179.199C10.6146 182.538 9.02722 185.376 10.2776 186.17C11.5281 186.963 17.0913 189.015 20.7602 190.153C24.4291 191.291 29.1688 191.651 32.8077 189.472C36.4467 187.293 36.1846 183.557 32.7778 182.194Z" fill="#F9B233"/>
<path opacity="0.25" d="M32.7778 182.194C32.658 179.468 29.7079 177.312 25.4999 176.062C23.4353 175.414 21.2294 175.364 19.138 175.92C17.0467 176.475 15.1557 177.612 13.6845 179.199C10.6146 182.538 9.02722 185.376 10.2776 186.17C11.5281 186.963 17.0913 189.015 20.7602 190.153C24.4291 191.291 29.1688 191.651 32.8077 189.472C36.4467 187.293 36.1846 183.557 32.7778 182.194Z" fill="white"/>
<path d="M33.0104 181.886C31.5874 181.171 30.0329 180.755 28.4429 180.665C26.9203 180.52 25.3864 180.541 23.868 180.725C22.2627 180.921 20.677 181.255 19.1284 181.721C18.3197 181.961 17.5111 182.23 16.7249 182.522C15.9661 182.766 15.2276 183.069 14.5161 183.428C14.5161 183.428 14.4711 183.533 14.5161 183.518C15.2648 183.361 16.0136 183.061 16.7623 182.829C17.5111 182.597 18.3946 182.335 19.2108 182.125C20.7442 181.716 22.3059 181.42 23.883 181.242C25.4603 181.062 27.0529 181.062 28.6301 181.242C30.1003 181.474 31.5499 181.822 32.9654 182.283C33.235 182.395 33.1751 181.983 33.0104 181.886Z" fill="#F9B233"/>
<path opacity="0.3" d="M33.0104 181.886C31.5874 181.171 30.0329 180.755 28.4429 180.665C26.9203 180.52 25.3864 180.541 23.868 180.725C22.2627 180.921 20.677 181.255 19.1284 181.721C18.3197 181.961 17.5111 182.23 16.7249 182.522C15.9661 182.766 15.2276 183.069 14.5161 183.428C14.5161 183.428 14.4711 183.533 14.5161 183.518C15.2648 183.361 16.0136 183.061 16.7623 182.829C17.5111 182.597 18.3946 182.335 19.2108 182.125C20.7442 181.716 22.3059 181.42 23.883 181.242C25.4603 181.062 27.0529 181.062 28.6301 181.242C30.1003 181.474 31.5499 181.822 32.9654 182.283C33.235 182.395 33.1751 181.983 33.0104 181.886Z" fill="black"/>
<path d="M41.4712 178.136C38.4761 175.747 39.472 170.019 49.9845 169.712C60.4971 169.405 67.9996 172.153 67.6777 175.545C69.3699 177.237 68.5088 181.977 59.9954 183.46C51.4821 184.942 39.2773 184.193 41.4712 178.136Z" fill="#F9B233"/>
<path opacity="0.25" d="M41.4712 178.136C38.4761 175.747 39.472 170.019 49.9845 169.712C60.4971 169.405 67.9996 172.153 67.6777 175.545C69.3699 177.237 68.5088 181.977 59.9954 183.46C51.4821 184.942 39.2773 184.193 41.4712 178.136Z" fill="white"/>
<path d="M62.714 175.544C59.6094 175.034 56.4602 174.849 53.3171 174.99C50.3971 174.975 47.4859 175.312 44.6465 175.994C43.9181 176.192 43.209 176.455 42.5275 176.78C42.2113 176.927 41.9038 177.092 41.6066 177.274C41.367 177.416 41.0974 177.544 41.0151 177.821C41.0064 177.865 41.0084 177.91 41.0208 177.954C41.0331 177.997 41.0556 178.037 41.0863 178.069C41.117 178.102 41.155 178.127 41.1973 178.143C41.2396 178.158 41.2849 178.163 41.3295 178.158C41.9674 177.909 42.5814 177.603 43.164 177.244C43.7586 176.984 44.3687 176.762 44.991 176.578C46.1869 176.231 47.4088 175.98 48.6449 175.829C51.5879 175.465 54.5524 175.302 57.5177 175.342C59.2473 175.342 60.9694 175.5 62.6916 175.634C62.744 175.694 62.7664 175.582 62.714 175.544Z" fill="#F9B233"/>
<path opacity="0.3" d="M62.714 175.544C59.6094 175.034 56.4602 174.849 53.3171 174.99C50.3971 174.975 47.4859 175.312 44.6465 175.994C43.9181 176.192 43.209 176.455 42.5275 176.78C42.2113 176.927 41.9038 177.092 41.6066 177.274C41.367 177.416 41.0974 177.544 41.0151 177.821C41.0064 177.865 41.0084 177.91 41.0208 177.954C41.0331 177.997 41.0556 178.037 41.0863 178.069C41.117 178.102 41.155 178.127 41.1973 178.143C41.2396 178.158 41.2849 178.163 41.3295 178.158C41.9674 177.909 42.5814 177.603 43.164 177.244C43.7586 176.984 44.3687 176.762 44.991 176.578C46.1869 176.231 47.4088 175.98 48.6449 175.829C51.5879 175.465 54.5524 175.302 57.5177 175.342C59.2473 175.342 60.9694 175.5 62.6916 175.634C62.744 175.694 62.7664 175.582 62.714 175.544Z" fill="black"/>
<path d="M88.196 189.197L176.709 240.515C177.684 241.078 177.684 241.995 176.709 242.558L163.706 250.087C163.16 250.365 162.556 250.509 161.944 250.509C161.332 250.509 160.728 250.365 160.182 250.087L71.6691 198.757C70.6936 198.194 70.6936 197.276 71.6691 196.713L84.6716 189.184C85.219 188.909 85.8232 188.766 86.4353 188.769C87.0475 188.771 87.6506 188.918 88.196 189.197Z" fill="#EBEBEB"/>
<path d="M159.821 224.147L96.8783 187.809C95.7277 187.059 94.7704 186.048 94.084 184.858C93.3975 183.669 93.0014 182.334 92.9279 180.963V24.4282L93.2356 24.6104C105.382 31.657 148.064 56.2074 155.814 60.7294C156.254 60.9829 156.661 61.2887 157.026 61.6401C158.683 63.1965 159.677 65.3307 159.802 67.6002L159.821 224.147ZM172.012 53.2116C171.913 51.3962 171.388 49.6295 170.479 48.0549C169.57 46.4804 168.303 45.1422 166.78 44.1489L92.796 1.44167C89.9007 -0.222657 86.5532 0.487036 84.5183 1.66149C82.4834 2.83593 80.1973 4.10459 80.1973 8.71446V189.228C80.1784 190.596 80.4192 191.956 80.907 193.235C81.7782 195.4 83.3804 197.191 85.4352 198.297L159.419 241.004C162.308 242.669 165.857 241.387 167.892 240.213C169.927 239.038 172.018 237.073 172.018 233.731L172.012 53.2116Z" fill="#F9B233"/>
<path d="M172.011 53.2119V233.738C172.011 237.073 169.914 239.045 167.885 240.219C165.856 241.394 162.302 242.675 159.413 241.011L85.4286 198.304C83.3738 197.198 81.7715 195.406 80.9004 193.241L81.1956 193.078L82.0058 192.607C82.6982 194.412 83.9449 195.951 85.5668 197.003L157.792 238.706C160.895 240.496 163.445 239.032 163.445 235.453V56.3522C163.397 55.0772 163.027 53.835 162.371 52.7409L170.485 48.0557C171.425 49.6161 171.951 51.3911 172.011 53.2119Z" fill="#F9B233"/>
<path opacity="0.4" d="M172.011 53.2119V233.738C172.011 237.073 169.914 239.045 167.885 240.219C165.856 241.394 162.302 242.675 159.413 241.011L85.4286 198.304C83.3738 197.198 81.7715 195.406 80.9004 193.241L81.1956 193.078L82.0058 192.607C82.6982 194.412 83.9449 195.951 85.5668 197.003L157.792 238.706C160.895 240.496 163.445 239.032 163.445 235.453V56.3522C163.397 55.0772 163.027 53.835 162.371 52.7409L170.485 48.0557C171.425 49.6161 171.951 51.3911 172.011 53.2119Z" fill="black"/>
<path d="M159.821 224.147L96.878 187.808C95.7275 187.058 94.7701 186.047 94.0837 184.858C93.3973 183.668 93.0012 182.333 92.9276 180.962V24.4274L93.2353 24.6095C105.382 31.6562 148.064 56.2066 155.814 60.7286C156.253 60.9821 156.66 61.2879 157.026 61.6392C158.683 63.1957 159.677 65.3299 159.802 67.5994L159.821 224.147ZM163.451 56.3511C163.381 55.0774 163.012 53.8382 162.374 52.7339C161.736 51.6296 160.846 50.6913 159.777 49.9952L85.5731 7.15609C83.2808 5.83091 81.4092 6.91743 81.4092 9.56151V189.774C81.4373 190.747 81.6505 191.706 82.0372 192.6C82.7297 194.405 83.9764 195.944 85.5983 196.996L157.824 238.698C160.926 240.488 163.476 239.025 163.476 235.445L163.451 56.3511Z" fill="#F9B233"/>
<path opacity="0.2" d="M159.821 224.147L96.878 187.808C95.7275 187.058 94.7701 186.047 94.0837 184.858C93.3973 183.668 93.0012 182.333 92.9276 180.962V24.4274L93.2353 24.6095C105.382 31.6562 148.064 56.2066 155.814 60.7286C156.253 60.9821 156.66 61.2879 157.026 61.6392C158.683 63.1957 159.677 65.3299 159.802 67.5994L159.821 224.147ZM163.451 56.3511C163.381 55.0774 163.012 53.8382 162.374 52.7339C161.736 51.6296 160.846 50.6913 159.777 49.9952L85.5731 7.15609C83.2808 5.83091 81.4092 6.91743 81.4092 9.56151V189.774C81.4373 190.747 81.6505 191.706 82.0372 192.6C82.7297 194.405 83.9764 195.944 85.5983 196.996L157.824 238.698C160.926 240.488 163.476 239.025 163.476 235.445L163.451 56.3511Z" fill="black"/>
<path d="M165.862 73.8919C165.888 73.198 166.077 72.52 166.413 71.9124C166.749 71.3048 167.223 70.7845 167.797 70.3936C167.985 70.2536 168.21 70.1694 168.444 70.1505C168.678 70.1317 168.913 70.1789 169.122 70.2869C169.367 70.4313 170.321 70.9652 170.573 71.1159C170.789 71.2695 170.961 71.4776 171.072 71.7191C171.182 71.9607 171.226 72.227 171.201 72.4913V96.7339C171.178 97.4284 170.99 98.1076 170.654 98.7156C170.318 99.3237 169.842 99.8434 169.266 100.232C169.085 100.359 168.876 100.438 168.656 100.462C168.436 100.487 168.214 100.455 168.01 100.37C167.74 100.226 166.754 99.6606 166.515 99.5099C166.3 99.3568 166.128 99.1497 166.018 98.9094C165.908 98.6691 165.863 98.404 165.887 98.1408L165.862 73.8919Z" fill="#F9B233"/>
<path opacity="0.2" d="M165.862 73.8919C165.888 73.198 166.077 72.52 166.413 71.9124C166.749 71.3048 167.223 70.7845 167.797 70.3936C167.985 70.2536 168.21 70.1694 168.444 70.1505C168.678 70.1317 168.913 70.1789 169.122 70.2869C169.367 70.4313 170.321 70.9652 170.573 71.1159C170.789 71.2695 170.961 71.4776 171.072 71.7191C171.182 71.9607 171.226 72.227 171.201 72.4913V96.7339C171.178 97.4284 170.99 98.1076 170.654 98.7156C170.318 99.3237 169.842 99.8434 169.266 100.232C169.085 100.359 168.876 100.438 168.656 100.462C168.436 100.487 168.214 100.455 168.01 100.37C167.74 100.226 166.754 99.6606 166.515 99.5099C166.3 99.3568 166.128 99.1497 166.018 98.9094C165.908 98.6691 165.863 98.404 165.887 98.1408L165.862 73.8919Z" fill="black"/>
<path d="M167.308 74.7226V98.9716C167.308 100.284 168.174 100.856 169.242 100.228C169.818 99.8389 170.294 99.3192 170.63 98.7111C170.966 98.103 171.153 97.4239 171.176 96.7294V72.4868C171.176 71.1679 170.316 70.6026 169.242 71.2307C168.669 71.6206 168.195 72.1398 167.859 72.7463C167.523 73.3528 167.334 74.0298 167.308 74.7226Z" fill="#F9B233"/>
<path opacity="0.35" d="M167.308 74.7226V98.9716C167.308 100.284 168.174 100.856 169.242 100.228C169.818 99.8389 170.294 99.3192 170.63 98.7111C170.966 98.103 171.153 97.4239 171.176 96.7294V72.4868C171.176 71.1679 170.316 70.6026 169.242 71.2307C168.669 71.6206 168.195 72.1398 167.859 72.7463C167.523 73.3528 167.334 74.0298 167.308 74.7226Z" fill="black"/>
<path d="M114.752 29.4585C114.074 29.0754 113.496 29.3894 113.496 30.1682C113.522 30.5954 113.65 31.0102 113.868 31.3783C114.087 31.7463 114.39 32.0571 114.752 32.2847C115.424 32.6804 115.971 32.3601 115.971 31.5813C115.947 31.157 115.825 30.744 115.613 30.3754C115.402 30.0069 115.107 29.6929 114.752 29.4585ZM129.963 38.7159L119.915 32.9128C119.324 32.5736 118.835 32.8186 118.835 33.4654C118.861 33.8294 118.973 34.182 119.161 34.495C119.348 34.808 119.606 35.0727 119.915 35.2679L129.963 41.0711C130.554 41.4228 131.044 41.1716 131.044 40.5247C131.016 40.1603 130.903 39.8073 130.716 39.4935C130.528 39.1797 130.271 38.9136 129.963 38.7159Z" fill="#F9B233"/>
<path opacity="0.6" d="M114.752 29.4585C114.074 29.0754 113.496 29.3894 113.496 30.1682C113.522 30.5954 113.65 31.0102 113.868 31.3783C114.087 31.7463 114.39 32.0571 114.752 32.2847C115.424 32.6804 115.971 32.3601 115.971 31.5813C115.947 31.157 115.825 30.744 115.613 30.3754C115.402 30.0069 115.107 29.6929 114.752 29.4585ZM129.963 38.7159L119.915 32.9128C119.324 32.5736 118.835 32.8186 118.835 33.4654C118.861 33.8294 118.973 34.182 119.161 34.495C119.348 34.808 119.606 35.0727 119.915 35.2679L129.963 41.0711C130.554 41.4228 131.044 41.1716 131.044 40.5247C131.016 40.1603 130.903 39.8073 130.716 39.4935C130.528 39.1797 130.271 38.9136 129.963 38.7159Z" fill="black"/>
<path opacity="0.4" d="M159.821 224.147V228.725C159.821 231.238 158.05 232.274 155.871 231.005L88.9772 192.368C87.825 191.618 86.8662 190.606 86.1787 189.415C85.4911 188.225 85.0943 186.889 85.0205 185.516V25.6274C85.0205 22.4432 87.2752 21.1494 90.0449 22.7384L91.2256 23.4229L91.6401 23.6616L92.2368 24.007L92.7392 24.3022C92.7991 24.3428 92.8621 24.3785 92.9276 24.409V180.962C93.0012 182.334 93.3973 183.668 94.0837 184.858C94.7701 186.047 95.7275 187.058 96.8781 187.808L159.821 224.147Z" fill="black"/>
<path opacity="0.6" d="M93.399 189.999C92.2886 189.277 91.3645 188.303 90.702 187.156C90.0395 186.009 89.6574 184.721 89.5867 183.399V23.4913C89.5873 23.1756 89.6146 22.8604 89.6684 22.5493C89.4909 22.4612 89.3085 22.3836 89.1219 22.3169C89.0443 22.7035 89.0064 23.097 89.0089 23.4913V183.399C89.0868 184.819 89.4988 186.201 90.2114 187.432C90.9241 188.663 91.9172 189.708 93.1101 190.483L159.809 229.001C159.809 228.907 159.809 228.813 159.809 228.712V228.342L93.399 189.999Z" fill="#F9B233"/>
<path opacity="0.2" d="M93.399 189.999C92.2886 189.277 91.3645 188.303 90.702 187.156C90.0395 186.009 89.6574 184.721 89.5867 183.399V23.4913C89.5873 23.1756 89.6146 22.8604 89.6684 22.5493C89.4909 22.4612 89.3085 22.3836 89.1219 22.3169C89.0443 22.7035 89.0064 23.097 89.0089 23.4913V183.399C89.0868 184.819 89.4988 186.201 90.2114 187.432C90.9241 188.663 91.9172 189.708 93.1101 190.483L159.809 229.001C159.809 228.907 159.809 228.813 159.809 228.712V228.342L93.399 189.999Z" fill="white"/>
<path d="M126.729 150.64L155.173 134.204V113.994L155.769 113.648V105.264L126.729 122.033V150.64Z" fill="#F9B233"/>
<g opacity="0.45">
<path d="M126.729 150.64L155.173 134.204V113.994L155.769 113.648V105.264L126.729 122.033V150.64Z" fill="white"/>
</g>
<path opacity="0.15" d="M126.729 130.418L137.619 124.131L155.173 113.995V115.2L126.729 131.618V130.418Z" fill="black"/>
<path d="M126.728 150.64L98.4474 134.323V114.081L97.6875 113.648V105.264L126.728 122.033V150.64Z" fill="#F9B233"/>
<path opacity="0.3" d="M126.728 150.64L98.4474 134.323V114.081L97.6875 113.648V105.264L126.728 122.033V150.64Z" fill="white"/>
<path opacity="0.1" d="M98.4414 114.082L126.729 130.418V131.617L98.4414 115.3V114.082Z" fill="black"/>
<path d="M97.6875 105.265L126.728 88.5024L155.769 105.265L126.728 122.034L97.6875 105.265Z" fill="#F9B233"/>
<g opacity="0.6">
<path d="M97.6875 105.265L126.728 88.5024L155.769 105.265L126.728 122.034L97.6875 105.265Z" fill="white"/>
</g>
<path d="M114.934 143.84V115.219L110.218 112.5V141.114L114.934 143.84Z" fill="#EBEBEB"/>
<path d="M114.934 143.84V115.219L110.218 112.5V141.114L114.934 143.84Z" fill="#F9B233"/>
<path opacity="0.4" d="M114.934 143.84V115.219L110.218 112.5V141.114L114.934 143.84Z" fill="black"/>
<path d="M138.523 143.84V115.219L143.24 112.5V141.114L138.523 143.84Z" fill="#F9B233"/>
<path opacity="0.15" d="M138.523 143.84V115.219L143.24 112.5V141.114L138.523 143.84Z" fill="black"/>
<path d="M110.218 112.5L139.259 95.731L143.975 98.4567L114.934 115.219L110.218 112.5Z" fill="#F9B233"/>
<path opacity="0.25" d="M126.346 108.637L121.629 105.911L126.346 103.185L131.062 105.911L126.346 108.637Z" fill="black"/>
<path d="M138.523 115.219L109.482 98.4567L114.199 95.731L143.24 112.5L138.523 115.219Z" fill="#F9B233"/>
<path d="M140.326 97.3816C139.861 99.3599 136.984 105.107 127.821 105.728L126.892 104.912C126.892 104.912 137.524 102.249 135.213 92.9287L140.326 97.3816Z" fill="#F9B233"/>
<path opacity="0.4" d="M140.326 97.3816C139.861 99.3599 136.984 105.107 127.821 105.728L126.892 104.912C126.892 104.912 137.524 102.249 135.213 92.9287L140.326 97.3816Z" fill="black"/>
<path d="M126.785 106.809C126.785 106.809 126.785 101.156 128.921 97.8526C131.056 94.5491 135.201 92.9287 135.201 92.9287C137.264 93.9422 139.026 95.4772 140.313 97.3816C137.748 97.4558 135.232 98.0994 132.946 99.2657C129.36 101.15 127.809 105.747 127.809 105.747L126.785 106.809Z" fill="#F9B233"/>
<path opacity="0.15" d="M126.785 106.809C126.785 106.809 126.785 101.156 128.921 97.8526C131.056 94.5491 135.201 92.9287 135.201 92.9287C137.264 93.9422 139.026 95.4772 140.313 97.3816C137.748 97.4558 135.232 98.0994 132.946 99.2657C129.36 101.15 127.809 105.747 127.809 105.747L126.785 106.809Z" fill="black"/>
<path d="M133.053 99.2028L129.341 97.2558C129.948 96.468 130.652 95.7609 131.438 95.1519L136.331 97.9529C135.196 98.2484 134.096 98.6675 133.053 99.2028Z" fill="#F9B233"/>
<path d="M141.004 107.734C141.004 107.734 134.724 109.38 126.785 106.811L127.413 105.731C127.413 105.731 131.558 106.428 134.485 105.731C137.412 105.034 139.911 100.87 139.911 100.87L141.004 107.734Z" fill="#F9B233"/>
<path opacity="0.4" d="M141.004 107.734C141.004 107.734 134.724 109.38 126.785 106.811L127.413 105.731C127.413 105.731 131.558 106.428 134.485 105.731C137.412 105.034 139.911 100.87 139.911 100.87L141.004 107.734Z" fill="black"/>
<path d="M126.785 106.807C126.785 106.807 126.854 105.268 129.034 103.246C131.885 100.596 137.456 100.596 139.886 100.866C140.881 101.619 141.554 102.721 141.77 103.95C142.066 105.457 141.01 107.718 141.01 107.718C140.207 106.753 139.214 105.964 138.092 105.4C136.97 104.836 135.745 104.509 134.491 104.439C132.193 104.242 129.907 104.94 128.11 106.386L126.785 106.807Z" fill="#F9B233"/>
<path opacity="0.15" d="M126.785 106.807C126.785 106.807 126.854 105.268 129.034 103.246C131.885 100.596 137.456 100.596 139.886 100.866C140.881 101.619 141.554 102.721 141.77 103.95C142.066 105.457 141.01 107.718 141.01 107.718C140.207 106.753 139.214 105.964 138.092 105.4C136.97 104.836 135.745 104.509 134.491 104.439C132.193 104.242 129.907 104.94 128.11 106.386L126.785 106.807Z" fill="black"/>
<path d="M135.227 100.9C136.15 100.794 137.079 100.748 138.009 100.761C138.689 101.46 139.166 102.331 139.387 103.281C139.609 104.231 139.566 105.223 139.265 106.15C138.382 105.533 137.398 105.073 136.357 104.794C136.424 103.406 136.026 102.036 135.227 100.9Z" fill="#F9B233"/>
<path d="M134.994 115.029C134.994 115.029 131.609 114.614 129.479 112.165C128.137 110.639 127.21 108.795 126.785 106.808L127.821 105.728C128.612 107.571 130.051 109.061 131.866 109.917C134.271 110.978 138.775 110.965 138.775 110.965L134.994 115.029Z" fill="#F9B233"/>
<path opacity="0.4" d="M134.994 115.029C134.994 115.029 131.609 114.614 129.479 112.165C128.137 110.639 127.21 108.795 126.785 106.808L127.821 105.728C128.612 107.571 130.051 109.061 131.866 109.917C134.271 110.978 138.775 110.965 138.775 110.965L134.994 115.029Z" fill="black"/>
<path d="M126.785 106.809L127.821 105.729C127.821 105.729 131.841 104.912 134.008 105.729C136.174 106.545 138.706 109.93 138.749 110.967C138.468 111.884 137.983 112.726 137.331 113.43C136.678 114.133 135.875 114.68 134.981 115.03C134.981 115.03 135.188 111.331 132.4 109.158C130.779 107.875 128.837 107.062 126.785 106.809Z" fill="#F9B233"/>
<path opacity="0.15" d="M126.785 106.809L127.821 105.729C127.821 105.729 131.841 104.912 134.008 105.729C136.174 106.545 138.706 109.93 138.749 110.967C138.468 111.884 137.983 112.726 137.331 113.43C136.678 114.133 135.875 114.68 134.981 115.03C134.981 115.03 135.188 111.331 132.4 109.158C130.779 107.875 128.837 107.062 126.785 106.809Z" fill="black"/>
<path d="M130.975 108.21L134.504 105.974C135.299 106.42 136.018 106.991 136.633 107.664L133.16 109.855C132.933 109.599 132.682 109.364 132.413 109.152C131.957 108.804 131.476 108.489 130.975 108.21Z" fill="#F9B233"/>
<path d="M116.611 96.8292C116.391 97.9094 117.183 100.886 119.814 102.852C122.446 104.818 126.892 105.553 126.892 105.553L127.52 105.17C127.52 105.17 123.124 102.4 121.679 99.8689C120.235 97.3379 121.303 93.2744 121.303 93.2744L116.611 96.8292Z" fill="#F9B233"/>
<path opacity="0.4" d="M116.611 96.8292C116.391 97.9094 117.183 100.886 119.814 102.852C122.446 104.818 126.892 105.553 126.892 105.553L127.52 105.17C127.52 105.17 123.124 102.4 121.679 99.8689C120.235 97.3379 121.303 93.2744 121.303 93.2744L116.611 96.8292Z" fill="black"/>
<path d="M126.893 105.554C126.095 103.08 124.561 100.909 122.496 99.3301C119.199 96.9875 116.624 96.8179 116.624 96.8179C117.133 95.9439 117.81 95.1796 118.616 94.5694C119.423 93.9591 120.342 93.5152 121.322 93.2632C121.322 93.2632 125.09 95.4802 126.516 98.8654C127.354 100.847 127.705 103.001 127.539 105.146L126.893 105.554Z" fill="#F9B233"/>
<path opacity="0.15" d="M126.893 105.554C126.095 103.08 124.561 100.909 122.496 99.3301C119.199 96.9875 116.624 96.8179 116.624 96.8179C117.133 95.9439 117.81 95.1796 118.616 94.5694C119.423 93.9591 120.342 93.5152 121.322 93.2632C121.322 93.2632 125.09 95.4802 126.516 98.8654C127.354 100.847 127.705 103.001 127.539 105.146L126.893 105.554Z" fill="black"/>
<path d="M120.806 98.2934C120.083 97.8912 119.327 97.5529 118.545 97.2822C119.718 95.996 121.159 94.982 122.765 94.3115C123.579 94.9506 124.324 95.6726 124.989 96.4657C123.459 96.7015 122.018 97.3314 120.806 98.2934Z" fill="#F9B233"/>
<path d="M112.83 103.87C114.124 105.616 118.589 108.518 126.408 106.15L126.892 105.233C126.892 105.233 122.445 105.585 118.778 103.713C115.11 101.842 114.846 99.3169 114.846 99.3169L112.83 103.87Z" fill="#F9B233"/>
<path opacity="0.4" d="M112.83 103.87C114.124 105.616 118.589 108.518 126.408 106.15L126.892 105.233C126.892 105.233 122.445 105.585 118.778 103.713C115.11 101.842 114.846 99.3169 114.846 99.3169L112.83 103.87Z" fill="black"/>
<path d="M126.892 105.234C125.693 103.008 123.792 101.242 121.484 100.21C119.402 99.2847 117.098 98.9752 114.846 99.3178C114.846 99.3178 112.528 101.133 112.83 103.859C114.846 102.892 117.105 102.549 119.318 102.873C123.042 103.413 125.95 105.096 126.408 106.138L126.892 105.234Z" fill="#F9B233"/>
<path opacity="0.15" d="M126.892 105.234C125.693 103.008 123.792 101.242 121.484 100.21C119.402 99.2847 117.098 98.9752 114.846 99.3178C114.846 99.3178 112.528 101.133 112.83 103.859C114.846 102.892 117.105 102.549 119.318 102.873C123.042 103.413 125.95 105.096 126.408 106.138L126.892 105.234Z" fill="black"/>
<path d="M116.667 102.821C115.758 102.904 114.863 103.094 113.998 103.386C114.409 101.757 115.313 100.294 116.586 99.1968C117.145 99.202 117.703 99.2482 118.256 99.3349C117.438 100.342 116.891 101.542 116.667 102.821Z" fill="#F9B233"/>
<path d="M117.76 115.91C119.782 115.96 126.1 113.103 126.785 106.81L126.107 105.302C126.107 105.302 124.612 108.788 121.767 110.377C118.922 111.966 114.758 111.941 114.758 111.941L117.76 115.91Z" fill="#F9B233"/>
<path opacity="0.4" d="M117.76 115.91C119.782 115.96 126.1 113.103 126.785 106.81L126.107 105.302C126.107 105.302 124.612 108.788 121.767 110.377C118.922 111.966 114.758 111.941 114.758 111.941L117.76 115.91Z" fill="black"/>
<path d="M126.892 105.233C126.892 105.233 123.293 105.145 120.812 106.15C116.416 107.921 114.953 110 114.758 111.94C115.27 113.571 116.331 114.973 117.76 115.91C117.76 115.91 119.556 111.231 121.767 109.265C124.712 106.64 126.791 106.809 126.791 106.809L126.892 105.233Z" fill="#F9B233"/>
<path opacity="0.15" d="M126.892 105.233C126.892 105.233 123.293 105.145 120.812 106.15C116.416 107.921 114.953 110 114.758 111.94C115.27 113.571 116.331 114.973 117.76 115.91C117.76 115.91 119.556 111.231 121.767 109.265C124.712 106.64 126.791 106.809 126.791 106.809L126.892 105.233Z" fill="black"/>
<path d="M118.307 114.635C117 113.569 115.894 112.278 115.041 110.823C115.467 109.773 116.178 108.863 117.095 108.197C118.158 109.189 119.454 109.897 120.863 110.257C119.846 111.614 118.989 113.083 118.307 114.635Z" fill="#F9B233"/>
<path d="M150.262 190.485L98.1344 160.415C97.4624 160.025 96.916 160.345 96.916 161.118V181.015C96.938 181.437 97.0599 181.849 97.2717 182.216C97.4835 182.583 97.7791 182.894 98.1344 183.125L150.262 213.202C150.934 213.585 151.481 213.271 151.481 212.492V192.596C151.458 192.173 151.335 191.762 151.124 191.395C150.912 191.028 150.617 190.717 150.262 190.485Z" fill="#F9B233"/>
<path d="M151.135 191.393L154.244 189.591C154.463 189.956 154.586 190.371 154.602 190.797V210.693C154.616 210.843 154.591 210.995 154.529 211.132C154.467 211.27 154.371 211.389 154.25 211.478C154.024 211.61 151.367 213.13 151.154 213.268C151.28 213.179 151.381 213.057 151.445 212.916C151.509 212.774 151.534 212.619 151.518 212.464V192.593C151.494 192.167 151.362 191.754 151.135 191.393Z" fill="#F9B233"/>
<path opacity="0.3" d="M151.135 191.393L154.244 189.591C154.463 189.956 154.586 190.371 154.602 190.797V210.693C154.616 210.843 154.591 210.995 154.529 211.132C154.467 211.27 154.371 211.389 154.25 211.478C154.024 211.61 151.367 213.13 151.154 213.268C151.28 213.179 151.381 213.057 151.445 212.916C151.509 212.774 151.534 212.619 151.518 212.464V192.593C151.494 192.167 151.362 191.754 151.135 191.393Z" fill="black"/>
<path d="M97.3438 160.299C97.7771 160.035 100.195 158.654 100.39 158.534C100.529 158.467 100.683 158.439 100.837 158.452C100.99 158.466 101.137 158.52 101.263 158.61L153.391 188.687C153.75 188.912 154.048 189.222 154.257 189.591L151.149 191.394C150.936 191.019 150.631 190.706 150.263 190.483L98.1351 160.412C98.0205 160.334 97.8896 160.284 97.7525 160.264C97.6154 160.244 97.4756 160.256 97.3438 160.299Z" fill="#F9B233"/>
<path opacity="0.3" d="M97.3438 160.299C97.7771 160.035 100.195 158.654 100.39 158.534C100.529 158.467 100.683 158.439 100.837 158.452C100.99 158.466 101.137 158.52 101.263 158.61L153.391 188.687C153.75 188.912 154.048 189.222 154.257 189.591L151.149 191.394C150.936 191.019 150.631 190.706 150.263 190.483L98.1351 160.412C98.0205 160.334 97.8896 160.284 97.7525 160.264C97.6154 160.244 97.4756 160.256 97.3438 160.299Z" fill="white"/>
<path d="M107.643 176.12C107.719 176.309 107.756 176.512 107.749 176.717V181.967C107.76 182.083 107.73 182.198 107.666 182.295C107.603 182.392 107.508 182.465 107.398 182.501C107.115 182.583 106.814 182.583 106.531 182.501C106.188 182.417 105.858 182.286 105.551 182.111C104.446 181.451 103.609 180.421 103.19 179.204C102.623 177.518 102.363 175.743 102.424 173.966C102.424 171.847 102.681 170.421 103.196 169.689C103.705 168.948 104.496 168.891 105.57 169.507C105.934 169.719 106.269 169.977 106.569 170.273C106.862 170.55 107.124 170.86 107.348 171.196C107.512 171.418 107.614 171.681 107.643 171.956C107.636 172.144 107.596 172.329 107.523 172.502C107.459 172.688 107.361 172.86 107.234 173.011C107.115 173.143 107.015 173.181 106.92 173.124C106.832 173.042 106.753 172.951 106.682 172.854C106.546 172.687 106.401 172.528 106.248 172.377C106.076 172.211 105.884 172.068 105.677 171.95C105.593 171.875 105.491 171.824 105.381 171.8C105.271 171.776 105.156 171.781 105.049 171.813C104.941 171.846 104.844 171.906 104.766 171.987C104.688 172.068 104.632 172.167 104.603 172.276C104.315 173.167 104.198 174.105 104.258 175.04C104.218 176.126 104.328 177.212 104.584 178.268C104.709 178.856 105.056 179.373 105.551 179.712C105.696 179.805 105.855 179.873 106.022 179.913V177.345L105.438 177.005C105.374 176.966 105.318 176.914 105.274 176.852C105.229 176.791 105.198 176.721 105.181 176.647C105.123 176.413 105.098 176.172 105.105 175.931V175.373C105.092 175.16 105.118 174.948 105.181 174.744C105.237 174.638 105.319 174.613 105.438 174.682L107.322 175.768C107.463 175.849 107.575 175.972 107.643 176.12Z" fill="#FAFAFA"/>
<path d="M108.911 183.38V172.107C108.911 171.724 109.137 171.655 109.577 171.912L110.06 172.189C110.243 172.275 110.398 172.41 110.508 172.578C110.619 172.746 110.681 172.942 110.689 173.143V184.448C110.689 184.831 110.475 184.9 110.06 184.649L109.577 184.373C109.384 184.287 109.219 184.148 109.101 183.972C108.983 183.797 108.918 183.592 108.911 183.38Z" fill="#FAFAFA"/>
<path d="M111.951 185.145V174.047C111.931 173.881 111.966 173.714 112.051 173.57C112.123 173.499 112.229 173.499 112.372 173.57L115.512 175.385C115.639 175.467 115.73 175.595 115.763 175.743C115.827 175.976 115.854 176.218 115.845 176.459V177.005C115.861 177.218 115.833 177.432 115.763 177.633C115.713 177.747 115.631 177.765 115.512 177.703L113.753 176.666V179.241L115.437 180.215C115.562 180.296 115.652 180.422 115.688 180.566C115.747 180.8 115.775 181.041 115.769 181.282V181.829C115.781 182.041 115.754 182.254 115.688 182.457C115.679 182.481 115.664 182.502 115.645 182.519C115.626 182.536 115.603 182.548 115.579 182.554C115.554 182.561 115.528 182.561 115.503 182.555C115.479 182.549 115.456 182.537 115.437 182.52L113.753 181.546V186.162C113.753 186.539 113.534 186.602 113.088 186.344L112.635 186.081C112.446 186.003 112.282 185.875 112.161 185.71C112.04 185.545 111.967 185.349 111.951 185.145Z" fill="#FAFAFA"/>
<path d="M117.849 188.544V179.048L116.593 178.313C116.466 178.234 116.375 178.107 116.342 177.962C116.279 177.728 116.252 177.487 116.26 177.246V176.699C116.245 176.486 116.272 176.273 116.342 176.071C116.392 175.964 116.48 175.939 116.593 176.008L120.939 178.521C121.005 178.56 121.062 178.611 121.107 178.673C121.152 178.734 121.185 178.804 121.203 178.879C121.265 179.112 121.293 179.353 121.284 179.595V180.141C121.301 180.354 121.274 180.568 121.203 180.769C121.152 180.882 121.065 180.901 120.939 180.832L119.683 180.091V189.587C119.683 189.964 119.463 190.02 119.023 189.769L118.552 189.499C118.357 189.423 118.186 189.293 118.062 189.124C117.937 188.955 117.863 188.754 117.849 188.544Z" fill="#FAFAFA"/>
<path d="M142.154 202.636V193.14L140.898 192.405C140.833 192.365 140.777 192.313 140.733 192.252C140.689 192.19 140.658 192.121 140.64 192.047C140.583 191.813 140.557 191.572 140.565 191.331V190.785C140.551 190.572 140.577 190.36 140.64 190.157C140.697 190.05 140.779 190.025 140.898 190.094L145.244 192.606C145.373 192.689 145.466 192.816 145.508 192.964C145.565 193.198 145.59 193.439 145.583 193.68V194.251C145.598 194.464 145.572 194.677 145.508 194.88C145.451 194.993 145.363 195.011 145.244 194.942L143.988 194.201V203.672C143.988 204.049 143.762 204.106 143.322 203.854L142.851 203.584C142.657 203.508 142.489 203.378 142.366 203.211C142.243 203.043 142.169 202.844 142.154 202.636Z" fill="#FAFAFA"/>
<path d="M124.167 192.6C123.833 192.265 123.56 191.874 123.363 191.444C123.277 191.219 123.228 190.981 123.219 190.741C123.216 190.431 123.273 190.124 123.388 189.836C123.501 189.56 123.627 189.466 123.765 189.541C123.881 189.64 123.981 189.756 124.06 189.886C124.192 190.081 124.287 190.219 124.349 190.301C124.556 190.621 124.825 190.897 125.141 191.111C125.23 191.177 125.333 191.221 125.443 191.237C125.552 191.254 125.664 191.243 125.769 191.205C125.945 191.13 126.033 190.879 126.033 190.458C126.036 190.155 125.989 189.854 125.894 189.566C125.813 189.307 125.701 189.058 125.561 188.825C125.423 188.611 125.235 188.323 124.984 187.965C124.466 187.245 124.044 186.462 123.728 185.635C123.452 184.826 123.321 183.976 123.338 183.122C123.338 182.067 123.558 181.37 123.998 181.018C124.437 180.667 125.015 180.711 125.744 181.131C126.347 181.515 126.858 182.028 127.238 182.632C127.374 182.854 127.445 183.108 127.446 183.367C127.446 183.669 127.401 183.97 127.314 184.259C127.226 184.548 127.119 184.655 126.987 184.579C126.863 184.483 126.751 184.371 126.654 184.247C126.446 183.978 126.196 183.744 125.913 183.556C125.605 183.38 125.398 183.355 125.285 183.493C125.16 183.661 125.1 183.868 125.116 184.077C125.103 184.463 125.178 184.848 125.335 185.201C125.538 185.605 125.773 185.991 126.039 186.357L126.303 186.74C126.777 187.41 127.159 188.141 127.439 188.913C127.685 189.665 127.804 190.452 127.791 191.243C127.806 191.81 127.712 192.375 127.515 192.907C127.45 193.105 127.341 193.286 127.196 193.436C127.052 193.587 126.875 193.702 126.679 193.774C126.442 193.828 126.196 193.829 125.957 193.78C125.719 193.73 125.494 193.629 125.298 193.485C124.879 193.247 124.498 192.949 124.167 192.6Z" fill="#FAFAFA"/>
<path d="M128.676 195.15C128.598 194.961 128.562 194.758 128.569 194.553V183.632C128.55 183.465 128.588 183.297 128.676 183.154C128.747 183.087 128.854 183.087 128.996 183.154L132.369 185.101C132.493 185.187 132.582 185.314 132.62 185.459C132.683 185.692 132.71 185.934 132.702 186.175V186.715C132.719 186.928 132.691 187.142 132.62 187.343C132.57 187.456 132.482 187.475 132.369 187.412L130.353 186.251V188.8L132.143 189.83C132.267 189.916 132.356 190.043 132.394 190.188C132.453 190.422 132.481 190.663 132.476 190.904V191.451C132.489 191.663 132.462 191.877 132.394 192.079C132.338 192.192 132.256 192.211 132.143 192.148L130.353 191.112V193.963L132.381 195.131C132.503 195.218 132.59 195.344 132.626 195.489C132.684 195.721 132.709 195.96 132.702 196.199V196.764C132.715 196.976 132.689 197.189 132.626 197.392C132.576 197.505 132.495 197.524 132.381 197.461L128.996 195.508C128.854 195.426 128.741 195.301 128.676 195.15Z" fill="#FAFAFA"/>
<path d="M133.745 197.719V186.445C133.745 186.068 133.965 186.006 134.405 186.263L134.706 186.433C134.846 186.511 134.97 186.616 135.07 186.74C135.183 186.901 135.262 187.083 135.303 187.274L137.356 194.183C137.463 194.553 137.595 195.081 137.746 195.784H137.796C137.733 195.156 137.702 194.66 137.702 194.34V188.725C137.702 188.348 137.922 188.285 138.368 188.543L138.638 188.7C138.825 188.781 138.987 188.912 139.105 189.08C139.222 189.247 139.291 189.444 139.303 189.648V200.922C139.303 201.299 139.084 201.355 138.638 201.104L138.424 200.978C138.279 200.899 138.151 200.793 138.047 200.664C137.929 200.503 137.846 200.319 137.802 200.124L135.623 192.876C135.554 192.663 135.447 192.248 135.309 191.57H135.252C135.315 192.148 135.347 192.562 135.347 192.826V198.648C135.347 199.025 135.127 199.088 134.681 198.83L134.405 198.673C134.217 198.591 134.056 198.458 133.94 198.289C133.823 198.121 133.756 197.923 133.745 197.719Z" fill="#FAFAFA"/>
</svg>
