<svg width="20" height="20" viewBox="0 0 20 20" fill="none" xmlns="http://www.w3.org/2000/svg">
<path d="M19.4133 8.59518L18.0673 7.20107C18.0161 7.14747 17.9777 7.08304 17.9548 7.01256C17.932 6.94208 17.9253 6.86736 17.9353 6.79395L18.2054 4.8755C18.2598 4.49932 18.1651 4.11679 17.9416 3.80938C17.7181 3.50197 17.3833 3.29398 17.0087 3.22972L15.1014 2.89538C15.0289 2.88272 14.9601 2.85399 14.9001 2.81129C14.8401 2.7686 14.7904 2.71302 14.7547 2.64863L13.8479 0.938691C13.6712 0.601616 13.3696 0.347068 13.0076 0.229484C12.6457 0.111901 12.2521 0.140618 11.911 0.309493L10.1714 1.16076C10.1045 1.1931 10.0311 1.2099 9.95677 1.2099C9.88242 1.2099 9.80904 1.1931 9.7421 1.16076L8.00255 0.309493C7.66147 0.140618 7.26786 0.111901 6.90589 0.229484C6.54392 0.347068 6.24232 0.601616 6.0656 0.938691L5.15881 2.64863C5.1236 2.71342 5.07406 2.76931 5.01399 2.81207C4.95392 2.85483 4.88488 2.88332 4.81214 2.89538L2.9048 3.22972C2.53004 3.29369 2.19513 3.50161 1.97154 3.80909C1.74796 4.11658 1.65342 4.49927 1.70809 4.8755L1.97827 6.79395C1.98899 6.86739 1.98265 6.94231 1.95976 7.01291C1.93687 7.08351 1.89803 7.14789 1.84627 7.20107L0.500274 8.59518C0.235225 8.86745 0.0869141 9.23241 0.0869141 9.61238C0.0869141 9.99236 0.235225 10.3573 0.500274 10.6296L1.84627 12.0237C1.89742 12.0773 1.93585 12.1417 1.9587 12.2122C1.98156 12.2827 1.98825 12.3574 1.97827 12.4308L1.70809 14.3493C1.65374 14.7254 1.74841 15.108 1.97194 15.4154C2.19547 15.7228 2.53019 15.9308 2.9048 15.9951L4.81214 16.3294C4.88467 16.3421 4.95345 16.3708 5.01344 16.4135C5.07342 16.4562 5.1231 16.5118 5.15881 16.5761L6.0656 18.2861C6.24256 18.6229 6.54416 18.8773 6.90604 18.9948C7.26792 19.1124 7.66142 19.0838 8.00255 18.9153L9.7421 18.064C9.80904 18.0317 9.88242 18.0149 9.95677 18.0149C10.0311 18.0149 10.1045 18.0317 10.1714 18.064L11.911 18.9153C12.2521 19.0838 12.6456 19.1124 13.0075 18.9948C13.3694 18.8773 13.671 18.6229 13.8479 18.2861L14.7547 16.5761C14.7899 16.5114 14.8395 16.4555 14.8995 16.4127C14.9596 16.3699 15.0286 16.3415 15.1014 16.3294L17.0087 15.9951C17.3835 15.9311 17.7184 15.7232 17.942 15.4157C18.1656 15.1082 18.2601 14.7255 18.2054 14.3493L17.9353 12.4284C17.9245 12.3549 17.9309 12.28 17.9538 12.2094C17.9767 12.1388 18.0155 12.0744 18.0673 12.0212L19.4133 10.6271C19.6783 10.3549 19.8266 9.98989 19.8266 9.60992C19.8266 9.22995 19.6783 8.86498 19.4133 8.59271V8.59518ZM18.7113 9.95228L17.3653 11.3451C17.2098 11.5049 17.0931 11.6982 17.0242 11.9102C16.9554 12.1222 16.9361 12.3472 16.968 12.5678L17.2382 14.4862C17.2564 14.6116 17.225 14.7392 17.1506 14.8417C17.0761 14.9443 16.9646 15.0137 16.8397 15.0352L14.9311 15.3696C14.7114 15.4075 14.5033 15.4954 14.323 15.6265C14.1427 15.7577 13.9949 15.9285 13.8911 16.1258L12.9843 17.8358C12.9256 17.9482 12.8251 18.0331 12.7045 18.0723C12.5839 18.1115 12.4527 18.1019 12.3391 18.0455L10.5995 17.1942C10.399 17.0969 10.179 17.0463 9.95615 17.0463C9.73326 17.0463 9.51327 17.0969 9.31276 17.1942L7.57321 18.0455C7.4596 18.1019 7.32842 18.1115 7.2078 18.0723C7.08718 18.0331 6.98672 17.9482 6.92797 17.8358L6.02119 16.1295C5.91742 15.9319 5.7695 15.7609 5.58891 15.6297C5.40832 15.4986 5.19993 15.4108 4.97992 15.3733L3.07259 15.0377C2.94771 15.0162 2.83617 14.9467 2.76173 14.8442C2.6873 14.7416 2.65585 14.6141 2.67409 14.4887L2.94428 12.5702C2.97752 12.3498 2.95964 12.1247 2.89205 11.9123C2.82445 11.6999 2.70894 11.5058 2.55442 11.3451L1.19733 9.95104C1.11056 9.85939 1.0622 9.73798 1.0622 9.61177C1.0622 9.48556 1.11056 9.36415 1.19733 9.27249L2.54332 7.87962C2.69879 7.71989 2.81547 7.52657 2.88435 7.31458C2.95323 7.10259 2.97247 6.87761 2.94058 6.657L2.6778 4.73979C2.65955 4.6144 2.691 4.48683 2.76544 4.38428C2.83987 4.28173 2.95141 4.2123 3.07629 4.19079L4.98486 3.85645C5.20458 3.81854 5.41265 3.73062 5.59299 3.59948C5.77332 3.46835 5.92109 3.29751 6.02489 3.10017L6.93167 1.39023C6.99066 1.27806 7.09112 1.19335 7.21165 1.15418C7.33218 1.115 7.46325 1.12444 7.57691 1.1805L9.31646 2.03177C9.51712 2.1286 9.73705 2.17888 9.95985 2.17888C10.1826 2.17888 10.4026 2.1286 10.6032 2.03177L12.3428 1.1805C12.4564 1.12412 12.5876 1.1145 12.7082 1.15371C12.8288 1.19292 12.9293 1.27783 12.988 1.39023L13.8948 3.10017C13.9986 3.29778 14.1465 3.4688 14.3271 3.59996C14.5077 3.73112 14.7161 3.81889 14.9361 3.85645L16.8434 4.19202C16.9683 4.21354 17.0798 4.28297 17.1543 4.38552C17.2287 4.48807 17.2601 4.61563 17.2419 4.74103L16.9717 6.65947C16.9399 6.87978 16.959 7.10447 17.0277 7.31622C17.0963 7.52798 17.2127 7.72115 17.3677 7.88085L18.7162 9.27249C18.803 9.36415 18.8513 9.48556 18.8513 9.61177C18.8513 9.73798 18.803 9.85939 18.7162 9.95104L18.7113 9.95228Z" fill="#E5A552"/>
<path d="M13.2296 6.3387C13.1374 6.24865 13.0136 6.19825 12.8847 6.19825C12.7559 6.19825 12.6321 6.24865 12.5399 6.3387L6.68343 12.1952C6.62596 12.2372 6.57828 12.2912 6.54363 12.3534C6.50899 12.4156 6.48821 12.4846 6.48274 12.5556C6.47726 12.6266 6.48722 12.6979 6.51191 12.7647C6.53661 12.8315 6.57548 12.8921 6.62583 12.9425C6.67617 12.9928 6.73681 13.0317 6.80359 13.0564C6.87037 13.0811 6.94171 13.091 7.0127 13.0855C7.08369 13.0801 7.15266 13.0593 7.21486 13.0247C7.27707 12.99 7.33105 12.9423 7.37309 12.8848L13.2296 7.02836C13.3196 6.93617 13.37 6.81242 13.37 6.68354C13.37 6.55467 13.3196 6.4309 13.2296 6.3387ZM9.47042 7.17271C9.47042 6.78645 9.35587 6.40886 9.14128 6.08769C8.92668 5.76652 8.62168 5.5162 8.26482 5.36838C7.90796 5.22056 7.51526 5.1819 7.13642 5.25726C6.75758 5.33261 6.4096 5.51861 6.13647 5.79174C5.86334 6.06487 5.67734 6.41285 5.60198 6.79169C5.52663 7.17053 5.56529 7.56323 5.71311 7.92009C5.86092 8.27695 6.11125 8.58195 6.43242 8.79655C6.75358 9.01115 7.13118 9.12569 7.51744 9.12569C8.0352 9.12504 8.53157 8.91907 8.89768 8.55295C9.26379 8.18684 9.46976 7.69048 9.47042 7.17271ZM6.54032 7.17271C6.54032 6.97946 6.59764 6.79054 6.705 6.62985C6.81237 6.46917 6.96497 6.34393 7.14352 6.26997C7.32206 6.19602 7.51852 6.17666 7.70806 6.21436C7.8976 6.25207 8.07171 6.34514 8.20836 6.48179C8.34501 6.61844 8.43807 6.79255 8.47577 6.98209C8.51347 7.17163 8.49412 7.36809 8.42016 7.54664C8.34621 7.72518 8.22097 7.87778 8.06028 7.98515C7.8996 8.09252 7.71069 8.14981 7.51744 8.14981C7.25839 8.14949 7.01005 8.04643 6.82688 7.86326C6.6437 7.68008 6.54065 7.43176 6.54032 7.17271ZM12.3956 10.0979C12.0093 10.0979 11.6317 10.2124 11.3106 10.427C10.9894 10.6416 10.7391 10.9466 10.5912 11.3035C10.4434 11.6603 10.4048 12.053 10.4801 12.4319C10.5555 12.8107 10.7415 13.1587 11.0146 13.4318C11.2877 13.705 11.6357 13.891 12.0146 13.9663C12.3934 14.0417 12.7861 14.003 13.143 13.8552C13.4998 13.7073 13.8048 13.457 14.0194 13.1359C14.234 12.8147 14.3486 12.4371 14.3486 12.0508C14.3479 11.5331 14.1419 11.0367 13.7758 10.6706C13.4097 10.3045 12.9133 10.0985 12.3956 10.0979ZM12.3956 13.0279C12.2023 13.0279 12.0134 12.9707 11.8527 12.8633C11.692 12.7559 11.5668 12.6033 11.4928 12.4248C11.4189 12.2462 11.3995 12.0498 11.4372 11.8602C11.4749 11.6707 11.568 11.4966 11.7047 11.3599C11.8413 11.2233 12.0154 11.1302 12.205 11.0925C12.3945 11.0548 12.591 11.0742 12.7695 11.1481C12.948 11.2221 13.1006 11.3473 13.208 11.508C13.3154 11.6687 13.3727 11.8576 13.3727 12.0508C13.3717 12.3095 13.2684 12.5572 13.0853 12.7398C12.9022 12.9225 12.6542 13.0252 12.3956 13.0255V13.0279Z" fill="#E5A552"/>
</svg>
