<svg width="28" height="28" viewBox="0 0 28 28" fill="none" xmlns="http://www.w3.org/2000/svg">
<path d="M14 7V11.6667" stroke="#272727" stroke-width="1.5" stroke-linecap="round"/>
<path d="M8.75 22.1665C9.5142 24.2056 11.5762 25.6665 14 25.6665C14.2852 25.6665 14.5654 25.6463 14.8391 25.6073M19.25 22.1665C18.9384 22.9979 18.4111 23.7331 17.7316 24.3124" stroke="#272727" stroke-width="1.5" stroke-linecap="round"/>
<path d="M10.6254 3.11999C11.6482 2.61568 12.7923 2.3335 14 2.3335C18.3487 2.3335 21.874 5.99243 21.874 10.506V11.328C21.874 12.3145 22.1553 13.279 22.6826 14.0998L23.9746 16.1113C25.1547 17.9486 24.2538 20.4459 22.2012 21.0269C16.8318 22.5468 11.1682 22.5468 5.79876 21.0269C3.74622 20.4459 2.84529 17.9486 4.02542 16.1113L5.31743 14.0998C5.84467 13.279 6.12602 12.3145 6.12602 11.328V10.506C6.12602 9.25251 6.3979 8.06497 6.88379 7.0034" stroke="#272727" stroke-width="1.5" stroke-linecap="round"/>
</svg>
