<svg width="274" height="265" viewBox="0 0 274 265" fill="none" xmlns="http://www.w3.org/2000/svg">
<path d="M245.09 62.4066C239.437 43.3351 219.89 17.7684 203.327 22.6815C186.764 27.5945 184.32 59.6823 189.973 78.7538C195.442 97.1924 209.978 109.558 223.909 108.605L255.011 238.476C255.109 238.868 255.224 239.288 255.367 239.69C257.549 245.849 264.322 249.065 270.481 246.883C276.64 244.7 279.855 237.928 277.673 231.769L232.927 105.942C245.106 99.1583 250.559 80.8452 245.09 62.4066Z" fill="#FEF6F6"/>
<path d="M122.887 52.4885C121.419 53.5626 121.11 55.6242 122.19 57.0688L149.433 94.1516L154.298 100.776C155.062 101.824 154.836 103.307 153.789 104.071C152.741 104.835 151.258 104.609 150.494 103.562L118.371 59.8632C117.297 58.3956 115.235 58.0859 113.791 59.1658C112.323 60.2399 112.013 62.3015 113.093 63.7461L145.216 107.445C145.98 108.492 145.754 109.976 144.707 110.74C143.659 111.504 142.176 111.278 141.412 110.231L109.289 66.5319C108.215 65.0643 106.153 64.7546 104.708 65.8345C103.264 66.9143 102.931 68.9702 104.011 70.4148L136.134 114.114C136.898 115.161 136.672 116.645 135.624 117.409C134.577 118.173 133.093 117.947 132.329 116.899L126.063 108.358L100.221 73.192C99.1468 71.7243 97.0852 71.4146 95.6406 72.4945C94.1729 73.5686 93.8632 75.6302 94.9431 77.0749L120.785 112.241L127.052 120.782L132.362 128.02C139.525 137.764 150.894 141.999 159.651 138.867L232.929 250.72C233.158 251.071 233.402 251.414 233.684 251.753C237.843 256.807 245.299 257.542 250.338 253.391C255.392 249.232 256.127 241.776 251.976 236.736L167.11 133.405C172.713 125.985 172.078 113.858 164.915 104.114L159.605 96.876L154.74 90.2514L127.496 53.1687C126.402 51.7327 124.355 51.4144 122.887 52.4885Z" fill="#FEF6F6"/>
<path d="M238.18 255.804C238.18 255.804 203.914 240.124 187.696 233.339C174.32 227.744 167.177 213.103 171.032 199.107C171.422 197.702 171.67 196.81 171.466 196.6C163.043 178.581 94.5989 129.775 92.2114 130.423C80.327 120.496 71.3354 128.654 70.8754 128.539C44.6183 157.216 33.3517 192.553 29.0288 208.216C27.3955 214.139 29.2931 220.507 33.9738 224.506C60.357 246.997 131.143 261.294 132.608 260.769C139.093 260.013 144.199 255.843 146.862 252.391C150.493 247.716 156.362 245.375 162.201 246.315C195.635 251.725 262.639 296.625 262.639 296.625L280.968 282.877L238.18 255.804ZM131.925 240.696C110.245 244.178 45.7763 211.968 45.7763 211.968C43.6108 206.131 52.0548 202.15 52.0548 202.15L129.839 233.228C129.839 233.228 131.738 240.808 131.925 240.696ZM140.284 226.975L136.256 229.387L59.7226 192.009L55.6485 185.204L60.8998 182.061L137.261 221.925L140.284 226.975ZM143.072 216.062L66.6126 174.399C64.335 168.375 70.4356 167.107 70.4356 167.107L143.393 208.208L148.511 212.806L143.072 216.062ZM153.35 201.466L149.652 203.679L79.1768 159.216C72.355 150.89 79.1145 146.316 79.4477 146.644C86.083 145.583 146.83 190.575 146.83 190.575L153.35 201.466Z" fill="#FEF6F6"/>
</svg>
