<svg width="31" height="30" viewBox="0 0 31 30" fill="none" xmlns="http://www.w3.org/2000/svg">
<g id="Broken / Building, Infrastructure / Buildings">
<path id="Vector" d="M28.4163 27.5L2.58301 27.5" stroke="#272727" stroke-width="1.5" stroke-linecap="round"/>
<path id="Vector_2" d="M27.1249 27.5V16.25M14.2139 6.25C14.237 4.70027 14.3558 3.82166 14.9649 3.23223C15.7215 2.5 16.9393 2.5 19.3749 2.5H21.9583C24.3938 2.5 25.6116 2.5 26.3683 3.23223C27.1249 3.96447 27.1249 5.14298 27.1249 7.5V11.25" stroke="#272727" stroke-width="1.5" stroke-linecap="round"/>
<path id="Vector_3" d="M19.375 27.5V20M3.875 27.5V16.25M3.875 11.25C3.875 8.89298 3.875 7.71447 4.63164 6.98223C5.38828 6.25 6.60608 6.25 9.04167 6.25H14.2083C16.6439 6.25 17.8617 6.25 18.6184 6.98223C19.375 7.71447 19.375 8.89298 19.375 11.25V15" stroke="#272727" stroke-width="1.5" stroke-linecap="round"/>
<path id="Vector_4" d="M11.625 27.5V23.75" stroke="#272727" stroke-width="1.5" stroke-linecap="round"/>
<path id="Vector_5" d="M7.75 10H15.5" stroke="#272727" stroke-width="1.5" stroke-linecap="round"/>
<path id="Vector_6" d="M7.75 13.75H9.04167M15.5 13.75H12.2708" stroke="#272727" stroke-width="1.5" stroke-linecap="round"/>
<path id="Vector_7" d="M7.75 17.5H15.5" stroke="#272727" stroke-width="1.5" stroke-linecap="round"/>
</g>
</svg>
