<svg width="34" height="36" viewBox="0 0 34 36" fill="none" xmlns="http://www.w3.org/2000/svg">
<path d="M19.3906 32.1396H13.8906C8.70517 32.1396 6.11245 32.1396 4.50154 30.4311C2.89062 28.7226 2.89062 25.9727 2.89062 20.473V17.5563C2.89062 12.0566 2.89062 9.30674 4.50154 7.59819C6.11245 5.88965 8.70518 5.88965 13.8906 5.88965H19.3906C24.5761 5.88965 27.1688 5.88965 28.7797 7.59819C30.3906 9.30674 30.3906 12.0566 30.3906 17.5563V20.473C30.3906 25.9727 30.3906 28.7226 28.7797 30.4311C27.8816 31.3837 26.6783 31.8051 24.8906 31.9916" stroke="#929292" stroke-width="2" stroke-linecap="round"/>
<path d="M9.76562 5.88965V3.70215" stroke="#929292" stroke-width="2" stroke-linecap="round"/>
<path d="M23.5156 5.88965V3.70215" stroke="#929292" stroke-width="2" stroke-linecap="round"/>
<path d="M29.7031 13.1816H23H14.9219M2.89062 13.1816H8.21875" stroke="#929292" stroke-width="2" stroke-linecap="round"/>
<path d="M24.8906 24.8483C24.8906 25.6537 24.275 26.3066 23.5156 26.3066C22.7562 26.3066 22.1406 25.6537 22.1406 24.8483C22.1406 24.0429 22.7562 23.39 23.5156 23.39C24.275 23.39 24.8906 24.0429 24.8906 24.8483Z" fill="#929292"/>
<path d="M24.8906 19.015C24.8906 19.8204 24.275 20.4733 23.5156 20.4733C22.7562 20.4733 22.1406 19.8204 22.1406 19.015C22.1406 18.2096 22.7562 17.5566 23.5156 17.5566C24.275 17.5566 24.8906 18.2096 24.8906 19.015Z" fill="#929292"/>
<path d="M18.0156 24.8483C18.0156 25.6537 17.4 26.3066 16.6406 26.3066C15.8812 26.3066 15.2656 25.6537 15.2656 24.8483C15.2656 24.0429 15.8812 23.39 16.6406 23.39C17.4 23.39 18.0156 24.0429 18.0156 24.8483Z" fill="#929292"/>
<path d="M18.0156 19.015C18.0156 19.8204 17.4 20.4733 16.6406 20.4733C15.8812 20.4733 15.2656 19.8204 15.2656 19.015C15.2656 18.2096 15.8812 17.5566 16.6406 17.5566C17.4 17.5566 18.0156 18.2096 18.0156 19.015Z" fill="#929292"/>
<path d="M11.1406 24.8483C11.1406 25.6537 10.525 26.3066 9.76562 26.3066C9.00623 26.3066 8.39062 25.6537 8.39062 24.8483C8.39062 24.0429 9.00623 23.39 9.76562 23.39C10.525 23.39 11.1406 24.0429 11.1406 24.8483Z" fill="#929292"/>
<path d="M11.1406 19.015C11.1406 19.8204 10.525 20.4733 9.76562 20.4733C9.00623 20.4733 8.39062 19.8204 8.39062 19.015C8.39062 18.2096 9.00623 17.5566 9.76562 17.5566C10.525 17.5566 11.1406 18.2096 11.1406 19.015Z" fill="#929292"/>
</svg>
