<svg width="23" height="22" viewBox="0 0 23 22" fill="none" xmlns="http://www.w3.org/2000/svg">
<path d="M6.58408 20.8538C7.61992 20.8538 8.71075 20.6063 9.83825 20.1297C10.9382 19.6622 12.0474 19.0205 13.1291 18.2413C14.2016 17.453 15.2374 16.573 16.2182 15.6105C17.1899 14.6297 18.0699 13.5938 18.8491 12.5305C19.6374 11.4305 20.2699 10.3305 20.7191 9.26717C21.1957 8.13051 21.4341 7.03051 21.4341 5.99467C21.4341 5.27967 21.3057 4.60134 21.0582 3.96884C20.8016 3.31801 20.3891 2.71301 19.8299 2.19051C19.1241 1.49384 18.3174 1.14551 17.4557 1.14551C17.0982 1.14551 16.7316 1.22801 16.4199 1.37467C16.0624 1.53967 15.7599 1.78717 15.5399 2.11717L13.4132 5.11467C13.2207 5.38051 13.0741 5.63717 12.9732 5.89384C12.8541 6.16884 12.7899 6.44384 12.7899 6.70967C12.7899 7.05801 12.8907 7.39717 13.0832 7.71801C13.2207 7.96551 13.4316 8.23134 13.6974 8.49717L14.3207 9.14801C14.3116 9.17551 14.3024 9.19384 14.2932 9.21217C14.1832 9.40467 13.9632 9.73467 13.5416 10.2297C13.0924 10.743 12.6707 11.2105 12.2491 11.6413C11.7082 12.173 11.2591 12.5947 10.8374 12.943C10.3149 13.383 9.97575 13.603 9.77408 13.7038L9.79242 13.7497L9.12325 13.0897C8.83908 12.8055 8.56408 12.5947 8.29825 12.4572C7.79408 12.1455 7.15242 12.0905 6.51075 12.3563C6.27242 12.4572 6.01575 12.5947 5.74075 12.7872L2.69742 14.9505C2.35825 15.1797 2.11075 15.473 1.96408 15.8213C1.82658 16.1697 1.76242 16.4905 1.76242 16.8113C1.76242 17.2513 1.86325 17.6913 2.05575 18.1038C2.24825 18.5163 2.48658 18.8738 2.78908 19.2038C3.31158 19.7813 3.87992 20.1938 4.53992 20.4597C5.17242 20.7163 5.85992 20.8538 6.58408 20.8538ZM17.4557 2.52051C17.9599 2.52051 18.4274 2.74051 18.8766 3.18051C19.2982 3.57467 19.5916 4.00551 19.7749 4.47301C19.9674 4.94967 20.0591 5.45384 20.0591 5.99467C20.0591 6.84717 19.8574 7.77301 19.4541 8.72634C19.0416 9.69801 18.4641 10.7063 17.7307 11.7147C16.9974 12.723 16.1632 13.7038 15.2466 14.6297C14.3299 15.5372 13.3399 16.3805 12.3224 17.123C11.3324 17.8472 10.3149 18.4338 9.30658 18.8555C7.73908 19.5247 6.27242 19.6805 5.06242 19.1763C4.59492 18.9838 4.18242 18.6905 3.80658 18.2688C3.59575 18.0397 3.43075 17.7922 3.29325 17.4988C3.18325 17.2697 3.12825 17.0313 3.12825 16.793C3.12825 16.6463 3.15575 16.4997 3.22908 16.3347C3.25658 16.2797 3.31158 16.1788 3.48575 16.0597L6.52908 13.8963C6.71242 13.768 6.87742 13.6763 7.03325 13.6122C7.23492 13.5297 7.31742 13.4472 7.62908 13.6397C7.81242 13.7313 7.97742 13.8688 8.16075 14.0522L8.85742 14.7397C9.21492 15.088 9.76492 15.1705 10.1866 15.0147L10.4341 14.9047C10.8099 14.703 11.2499 14.3913 11.7357 13.9788C12.1757 13.603 12.6524 13.163 13.2299 12.5947C13.6791 12.1363 14.1282 11.6505 14.5957 11.1097C15.0266 10.6055 15.3382 10.1747 15.5307 9.81717L15.6407 9.54217C15.6957 9.33134 15.7141 9.21217 15.7141 9.08384C15.7141 8.75384 15.5949 8.46051 15.3657 8.23134L14.6782 7.51634C14.4949 7.33301 14.3574 7.15884 14.2657 7.00301C14.1924 6.88384 14.1649 6.78301 14.1649 6.69134C14.1649 6.61801 14.1924 6.50801 14.2382 6.39801C14.3024 6.25134 14.4032 6.08634 14.5316 5.91217L16.6582 2.90551C16.7499 2.77717 16.8599 2.68551 16.9974 2.62134C17.1441 2.55717 17.2999 2.52051 17.4557 2.52051ZM9.79242 13.7588L9.93908 14.3822L9.69158 13.7405C9.73742 13.7313 9.77408 13.7405 9.79242 13.7588Z" fill="#E5A552"/>
<path d="M5.62174 8.93783C5.99758 8.93783 6.30924 8.62616 6.30924 8.25033C6.30924 7.92033 6.63924 7.23283 7.18924 6.64616C7.73008 6.06866 8.32591 5.72949 8.83008 5.72949C9.20591 5.72949 9.51758 5.41783 9.51758 5.04199C9.51758 4.66616 9.20591 4.35449 8.83008 4.35449C7.94091 4.35449 7.00591 4.83116 6.19008 5.70199C5.42924 6.51783 4.93424 7.51699 4.93424 8.25033C4.93424 8.62616 5.24591 8.93783 5.62174 8.93783Z" fill="#E5A552"/>
<path d="M2.41341 8.93717C2.78925 8.93717 3.10091 8.62551 3.10091 8.24967C3.10091 5.08717 5.66758 2.52051 8.83008 2.52051C9.20591 2.52051 9.51758 2.20884 9.51758 1.83301C9.51758 1.45717 9.20591 1.14551 8.83008 1.14551C4.91591 1.14551 1.72591 4.33551 1.72591 8.24967C1.72591 8.62551 2.03758 8.93717 2.41341 8.93717Z" fill="#E5A552"/>
</svg>
