<svg width="28" height="27" viewBox="0 0 28 27" fill="none" xmlns="http://www.w3.org/2000/svg">
<g id="Broken / Video, Audio, Sound / Camera">
<ellipse id="Vector" cx="13.838" cy="14.5297" rx="3.34463" ry="3.34463" fill="white" stroke="white" stroke-width="1.5"/>
<path id="Vector_2" d="M2.68921 14.9351C2.68921 11.5188 2.68921 9.81069 3.52428 8.58365C3.88579 8.05244 4.35032 7.59636 4.89136 7.24142C5.69442 6.71459 6.69979 6.52628 8.23906 6.45897C8.97361 6.45897 9.60604 5.91249 9.75009 5.2053C9.96618 4.14452 10.9148 3.38096 12.0166 3.38096H15.6593C16.7611 3.38096 17.7098 4.14452 17.9259 5.2053C18.0699 5.91249 18.7023 6.45897 19.4369 6.45897C20.9762 6.52628 21.9815 6.71459 22.7846 7.24142C23.3256 7.59636 23.7902 8.05244 24.1517 8.58365C24.9867 9.81069 24.9867 11.5188 24.9867 14.9351C24.9867 18.3514 24.9867 20.0596 24.1517 21.2866C23.7902 21.8178 23.3256 22.2739 22.7846 22.6289C21.5348 23.4487 19.795 23.4487 16.3155 23.4487H11.3605C7.88091 23.4487 6.14113 23.4487 4.89136 22.6289C4.35032 22.2739 3.88579 21.8178 3.52428 21.2866C3.28842 20.9401 3.11917 20.5551 2.99773 20.1041" stroke="white" stroke-linecap="round"/>
<path id="Vector_3" d="M21.6422 11.1851H20.5273" stroke="white" stroke-linecap="round"/>
</g>
</svg>
