<svg width="44" height="45" viewBox="0 0 44 45" fill="none" xmlns="http://www.w3.org/2000/svg">
<g filter="url(#filter0_d_1262_2662)">
<rect x="4.0896" y="0.577072" width="35.6761" height="35.6761" rx="4" fill="#F9B233"/>
<ellipse cx="21.9276" cy="19.5297" rx="3.34463" ry="3.34463" fill="white" stroke="white" stroke-width="1.5"/>
<path d="M10.7788 19.9351C10.7788 16.5188 10.7788 14.8107 11.6139 13.5836C11.9754 13.0524 12.4399 12.5964 12.981 12.2414C13.784 11.7146 14.7894 11.5263 16.3287 11.459C17.0632 11.459 17.6956 10.9125 17.8397 10.2053C18.0558 9.14452 19.0044 8.38096 20.1062 8.38096H23.7489C24.8507 8.38096 25.7994 9.14452 26.0155 10.2053C26.1595 10.9125 26.7919 11.459 27.5265 11.459C29.0658 11.5263 30.0711 11.7146 30.8742 12.2414C31.4152 12.5964 31.8798 13.0524 32.2413 13.5836C33.0763 14.8107 33.0763 16.5188 33.0763 19.9351C33.0763 23.3514 33.0763 25.0596 32.2413 26.2866C31.8798 26.8178 31.4152 27.2739 30.8742 27.6289C29.6244 28.4487 27.8846 28.4487 24.4051 28.4487H19.4501C15.9705 28.4487 14.2307 28.4487 12.981 27.6289C12.4399 27.2739 11.9754 26.8178 11.6139 26.2866C11.378 25.9401 11.2088 25.5551 11.0873 25.1041" stroke="white" stroke-linecap="round"/>
<path d="M29.7318 16.1851H28.6169" stroke="white" stroke-linecap="round"/>
</g>
<defs>
<filter id="filter0_d_1262_2662" x="0.0895996" y="0.577072" width="43.676" height="43.6761" filterUnits="userSpaceOnUse" color-interpolation-filters="sRGB">
<feFlood flood-opacity="0" result="BackgroundImageFix"/>
<feColorMatrix in="SourceAlpha" type="matrix" values="0 0 0 0 0 0 0 0 0 0 0 0 0 0 0 0 0 0 127 0" result="hardAlpha"/>
<feOffset dy="4"/>
<feGaussianBlur stdDeviation="2"/>
<feComposite in2="hardAlpha" operator="out"/>
<feColorMatrix type="matrix" values="0 0 0 0 0 0 0 0 0 0 0 0 0 0 0 0 0 0 0.25 0"/>
<feBlend mode="normal" in2="BackgroundImageFix" result="effect1_dropShadow_1262_2662"/>
<feBlend mode="normal" in="SourceGraphic" in2="effect1_dropShadow_1262_2662" result="shape"/>
</filter>
</defs>
</svg>
