<svg width="36" height="39" viewBox="0 0 36 39" fill="none" xmlns="http://www.w3.org/2000/svg">
<mask id="path-1-inside-1_1993_23997" fill="white">
<path fill-rule="evenodd" clip-rule="evenodd" d="M27.542 22.2236C24.723 22.2236 22.4378 24.5327 22.4378 27.3811C22.4378 30.2071 24.0669 33.5048 26.6086 34.6841C27.2011 34.959 27.8829 34.959 28.4754 34.6841C31.0171 33.5048 32.6462 30.2071 32.6462 27.3811C32.6462 24.5327 30.3609 22.2236 27.542 22.2236ZM27.542 29.3486C28.3474 29.3486 29.0003 28.6397 29.0003 27.7653C29.0003 26.8908 28.3474 26.182 27.542 26.182C26.7366 26.182 26.0837 26.8908 26.0837 27.7653C26.0837 28.6397 26.7366 29.3486 27.542 29.3486Z"/>
<path fill-rule="evenodd" clip-rule="evenodd" d="M8.58366 3.22363C5.76471 3.22363 3.47949 5.53269 3.47949 8.38105C3.47949 11.2071 5.10857 14.5048 7.65028 15.6841C8.24279 15.959 8.92453 15.959 9.51704 15.6841C12.0588 14.5048 13.6878 11.2071 13.6878 8.38105C13.6878 5.53269 11.4026 3.22363 8.58366 3.22363ZM8.58366 10.3486C9.38907 10.3486 10.042 9.63975 10.042 8.7653C10.042 7.89085 9.38907 7.18197 8.58366 7.18197C7.77824 7.18197 7.12533 7.89085 7.12533 8.7653C7.12533 9.63975 7.77824 10.3486 8.58366 10.3486Z"/>
</mask>
<path fill-rule="evenodd" clip-rule="evenodd" d="M27.542 22.2236C24.723 22.2236 22.4378 24.5327 22.4378 27.3811C22.4378 30.2071 24.0669 33.5048 26.6086 34.6841C27.2011 34.959 27.8829 34.959 28.4754 34.6841C31.0171 33.5048 32.6462 30.2071 32.6462 27.3811C32.6462 24.5327 30.3609 22.2236 27.542 22.2236ZM27.542 29.3486C28.3474 29.3486 29.0003 28.6397 29.0003 27.7653C29.0003 26.8908 28.3474 26.182 27.542 26.182C26.7366 26.182 26.0837 26.8908 26.0837 27.7653C26.0837 28.6397 26.7366 29.3486 27.542 29.3486Z" fill="#929292"/>
<path fill-rule="evenodd" clip-rule="evenodd" d="M8.58366 3.22363C5.76471 3.22363 3.47949 5.53269 3.47949 8.38105C3.47949 11.2071 5.10857 14.5048 7.65028 15.6841C8.24279 15.959 8.92453 15.959 9.51704 15.6841C12.0588 14.5048 13.6878 11.2071 13.6878 8.38105C13.6878 5.53269 11.4026 3.22363 8.58366 3.22363ZM8.58366 10.3486C9.38907 10.3486 10.042 9.63975 10.042 8.7653C10.042 7.89085 9.38907 7.18197 8.58366 7.18197C7.77824 7.18197 7.12533 7.89085 7.12533 8.7653C7.12533 9.63975 7.77824 10.3486 8.58366 10.3486Z" fill="#929292"/>
<path d="M9.51704 15.6841L9.72748 16.1377L9.51704 15.6841ZM7.65028 15.6841L7.43984 16.1377L7.65028 15.6841ZM28.4754 34.6841L28.6858 35.1377L28.4754 34.6841ZM26.6086 34.6841L26.3982 35.1377L26.6086 34.6841ZM9.3066 15.2306C8.84755 15.4435 8.31977 15.4435 7.86072 15.2306L7.43984 16.1377C8.16581 16.4745 9.0015 16.4745 9.72748 16.1377L9.3066 15.2306ZM2.97949 8.38105C2.97949 9.88413 3.41093 11.497 4.1731 12.8901C4.93438 14.2816 6.0471 15.4915 7.43984 16.1377L7.86072 15.2306C6.71174 14.6975 5.73907 13.6689 5.05038 12.4101C4.36259 11.153 3.97949 9.70402 3.97949 8.38105H2.97949ZM13.1878 8.38105C13.1878 9.70402 12.8047 11.153 12.1169 12.4101C11.4282 13.6689 10.4556 14.6975 9.3066 15.2306L9.72748 16.1377C11.1202 15.4915 12.2329 14.2816 12.9942 12.8901C13.7564 11.497 14.1878 9.88413 14.1878 8.38105H13.1878ZM8.58366 3.72363C11.1216 3.72363 13.1878 5.80393 13.1878 8.38105H14.1878C14.1878 5.26145 11.6836 2.72363 8.58366 2.72363V3.72363ZM8.58366 2.72363C5.48368 2.72363 2.97949 5.26145 2.97949 8.38105H3.97949C3.97949 5.80393 6.04573 3.72363 8.58366 3.72363V2.72363ZM28.2649 34.2306C27.8059 34.4435 27.2781 34.4435 26.819 34.2306L26.3982 35.1377C27.1241 35.4745 27.9598 35.4745 28.6858 35.1377L28.2649 34.2306ZM21.9378 27.3811C21.9378 28.8841 22.3693 30.497 23.1314 31.8901C23.8927 33.2816 25.0054 34.4915 26.3982 35.1377L26.819 34.2306C25.6701 33.6975 24.6974 32.6689 24.0087 31.4101C23.3209 30.153 22.9378 28.704 22.9378 27.3811H21.9378ZM32.1462 27.3811C32.1462 28.704 31.7631 30.153 31.0753 31.4101C30.3866 32.6689 29.4139 33.6975 28.2649 34.2306L28.6858 35.1377C30.0785 34.4915 31.1913 33.2816 31.9525 31.8901C32.7147 30.497 33.1462 28.8841 33.1462 27.3811H32.1462ZM27.542 22.7236C30.0799 22.7236 32.1462 24.8039 32.1462 27.3811H33.1462C33.1462 24.2614 30.642 21.7236 27.542 21.7236V22.7236ZM27.542 21.7236C24.442 21.7236 21.9378 24.2614 21.9378 27.3811H22.9378C22.9378 24.8039 25.0041 22.7236 27.542 22.7236V21.7236ZM28.5003 27.7653C28.5003 28.4031 28.0333 28.8486 27.542 28.8486V29.8486C28.6615 29.8486 29.5003 28.8764 29.5003 27.7653H28.5003ZM27.542 28.8486C27.0506 28.8486 26.5837 28.4031 26.5837 27.7653H25.5837C25.5837 28.8764 26.4225 29.8486 27.542 29.8486V28.8486ZM26.5837 27.7653C26.5837 27.1275 27.0506 26.682 27.542 26.682V25.682C26.4225 25.682 25.5837 26.6542 25.5837 27.7653H26.5837ZM27.542 26.682C28.0333 26.682 28.5003 27.1275 28.5003 27.7653H29.5003C29.5003 26.6542 28.6615 25.682 27.542 25.682V26.682ZM9.54199 8.7653C9.54199 9.40312 9.07501 9.84863 8.58366 9.84863V10.8486C9.70313 10.8486 10.542 9.87638 10.542 8.7653H9.54199ZM8.58366 9.84863C8.0923 9.84863 7.62533 9.40312 7.62533 8.7653H6.62533C6.62533 9.87638 7.46418 10.8486 8.58366 10.8486V9.84863ZM7.62533 8.7653C7.62533 8.12748 8.0923 7.68197 8.58366 7.68197V6.68197C7.46418 6.68197 6.62533 7.65421 6.62533 8.7653H7.62533ZM8.58366 7.68197C9.07501 7.68197 9.54199 8.12748 9.54199 8.7653H10.542C10.542 7.65421 9.70313 6.68197 8.58366 6.68197V7.68197Z" fill="#929292" mask="url(#path-1-inside-1_1993_23997)"/>
<path fill-rule="evenodd" clip-rule="evenodd" d="M16.9691 7.97363C16.9691 7.31779 17.4587 6.78613 18.0628 6.78613H24.0885C28.1007 6.78613 29.6265 12.4751 26.2416 14.8137L11.0585 25.3039C9.51985 26.3669 10.2134 28.9528 12.0371 28.9528H15.4223L15.1019 28.605C14.6748 28.1412 14.6748 27.3894 15.1019 26.9256C15.529 26.4619 16.2216 26.4619 16.6487 26.9256L18.8362 29.3006C19.2633 29.7644 19.2633 30.5162 18.8362 30.98L16.6487 33.355C16.2216 33.8187 15.529 33.8187 15.1019 33.355C14.6748 32.8912 14.6748 32.1394 15.1019 31.6756L15.4223 31.3278H12.0371C8.02492 31.3278 6.49912 25.6389 9.88406 23.3002L25.0672 12.81C26.6058 11.747 25.9122 9.16113 24.0885 9.16113H18.0628C17.4587 9.16113 16.9691 8.62947 16.9691 7.97363Z" fill="#949494" stroke="#929292" stroke-width="0.5" stroke-linecap="round"/>
</svg>
