<svg width="26" height="25" viewBox="0 0 26 25" fill="none" xmlns="http://www.w3.org/2000/svg">
<path d="M13.1125 6.15777L12.7522 6.50457L12.7591 6.51139L13.1125 6.15777ZM10.0198 19.8083L9.71029 20.201L9.71029 20.201L10.0198 19.8083ZM16.2053 19.8083L16.5148 20.201V20.201L16.2053 19.8083ZM7.85616 17.4771C7.64294 17.3017 7.32784 17.3323 7.15236 17.5455C6.97688 17.7587 7.00748 18.0738 7.22069 18.2493L7.85616 17.4771ZM3.51259 14.084C3.6451 14.3262 3.94892 14.4152 4.19119 14.2827C4.43347 14.1502 4.52245 13.8464 4.38995 13.6041L3.51259 14.084ZM14.7949 8.54649C14.9902 8.74172 15.3068 8.74166 15.502 8.54636C15.6972 8.35107 15.6972 8.03448 15.5019 7.83926L14.7949 8.54649ZM3.43335 9.8594C3.43335 7.57143 4.72658 5.63908 6.51314 4.82244C8.26817 4.02021 10.59 4.25798 12.7523 6.5045L13.4728 5.81104C11.0546 3.29861 8.28685 2.91215 6.09741 3.91296C3.93948 4.89935 2.43335 7.19729 2.43335 9.8594H3.43335ZM9.71029 20.201C10.2341 20.6139 10.7797 21.0406 11.3285 21.3613C11.8772 21.6819 12.4767 21.9259 13.1125 21.9259V20.9259C12.7305 20.9259 12.3121 20.7778 11.8331 20.4979C11.3542 20.2181 10.8624 19.8359 10.3294 19.4157L9.71029 20.201ZM16.5148 20.201C17.9827 19.0439 19.8097 17.7535 21.2455 16.1368C22.6985 14.5007 23.7917 12.4905 23.7917 9.8594H22.7917C22.7917 12.1784 21.8393 13.9621 20.4978 15.4727C19.1391 17.0026 17.4229 18.2118 15.8957 19.4157L16.5148 20.201ZM23.7917 9.8594C23.7917 7.19729 22.2856 4.89935 20.1277 3.91296C17.9382 2.91215 15.1705 3.29861 12.7523 5.81104L13.4728 6.5045C15.6351 4.25798 17.9569 4.02021 19.712 4.82244C21.4985 5.63908 22.7917 7.57143 22.7917 9.8594H23.7917ZM15.8957 19.4157C15.3627 19.8359 14.8709 20.2181 14.392 20.4979C13.913 20.7778 13.4946 20.9259 13.1125 20.9259V21.9259C13.7484 21.9259 14.3479 21.6819 14.8966 21.3613C15.4454 21.0406 15.991 20.6139 16.5148 20.201L15.8957 19.4157ZM10.3294 19.4157C9.52855 18.7844 8.69324 18.1661 7.85616 17.4771L7.22069 18.2493C8.06416 18.9435 8.94494 19.5976 9.71029 20.201L10.3294 19.4157ZM4.38995 13.6041C3.79922 12.524 3.43335 11.2977 3.43335 9.8594H2.43335C2.43335 11.4786 2.84798 12.8688 3.51259 14.084L4.38995 13.6041ZM12.7591 6.51139L14.7949 8.54649L15.5019 7.83926L13.466 5.80415L12.7591 6.51139Z" fill="#BE1622"/>
</svg>
