<svg width="34" height="27" viewBox="0 0 34 27" fill="none" xmlns="http://www.w3.org/2000/svg">
<path fill-rule="evenodd" clip-rule="evenodd" d="M26.8473 13.2839C28.0751 13.2836 29.2782 12.939 30.32 12.2892C31.3617 11.6394 32.2004 10.7105 32.7407 9.60801C33.281 8.5055 33.5013 7.27356 33.3766 6.05212C33.2519 4.83068 32.7871 3.66869 32.0352 2.69814C31.2832 1.72758 30.2741 0.987352 29.1225 0.561529C27.9709 0.135706 26.723 0.0413551 25.5205 0.289192C24.318 0.537028 23.209 1.11712 22.3197 1.96358C21.4303 2.81004 20.7961 3.88894 20.4892 5.07774H2.22888C1.7936 5.07774 1.37614 5.25066 1.06835 5.55845C0.760564 5.86624 0.58765 6.28369 0.58765 6.71897C0.58765 7.15425 0.760564 7.5717 1.06835 7.87949C1.37614 8.18729 1.7936 8.3602 2.22888 8.3602H20.4892C20.8531 9.76968 21.6752 11.0182 22.8261 11.9095C23.9771 12.8008 25.3916 13.2843 26.8473 13.2839ZM23.5649 6.71897C23.5649 7.36818 23.7574 8.00281 24.118 8.54261C24.4787 9.0824 24.9914 9.50313 25.5912 9.75157C26.191 10 26.851 10.065 27.4877 9.93836C28.1244 9.8117 28.7093 9.49908 29.1684 9.04002C29.6274 8.58096 29.94 7.99608 30.0667 7.35935C30.1934 6.72261 30.1284 6.06262 29.8799 5.46283C29.6315 4.86304 29.2107 4.35039 28.671 3.98971C28.1312 3.62903 27.4965 3.43651 26.8473 3.43651C25.9768 3.43651 25.1418 3.78234 24.5263 4.39792C23.9107 5.0135 23.5649 5.84841 23.5649 6.71897ZM0.58765 19.8488C0.586069 18.2498 1.16813 16.7052 2.22457 15.5049C3.28101 14.3046 4.73921 13.5312 6.32546 13.3297C7.91171 13.1283 9.51696 13.5127 10.8399 14.4108C12.1628 15.3089 13.1125 16.6589 13.5107 18.2076H31.771C32.2063 18.2076 32.6237 18.3805 32.9315 18.6883C33.2393 18.9961 33.4122 19.4135 33.4122 19.8488C33.4122 20.2841 33.2393 20.7015 32.9315 21.0093C32.6237 21.3171 32.2063 21.49 31.771 21.49H13.5107C13.1125 23.0387 12.1628 24.3887 10.8399 25.2868C9.51696 26.1849 7.91171 26.5694 6.32546 26.3679C4.73921 26.1664 3.28101 25.393 2.22457 24.1927C1.16813 22.9924 0.586069 21.4478 0.58765 19.8488ZM10.435 19.8488C10.435 19.1996 10.2425 18.565 9.88183 18.0252C9.52115 17.4854 9.0085 17.0646 8.40871 16.8162C7.80892 16.5678 7.14892 16.5028 6.51219 16.6294C5.87546 16.7561 5.29058 17.0687 4.83152 17.5278C4.37246 17.9868 4.05983 18.5717 3.93318 19.2084C3.80652 19.8452 3.87153 20.5052 4.11997 21.1049C4.36841 21.7047 4.78913 22.2174 5.32893 22.5781C5.86873 22.9387 6.50336 23.1313 7.15257 23.1313C8.02313 23.1313 8.85803 22.7854 9.47361 22.1699C10.0892 21.5543 10.435 20.7194 10.435 19.8488Z" fill="white"/>
</svg>
