<svg width="28" height="28" viewBox="0 0 28 28" fill="none" xmlns="http://www.w3.org/2000/svg">
<path d="M14 7V11.6667" stroke="white" stroke-width="1.5" stroke-linecap="round"/>
<path d="M8.75 22.1666C9.5142 24.2057 11.5762 25.6666 14 25.6666C14.2852 25.6666 14.5654 25.6464 14.8391 25.6074M19.25 22.1666C18.9384 22.998 18.4111 23.7332 17.7316 24.3125" stroke="white" stroke-width="1.5" stroke-linecap="round"/>
<path d="M10.6254 3.11987C11.6482 2.61556 12.7923 2.33337 14 2.33337C18.3487 2.33337 21.874 5.99231 21.874 10.5058V11.3279C21.874 12.3144 22.1553 13.2788 22.6826 14.0997L23.9746 16.1112C25.1547 17.9484 24.2538 20.4458 22.2012 21.0268C16.8318 22.5467 11.1682 22.5467 5.79876 21.0268C3.74622 20.4458 2.84529 17.9484 4.02542 16.1112L5.31743 14.0997C5.84467 13.2788 6.12602 12.3144 6.12602 11.3279V10.5058C6.12602 9.25238 6.3979 8.06484 6.88379 7.00328" stroke="white" stroke-width="1.5" stroke-linecap="round"/>
</svg>
