<svg width="236" height="76" viewBox="0 0 236 76" fill="none" xmlns="http://www.w3.org/2000/svg">
<rect y="0.5" width="236" height="75" rx="37.5" fill="#FBFBFB"/>
<path d="M221.178 35.1576L217.277 45.1798H217.16L213.091 35.1576H209.412L215.51 49.1678L212.026 56.9602H215.601L225 35.1576H221.178ZM193.617 26.8408H190.211V49.9549H193.617V26.8408ZM180.798 26.8408H172.608V49.9549H176.04V41.2052H180.811C181.773 41.2384 182.732 41.0785 183.632 40.7347C184.532 40.3909 185.356 39.8701 186.055 39.2025C186.754 38.5349 187.314 37.7338 187.704 36.8458C188.094 35.9578 188.305 35.0005 188.325 34.0295C188.305 33.0567 188.094 32.0977 187.703 31.208C187.313 30.3184 186.751 29.5159 186.051 28.847C185.351 28.1782 184.526 27.6564 183.624 27.312C182.722 26.9675 181.762 26.8076 180.798 26.8408ZM180.889 37.9779H176.04V30.1068H180.902C181.936 30.1068 182.928 30.5215 183.66 31.2595C184.391 31.9976 184.802 32.9986 184.802 34.0424C184.802 35.0861 184.391 36.0871 183.66 36.8252C182.928 37.5632 181.936 37.9779 180.902 37.9779H180.889H180.889ZM202.015 34.659C200.767 34.5867 199.526 34.8833 198.443 35.5124C197.36 36.1415 196.482 37.0758 195.917 38.2008L198.96 39.5127C199.261 38.9565 199.717 38.5013 200.271 38.203C200.826 37.9046 201.454 37.7763 202.08 37.8336C202.51 37.7902 202.943 37.8329 203.357 37.9593C203.77 38.0857 204.154 38.2932 204.488 38.5699C204.821 38.8466 205.097 39.1871 205.299 39.5718C205.502 39.9565 205.627 40.3777 205.668 40.8114V41.0476C204.578 40.4527 203.358 40.1415 202.119 40.1423C198.856 40.1423 195.528 41.9529 195.528 45.3898C195.528 48.4858 198.193 50.4797 201.209 50.4797C202.067 50.5347 202.924 50.3539 203.689 49.9566C204.453 49.5593 205.097 48.9603 205.551 48.2234H205.681V50.0073H209.009V41.1133C209.009 37.0073 205.967 34.7247 202.041 34.7247L202.015 34.659ZM201.612 47.3314C200.494 47.3314 198.934 46.7542 198.934 45.3636C198.934 43.5797 200.871 42.8977 202.561 42.8977C203.651 42.8678 204.729 43.1351 205.681 43.6712C205.555 44.6743 205.074 45.5977 204.326 46.2706C203.578 46.9434 202.614 47.3203 201.612 47.3314ZM78.3402 50.4535C71.6079 50.476 66.1092 45.0326 66.0024 38.2403C66.1096 31.4479 71.6079 26.0045 78.3402 26.027C79.8816 26.0012 81.4127 26.2861 82.8437 26.865C84.2746 27.444 85.5767 28.3054 86.6734 29.3986L84.3203 31.7469C82.7243 30.1688 80.5746 29.2917 78.3402 29.3067C73.4793 29.3067 69.5387 33.283 69.5387 38.1879C69.5387 43.0927 73.4793 47.069 78.3402 47.069C79.4762 47.116 80.6093 46.9219 81.6663 46.4993C82.7233 46.0767 83.6807 45.4349 84.4765 44.6155C85.5345 43.4646 86.172 41.9839 86.2836 40.418H78.3402V37.1778H89.5207C89.6427 37.866 89.6991 38.5642 89.6897 39.2637C89.802 42.1676 88.7687 44.9981 86.8164 47.1347C85.7142 48.2581 84.3896 49.1343 82.929 49.7061C81.4685 50.2779 79.9048 50.5328 78.3402 50.4535ZM106.981 42.5825C107.024 43.632 106.856 44.6795 106.487 45.6619C106.119 46.6444 105.558 47.5416 104.837 48.2995C104.116 49.0575 103.251 49.6605 102.293 50.0725C101.336 50.4845 100.306 50.6969 99.2646 50.6969C98.2236 50.6969 97.1934 50.4845 96.2358 50.0725C95.2782 49.6605 94.413 49.0575 93.6923 48.2995C92.9716 47.5416 92.4101 46.6444 92.0418 45.6619C91.6734 44.6795 91.5057 43.632 91.5487 42.5825C91.5057 41.533 91.6734 40.4855 92.0418 39.503C92.4101 38.5206 92.9716 37.6234 93.6923 36.8655C94.413 36.1075 95.2782 35.5044 96.2358 35.0924C97.1934 34.6805 98.2236 34.4681 99.2646 34.4681C100.306 34.4681 101.336 34.6805 102.293 35.0924C103.251 35.5044 104.116 36.1075 104.837 36.8655C105.558 37.6234 106.119 38.5206 106.487 39.503C106.856 40.4855 107.024 41.533 106.981 42.5825ZM103.6 42.5825C103.658 41.9732 103.588 41.3586 103.396 40.778C103.204 40.1974 102.894 39.6637 102.486 39.211C102.078 38.7583 101.58 38.3967 101.026 38.1492C100.471 37.9017 99.8711 37.7739 99.2646 37.7739C98.6581 37.7739 98.0582 37.9017 97.5035 38.1492C96.9488 38.3967 96.4514 38.7583 96.0432 39.211C95.6351 39.6637 95.3251 40.1974 95.1332 40.778C94.9413 41.3586 94.8717 41.9732 94.9288 42.5825C94.8717 43.1918 94.9413 43.8064 95.1332 44.387C95.3251 44.9676 95.6351 45.5013 96.0432 45.954C96.4514 46.4067 96.9488 46.7683 97.5035 47.0158C98.0582 47.2633 98.6581 47.3911 99.2646 47.3911C99.8711 47.3911 100.471 47.2633 101.026 47.0158C101.58 46.7683 102.078 46.4067 102.486 45.954C102.894 45.5013 103.204 44.9676 103.396 44.387C103.588 43.8064 103.658 43.1918 103.6 42.5825ZM124.271 42.5825C124.271 46.879 120.82 50.3616 116.562 50.3616C112.304 50.3616 108.852 46.879 108.852 42.5825C108.852 38.286 112.304 34.8033 116.562 34.8033C120.82 34.8033 124.271 38.286 124.271 42.5825ZM120.904 42.5825C120.962 41.9732 120.892 41.3586 120.7 40.778C120.508 40.1974 120.198 39.6637 119.79 39.211C119.382 38.7583 118.884 38.3967 118.33 38.1492C117.775 37.9017 117.175 37.7739 116.569 37.7739C115.962 37.7739 115.362 37.9017 114.808 38.1492C114.253 38.3967 113.755 38.7583 113.347 39.211C112.939 39.6637 112.629 40.1974 112.437 40.778C112.245 41.3586 112.176 41.9732 112.233 42.5825C112.175 43.1919 112.245 43.8068 112.437 44.3876C112.628 44.9684 112.938 45.5024 113.346 45.9553C113.755 46.4083 114.252 46.7701 114.807 47.0178C115.362 47.2654 115.962 47.3933 116.568 47.3933C117.175 47.3933 117.775 47.2654 118.33 47.0178C118.885 46.7701 119.382 46.4083 119.791 45.9553C120.199 45.5024 120.509 44.9684 120.7 44.3876C120.892 43.8068 120.962 43.1919 120.904 42.5825ZM141.146 35.1971V49.3254C141.146 55.1234 137.727 57.5112 133.697 57.5112C132.219 57.5237 130.772 57.0943 129.536 56.2772C128.3 55.46 127.332 54.2917 126.754 52.9199L129.705 51.6079C130.012 52.4089 130.545 53.1011 131.238 53.598C131.932 54.095 132.755 54.3748 133.606 54.4024C136.206 54.4024 137.792 52.7889 137.792 49.7845V48.6563H137.662C137.152 49.2305 136.526 49.6879 135.827 49.9979C135.127 50.3079 134.37 50.4633 133.606 50.4535C129.297 50.4535 125.805 46.9297 125.805 42.5825C125.805 38.2353 129.297 34.7114 133.606 34.7114C134.375 34.6943 135.139 34.8421 135.847 35.1452C136.555 35.4482 137.192 35.8995 137.714 36.4692H137.844V35.1576H141.146V35.1971ZM138.117 42.622C138.165 42.0283 138.094 41.4309 137.908 40.8654C137.723 40.2998 137.427 39.7777 137.038 39.3298C136.648 38.882 136.174 38.5177 135.642 38.2584C135.111 37.9992 134.533 37.8503 133.944 37.8207C133.342 37.8408 132.751 37.9816 132.205 38.2349C131.658 38.4882 131.167 38.8489 130.761 39.296C130.354 39.743 130.039 40.2675 129.836 40.8385C129.632 41.4096 129.544 42.0159 129.575 42.622C129.547 43.2239 129.639 43.8254 129.845 44.3912C130.05 44.957 130.366 45.4756 130.773 45.9167C131.179 46.3578 131.67 46.7125 132.214 46.9599C132.759 47.2073 133.347 47.3425 133.944 47.3576C134.53 47.3347 135.105 47.1926 135.635 46.9399C136.166 46.6871 136.64 46.3288 137.03 45.8866C137.419 45.4443 137.717 44.9272 137.904 44.3662C138.09 43.8053 138.163 43.212 138.117 42.622ZM147.165 26.8666V49.9683H143.733V26.8666H147.165ZM160.686 45.1803L163.364 46.9642C162.649 48.0408 161.682 48.9226 160.548 49.5312C159.414 50.1399 158.148 50.4565 156.864 50.4531C155.842 50.4679 154.828 50.2732 153.883 49.8811C152.938 49.4889 152.082 48.9073 151.366 48.1715C150.65 47.4357 150.089 46.5611 149.718 45.6004C149.347 44.6397 149.173 43.613 149.206 42.5825C148.891 38.9148 151.354 35.5922 154.93 34.8603C158.505 34.1284 162.056 36.2205 163.182 39.7227L163.533 40.628L153.133 44.9698C153.457 45.7049 153.991 46.3251 154.668 46.7507C155.345 47.1763 156.132 47.3877 156.929 47.3576C157.686 47.3456 158.429 47.1395 159.086 46.7585C159.743 46.3776 160.294 45.8348 160.686 45.1803ZM152.483 42.3463L159.477 39.4342C159.206 38.8994 158.786 38.4566 158.268 38.1604C157.751 37.8642 157.158 37.7278 156.565 37.7679C155.997 37.793 155.44 37.9319 154.926 38.1766C154.412 38.4213 153.952 38.7669 153.572 39.1931C153.192 39.6194 152.9 40.1177 152.713 40.6591C152.526 41.2005 152.448 41.7741 152.483 42.3463Z" fill="#272727"/>
<path d="M40.1078 37.5L25 53.4851C25.1696 54.0923 25.4745 54.6524 25.8912 55.1224C26.308 55.5924 26.8257 55.9599 27.4047 56.1969C27.9837 56.4339 28.6087 56.5341 29.2319 56.4898C29.8551 56.4455 30.46 56.2578 31.0004 55.9412L48 46.1636L40.1078 37.5Z" fill="#EA4335"/>
<path d="M54.9688 34.8582L47.9266 30.5L40 38.0166L47.9587 46.5L54.9473 42.1883C55.5664 41.838 56.085 41.3113 56.4469 40.6653C56.8087 40.0192 57 39.2784 57 38.5233C57 37.7681 56.8087 37.0273 56.4469 36.3813C56.085 35.7352 55.5664 35.2085 54.9473 34.8582H54.9688Z" fill="#FBBC04"/>
<path d="M25.1288 23.5004C25.0418 23.8376 24.9985 24.1857 25 24.5351V52.4656C25.0011 52.8149 25.0442 53.1625 25.1288 53.5L40 38.096L25.1291 23.5L25.1288 23.5004Z" fill="#4285F4"/>
<path d="M40.1984 38.5L48 30.7938L31.0473 21.0742C30.4095 20.7002 29.684 20.5021 28.9448 20.5C28.0524 20.4985 27.1839 20.7889 26.4717 21.3272C25.7595 21.8654 25.2427 22.6219 25 23.4813L40.1984 38.5Z" fill="#34A853"/>
</svg>
