<svg width="23" height="23" viewBox="0 0 23 23" fill="none" xmlns="http://www.w3.org/2000/svg">
<path d="M11.0911 6.03205L11.6315 6.55215C11.6282 6.55563 11.6248 6.55907 11.6214 6.56248L11.0911 6.03205ZM13.8762 18.3248L14.3405 18.9138H14.3405L13.8762 18.3248ZM8.30607 18.3248L7.84175 18.9138L8.30607 18.3248ZM15.6342 15.994C15.954 15.7308 16.4267 15.7767 16.6899 16.0965C16.9531 16.4164 16.9072 16.889 16.5874 17.1522L15.6342 15.994ZM19.9992 13.3136C19.8004 13.6771 19.3447 13.8105 18.9813 13.6118C18.6178 13.413 18.4844 12.9573 18.6831 12.5939L19.9992 13.3136ZM9.78805 8.39515C9.4951 8.68799 9.02023 8.6879 8.72739 8.39496C8.43455 8.10201 8.43463 7.62714 8.72758 7.3343L9.78805 8.39515ZM19.5078 9.36548C19.5078 7.41723 18.407 5.78668 16.9095 5.10216C15.4593 4.43925 13.502 4.6088 11.6315 6.55215L10.5508 5.51195C12.8052 3.16974 15.4312 2.77716 17.5331 3.73793C19.5877 4.67709 21.0078 6.85603 21.0078 9.36548H19.5078ZM14.3405 18.9138C13.8716 19.2835 13.3641 19.681 12.8489 19.982C12.334 20.2829 11.7399 20.5315 11.0911 20.5315V19.0315C11.3591 19.0315 11.6817 18.9268 12.0921 18.6869C12.5024 18.4472 12.9291 18.1164 13.4119 17.7358L14.3405 18.9138ZM7.84175 18.9138C6.5377 17.8858 4.85919 16.6995 3.54307 15.2175C2.20124 13.7065 1.17448 11.8284 1.17448 9.36548H2.67448C2.67448 11.3603 3.48996 12.8987 4.66464 14.2214C5.86504 15.5731 7.37732 16.6376 8.77038 17.7358L7.84175 18.9138ZM1.17448 9.36548C1.17448 6.85603 2.59461 4.67709 4.6492 3.73793C6.75107 2.77716 9.37714 3.16974 11.6315 5.51195L10.5508 6.55215C8.6803 4.6088 6.72304 4.43925 5.27279 5.10216C3.77526 5.78668 2.67448 7.41723 2.67448 9.36548H1.17448ZM8.77038 17.7358C9.25315 18.1164 9.67993 18.4472 10.0902 18.6869C10.5006 18.9268 10.8232 19.0315 11.0911 19.0315V20.5315C10.4424 20.5315 9.84834 20.2829 9.33337 19.982C8.81816 19.681 8.31073 19.2835 7.84175 18.9138L8.77038 17.7358ZM13.4119 17.7358C14.1437 17.1589 14.8823 16.6129 15.6342 15.994L16.5874 17.1522C15.8259 17.7789 15.0191 18.3788 14.3405 18.9138L13.4119 17.7358ZM18.6831 12.5939C19.193 11.6617 19.5078 10.6065 19.5078 9.36548H21.0078C21.0078 10.8779 20.6198 12.1788 19.9992 13.3136L18.6831 12.5939ZM11.6214 6.56248L9.78805 8.39515L8.72758 7.3343L10.5609 5.50163L11.6214 6.56248Z" fill="#F9B233"/>
</svg>
