<svg width="39" height="37" viewBox="0 0 39 37" fill="none" xmlns="http://www.w3.org/2000/svg">
<rect x="0.621094" y="0.5" width="37.1212" height="36" rx="6.5" fill="#F2F2F2" stroke="#F2F2F2"/>
<path fill-rule="evenodd" clip-rule="evenodd" d="M14.9687 11.5948C15.4317 11.4146 15.9619 11.2916 16.7377 11.2563C17.5153 11.2204 17.7639 11.2122 19.7431 11.2122C21.7223 11.2122 21.9708 11.221 22.7478 11.2563C23.5232 11.291 24.053 11.4146 24.5169 11.5948C24.9956 11.7808 25.4024 12.0298 25.8074 12.4354C26.2124 12.841 26.4615 13.2472 26.6481 13.7264C26.8282 14.1894 26.9512 14.7195 26.9865 15.4954C27.0218 16.2725 27.0301 16.5209 27.0301 18.5C27.0301 20.4792 27.0218 20.7271 26.9865 21.5047C26.9518 22.2805 26.8282 22.8104 26.6481 23.2737C26.4615 23.7528 26.2131 24.1597 25.8074 24.5647C25.4017 24.9697 24.9956 25.2187 24.5164 25.4053C24.053 25.5854 23.5232 25.7085 22.7473 25.7438C21.9702 25.7797 21.7218 25.7879 19.7425 25.7879C17.7633 25.7879 17.5153 25.7791 16.7377 25.7438C15.9619 25.7085 15.4326 25.5854 14.9687 25.4053C14.4892 25.2187 14.0832 24.9695 13.6776 24.5647C13.2721 24.1599 13.0231 23.7528 12.837 23.2737C12.6568 22.8104 12.5338 22.2806 12.4985 21.5047C12.4626 20.7276 12.4543 20.4792 12.4543 18.5C12.4543 16.5209 12.4626 16.2725 12.4985 15.4954C12.5338 14.7196 12.6568 14.1897 12.837 13.7264C13.0231 13.2469 13.272 12.8404 13.6776 12.4354C14.0833 12.0304 14.4892 11.7808 14.9687 11.5948ZM19.7418 16.0707C18.4004 16.0707 17.3129 17.1584 17.3129 18.5C17.3129 19.8417 18.4004 20.9293 19.7418 20.9293C21.0836 20.9293 22.1715 19.8414 22.1715 18.5C22.1715 17.1587 21.0836 16.0707 19.7418 16.0707ZM15.6934 18.5C15.6934 16.2643 17.5056 14.4512 19.7418 14.4512C21.9778 14.4512 23.791 16.2641 23.791 18.5C23.791 20.736 21.9778 22.5489 19.7418 22.5489C17.5056 22.5489 15.6934 20.7358 15.6934 18.5ZM24.6008 14.4512C25.048 14.4512 25.4106 14.0887 25.4106 13.6415C25.4106 13.1942 25.048 12.8317 24.6008 12.8317C24.1536 12.8317 23.791 13.1942 23.791 13.6415C23.791 14.0887 24.1536 14.4512 24.6008 14.4512Z" fill="#676767"/>
</svg>
