<svg width="30" height="30" viewBox="0 0 30 30" fill="none" xmlns="http://www.w3.org/2000/svg">
<path d="M18.6251 13.1353C18.6251 13.8689 18.4076 14.5861 18 15.1961C17.5924 15.8061 17.0131 16.2815 16.3353 16.5622C15.6575 16.843 14.9117 16.9164 14.1922 16.7733C13.4726 16.6302 12.8117 16.2769 12.293 15.7582C11.7742 15.2394 11.4209 14.5785 11.2778 13.8589C11.1347 13.1394 11.2082 12.3936 11.4889 11.7158C11.7696 11.038 12.2451 10.4587 12.8551 10.0512C13.465 9.64357 14.1822 9.42603 14.9158 9.42603C15.8996 9.42603 16.8431 9.81682 17.5387 10.5124C18.2343 11.2081 18.6251 12.1515 18.6251 13.1353Z" stroke="#4E4E4E" stroke-width="1.5"/>
<path d="M4.95445 10.9714C7.29722 0.67184 22.5507 0.687797 24.8804 10.983C26.2483 17.022 22.4912 22.1355 19.1968 25.2978C18.046 26.4077 16.5096 27.0279 14.9109 27.0279C13.3121 27.0279 11.7757 26.4077 10.625 25.2978C7.34219 22.1355 3.58505 17.0118 4.95445 10.9714Z" stroke="#4E4E4E" stroke-width="1.5"/>
</svg>
