<svg width="30" height="21" viewBox="0 0 30 21" fill="none" xmlns="http://www.w3.org/2000/svg">
<path d="M5.01584 14.305C5.19278 14.4967 5.43819 14.6108 5.69877 14.6226H5.70902C5.96964 14.611 6.21512 14.4968 6.39194 14.305L6.4056 14.2914C8.64731 11.9387 12.8012 7.57818 10.5219 3.2416C10.0486 2.37972 9.35334 1.66009 8.5083 1.15727C7.66326 0.654455 6.69915 0.38673 5.71584 0.381836H5.69877C4.7155 0.386909 3.75146 0.654708 2.90645 1.15751C2.06145 1.66031 1.36619 2.37984 0.892673 3.2416C-1.3866 7.57818 2.77072 11.9489 5.00048 14.2896L5.01584 14.305ZM1.98706 3.82208C2.35299 3.15514 2.89144 2.59881 3.54606 2.2113C4.20069 1.82378 4.94743 1.61933 5.70816 1.61933C6.46889 1.61933 7.21563 1.82378 7.87026 2.2113C8.52489 2.59881 9.06334 3.15514 9.42926 3.82208C11.1093 7.0233 8.43902 10.3492 5.70902 13.2396C2.97731 10.3474 0.305356 7.02159 1.98536 3.82208H1.98706Z" fill="#E6AA57"/>
<path d="M8.74297 5.91673C8.74297 5.31634 8.56494 4.72943 8.23138 4.23023C7.89782 3.73102 7.42373 3.34194 6.86904 3.11218C6.31436 2.88243 5.704 2.82232 5.11515 2.93945C4.5263 3.05658 3.9854 3.34568 3.56086 3.77022C3.13632 4.19476 2.84721 4.73566 2.73008 5.32451C2.61295 5.91336 2.67307 6.52372 2.90282 7.07841C3.13258 7.63309 3.52166 8.10718 4.02087 8.44074C4.52007 8.7743 5.10698 8.95234 5.70736 8.95234C6.51246 8.95234 7.28458 8.63251 7.85387 8.06323C8.42315 7.49394 8.74297 6.72182 8.74297 5.91673ZM3.90956 5.91673C3.90956 5.56116 4.015 5.21357 4.21254 4.91792C4.41009 4.62228 4.69087 4.39184 5.01937 4.25577C5.34788 4.1197 5.70936 4.0841 6.0581 4.15347C6.40684 4.22284 6.72718 4.39406 6.9786 4.64549C7.23003 4.89692 7.40126 5.21726 7.47063 5.566C7.54 5.91474 7.50439 6.27621 7.36832 6.60471C7.23224 6.93322 7.00182 7.214 6.70617 7.41154C6.41052 7.60909 6.06294 7.71452 5.70736 7.71452C5.23056 7.71452 4.77328 7.52512 4.43612 7.18797C4.09897 6.85082 3.90956 6.39354 3.90956 5.91673ZM22.8608 14.3048C23.0376 14.4966 23.2831 14.6107 23.5437 14.6223H23.5539C23.8146 14.6107 24.0601 14.4966 24.2369 14.3048L24.2505 14.2911C26.482 11.9453 30.6376 7.57965 28.3583 3.24307C27.8848 2.38234 27.1899 1.66373 26.3456 1.16156C25.5012 0.659389 24.538 0.391883 23.5557 0.386719H23.5369C22.5536 0.391792 21.5896 0.659604 20.7446 1.16241C19.8996 1.66521 19.2043 2.38473 18.7308 3.24648C16.4515 7.58307 20.6088 11.9538 22.8386 14.2945L22.8608 14.3048ZM19.832 3.82184C20.1979 3.15491 20.7364 2.59858 21.391 2.21106C22.0456 1.82354 22.7924 1.61909 23.5531 1.61909C24.3138 1.61909 25.0606 1.82354 25.7152 2.21106C26.3698 2.59858 26.9083 3.15491 27.2742 3.82184C28.9542 7.02306 26.284 10.3489 23.5539 13.2394C20.8291 10.3472 18.1588 7.01965 19.8388 3.82184H19.832Z" fill="#E6AA57"/>
<path d="M26.5959 5.91647C26.5959 5.31608 26.4179 4.72918 26.0844 4.22998C25.7508 3.73078 25.2767 3.34169 24.722 3.11194C24.1673 2.88218 23.557 2.82206 22.9681 2.93919C22.3793 3.05632 21.8384 3.34544 21.4138 3.76997C20.9893 4.19451 20.7002 4.7354 20.5831 5.32425C20.4659 5.9131 20.526 6.52346 20.7558 7.07815C20.9856 7.63283 21.3746 8.10693 21.8738 8.44049C22.373 8.77405 22.9599 8.95208 23.5603 8.95208C24.3654 8.95208 25.1375 8.63225 25.7068 8.06296C26.2761 7.49368 26.5959 6.72156 26.5959 5.91647ZM21.7625 5.91647C21.7625 5.5609 21.868 5.21331 22.0655 4.91766C22.2631 4.62202 22.5438 4.39158 22.8723 4.25551C23.2008 4.11944 23.5623 4.08384 23.9111 4.15321C24.2598 4.22257 24.5801 4.3938 24.8316 4.64523C25.083 4.89666 25.2542 5.217 25.3236 5.56574C25.393 5.91448 25.3574 6.27596 25.2213 6.60447C25.0852 6.93297 24.8548 7.21375 24.5591 7.4113C24.2635 7.60884 23.9159 7.71428 23.5603 7.71428C23.0835 7.71428 22.6262 7.52486 22.2891 7.18771C21.9519 6.85055 21.7625 6.39328 21.7625 5.91647ZM24.3764 16.594C23.8559 16.3779 23.2709 16.3774 22.75 16.5926C22.2291 16.8077 21.8149 17.2209 21.5986 17.7414C21.5713 17.8062 21.548 17.8717 21.5286 17.9377H7.87009C7.84715 17.8571 7.81979 17.7779 7.78814 17.7004C7.58944 17.2204 7.23046 16.8242 6.77237 16.5793C6.31429 16.3343 5.78544 16.2558 5.27596 16.3571C4.76647 16.4584 4.30787 16.7332 3.97831 17.1348C3.64876 17.5363 3.46863 18.0397 3.46863 18.5592C3.46863 19.0786 3.64876 19.582 3.97831 19.9835C4.30787 20.3851 4.76647 20.6599 5.27596 20.7612C5.78544 20.8625 6.31429 20.784 6.77237 20.539C7.23046 20.2941 7.58944 19.8979 7.78814 19.4179C7.82054 19.3388 7.84847 19.2578 7.8718 19.1755H21.5303C21.5497 19.2404 21.5724 19.3047 21.5986 19.3684C21.732 19.6916 21.9431 19.9768 22.2131 20.1989C22.4831 20.421 22.8037 20.5731 23.1465 20.6416C23.4893 20.7102 23.8438 20.6931 24.1784 20.592C24.5131 20.4908 24.8176 20.3087 25.065 20.0617C25.3125 19.8147 25.4952 19.5105 25.5969 19.1761C25.6987 18.8416 25.7164 18.4872 25.6485 18.1443C25.5806 17.8013 25.4291 17.4804 25.2075 17.21C24.9859 16.9396 24.6993 16.728 24.3764 16.594ZM6.63741 18.9433C6.54832 19.1587 6.38728 19.3365 6.18176 19.4465C5.97623 19.5565 5.73893 19.5917 5.5103 19.5463C5.28168 19.5009 5.07588 19.3776 4.92798 19.1974C4.78008 19.0173 4.69925 18.7914 4.69925 18.5583C4.69925 18.3252 4.78008 18.0993 4.92798 17.9192C5.07588 17.739 5.28168 17.6157 5.5103 17.5703C5.73893 17.5249 5.97623 17.5602 6.18176 17.6701C6.38728 17.7801 6.54832 17.9579 6.63741 18.1733C6.73938 18.4198 6.73938 18.6968 6.63741 18.9433ZM23.8984 19.377C23.7361 19.444 23.5576 19.4615 23.3853 19.4271C23.2131 19.3927 23.055 19.308 22.9309 19.1837C22.8069 19.0595 22.7224 18.9012 22.6883 18.7289C22.6542 18.5567 22.672 18.3781 22.7393 18.216C22.8067 18.0538 22.9206 17.9152 23.0667 17.8178C23.2128 17.7204 23.3846 17.6685 23.5602 17.6687C23.7358 17.6689 23.9074 17.7211 24.0533 17.8189C24.1992 17.9166 24.3128 18.0554 24.3799 18.2177C24.4697 18.4353 24.4694 18.6796 24.3791 18.897C24.2888 19.1144 24.1159 19.287 23.8984 19.377Z" fill="#E6AA57"/>
</svg>
