<svg width="23" height="22" viewBox="0 0 23 22" fill="none" xmlns="http://www.w3.org/2000/svg">
<path d="M11.5799 20.9088C12.2124 20.9088 12.8082 20.588 13.2299 20.0288L14.6049 18.1955C14.6324 18.1588 14.7424 18.113 14.7882 18.1038H15.2466C19.0691 18.1038 21.4341 17.068 21.4341 11.9163V7.33301C21.4341 3.28134 19.2982 1.14551 15.2466 1.14551H7.91325C3.86158 1.14551 1.72575 3.28134 1.72575 7.33301V11.9163C1.72575 15.968 3.86158 18.1038 7.91325 18.1038H8.37158C8.44492 18.1038 8.50908 18.1405 8.55492 18.1955L9.92992 20.0288C10.3516 20.588 10.9474 20.9088 11.5799 20.9088ZM15.2466 2.52051C18.5282 2.52051 20.0591 4.05134 20.0591 7.33301V11.9163C20.0591 16.0597 18.6382 16.7288 15.2466 16.7288H14.7882C14.3207 16.7288 13.7891 16.9947 13.5049 17.3705L12.1299 19.2038C11.8091 19.6255 11.3507 19.6255 11.0299 19.2038L9.65492 17.3705C9.35242 16.9672 8.87575 16.7288 8.37158 16.7288H7.91325C4.63158 16.7288 3.10075 15.198 3.10075 11.9163V7.33301C3.10075 4.05134 4.63158 2.52051 7.91325 2.52051H15.2466Z" fill="#E5A552"/>
<path d="M6.99691 8.02051H16.1636C16.5394 8.02051 16.8511 7.70884 16.8511 7.33301C16.8511 6.95717 16.5394 6.64551 16.1636 6.64551H6.99691C6.62107 6.64551 6.30941 6.95717 6.30941 7.33301C6.30941 7.70884 6.62107 8.02051 6.99691 8.02051Z" fill="#E5A552"/>
<path d="M10.6636 12.6045H16.1636C16.5394 12.6045 16.8511 12.2928 16.8511 11.917C16.8511 11.5412 16.5394 11.2295 16.1636 11.2295H10.6636C10.2877 11.2295 9.97607 11.5412 9.97607 11.917C9.97607 12.2928 10.2877 12.6045 10.6636 12.6045Z" fill="#E5A552"/>
</svg>
