<svg width="23" height="23" viewBox="0 0 23 23" fill="none" xmlns="http://www.w3.org/2000/svg">
<path d="M11.0908 6.35596V20.2397" stroke="#F9B233" stroke-width="1.5"/>
<path d="M17.5078 9.23975L13.8411 10.1564" stroke="#F9B233" stroke-width="1.5" stroke-linecap="round"/>
<path d="M4.67383 9.23975L8.34049 10.1564" stroke="#F9B233" stroke-width="1.5" stroke-linecap="round"/>
<path d="M17.5078 12.9065L13.8411 13.8232" stroke="#F9B233" stroke-width="1.5" stroke-linecap="round"/>
<path d="M4.67383 12.9065L8.34049 13.8232" stroke="#F9B233" stroke-width="1.5" stroke-linecap="round"/>
<path d="M3.68267 3.75593L3.65656 4.50548L3.68267 3.75593ZM6.96615 4.18649L7.18124 3.46799V3.46799L6.96615 4.18649ZM9.55679 5.39219L9.93247 4.74306L9.93247 4.74306L9.55679 5.39219ZM18.4406 3.80831L18.3946 3.05973L18.4406 3.80831ZM15.6745 4.18649L15.8658 4.91166L15.6745 4.18649ZM12.6657 5.45884L13.0163 6.12185H13.0163L12.6657 5.45884ZM9.59919 19.3865L9.2464 20.0483L9.2464 20.0483L9.59919 19.3865ZM6.50781 18.0702L6.69917 17.3451L6.50781 18.0702ZM3.77143 17.6939L3.72462 18.4425L3.77143 17.6939ZM12.5831 19.3865L12.9359 20.0483L12.9359 20.0483L12.5831 19.3865ZM15.6745 18.0702L15.4831 17.3451L15.6745 18.0702ZM18.4109 17.6939L18.364 16.9454H18.364L18.4109 17.6939ZM1.17448 10.6499C1.17448 10.2356 1.51027 9.89985 1.92448 9.89985C2.33869 9.89985 2.67448 10.2356 2.67448 10.6499H1.17448ZM2.67448 7.40633C2.67448 7.82055 2.33869 8.15633 1.92448 8.15633C1.51027 8.15633 1.17448 7.82055 1.17448 7.40633H2.67448ZM21.0078 10.6795C21.0078 11.0937 20.672 11.4295 20.2578 11.4295C19.8436 11.4295 19.5078 11.0937 19.5078 10.6795H21.0078ZM19.5078 13.823C19.5078 13.4088 19.8436 13.073 20.2578 13.073C20.672 13.073 21.0078 13.4088 21.0078 13.823H19.5078ZM3.70878 3.00639C4.75306 3.04276 6.12382 3.15143 7.18124 3.46799L6.75105 4.90498C5.88914 4.64695 4.68135 4.54117 3.65656 4.50548L3.70878 3.00639ZM7.18124 3.46799C8.10065 3.74324 9.13178 4.27966 9.93247 4.74306L9.18112 6.04131C8.40245 5.59067 7.49563 5.12789 6.75105 4.90498L7.18124 3.46799ZM18.4866 4.5569C17.602 4.61127 16.6042 4.71683 15.8658 4.91166L15.4831 3.46131C16.3701 3.22727 17.4892 3.11537 18.3946 3.05973L18.4866 4.5569ZM15.8658 4.91166C14.9912 5.14248 13.911 5.64879 13.0163 6.12185L12.3152 4.79582C13.2285 4.31289 14.4343 3.73809 15.4831 3.46131L15.8658 4.91166ZM9.2464 20.0483C8.33867 19.5644 7.21889 19.0336 6.31645 18.7954L6.69917 17.3451C7.7794 17.6301 9.02733 18.2317 9.95199 18.7246L9.2464 20.0483ZM6.31645 18.7954C5.58653 18.6028 4.60259 18.4974 3.72462 18.4425L3.81825 16.9454C4.71755 17.0016 5.8218 17.1135 6.69917 17.3451L6.31645 18.7954ZM12.2303 18.7246C13.155 18.2317 14.4029 17.6301 15.4831 17.3451L15.8658 18.7954C14.9634 19.0336 13.8436 19.5644 12.9359 20.0483L12.2303 18.7246ZM15.4831 17.3451C16.3605 17.1135 17.4647 17.0016 18.364 16.9454L18.4577 18.4425C17.5797 18.4974 16.5958 18.6028 15.8658 18.7954L15.4831 17.3451ZM2.67448 15.7879C2.67448 16.3811 3.16728 16.9047 3.81825 16.9454L3.72462 18.4425C2.34276 18.356 1.17448 17.2316 1.17448 15.7879H2.67448ZM1.17448 5.51176C1.17448 4.13782 2.26928 2.95624 3.70878 3.00639L3.65656 4.50548C3.1311 4.48717 2.67448 4.91954 2.67448 5.51176H1.17448ZM21.0078 15.7879C21.0078 17.2316 19.8395 18.356 18.4577 18.4425L18.364 16.9454C19.015 16.9047 19.5078 16.3811 19.5078 15.7879H21.0078ZM9.95199 18.7246C10.6599 19.102 11.5224 19.102 12.2303 18.7246L12.9359 20.0483C11.787 20.6607 10.3953 20.6607 9.2464 20.0483L9.95199 18.7246ZM9.93247 4.74306C10.664 5.16645 11.5747 5.18735 12.3152 4.79582L13.0163 6.12185C11.8125 6.75842 10.3531 6.71961 9.18111 6.04131L9.93247 4.74306ZM19.5078 5.57098C19.5078 4.96531 19.0292 4.52355 18.4866 4.5569L18.3946 3.05973C19.8615 2.96957 21.0078 4.16334 21.0078 5.57098H19.5078ZM1.17448 15.7879V10.6499H2.67448V15.7879H1.17448ZM1.17448 7.40633V5.51176H2.67448V7.40633H1.17448ZM19.5078 10.6795V5.57098H21.0078V10.6795H19.5078ZM19.5078 15.7879V13.823H21.0078V15.7879H19.5078Z" fill="#F9B233"/>
</svg>
