<svg width="29" height="28" viewBox="0 0 29 28" fill="none" xmlns="http://www.w3.org/2000/svg">
<path d="M14.75 7V11.6667" stroke="white" stroke-width="1.5" stroke-linecap="round"/>
<path d="M9.5 22.168C10.2642 24.2071 12.3262 25.668 14.75 25.668C15.0352 25.668 15.3154 25.6477 15.5891 25.6087M20 22.168C19.6884 22.9993 19.1611 23.7346 18.4816 24.3139" stroke="white" stroke-width="1.5" stroke-linecap="round"/>
<path d="M11.3754 3.11853C12.3982 2.61422 13.5423 2.33203 14.75 2.33203C19.0987 2.33203 22.624 5.99097 22.624 10.5045V11.3265C22.624 12.313 22.9053 13.2775 23.4326 14.0983L24.7246 16.1098C25.9047 17.9471 25.0038 20.4444 22.9512 21.0254C17.5818 22.5453 11.9182 22.5453 6.54876 21.0254C4.49622 20.4444 3.59529 17.9471 4.77542 16.1098L6.06743 14.0983C6.59467 13.2775 6.87602 12.313 6.87602 11.3265V10.5045C6.87602 9.25104 7.1479 8.0635 7.63379 7.00193" stroke="white" stroke-width="1.5" stroke-linecap="round"/>
</svg>
