<svg width="25" height="25" viewBox="0 0 25 25" fill="none" xmlns="http://www.w3.org/2000/svg">
<path d="M9.56192 18.8549C9.70076 18.8748 9.8495 18.8946 9.99826 18.9144C10.2561 18.9541 10.5139 18.9838 10.7817 19.0037C11.4064 19.0632 12.0411 19.0929 12.6758 19.0929C13.3005 19.0929 13.9253 19.0632 14.5401 19.0037C14.7682 18.9838 14.9963 18.964 15.2144 18.9343C15.3929 18.9144 15.5714 18.8946 15.7499 18.8648C15.859 18.8549 15.9681 18.8351 16.0772 18.8153C17.1878 18.6368 18.2886 18.3591 19.3596 18.0021M9.56192 18.8549L9.60664 18.609C9.60502 18.6087 9.60341 18.6084 9.60179 18.6081M9.56192 18.8549C9.50738 18.845 9.45284 18.8376 9.3983 18.8301C9.34376 18.8227 9.28921 18.8153 9.23467 18.8053L4.78811 14.313L4.7887 14.312C4.39558 14.9799 4.31254 15.7239 4.55009 16.3574L4.55048 16.3585C4.79023 17.0067 5.33459 17.5288 6.05928 17.7643L6.06106 17.7649C7.11834 18.1173 8.18673 18.3723 9.27685 18.5589L9.27939 18.5594C9.32758 18.5681 9.37665 18.5749 9.43208 18.5824L9.43434 18.5827C9.48599 18.5898 9.54342 18.5976 9.60179 18.6081M9.56192 18.8549L9.59728 18.6074C9.59878 18.6077 9.60028 18.6079 9.60179 18.6081M9.60179 18.6081C9.73797 18.6275 9.88392 18.647 10.0313 18.6666L10.0363 18.6673L10.0363 18.6673C10.2878 18.706 10.5391 18.735 10.8001 18.7544L10.8054 18.7548L10.8054 18.7548C11.4221 18.8135 12.0489 18.8429 12.6758 18.8429C13.2926 18.8429 13.9093 18.8136 14.516 18.7548L14.5184 18.7546C14.7477 18.7347 14.9696 18.7153 15.1806 18.6866L15.1868 18.6857L15.1868 18.6858C15.3664 18.6658 15.5382 18.6467 15.7088 18.6182L15.718 18.6167L15.7273 18.6159C15.8234 18.6071 15.9214 18.5895 16.0324 18.5693L16.0375 18.5684L16.0375 18.5684C17.1336 18.3923 18.221 18.1181 19.2802 17.765M19.2802 17.765C19.28 17.7651 19.2798 17.7652 19.2796 17.7652L19.3596 18.0021M19.2802 17.765C19.2803 17.765 19.2804 17.765 19.2805 17.7649L19.3596 18.0021M19.2802 17.765C19.9717 17.5314 20.5004 17.0115 20.7519 16.3473M19.3596 18.0021C20.1232 17.7443 20.7083 17.1691 20.9859 16.4353M20.9859 16.4353L20.7517 16.3478C20.7518 16.3477 20.7518 16.3475 20.7519 16.3473M20.9859 16.4353C21.2636 15.6915 21.1843 14.8783 20.7777 14.1941L20.5634 14.3229L20.5632 14.3226C20.9315 14.9429 21.0022 15.6765 20.7519 16.3473M20.9859 16.4353L20.7521 16.3468C20.752 16.347 20.752 16.3472 20.7519 16.3473M19.4436 12.4599L20.5628 14.3218L4.78925 14.3111L5.90869 12.4486L5.90871 12.4486L5.91018 12.4461C6.04426 12.2171 6.16535 11.8968 6.25279 11.5792C6.34017 11.2618 6.40059 10.923 6.40059 10.6538V8.80935C6.40059 5.34841 9.21341 2.54391 12.6761 2.53418C16.1275 2.53437 18.941 5.34753 18.941 8.80935V10.6638C18.941 10.933 19.0015 11.272 19.0903 11.5901C19.179 11.9077 19.303 12.229 19.4432 12.4592C19.4434 12.4595 19.4435 12.4597 19.4436 12.4599ZM12.646 11.1716C13.2006 11.1716 13.6497 10.7225 13.6497 10.1679V7.09376C13.6497 6.53919 13.2006 6.0901 12.646 6.0901C12.0914 6.0901 11.6423 6.53919 11.6423 7.09376V10.1679C11.6423 10.7225 12.0914 11.1716 12.646 11.1716Z" fill="#F9B233" stroke="#6E3EA5" stroke-width="0.5"/>
<path d="M15.4623 20.0949C15.0458 21.2452 13.945 22.0683 12.6559 22.0683C11.8725 22.0683 11.099 21.751 10.5535 21.1857C10.2362 20.8882 9.99821 20.4915 9.85938 20.085C9.98829 20.1048 10.1172 20.1147 10.256 20.1345C10.4841 20.1643 10.7221 20.194 10.9601 20.2139C11.5254 20.2635 12.1005 20.2932 12.6757 20.2932C13.241 20.2932 13.8062 20.2635 14.3615 20.2139C14.5698 20.194 14.778 20.1841 14.9764 20.1544C15.135 20.1345 15.2937 20.1147 15.4623 20.0949Z" fill="#F9B233"/>
</svg>
