<svg width="358" height="343" viewBox="0 0 358 343" fill="none" xmlns="http://www.w3.org/2000/svg">
<path d="M320.319 198.486L332.041 198.241L337.823 198.144C339.751 198.101 341.652 198.144 343.574 198.092L343.18 198.486L343.136 188.66L343.576 189.099L331.95 189.038C328.069 189.038 324.196 188.942 320.324 188.898L320.561 188.661C320.561 190.268 320.482 191.884 320.447 193.517L320.319 198.486ZM320.319 198.486L320.187 193.622C320.187 191.98 320.091 190.33 320.073 188.661V188.39H320.319C324.191 188.39 328.063 188.258 331.945 188.25L343.57 188.197H344.01V188.637L343.958 198.463V198.929H343.57C341.603 198.929 339.645 198.929 337.687 198.885L331.838 198.789L320.319 198.486Z" fill="#EBEBEB"/>
<path d="M333.289 210.876L345.011 210.63L350.793 210.534C352.72 210.49 354.63 210.534 356.544 210.482L356.148 210.876V201.049L356.587 201.489L344.962 201.428C341.081 201.428 337.208 201.332 333.336 201.288L333.572 201.051C333.572 202.658 333.494 204.273 333.458 205.906L333.289 210.876ZM333.289 210.876L333.166 206.012C333.122 204.37 333.061 202.719 333.043 201.051V200.815H333.289C337.161 200.771 341.033 200.683 344.914 200.674L356.54 200.622H356.98V201.062L356.927 210.888V211.282H356.54C354.581 211.282 352.615 211.282 350.656 211.238L344.807 211.142L333.289 210.876Z" fill="#EBEBEB"/>
<path d="M307.298 210.869H330.55V201.042H307.298V210.869Z" fill="#EBEBEB"/>
<path d="M61.7581 95.189L73.4978 94.9437L79.28 94.8473C81.1934 94.8035 83.1085 94.8473 85.0219 94.8035L84.6347 95.189L84.5822 85.3627L85.0219 85.8025L73.3962 85.7499C69.5238 85.7499 65.6427 85.6535 61.7704 85.601L62.0069 85.3644C62.0069 86.9712 61.9368 88.5955 61.893 90.2285L61.7581 95.189ZM61.7581 95.189L61.6354 90.3337C61.6354 88.6919 61.5391 87.0325 61.5215 85.3644V85.1279H61.7581C65.6304 85.0841 69.5115 84.9877 73.3839 84.9877L85.0097 84.9264H85.4495V85.3662L85.4057 95.1925V95.5885H85.0184C83.0595 95.5885 81.0935 95.5885 79.1433 95.5359L73.2945 95.4395L61.7581 95.189Z" fill="#EBEBEB"/>
<path d="M14.3683 10.2602L37.6199 10.2602V0.433928L14.3683 0.433928V10.2602Z" fill="#EBEBEB"/>
<path d="M1.40736 22.65L13.1295 22.4309L18.9118 22.3346H24.6589L24.263 22.7218V12.8955L24.7028 13.3353L13.0682 13.2127C9.18709 13.2127 5.31474 13.1163 1.4424 13.0637L1.67895 12.8272C1.67895 14.4339 1.6001 16.0495 1.56505 17.6913L1.40736 22.65ZM1.40736 22.65L1.27595 17.7946C1.27595 16.1528 1.17957 14.4935 1.16205 12.8254V12.5889H1.40736C5.27971 12.5889 9.15205 12.4487 13.0332 12.4399L24.6589 12.3874H25.097V12.8272L25.0444 22.6535V23.0477H24.6589C22.6912 23.0477 20.734 23.0477 18.7751 22.9951L12.9263 22.8988L1.40736 22.65Z" fill="#EBEBEB"/>
<path d="M320.319 10.2602L332.041 10.0149L337.823 9.91855H343.574L343.18 10.3058L343.136 0.47949L343.576 0.91929L331.95 0.866719C328.069 0.866719 324.196 0.77035 320.324 0.717785L320.561 0.481242C320.561 2.088 320.482 3.70352 320.447 5.34532L320.319 10.2602ZM320.319 10.2602L320.187 5.4049C320.187 3.76309 320.091 2.10377 320.073 0.435683V0.19914H320.319C324.191 0.19914 328.063 0.0589595 331.945 0.0501985L343.57 -0.00236511H344.01V0.481242L343.958 10.3075V10.7035H343.57C341.603 10.7035 339.645 10.7035 337.687 10.651L331.811 10.5108L320.319 10.2602Z" fill="#EBEBEB"/>
<path d="M283.563 133.131H306.815V123.305H283.563V133.131Z" fill="#EBEBEB"/>
<path d="M36.101 61.419C36.5372 61.152 37.0386 61.0107 37.55 61.0107C38.0614 61.0107 38.5629 61.152 38.9991 61.419L39.7455 61.85C39.9996 61.9815 40.2554 62.1129 40.5182 62.2373C40.9817 62.4499 41.3777 62.786 41.6627 63.2089C41.9477 63.6317 42.1107 64.1249 42.1338 64.6343L42.2389 68.2L53.8647 67.8408L53.7508 64.2751C53.7403 63.7638 53.8707 63.2596 54.1279 62.8176C54.385 62.3756 54.759 62.013 55.2086 61.7695C55.7159 61.5043 56.2084 61.2119 56.684 60.8934C57.1016 60.5988 57.5927 60.4257 58.1027 60.3933C58.6127 60.3608 59.1217 60.4702 59.5733 60.7094L62.708 62.3862L68.2046 52.1394L65.07 50.4538C64.6205 50.2117 64.2471 49.8496 63.9912 49.4079C63.7354 48.9661 63.6072 48.462 63.6209 47.9517C63.6396 47.3671 63.622 46.7819 63.5683 46.1995C63.5132 45.6851 63.6043 45.1656 63.8312 44.7006C64.0581 44.2357 64.4115 43.8442 64.8509 43.5712L67.8805 41.7717L61.732 31.87L58.7288 33.7221C58.2943 33.9893 57.7942 34.1308 57.2841 34.1308C56.774 34.1308 56.2739 33.9893 55.8394 33.7221C55.6029 33.5732 55.347 33.433 55.1017 33.2998C54.8564 33.1667 54.5919 33.0282 54.329 32.9143C53.8643 32.7011 53.4674 32.3636 53.1824 31.9391C52.8973 31.5145 52.735 31.0195 52.7135 30.5086L52.5821 26.9166L40.9563 27.2758L41.0702 30.7802C41.0857 31.2931 40.9574 31.8 40.6998 32.2438C40.4421 32.6875 40.0655 33.0503 39.6124 33.2911C39.1051 33.5563 38.6126 33.8487 38.137 34.1672C37.7202 34.4636 37.2289 34.6378 36.7185 34.6703C36.2081 34.7028 35.6987 34.5923 35.2477 34.3511L32.1147 32.6831L26.6181 43.021L29.7528 44.7066C30.2019 44.9483 30.5747 45.3106 30.8291 45.7526C31.0836 46.1947 31.2096 46.699 31.1931 47.2087C31.182 47.7935 31.2025 48.3784 31.2544 48.9609C31.3085 49.4752 31.217 49.9943 30.9902 50.4591C30.7634 50.9238 30.4105 51.3154 29.9718 51.5892L26.9423 53.4676L33.089 63.3464L36.101 61.419ZM39.0061 43.0665C39.8936 41.4045 41.2541 40.0429 42.9154 39.154C44.5768 38.2651 46.4644 37.8888 48.3396 38.0727C50.2148 38.2566 51.9934 38.9924 53.4504 40.1872C54.9074 41.3819 55.9774 42.9819 56.5251 44.7847C57.0728 46.5875 57.0736 48.5123 56.5273 50.3156C55.9811 52.1189 54.9124 53.7197 53.4564 54.9157C52.0003 56.1116 50.2224 56.8489 48.3473 57.0343C46.4723 57.2197 44.5843 56.845 42.9223 55.9574C40.6935 54.7673 39.0289 52.7405 38.2944 50.323C37.56 47.9055 37.816 45.2953 39.0061 43.0665Z" fill="#EBEBEB"/>
<path d="M340.593 180.961C340.775 180.65 341.04 180.397 341.358 180.23C341.676 180.062 342.034 179.987 342.393 180.013H343.597C343.947 179.995 344.295 180.073 344.603 180.239C344.912 180.404 345.17 180.651 345.349 180.952L346.597 183.121L353.621 179.047L352.373 176.887C352.195 176.575 352.107 176.221 352.12 175.862C352.132 175.504 352.244 175.156 352.444 174.858C352.663 174.518 352.866 174.167 353.05 173.806C353.212 173.482 353.463 173.209 353.773 173.02C354.082 172.831 354.439 172.732 354.802 172.736H357.295V164.586H354.802C354.44 164.592 354.083 164.495 353.773 164.308C353.463 164.12 353.213 163.848 353.05 163.525C352.869 163.162 352.666 162.811 352.444 162.473C352.244 162.175 352.132 161.827 352.12 161.469C352.107 161.11 352.195 160.755 352.373 160.444L353.621 158.275L346.597 154.21L345.34 156.379C345.162 156.682 344.905 156.93 344.596 157.097C344.287 157.264 343.939 157.344 343.588 157.327H342.384C342.026 157.349 341.669 157.272 341.352 157.105C341.034 156.938 340.769 156.687 340.585 156.379L339.337 154.21L332.313 158.275L333.56 160.435C333.738 160.747 333.826 161.101 333.814 161.46C333.802 161.818 333.689 162.166 333.49 162.464C333.274 162.815 333.072 163.165 332.884 163.516C332.722 163.841 332.472 164.114 332.162 164.304C331.852 164.493 331.495 164.591 331.132 164.586H328.635V172.736H331.123C331.486 172.732 331.842 172.831 332.152 173.02C332.462 173.209 332.712 173.482 332.875 173.806C333.056 174.168 333.259 174.519 333.481 174.858C333.681 175.156 333.793 175.504 333.805 175.862C333.818 176.221 333.73 176.575 333.551 176.887L332.304 179.047L339.328 183.121L340.593 180.961ZM336.318 168.667C334.571 168.668 332.896 169.363 331.662 170.599C330.427 171.835 329.734 173.511 329.734 175.258C329.735 177.005 330.429 178.68 331.665 179.915C332.9 181.15 334.576 181.844 336.322 181.844C338.069 181.844 339.745 181.15 340.98 179.915C342.216 178.68 342.91 177.005 342.911 175.258C342.911 173.511 342.218 171.835 340.983 170.599C339.749 169.363 338.074 168.668 336.327 168.667H336.318Z" fill="#EBEBEB"/>
<path d="M2.86523 77.4603C3.1753 77.642 3.42837 77.9069 3.59588 78.2248C3.76339 78.5428 3.83865 78.9013 3.81317 79.2598V80.4635C3.83061 80.8134 3.75239 81.1614 3.58692 81.4701C3.42144 81.7788 3.17497 82.0366 2.87399 82.2157L0.704773 83.4633L4.77862 90.4879L6.92155 89.3016C7.23329 89.1249 7.58785 89.0379 7.94597 89.0503C8.30409 89.0627 8.6518 89.1739 8.95059 89.3717C9.30103 89.5907 9.65147 89.8027 10.0019 89.9867C10.3212 90.1452 10.5903 90.3891 10.7793 90.6913C10.9683 90.9935 11.0698 91.3422 11.0725 91.6986V94.192H19.2132V91.6986C19.2135 91.3427 19.313 90.994 19.5006 90.6916C19.6881 90.3892 19.9563 90.1451 20.275 89.9867C20.6373 89.8026 20.9883 89.5972 21.3263 89.3717C21.6251 89.1739 21.9728 89.0627 22.331 89.0503C22.6891 89.0379 23.0436 89.1249 23.3554 89.3016L25.5246 90.5492L29.5897 83.5246L27.4205 82.2683C27.1195 82.0884 26.8727 81.8307 26.7059 81.5224C26.5391 81.214 26.4584 80.8664 26.4725 80.5161V79.3211C26.4497 78.963 26.5261 78.6055 26.6933 78.288C26.8606 77.9705 27.1122 77.7053 27.4205 77.5216L29.5897 76.2741L25.5246 69.2495L23.3641 70.4971C23.0529 70.6754 22.6981 70.7632 22.3396 70.7509C21.9812 70.7385 21.6333 70.6263 21.3351 70.427C20.9952 70.2109 20.6447 70.0088 20.2838 69.8207C19.9583 69.6593 19.6851 69.4091 19.4957 69.0991C19.3063 68.7891 19.2084 68.4318 19.2132 68.0685V65.5717H11.0918V68.065C11.0952 68.428 10.9966 68.7847 10.8074 69.0944C10.6181 69.4042 10.3457 69.6546 10.0212 69.8172C9.65912 69.9985 9.30807 70.2009 8.96987 70.4235C8.67019 70.6232 8.32083 70.7355 7.96092 70.7479C7.60101 70.7603 7.24476 70.6722 6.93207 70.4936L4.78037 69.246L0.706531 76.2705L2.86523 77.4603ZM15.1586 73.1832C16.4793 73.1801 17.7712 73.5689 18.8708 74.3003C19.9705 75.0318 20.8283 76.073 21.3359 77.2923C21.8435 78.5115 21.9779 79.854 21.7222 81.1497C21.4664 82.4453 20.832 83.636 19.8993 84.571C18.9665 85.506 17.7773 86.1432 16.4822 86.402C15.1872 86.6608 13.8444 86.5295 12.624 86.0249C11.4035 85.5202 10.3602 84.6647 9.62617 83.5669C8.89211 82.469 8.50028 81.178 8.50028 79.8573C8.50074 78.0903 9.20194 76.3955 10.4501 75.1447C11.6983 73.8939 13.3916 73.1891 15.1586 73.185V73.1832Z" fill="#EBEBEB"/>
<path d="M307.368 264.985C300.871 251.63 289.496 244.789 276.635 248.557C263.774 252.324 261.83 270.219 271.366 274.733C280.901 279.246 290.5 266.075 295.557 263.361C300.614 260.647 307.368 264.985 307.368 264.985Z" fill="#F9B233"/>
<path d="M313.662 300.548C313.662 298.941 313.566 297.325 313.504 295.719C313.391 292.505 313.285 289.292 313.172 286.059C313.185 280.21 312.067 274.413 309.879 268.989C307.728 264.075 304.133 259.932 299.571 257.109C297.88 256.085 296.057 255.296 294.153 254.765C292.429 253.005 290.229 251.787 287.823 251.26C284.856 250.658 281.806 250.581 278.813 251.032C278.699 251.032 278.708 251.216 278.813 251.208C281.67 250.846 284.57 251.052 287.348 251.814C288.534 252.147 289.683 252.597 290.78 253.158C291.471 253.529 292.135 253.949 292.766 254.414C290.179 253.879 287.508 253.906 284.933 254.493C284.006 254.71 283.098 255.003 282.219 255.369C281.516 255.217 280.795 255.155 280.076 255.185C279.14 255.22 278.21 255.353 277.301 255.581C275.446 256.104 273.673 256.881 272.032 257.891C271.935 257.943 272.032 258.083 272.119 258.031C273.737 257.149 275.469 256.495 277.266 256.089C278.131 255.895 279.009 255.766 279.894 255.704C280.385 255.677 280.878 255.677 281.369 255.704C277.715 257.391 274.778 260.319 273.08 263.967C273.036 264.064 273.185 264.151 273.229 264.046C274.239 261.936 275.71 260.079 277.534 258.614C279.358 257.149 281.488 256.112 283.766 255.581C284.047 255.511 284.337 255.476 284.642 255.406C284.577 255.834 284.533 256.265 284.511 256.697C284.423 257.347 284.318 257.997 284.187 258.639C283.916 259.964 283.565 261.272 283.135 262.555C282.702 263.849 282.182 265.114 281.581 266.34C281.009 267.643 280.28 268.873 279.412 270.002C279.398 270.013 279.389 270.029 279.384 270.046C279.38 270.064 279.381 270.082 279.387 270.099C279.393 270.116 279.405 270.13 279.419 270.141C279.434 270.151 279.452 270.156 279.47 270.156C279.488 270.156 279.505 270.151 279.52 270.141C279.535 270.131 279.546 270.116 279.552 270.1C280.316 268.896 281.212 267.782 281.914 266.534C282.595 265.338 283.181 264.09 283.666 262.802C284.159 261.502 284.541 260.163 284.807 258.798C284.956 258.078 285.061 257.349 285.158 256.62C285.241 256.183 285.267 255.737 285.236 255.294C286.745 255.067 288.276 255.037 289.792 255.206C289.43 258.463 288.424 261.615 286.833 264.479C286.771 264.575 286.929 264.663 286.982 264.558C287.817 263.091 288.55 261.569 289.177 260.002C289.768 258.482 290.14 256.885 290.283 255.261C292.928 255.615 295.483 256.47 297.808 257.78C302.185 260.329 305.68 264.152 307.827 268.738C310.089 273.682 311.351 279.023 311.542 284.456C311.964 291.279 312.052 298.154 312.737 304.956C312.749 305.059 312.795 305.154 312.868 305.226C312.941 305.298 313.037 305.344 313.14 305.354C313.242 305.364 313.345 305.339 313.431 305.282C313.517 305.226 313.582 305.142 313.613 305.044C313.763 303.552 313.778 302.05 313.657 300.556L313.662 300.548Z" fill="#263238"/>
<path d="M298.639 256.047C298.21 255.527 297.714 255.066 297.163 254.677C296.637 254.231 296.086 253.814 295.513 253.429C294.39 252.648 293.147 252.056 291.833 251.677C291.728 251.677 291.684 251.826 291.833 251.852C293.156 252.179 294.397 252.776 295.478 253.605C296.023 254.009 296.54 254.43 297.055 254.879C297.506 255.352 298.007 255.776 298.548 256.144C298.586 256.258 298.709 256.144 298.639 256.047Z" fill="#263238"/>
<path d="M277.898 260.883C276.826 262.135 275.831 263.452 274.919 264.826C274.035 266.211 273.293 267.682 272.706 269.217C272.706 269.261 272.759 269.287 272.785 269.217C274.282 266.308 276.046 263.545 278.054 260.962C278.091 260.92 277.968 260.806 277.898 260.883Z" fill="#263238"/>
<path d="M291.872 259.567C291.735 260.401 291.49 261.212 291.143 261.982C290.783 262.726 290.369 263.442 289.904 264.125C289.904 264.169 289.904 264.212 289.974 264.177C291.098 262.889 291.817 261.298 292.038 259.602C292.061 259.513 291.895 259.452 291.872 259.567Z" fill="#263238"/>
<path d="M312.758 265.318C312.758 265.318 321.961 253.745 339.715 257.845C356.601 261.744 364.39 292.714 347.338 296.393C330.285 300.073 333.288 271.456 327.063 266.592C322.505 263.026 315.945 263.802 312.758 265.318Z" fill="#F9B233"/>
<path d="M353.44 274.759C352.282 273.746 351.058 272.81 349.778 271.955C348.573 271.133 347.261 270.477 345.88 270.005C345.185 268.954 344.41 267.958 343.561 267.027C341.993 265.345 340.185 263.903 338.196 262.749H338.722C339.661 262.701 340.602 262.701 341.541 262.749C343.437 262.87 345.296 263.331 347.029 264.111C347.125 264.111 347.204 263.997 347.099 263.962C345.345 263.203 343.51 262.649 341.629 262.311C340.713 262.149 339.784 262.07 338.853 262.075C338.354 262.077 337.856 262.107 337.36 262.162H337.071C335.442 261.342 333.724 260.712 331.951 260.284L332.453 260.144C333.321 259.956 334.198 259.812 335.081 259.713C336.851 259.511 338.639 259.537 340.402 259.792C340.425 259.792 340.448 259.782 340.464 259.766C340.481 259.75 340.49 259.727 340.49 259.704C340.49 259.681 340.481 259.659 340.464 259.642C340.448 259.626 340.425 259.616 340.402 259.616C338.619 259.406 336.822 259.336 335.028 259.406C333.523 259.448 332.025 259.642 330.558 259.986C329.491 259.788 328.412 259.664 327.327 259.616C321.128 259.354 314.375 261.663 310.564 266.755C306.753 271.847 306.008 278.644 305.295 284.79C304.254 293.357 304.028 302.004 304.619 310.614C304.619 311.115 305.374 311.028 305.383 310.544C305.619 303.248 305.875 295.941 306.578 288.671C306.902 285.3 307.254 281.918 307.817 278.582C308.229 275.709 309.056 272.911 310.27 270.275C311.588 267.581 313.675 265.339 316.268 263.83C318.868 262.335 321.768 261.437 324.759 261.202C327.436 260.978 330.133 261.23 332.722 261.949C332.629 262.469 332.614 263.001 332.679 263.526C332.74 264.185 332.873 264.836 333.075 265.467C333.263 266.073 333.511 266.66 333.812 267.219C334.145 267.825 334.559 268.369 334.927 268.971C334.932 268.982 334.94 268.991 334.949 268.998C334.959 269.005 334.97 269.01 334.981 269.013C334.993 269.016 335.005 269.016 335.016 269.014C335.028 269.011 335.039 269.006 335.048 268.999C335.058 268.992 335.066 268.983 335.071 268.973C335.077 268.963 335.081 268.951 335.082 268.939C335.082 268.928 335.081 268.916 335.077 268.905C335.073 268.894 335.066 268.883 335.058 268.875C334.33 267.831 333.858 266.631 333.679 265.371C333.574 264.773 333.504 264.169 333.469 263.562V262.183C336.286 263.051 338.916 264.439 341.222 266.275C341.653 266.625 342.098 266.986 342.479 267.363C341.894 267.909 341.386 268.532 340.968 269.215C340.362 270.102 339.834 271.04 339.391 272.019C338.576 273.986 338.024 276.053 337.749 278.165C337.749 278.188 337.759 278.211 337.775 278.227C337.792 278.244 337.814 278.253 337.837 278.253C337.86 278.253 337.883 278.244 337.899 278.227C337.915 278.211 337.925 278.188 337.925 278.165C338.256 276.113 338.943 274.133 339.954 272.316C340.423 271.407 340.949 270.53 341.531 269.688C341.829 269.268 342.137 268.812 342.461 268.432C342.636 268.213 342.829 267.983 342.987 267.747C345.076 269.792 346.783 272.195 348.026 274.841C347.178 275.765 346.481 276.817 345.962 277.958C345.327 279.086 344.772 280.257 344.303 281.463C343.444 283.828 342.735 286.244 342.177 288.698C342.177 288.803 342.326 288.838 342.352 288.698C342.896 286.224 343.742 283.826 344.872 281.559C345.408 280.452 345.969 279.355 346.558 278.276C347.17 277.271 347.727 276.233 348.226 275.167C349.409 277.762 350.097 280.555 350.255 283.403C350.255 283.508 350.43 283.499 350.43 283.403C350.103 278.941 348.738 274.617 346.444 270.776C347.546 271.205 348.622 271.697 349.666 272.252C350.998 272.97 352.234 273.853 353.346 274.88C353.412 274.96 353.519 274.829 353.44 274.759Z" fill="#263238"/>
<path d="M340.413 275.407C339.887 277.159 339.209 278.866 338.727 280.676C338.249 282.363 337.992 284.104 337.963 285.857C337.963 285.91 338.042 285.91 338.051 285.857C338.533 282.312 339.386 278.827 340.597 275.46C340.602 275.447 340.605 275.434 340.604 275.42C340.604 275.406 340.601 275.393 340.595 275.381C340.589 275.368 340.581 275.358 340.57 275.349C340.56 275.34 340.548 275.333 340.534 275.33C340.521 275.326 340.508 275.325 340.494 275.327C340.481 275.329 340.468 275.334 340.456 275.341C340.445 275.348 340.435 275.358 340.427 275.37C340.42 275.381 340.415 275.394 340.413 275.407Z" fill="#263238"/>
<path d="M351.667 271.06C350.97 270.388 350.177 269.823 349.314 269.383C348.436 268.983 347.526 268.66 346.593 268.418C346.488 268.418 346.453 268.558 346.593 268.593C347.515 268.829 348.4 269.193 349.221 269.674C350.061 270.11 350.868 270.606 351.636 271.158C351.645 271.156 351.653 271.151 351.66 271.145C351.667 271.139 351.672 271.13 351.674 271.121C351.68 271.112 351.682 271.101 351.681 271.09C351.679 271.079 351.675 271.068 351.667 271.06Z" fill="#263238"/>
<path d="M321.503 249.857C321.503 249.857 323.197 229.081 338.643 222.347C351.543 216.728 358.926 231.215 349.811 240.094C342.437 247.276 330.609 244.034 321.503 249.857Z" fill="#F9B233"/>
<path d="M346.959 226.377C344.608 227.328 342.314 228.415 340.089 229.631C338.241 230.688 336.461 231.858 334.758 233.136C335.013 232.61 335.233 232.065 335.496 231.546C335.901 230.747 336.33 229.957 336.805 229.202C337.755 227.627 338.899 226.178 340.211 224.89C340.29 224.82 340.159 224.697 340.089 224.776C338.78 226.064 337.582 227.459 336.505 228.946C335.974 229.7 335.484 230.483 335.039 231.291C334.581 232.038 334.228 232.845 333.988 233.688L333.812 233.81C331.115 235.959 328.643 238.377 326.436 241.027C326.479 240.826 326.514 240.624 326.576 240.43C326.865 239.421 327.173 238.41 327.506 237.409C328.175 235.279 329.113 233.242 330.299 231.35C330.361 231.263 330.212 231.175 330.15 231.271C328.938 233.164 327.859 235.139 326.919 237.181C326.488 238.178 326.13 239.206 325.849 240.255C325.625 240.937 325.458 241.636 325.347 242.345C324.671 243.221 324.012 244.057 323.39 244.973C316.948 254.564 313.23 265.723 312.634 277.261C312.4 280.666 312.341 284.08 312.458 287.49C312.473 290.933 312.766 294.368 313.334 297.764C313.378 297.983 313.713 297.912 313.713 297.702C313.634 294.699 313.326 291.713 313.264 288.71C313.207 285.698 313.303 282.685 313.553 279.683C314.038 273.686 315.168 267.76 316.925 262.006C318.718 256.111 321.363 250.508 324.775 245.376C325.425 245.245 326.075 245.07 326.716 244.902C327.357 244.733 328.261 244.506 329.025 244.295C330.508 243.913 331.95 243.385 333.329 242.718C333.338 242.713 333.346 242.705 333.352 242.696C333.359 242.687 333.363 242.677 333.365 242.667C333.368 242.656 333.368 242.645 333.366 242.635C333.365 242.624 333.361 242.614 333.355 242.604C333.349 242.595 333.342 242.587 333.333 242.581C333.324 242.575 333.314 242.57 333.303 242.568C333.293 242.565 333.282 242.565 333.271 242.567C333.261 242.569 333.25 242.572 333.241 242.578C331.872 243.321 330.388 243.829 328.85 244.08C327.639 244.325 326.383 244.476 325.171 244.756C326.294 243.123 327.489 241.543 328.762 240.025C331.705 240.292 334.672 240.072 337.543 239.375C339.07 239.006 340.572 238.538 342.039 237.973C343.593 237.376 345.051 236.612 346.579 235.971C346.589 235.966 346.598 235.96 346.606 235.952C346.613 235.944 346.619 235.935 346.623 235.924C346.627 235.914 346.629 235.903 346.629 235.892C346.628 235.881 346.626 235.87 346.621 235.86C346.616 235.85 346.609 235.841 346.601 235.834C346.593 235.826 346.583 235.821 346.573 235.817C346.562 235.813 346.551 235.812 346.54 235.813C346.529 235.814 346.519 235.817 346.509 235.822C343.743 237.329 340.725 238.317 337.604 238.737C334.848 239.18 332.062 239.409 329.271 239.422C330.368 238.166 331.501 236.938 332.712 235.787C336.747 231.734 341.591 228.578 346.927 226.523C347.11 226.509 347.057 226.341 346.959 226.377Z" fill="#263238"/>
<path d="M334.385 226.446C333.689 227.32 333.057 228.244 332.495 229.211C331.919 230.229 331.462 231.31 331.133 232.433C331.133 232.433 331.133 232.494 331.195 232.433C331.72 231.415 332.142 230.351 332.67 229.342C333.181 228.343 333.799 227.403 334.515 226.539C334.578 226.472 334.447 226.358 334.385 226.446Z" fill="#263238"/>
<path d="M348.752 233.349C347.748 233.908 346.685 234.353 345.582 234.676C344.525 235.028 343.449 235.321 342.36 235.552C342.307 235.552 342.316 235.648 342.36 235.639C343.498 235.52 344.62 235.276 345.704 234.911C346.773 234.505 347.817 234.037 348.83 233.509C348.852 233.498 348.868 233.48 348.875 233.458C348.883 233.435 348.881 233.411 348.871 233.39C348.86 233.368 348.842 233.352 348.819 233.345C348.797 233.337 348.773 233.339 348.752 233.349Z" fill="#263238"/>
<path d="M309.492 246.133C309.395 247.009 307.156 238.581 294.09 231.093C282.236 224.287 268.072 206.585 279.706 195.399C289.095 186.371 313.83 206.048 309.492 246.133Z" fill="#F9B233"/>
<path d="M318.484 294.524C318.293 285.748 317.601 276.991 316.411 268.295C315.379 260.292 313.528 252.415 310.889 244.789C309.923 242.04 308.807 239.345 307.605 236.684C307.671 235.648 307.654 234.608 307.552 233.575C307.491 232.24 307.368 230.947 307.246 229.589C307.123 228.231 306.992 226.961 306.834 225.612C306.676 224.262 306.394 222.983 306.342 221.652C306.342 221.628 306.332 221.606 306.316 221.59C306.299 221.573 306.277 221.564 306.254 221.564C306.231 221.564 306.208 221.573 306.192 221.59C306.176 221.606 306.166 221.628 306.166 221.652C306.427 223.04 306.583 224.445 306.632 225.857C306.738 227.142 306.808 228.427 306.843 229.712C306.886 231.003 306.843 232.284 306.843 233.567C306.843 234.024 306.843 234.515 306.799 235.016C305.572 232.387 304.262 229.861 302.83 227.376C303.706 221.958 302.567 216.295 301.46 211C301.46 210.895 301.276 210.948 301.302 211.053C301.849 213.818 302.142 216.628 302.178 219.447C302.231 221.669 302.126 223.891 302.117 226.106C301.802 225.58 301.493 225.044 301.169 224.517C299.475 221.75 297.665 219.037 295.737 216.411C295.894 215.127 295.853 213.827 295.615 212.556C295.4 211.128 295.083 209.716 294.667 208.333C294.257 206.95 293.774 205.59 293.218 204.259C292.646 202.924 291.9 201.58 291.357 200.212C291.304 200.089 291.138 200.212 291.199 200.273C291.897 201.574 292.445 202.949 292.832 204.373C293.268 205.706 293.625 207.064 293.903 208.438C294.183 209.809 294.404 211.188 294.604 212.582C294.735 213.458 294.814 214.452 294.972 215.375C292.176 211.619 289.121 208.063 285.83 204.733C285.752 204.654 285.638 204.776 285.708 204.855C290.688 210.453 295.136 216.502 298.993 222.926L299.406 223.646C298.686 223.197 297.861 222.838 297.185 222.459L293.382 220.369L289.676 218.349C289.044 217.998 288.42 217.629 287.77 217.297C286.999 216.951 286.259 216.541 285.557 216.071C285.549 216.063 285.539 216.056 285.527 216.052C285.516 216.048 285.504 216.047 285.493 216.047C285.481 216.048 285.469 216.052 285.459 216.058C285.449 216.063 285.44 216.071 285.433 216.081C285.426 216.09 285.421 216.101 285.419 216.113C285.416 216.125 285.416 216.136 285.419 216.148C285.422 216.16 285.427 216.17 285.434 216.18C285.441 216.189 285.45 216.197 285.461 216.202C286.717 216.903 287.831 217.955 289.044 218.696C290.256 219.437 291.497 220.224 292.776 220.935C295.094 222.226 297.614 223.157 299.906 224.501C301.486 227.275 302.95 230.117 304.297 233.027C302.909 232.151 301.493 231.275 300.056 230.481C299.135 229.955 298.204 229.454 297.263 228.962C296.332 228.529 295.451 227.996 294.635 227.373C294.618 227.364 294.599 227.362 294.581 227.365C294.563 227.369 294.546 227.378 294.533 227.392C294.52 227.406 294.512 227.423 294.51 227.442C294.508 227.46 294.512 227.479 294.521 227.495C296.043 228.868 297.731 230.046 299.545 231C301.222 231.983 302.916 232.927 304.665 233.784C306.058 236.851 307.317 239.969 308.441 243.135C313.937 258.704 315.958 275.228 316.923 291.641C317.212 296.532 317.363 301.424 317.424 306.323C317.485 311.222 317.223 316.105 317.231 320.996C317.237 321.027 317.253 321.055 317.277 321.076C317.301 321.096 317.331 321.107 317.363 321.107C317.394 321.107 317.425 321.096 317.449 321.076C317.473 321.055 317.489 321.027 317.494 320.996C318.083 316.657 318.179 312.215 318.37 307.877C318.561 303.539 318.582 298.971 318.484 294.524Z" fill="#263238"/>
<path d="M294.749 224.057C292.365 223.007 290.048 221.811 287.812 220.474C285.543 219.192 283.342 217.795 281.217 216.287C281.217 216.287 281.147 216.286 281.173 216.348C283.18 217.954 285.296 219.421 287.504 220.739C289.818 222.031 292.211 223.177 294.668 224.171C294.775 224.241 294.854 224.093 294.749 224.057Z" fill="#263238"/>
<path d="M298.534 206.451C298.341 205.696 298.103 204.95 297.848 204.212C297.856 204.199 297.86 204.184 297.86 204.168C297.86 204.153 297.856 204.138 297.848 204.125C297.673 203.702 297.498 203.248 297.339 202.868L297.277 202.711C297.277 202.632 297.207 202.553 297.181 202.474C297.155 202.395 297.128 202.474 297.137 202.474C297.146 202.474 297.216 202.763 297.26 202.905C297.279 202.985 297.302 203.064 297.33 203.142C298.195 206.046 298.844 209.011 299.27 212.011C299.27 212.108 299.427 212.108 299.418 212.011C299.298 210.134 299.002 208.273 298.534 206.451Z" fill="#263238"/>
<path d="M332.286 297.685L331.356 308.723L328.501 342.418H297.936L295.082 308.727L294.151 297.688L332.286 297.685Z" fill="#37474F"/>
<path d="M332.286 297.685L331.356 308.723H295.086L294.155 297.685H332.286Z" fill="#263238"/>
<path d="M335.281 293.252H291.148V303.851H335.281V293.252Z" fill="#37474F"/>
<path d="M1.16205 342.423L45.6292 342.213L90.0963 342.134L179.029 341.985L267.961 342.125L312.428 342.204L356.896 342.423L312.428 342.634L267.961 342.712L179.029 342.861L90.1033 342.712L45.6362 342.634L1.16205 342.423Z" fill="#263238"/>
<path d="M253.234 6.24768H104.838C102.844 6.26051 100.872 6.66666 99.0351 7.44286C97.1984 8.21906 95.5329 9.35007 94.134 10.7711C92.7352 12.1921 91.6305 13.8751 90.8832 15.7238C90.1359 17.5725 89.7608 19.5504 89.7793 21.5443V327.127C89.7443 331.147 91.3071 335.017 94.1243 337.885C96.9414 340.754 100.782 342.386 104.803 342.423H253.199C255.193 342.408 257.164 342.001 259.001 341.224C260.837 340.447 262.503 339.316 263.902 337.896C265.301 336.476 266.407 334.793 267.156 332.946C267.905 331.098 268.283 329.121 268.268 327.127V21.5443C268.303 17.5202 266.738 13.647 263.917 10.7767C261.097 7.90635 257.251 6.27409 253.227 6.23892L253.234 6.24768ZM258.88 317.679C258.88 325.721 252.856 332.222 245.428 332.222H112.628C105.181 332.222 99.1588 325.716 99.1588 317.679V33.1263C99.1588 16.7416 105.183 15.9426 112.628 15.9426H139.224C140.77 15.9426 142.028 17.6948 142.028 19.8762V20.8154C142.028 25.9441 144.821 25.9441 148.28 25.9441H209.745C213.195 25.9441 215.97 25.9441 215.97 20.8242V19.8762C215.97 17.6983 217.209 15.9426 218.774 15.9426H245.379C252.809 15.9426 258.831 18.1205 258.831 33.1263L258.88 317.679Z" fill="#263238"/>
<path d="M187.413 19.5609H170.633C170.358 19.5609 170.095 19.4517 169.9 19.2575C169.706 19.0633 169.597 18.7999 169.597 18.5253C169.597 18.2507 169.706 17.9873 169.9 17.7931C170.095 17.5989 170.358 17.4898 170.633 17.4898H187.413C187.549 17.4898 187.684 17.5165 187.81 17.5686C187.935 17.6206 188.049 17.6969 188.146 17.7931C188.242 17.8892 188.318 18.0034 188.37 18.129C188.422 18.2547 188.449 18.3893 188.449 18.5253C188.449 18.6613 188.422 18.7959 188.37 18.9216C188.318 19.0472 188.242 19.1614 188.146 19.2575C188.049 19.3537 187.935 19.43 187.81 19.482C187.684 19.5341 187.549 19.5609 187.413 19.5609Z" fill="white"/>
<path d="M258.934 33.1263V317.682C258.934 325.725 252.91 332.226 245.483 332.226H112.635C105.188 332.226 99.166 325.72 99.166 317.682V33.1263C99.166 16.7416 105.19 15.9426 112.635 15.9426H139.232C140.777 15.9426 142.035 17.6948 142.035 19.8763V20.8154C142.035 25.9441 144.828 25.9441 148.287 25.9441H209.754C213.213 25.9441 215.979 25.9441 215.979 20.8242V19.8763C215.979 17.6983 217.227 15.9426 218.799 15.9426H245.404C252.867 15.9426 258.934 18.1206 258.934 33.1263Z" fill="white"/>
<path d="M115.33 43.9864L110.599 39.5692L115.33 35.1431L116.059 35.9246L112.178 39.5692L116.059 43.2137L115.33 43.9864Z" fill="#C7C7C7"/>
<path d="M246.513 36.8129C246.511 37.0258 246.435 37.2314 246.299 37.3947C246.162 37.5581 245.974 37.6692 245.765 37.7092C245.556 37.7492 245.339 37.7157 245.152 37.6142C244.965 37.5127 244.819 37.3496 244.738 37.1525C244.658 36.9555 244.648 36.7367 244.71 36.5332C244.773 36.3298 244.904 36.1542 245.081 36.0364C245.259 35.9186 245.471 35.8658 245.683 35.8869C245.895 35.9081 246.093 36.0018 246.243 36.1524C246.329 36.2393 246.398 36.3424 246.444 36.4558C246.49 36.5691 246.514 36.6905 246.513 36.8129Z" fill="#C7C7C7"/>
<path d="M246.513 40.1158C246.511 40.3287 246.435 40.5342 246.299 40.6976C246.162 40.861 245.974 40.9721 245.765 41.0121C245.556 41.0521 245.339 41.0185 245.152 40.917C244.965 40.8156 244.819 40.6525 244.738 40.4554C244.658 40.2584 244.648 40.0395 244.71 39.8361C244.773 39.6326 244.904 39.4571 245.081 39.3393C245.259 39.2215 245.471 39.1687 245.683 39.1898C245.895 39.2109 246.093 39.3047 246.243 39.4553C246.329 39.5422 246.398 39.6453 246.444 39.7586C246.49 39.872 246.514 39.9934 246.513 40.1158Z" fill="#C7C7C7"/>
<path d="M246.513 43.4169C246.511 43.6298 246.435 43.8353 246.299 43.9987C246.162 44.1621 245.974 44.2732 245.765 44.3132C245.556 44.3532 245.339 44.3196 245.152 44.2182C244.965 44.1167 244.819 43.9536 244.738 43.7565C244.658 43.5595 244.648 43.3406 244.71 43.1372C244.773 42.9337 244.904 42.7582 245.081 42.6404C245.259 42.5226 245.471 42.4698 245.683 42.4909C245.895 42.512 246.093 42.6058 246.243 42.7564C246.329 42.8433 246.398 42.9464 246.444 43.0597C246.49 43.1731 246.514 43.2945 246.513 43.4169Z" fill="#C7C7C7"/>
<path d="M134.639 22.3346L134.385 22.5886L134.236 22.7288C133.579 22.0729 132.689 21.7045 131.76 21.7045C130.832 21.7045 129.941 22.0729 129.284 22.7288L129.144 22.5799L128.89 22.3258L129.214 22.0367C129.45 21.854 129.703 21.6949 129.969 21.5618C130.285 21.4028 130.622 21.2907 130.97 21.2289C131.133 21.1963 131.297 21.1729 131.462 21.1588H132.235C132.55 21.1964 132.859 21.2699 133.157 21.3779C133.369 21.458 133.575 21.5547 133.772 21.667C133.98 21.7865 134.177 21.9249 134.36 22.0805L134.632 22.3258L134.639 22.3346Z" fill="#C7C7C7"/>
<path d="M130.101 23.5366L129.687 23.1319C130.238 22.5852 130.983 22.2784 131.759 22.2784C132.535 22.2784 133.28 22.5852 133.831 23.1319L133.418 23.5366C132.977 23.0987 132.381 22.8529 131.759 22.8529C131.138 22.8529 130.542 23.0987 130.101 23.5366Z" fill="#C7C7C7"/>
<path d="M133.015 23.9483L132.61 24.3426C132.494 24.2292 132.357 24.1399 132.207 24.0797C132.056 24.0196 131.896 23.9898 131.734 23.9921C131.571 23.9891 131.409 24.0193 131.259 24.0811C131.108 24.1429 130.971 24.2348 130.858 24.3513C130.726 24.2112 130.586 24.0797 130.453 23.9483C130.617 23.7724 130.815 23.6322 131.036 23.5363C131.256 23.4404 131.494 23.3909 131.735 23.3909C131.975 23.3909 132.213 23.4404 132.433 23.5363C132.654 23.6322 132.851 23.7724 133.015 23.9483Z" fill="#C7C7C7"/>
<path d="M132.128 24.7211C132.128 24.7695 132.119 24.8175 132.1 24.8623C132.081 24.907 132.054 24.9477 132.02 24.9819C131.985 25.0161 131.945 25.0431 131.9 25.0615C131.855 25.0799 131.807 25.0893 131.758 25.089C131.686 25.0883 131.616 25.0663 131.556 25.0257C131.496 24.9851 131.45 24.9278 131.423 24.8609C131.396 24.7941 131.389 24.7206 131.403 24.6499C131.417 24.5791 131.452 24.5142 131.504 24.4633C131.555 24.4123 131.62 24.3777 131.691 24.3636C131.761 24.3496 131.835 24.3568 131.902 24.3843C131.968 24.4119 132.025 24.4585 132.066 24.5185C132.106 24.5784 132.128 24.6489 132.128 24.7211Z" fill="#C7C7C7"/>
<path d="M109.579 23.1055C109.581 22.8625 109.668 22.6278 109.823 22.4413C109.979 22.2548 110.195 22.1279 110.433 22.0824C110.672 22.0369 110.919 22.0754 111.133 22.1915C111.346 22.3076 111.513 22.494 111.604 22.7191C111.696 22.9443 111.707 23.1941 111.635 23.4262C111.563 23.6583 111.413 23.8584 111.21 23.9923C111.007 24.1262 110.764 24.1858 110.523 24.1608C110.281 24.1359 110.055 24.028 109.884 23.8555C109.687 23.6556 109.578 23.386 109.579 23.1055Z" fill="#C7C7C7"/>
<path d="M112.907 23.1055C112.911 22.8603 112.999 22.624 113.158 22.4368C113.316 22.2496 113.535 22.1231 113.776 22.0786C114.017 22.0342 114.266 22.0747 114.481 22.1932C114.696 22.3117 114.863 22.5008 114.954 22.7286C115.045 22.9563 115.055 23.2085 114.981 23.4425C114.907 23.6764 114.755 23.8775 114.549 24.0117C114.344 24.1459 114.099 24.2049 113.855 24.1787C113.611 24.1524 113.384 24.0425 113.212 23.8677C113.113 23.7673 113.035 23.6481 112.982 23.5173C112.93 23.3864 112.904 23.2464 112.907 23.1055Z" fill="#C7C7C7"/>
<path d="M116.244 23.1055C116.248 22.8603 116.337 22.624 116.496 22.4368C116.654 22.2496 116.873 22.1231 117.114 22.0786C117.355 22.0342 117.604 22.0747 117.819 22.1932C118.034 22.3117 118.201 22.5008 118.292 22.7286C118.383 22.9563 118.393 23.2085 118.319 23.4425C118.245 23.6764 118.092 23.8775 117.887 24.0117C117.682 24.1459 117.436 24.2049 117.192 24.1787C116.949 24.1524 116.721 24.0425 116.549 23.8677C116.45 23.7673 116.373 23.6481 116.32 23.5173C116.268 23.3864 116.242 23.2464 116.244 23.1055Z" fill="#C7C7C7"/>
<path d="M119.581 23.1056C119.587 22.8631 119.677 22.6302 119.835 22.4464C119.993 22.2626 120.21 22.1392 120.449 22.0971C120.688 22.055 120.934 22.0967 121.146 22.2153C121.357 22.3339 121.521 22.522 121.61 22.7478C121.699 22.9735 121.707 23.223 121.632 23.454C121.558 23.6849 121.407 23.8831 121.203 24.0149C120.999 24.1467 120.756 24.2041 120.515 24.1773C120.274 24.1505 120.05 24.0411 119.88 23.8678C119.782 23.7669 119.705 23.6476 119.654 23.5167C119.602 23.3859 119.578 23.2461 119.581 23.1056Z" fill="#C7C7C7"/>
<path d="M122.917 23.1056C122.923 22.8631 123.013 22.6302 123.171 22.4464C123.329 22.2626 123.546 22.1392 123.785 22.0971C124.024 22.055 124.27 22.0967 124.482 22.2153C124.693 22.3339 124.857 22.522 124.946 22.7478C125.035 22.9735 125.043 23.223 124.969 23.454C124.894 23.6849 124.743 23.8831 124.539 24.0149C124.335 24.1467 124.093 24.2041 123.851 24.1773C123.61 24.1505 123.386 24.0411 123.216 23.8678C123.118 23.7669 123.042 23.6476 122.99 23.5167C122.939 23.3859 122.914 23.2461 122.917 23.1056Z" fill="#C7C7C7"/>
<path d="M246.911 25.4254H238.279V21.4217H246.911V25.4254ZM238.735 24.9769H246.462V21.8702H238.735V24.9769Z" fill="#C7C7C7"/>
<path d="M244.557 22.1068H238.999V24.7403H244.557V22.1068Z" fill="#C7C7C7"/>
<path d="M247.676 22.3521H246.912V24.4863H247.676V22.3521Z" fill="#C7C7C7"/>
<path d="M123.435 314.833H122.209V320.409H119.95V317.563H115.92V320.409H113.655V314.833H112.442L117.93 309.153L123.435 314.833Z" fill="#EBEBEB"/>
<path d="M245.612 309.153H232.371V311.04H245.612V309.153Z" fill="#EBEBEB"/>
<path d="M245.612 313.833H232.371V315.72H245.612V313.833Z" fill="#EBEBEB"/>
<path d="M245.612 318.513H232.371V320.4H245.612V318.513Z" fill="#EBEBEB"/>
<path d="M182.795 314.026L179.027 318.056L175.26 314.026L175.928 313.411L179.027 316.712L182.127 313.411L182.795 314.026Z" fill="#EBEBEB"/>
<path d="M179.027 322.201C177.676 322.201 176.355 321.8 175.231 321.05C174.107 320.299 173.231 319.232 172.714 317.983C172.197 316.734 172.061 315.36 172.325 314.035C172.589 312.709 173.24 311.491 174.195 310.536C175.151 309.58 176.369 308.929 177.694 308.665C179.02 308.402 180.394 308.537 181.642 309.054C182.891 309.572 183.958 310.447 184.709 311.571C185.46 312.695 185.861 314.016 185.861 315.368C185.861 316.265 185.684 317.154 185.341 317.983C184.997 318.812 184.494 319.565 183.859 320.2C183.225 320.834 182.471 321.338 181.642 321.681C180.813 322.025 179.925 322.201 179.027 322.201ZM179.027 309.424C177.853 309.424 176.705 309.772 175.729 310.425C174.753 311.077 173.992 312.004 173.543 313.089C173.093 314.174 172.976 315.367 173.205 316.519C173.434 317.67 173.999 318.728 174.83 319.558C175.66 320.389 176.718 320.954 177.869 321.183C179.021 321.412 180.214 321.295 181.299 320.845C182.384 320.396 183.311 319.635 183.963 318.659C184.616 317.683 184.964 316.535 184.964 315.361C184.964 313.786 184.338 312.276 183.225 311.163C182.112 310.05 180.602 309.424 179.027 309.424Z" fill="#EBEBEB"/>
<path d="M168.815 290.783C168.814 291.309 168.629 291.819 168.294 292.225C167.958 292.632 167.493 292.909 166.976 293.01C166.459 293.111 165.923 293.03 165.459 292.781C164.995 292.532 164.632 292.129 164.431 291.642C164.231 291.155 164.205 290.613 164.359 290.11C164.513 289.606 164.837 289.171 165.275 288.879C165.713 288.587 166.239 288.456 166.764 288.508C167.288 288.56 167.777 288.793 168.15 289.165C168.362 289.378 168.53 289.63 168.644 289.908C168.758 290.185 168.817 290.483 168.815 290.783Z" fill="#DBDBDB"/>
<path d="M182.733 290.783C182.733 291.467 182.53 292.136 182.15 292.704C181.77 293.273 181.23 293.716 180.598 293.978C179.966 294.24 179.271 294.309 178.6 294.175C177.929 294.042 177.312 293.712 176.829 293.228C176.345 292.745 176.016 292.128 175.882 291.458C175.749 290.787 175.817 290.091 176.079 289.459C176.341 288.827 176.784 288.287 177.353 287.907C177.922 287.527 178.59 287.324 179.274 287.324C180.192 287.324 181.072 287.688 181.72 288.337C182.369 288.986 182.733 289.865 182.733 290.783Z" fill="#F9B233"/>
<path d="M194.304 290.783C194.303 291.309 194.118 291.819 193.783 292.225C193.447 292.632 192.982 292.909 192.465 293.01C191.948 293.111 191.412 293.03 190.948 292.781C190.484 292.532 190.121 292.129 189.92 291.642C189.72 291.155 189.694 290.613 189.848 290.11C190.002 289.606 190.326 289.171 190.764 288.879C191.202 288.587 191.728 288.456 192.253 288.508C192.777 288.56 193.267 288.793 193.639 289.165C193.851 289.378 194.019 289.63 194.133 289.908C194.247 290.185 194.306 290.483 194.304 290.783Z" fill="#DBDBDB"/>
<path d="M209.347 227.175H147.723V246.773H209.347V227.175Z" fill="#F9B233"/>
<path d="M164.98 239.722V234.453C164.979 234.388 164.991 234.324 165.015 234.263C165.039 234.203 165.076 234.148 165.122 234.102C165.168 234.056 165.222 234.02 165.283 233.996C165.343 233.972 165.407 233.96 165.472 233.961C165.538 233.96 165.603 233.972 165.663 233.996C165.724 234.02 165.78 234.056 165.826 234.102C165.873 234.148 165.91 234.202 165.935 234.263C165.96 234.323 165.973 234.388 165.973 234.453V239.256H168.414C168.542 239.264 168.662 239.32 168.749 239.413C168.837 239.506 168.886 239.628 168.886 239.756C168.886 239.884 168.837 240.007 168.749 240.1C168.662 240.193 168.542 240.249 168.414 240.256H165.471C165.402 240.257 165.334 240.243 165.271 240.215C165.209 240.188 165.152 240.148 165.106 240.097C165.06 240.047 165.024 239.987 165.002 239.922C164.98 239.857 164.972 239.789 164.978 239.72L164.98 239.722Z" fill="white"/>
<path d="M174.636 234.699C175.224 235.311 175.551 236.128 175.551 236.976C175.551 237.825 175.224 238.641 174.636 239.254C174.366 239.555 174.035 239.796 173.666 239.962C173.297 240.129 172.898 240.216 172.493 240.22C172.079 240.219 171.67 240.133 171.29 239.967C170.911 239.801 170.57 239.558 170.289 239.254C169.71 238.637 169.388 237.823 169.388 236.976C169.388 236.13 169.71 235.316 170.289 234.699C170.569 234.393 170.91 234.15 171.289 233.983C171.669 233.817 172.079 233.732 172.493 233.733C172.898 233.735 173.298 233.822 173.667 233.988C174.037 234.154 174.367 234.396 174.636 234.699ZM174.522 236.976C174.523 236.392 174.304 235.829 173.907 235.399C173.729 235.2 173.511 235.04 173.268 234.93C173.024 234.82 172.761 234.761 172.493 234.758C172.219 234.757 171.947 234.813 171.696 234.924C171.445 235.034 171.22 235.196 171.035 235.399C170.635 235.827 170.415 236.391 170.42 236.976C170.415 237.557 170.635 238.118 171.035 238.539C171.22 238.744 171.444 238.907 171.695 239.019C171.947 239.131 172.218 239.189 172.493 239.189C172.761 239.184 173.025 239.124 173.268 239.012C173.512 238.9 173.729 238.739 173.907 238.539C174.291 238.11 174.498 237.552 174.487 236.976H174.522Z" fill="white"/>
<path d="M177.007 236.982C177.022 236.365 177.208 235.765 177.544 235.248C177.88 234.731 178.353 234.318 178.91 234.054C179.467 233.79 180.087 233.686 180.7 233.753C181.312 233.82 181.894 234.057 182.381 234.436C182.482 234.522 182.546 234.643 182.559 234.775C182.573 234.907 182.534 235.039 182.453 235.143C182.371 235.248 182.252 235.317 182.121 235.335C181.989 235.354 181.856 235.321 181.748 235.244C181.344 234.93 180.846 234.76 180.334 234.76C180.033 234.755 179.734 234.811 179.455 234.924C179.176 235.038 178.923 235.206 178.71 235.419C178.497 235.618 178.327 235.858 178.211 236.126C178.094 236.393 178.034 236.681 178.034 236.973C178.034 237.264 178.094 237.553 178.211 237.82C178.327 238.088 178.497 238.328 178.71 238.527C178.923 238.74 179.176 238.908 179.455 239.021C179.734 239.135 180.033 239.19 180.334 239.186C180.767 239.18 181.19 239.059 181.561 238.835V237.609H180.27C180.133 237.605 180.003 237.548 179.908 237.45C179.813 237.351 179.76 237.22 179.76 237.083C179.762 236.95 179.817 236.822 179.912 236.728C180.007 236.635 180.136 236.582 180.27 236.582H182.022C182.089 236.58 182.157 236.591 182.22 236.616C182.283 236.64 182.34 236.676 182.389 236.723C182.438 236.769 182.477 236.825 182.505 236.887C182.532 236.949 182.546 237.016 182.547 237.083V239.097C182.552 239.146 182.552 239.196 182.547 239.246C182.516 239.336 182.454 239.414 182.372 239.465C181.888 239.844 181.308 240.082 180.696 240.151C180.085 240.22 179.466 240.117 178.91 239.855C178.353 239.593 177.881 239.181 177.545 238.665C177.209 238.15 177.022 237.551 177.007 236.936V236.982Z" fill="white"/>
<path d="M184.682 234.411C184.68 234.346 184.692 234.281 184.716 234.221C184.74 234.161 184.777 234.106 184.823 234.06C184.869 234.014 184.924 233.978 184.984 233.953C185.044 233.929 185.109 233.917 185.174 233.919C185.24 233.918 185.305 233.929 185.366 233.954C185.428 233.978 185.484 234.014 185.531 234.059C185.578 234.105 185.616 234.16 185.642 234.22C185.669 234.28 185.683 234.345 185.684 234.411V239.68C185.679 239.812 185.624 239.937 185.528 240.029C185.433 240.121 185.306 240.172 185.174 240.172C185.109 240.174 185.044 240.162 184.984 240.137C184.924 240.113 184.869 240.077 184.823 240.031C184.777 239.985 184.741 239.93 184.717 239.87C184.692 239.81 184.68 239.745 184.682 239.68V234.411Z" fill="white"/>
<path d="M188.352 239.72C188.356 239.787 188.347 239.854 188.324 239.918C188.301 239.981 188.265 240.038 188.219 240.087C188.173 240.136 188.118 240.175 188.056 240.202C187.995 240.228 187.928 240.242 187.861 240.242C187.794 240.242 187.727 240.228 187.666 240.202C187.604 240.175 187.549 240.136 187.503 240.087C187.457 240.038 187.421 239.981 187.398 239.918C187.375 239.854 187.365 239.787 187.369 239.72V234.451C187.368 234.371 187.385 234.292 187.42 234.22C187.455 234.148 187.507 234.086 187.571 234.038C187.677 233.966 187.807 233.937 187.934 233.956C188.061 233.976 188.176 234.042 188.256 234.143L191.163 238.173V234.494C191.163 234.43 191.175 234.367 191.2 234.308C191.224 234.25 191.26 234.196 191.305 234.152C191.35 234.107 191.403 234.071 191.462 234.047C191.52 234.022 191.583 234.01 191.647 234.01C191.776 234.01 191.9 234.061 191.992 234.151C192.084 234.242 192.137 234.364 192.139 234.494V239.752C192.137 239.882 192.084 240.006 191.992 240.098C191.9 240.189 191.776 240.242 191.647 240.244C191.575 240.243 191.505 240.226 191.442 240.194C191.378 240.162 191.322 240.117 191.279 240.06L191.235 240.008L188.354 236.013L188.352 239.72Z" fill="white"/>
<path d="M193.956 75.4593V81.8776H189.416V75.4593C189.512 74.0409 189.315 72.6179 188.838 71.2786C188.362 69.9393 187.615 68.7123 186.644 67.6737C185.673 66.635 184.499 65.807 183.195 65.2408C181.891 64.6747 180.485 64.3826 179.063 64.3826C177.641 64.3826 176.235 64.6747 174.931 65.2408C173.627 65.807 172.453 66.635 171.482 67.6737C170.512 68.7123 169.765 69.9393 169.288 71.2786C168.811 72.6179 168.614 74.0409 168.71 75.4593V91.5286H164.1V75.4593C163.977 73.4232 164.272 71.3835 164.967 69.4656C165.662 67.5478 166.741 65.7923 168.139 64.3071C169.538 62.822 171.225 61.6385 173.098 60.8296C174.97 60.0207 176.988 59.6035 179.028 59.6035C181.068 59.6035 183.086 60.0207 184.959 60.8296C186.831 61.6385 188.518 62.822 189.917 64.3071C191.315 65.7923 192.395 67.5478 193.089 69.4656C193.784 71.3835 194.079 73.4232 193.956 75.4593Z" fill="#C7C7C7"/>
<path d="M164.135 81.8951L168.675 82.0791V91.5269H164.135V81.8951Z" fill="#A6A6A6"/>
<path d="M199.742 86.1442H158.313V123.727H199.742V86.1442Z" fill="#F9B233"/>
<path opacity="0.1" d="M199.742 86.1442H179.027V123.727H199.742V86.1442Z" fill="black"/>
<path d="M180.783 106.315L182.535 114.535H175.176L176.928 106.315C176.25 105.893 175.727 105.261 175.44 104.515C175.152 103.769 175.116 102.949 175.335 102.18C175.555 101.412 176.019 100.735 176.658 100.254C177.296 99.7726 178.074 99.5122 178.873 99.5122C179.673 99.5122 180.45 99.7726 181.089 100.254C181.727 100.735 182.191 101.412 182.411 102.18C182.631 102.949 182.594 103.769 182.307 104.515C182.019 105.261 181.497 105.893 180.818 106.315H180.783Z" fill="#263238"/>
<path d="M232.38 165.2H125.684V183.464H232.38V165.2Z" fill="white"/>
<path d="M232.809 183.902H125.244V164.76H232.809V183.902ZM126.122 183.026H231.931V165.641H126.122V183.026Z" fill="#EBEBEB"/>
<path d="M136.756 170.239H135.878V178.045H136.756V170.239Z" fill="#37474F"/>
<path d="M140.225 173.699H132.419V174.577H140.225V173.699Z" fill="#37474F"/>
<path d="M138.769 171.06L133.249 176.58L133.87 177.201L139.39 171.681L138.769 171.06Z" fill="#37474F"/>
<path d="M133.865 171.067L133.244 171.688L138.764 177.208L139.385 176.587L133.865 171.067Z" fill="#37474F"/>
<path d="M149.997 170.239H149.119V178.045H149.997V170.239Z" fill="#37474F"/>
<path d="M153.466 173.699H145.66V174.577H153.466V173.699Z" fill="#37474F"/>
<path d="M152.007 171.069L146.487 176.589L147.108 177.21L152.628 171.69L152.007 171.069Z" fill="#37474F"/>
<path d="M147.11 171.065L146.489 171.686L152.009 177.206L152.629 176.585L147.11 171.065Z" fill="#37474F"/>
<path d="M163.238 170.239H162.36V178.045H163.238V170.239Z" fill="#37474F"/>
<path d="M166.708 173.699H158.902V174.577H166.708V173.699Z" fill="#37474F"/>
<path d="M165.247 171.071L159.727 176.591L160.348 177.211L165.867 171.692L165.247 171.071Z" fill="#37474F"/>
<path d="M160.354 171.062L159.734 171.683L165.253 177.202L165.874 176.582L160.354 171.062Z" fill="#37474F"/>
<path d="M176.488 170.239H175.611V178.045H176.488V170.239Z" fill="#37474F"/>
<path d="M179.949 173.699H172.143V174.577H179.949V173.699Z" fill="#37474F"/>
<path d="M178.495 171.071L172.975 176.591L173.596 177.211L179.116 171.692L178.495 171.071Z" fill="#37474F"/>
<path d="M173.605 171.071L172.984 171.691L178.504 177.211L179.124 176.59L173.605 171.071Z" fill="#37474F"/>
<path d="M189.731 170.239H188.854V178.045H189.731V170.239Z" fill="#37474F"/>
<path d="M193.19 173.699H185.384V174.577H193.19V173.699Z" fill="#37474F"/>
<path d="M191.733 171.071L186.213 176.591L186.834 177.211L192.353 171.692L191.733 171.071Z" fill="#37474F"/>
<path d="M186.841 171.058L186.22 171.679L191.74 177.199L192.36 176.578L186.841 171.058Z" fill="#37474F"/>
<path d="M202.973 170.239H202.095V178.045H202.973V170.239Z" fill="#37474F"/>
<path d="M206.44 173.699H198.634V174.577H206.44V173.699Z" fill="#37474F"/>
<path d="M204.977 171.066L199.458 176.585L200.078 177.206L205.598 171.686L204.977 171.066Z" fill="#37474F"/>
<path d="M200.084 171.057L199.463 171.677L204.983 177.197L205.604 176.576L200.084 171.057Z" fill="#37474F"/>
<path d="M223.265 177.15C222.313 177.093 221.384 176.828 220.545 176.374C219.707 175.92 218.977 175.288 218.41 174.521L218.217 174.258L218.41 174.004C218.941 173.211 219.66 172.561 220.502 172.111C221.344 171.662 222.285 171.427 223.239 171.427C224.194 171.427 225.134 171.662 225.977 172.111C226.819 172.561 227.538 173.211 228.069 174.004L228.253 174.258L228.069 174.521C227.507 175.282 226.786 175.911 225.957 176.365C225.127 176.818 224.208 177.086 223.265 177.15ZM219.331 174.286C219.784 174.91 220.378 175.418 221.065 175.769C221.752 176.119 222.511 176.301 223.282 176.301C224.053 176.301 224.813 176.119 225.5 175.769C226.187 175.418 226.781 174.91 227.234 174.286C226.781 173.662 226.187 173.155 225.5 172.804C224.813 172.454 224.053 172.272 223.282 172.272C222.511 172.272 221.752 172.454 221.065 172.804C220.378 173.155 219.784 173.662 219.331 174.286Z" fill="#EBEBEB"/>
<path d="M223.256 176.265C224.348 176.265 225.232 175.38 225.232 174.288C225.232 173.197 224.348 172.312 223.256 172.312C222.164 172.312 221.28 173.197 221.28 174.288C221.28 175.38 222.164 176.265 223.256 176.265Z" fill="#EBEBEB"/>
<path d="M226.511 170.324L219.494 177.341L220.115 177.961L227.131 170.945L226.511 170.324Z" fill="#EBEBEB"/>
<path d="M340.645 44.6295C340.645 44.6295 333.945 98.2465 322.934 110.31C309.763 124.782 300.103 122.665 294.836 130.129C289.497 122.656 279.909 124.782 266.738 110.302C255.727 98.236 249.041 44.6207 249.041 44.6207C278.02 30.5699 294.882 14.7651 294.882 14.7651C295.32 15.2662 312.092 30.7731 340.645 44.6295Z" fill="#37474F"/>
<path d="M294.801 14.7826V130.128C289.463 122.655 279.875 124.78 266.703 110.3C255.693 98.2343 249.006 44.619 249.006 44.619C277.982 30.5699 294.842 14.7634 294.842 14.7634L294.801 14.7826Z" fill="#455A64"/>
<path d="M333.569 48.9504C333.569 48.9504 327.914 94.2428 318.642 104.437C307.465 116.678 299.324 114.877 294.854 121.183C290.349 114.875 282.238 116.678 271.066 104.437C261.78 94.2428 256.139 48.9504 256.139 48.9504C270.136 42.3429 283.165 33.8539 294.863 23.7188C294.863 23.7188 309.021 37.0512 333.569 48.9504Z" fill="#455A64"/>
<path d="M256.078 48.9504C256.078 48.9504 261.732 94.2341 271.005 104.437C282.165 116.669 290.262 114.887 294.775 121.174V23.7048C294.363 24.1884 280.199 37.237 256.078 48.9504Z" fill="#37474F"/>
<path d="M282.111 59.7554C284.622 57.2441 287.822 55.5339 291.305 54.8411C294.788 54.1482 298.399 54.5038 301.68 55.8629C304.961 57.222 307.765 59.5235 309.738 62.4765C311.712 65.4294 312.765 68.9011 312.765 72.4525C312.765 76.004 311.712 79.4757 309.738 82.4286C307.765 85.3815 304.961 87.6831 301.68 89.0421C298.399 90.4012 294.788 90.7568 291.305 90.064C287.822 89.3711 284.622 87.6609 282.111 85.1497C278.744 81.7822 276.852 77.2149 276.852 72.4525C276.852 67.6902 278.744 63.1229 282.111 59.7554Z" fill="#F9B233"/>
<path d="M292.755 84.1151L284.756 75.7992L287.724 72.9449L292.133 77.5286L301.633 62.9522L305.085 65.2002L292.755 84.1151Z" fill="white"/>
</svg>
