<svg width="389" height="331" viewBox="0 0 389 331" fill="none" xmlns="http://www.w3.org/2000/svg">
<path d="M0.211914 330.112C0.211914 329.987 87.2025 329.895 194.491 329.895C301.78 329.895 388.788 329.987 388.788 330.112C388.788 330.237 301.814 330.33 194.491 330.33C87.1685 330.33 0.211914 330.23 0.211914 330.112Z" fill="#263238"/>
<path d="M226.119 1.71875H156.212C129.723 1.71875 108.249 23.1926 108.249 49.682V282.154C108.249 308.643 129.723 330.117 156.212 330.117H226.119C252.608 330.117 274.082 308.643 274.082 282.154V49.682C274.082 23.1926 252.608 1.71875 226.119 1.71875Z" fill="#455A64"/>
<path d="M271.477 285.428V46.4048C271.477 23.1665 252.638 4.32813 229.4 4.32813L152.941 4.32813C129.702 4.32813 110.864 23.1665 110.864 46.4048L110.864 285.428C110.864 308.666 129.702 327.505 152.941 327.505H229.4C252.638 327.505 271.477 308.666 271.477 285.428Z" fill="#263238"/>
<path d="M179.263 14.6793C178.774 14.6793 178.305 14.4851 177.959 14.1394C177.613 13.7936 177.419 13.3247 177.419 12.8358C177.419 12.3468 177.613 11.8779 177.959 11.5322C178.305 11.1864 178.774 10.9922 179.263 10.9922H202.973C203.462 10.9922 203.931 11.1864 204.277 11.5322C204.623 11.8779 204.817 12.3468 204.817 12.8358C204.817 13.3247 204.623 13.7936 204.277 14.1394C203.931 14.4851 203.462 14.6793 202.973 14.6793H179.263Z" fill="#455A64"/>
<path d="M166.542 14.6793C166.177 14.6793 165.821 14.5712 165.518 14.3686C165.214 14.1661 164.978 13.8781 164.839 13.5413C164.699 13.2044 164.663 12.8337 164.734 12.4761C164.805 12.1185 164.98 11.79 165.238 11.5322C165.496 11.2743 165.825 11.0987 166.182 11.0276C166.54 10.9565 166.91 10.993 167.247 11.1325C167.584 11.272 167.872 11.5083 168.075 11.8115C168.277 12.1147 168.385 12.4711 168.385 12.8358C168.385 13.0779 168.338 13.3176 168.245 13.5413C168.152 13.7649 168.017 13.9682 167.845 14.1394C167.674 14.3106 167.471 14.4464 167.247 14.539C167.024 14.6317 166.784 14.6793 166.542 14.6793Z" fill="#455A64"/>
<path d="M173.33 14.6793C172.965 14.6793 172.609 14.5712 172.306 14.3686C172.002 14.1661 171.766 13.8781 171.627 13.5413C171.487 13.2044 171.451 12.8337 171.522 12.4761C171.593 12.1185 171.768 11.79 172.026 11.5322C172.284 11.2743 172.613 11.0987 172.97 11.0276C173.328 10.9565 173.699 10.993 174.035 11.1325C174.372 11.272 174.66 11.5083 174.863 11.8115C175.065 12.1147 175.173 12.4711 175.173 12.8358C175.173 13.0779 175.126 13.3176 175.033 13.5413C174.941 13.7649 174.805 13.9682 174.634 14.1394C174.462 14.3106 174.259 14.4464 174.035 14.539C173.812 14.6317 173.572 14.6793 173.33 14.6793Z" fill="#455A64"/>
<path d="M215.799 14.6793C215.434 14.6793 215.078 14.5712 214.774 14.3686C214.471 14.1661 214.235 13.8781 214.095 13.5413C213.956 13.2044 213.919 12.8337 213.991 12.4761C214.062 12.1185 214.237 11.79 214.495 11.5322C214.753 11.2743 215.081 11.0987 215.439 11.0276C215.797 10.9565 216.167 10.993 216.504 11.1325C216.841 11.272 217.129 11.5083 217.332 11.8115C217.534 12.1147 217.642 12.4711 217.642 12.8358C217.642 13.0779 217.595 13.3176 217.502 13.5413C217.409 13.7649 217.273 13.9682 217.102 14.1394C216.931 14.3106 216.728 14.4464 216.504 14.539C216.28 14.6317 216.041 14.6793 215.799 14.6793Z" fill="#455A64"/>
<path d="M209.012 14.6793C208.647 14.6793 208.29 14.5712 207.987 14.3686C207.684 14.1661 207.448 13.8781 207.308 13.5413C207.169 13.2044 207.132 12.8337 207.203 12.4761C207.275 12.1185 207.45 11.79 207.708 11.5322C207.966 11.2743 208.294 11.0987 208.652 11.0276C209.009 10.9565 209.38 10.993 209.717 11.1325C210.054 11.272 210.342 11.5083 210.544 11.8115C210.747 12.1147 210.855 12.4711 210.855 12.8358C210.855 13.0779 210.807 13.3176 210.715 13.5413C210.622 13.7649 210.486 13.9682 210.315 14.1394C210.144 14.3106 209.941 14.4464 209.717 14.539C209.493 14.6317 209.254 14.6793 209.012 14.6793Z" fill="#455A64"/>
<path d="M253.49 6.54688H230.208C228.413 6.54607 226.666 7.12827 225.23 8.2059C223.794 9.28352 222.746 10.7983 222.245 12.5224L221.852 13.8795C221.316 15.7243 220.196 17.3453 218.66 18.4987C217.124 19.6521 215.255 20.2756 213.334 20.2753H169.005C167.084 20.2757 165.216 19.6525 163.679 18.4995C162.143 17.3464 161.023 15.7258 160.487 13.8814L160.135 12.5224C159.634 10.7983 158.587 9.28352 157.151 8.2059C155.715 7.12827 153.968 6.54607 152.172 6.54688H131.005C126.655 6.54688 122.483 8.27504 119.407 11.3512C116.331 14.4273 114.603 18.5995 114.603 22.9498V307.714C114.603 311.806 116.228 315.731 119.122 318.625C122.016 321.518 125.94 323.144 130.033 323.144H253.766C255.601 323.144 257.418 322.783 259.113 322.081C260.809 321.379 262.349 320.35 263.647 319.052C264.944 317.755 265.973 316.214 266.675 314.519C267.378 312.823 267.739 311.006 267.738 309.171V20.7958C267.738 17.0167 266.237 13.3925 263.565 10.7203C260.893 8.0481 257.269 6.54688 253.49 6.54688Z" fill="#FAFAFA"/>
<path d="M274.3 110.836H274.111V73.1203H274.3C274.538 73.1203 274.766 73.2148 274.934 73.383C275.103 73.5513 275.197 73.7795 275.197 74.0174V109.98C275.187 110.211 275.087 110.429 274.92 110.588C274.753 110.747 274.531 110.836 274.3 110.836Z" fill="#455A64"/>
<path d="M108.015 96.3513H108.25V120.246H108.015C107.777 120.246 107.549 120.151 107.381 119.983C107.213 119.815 107.118 119.587 107.118 119.349V97.2409C107.118 97.003 107.213 96.7748 107.381 96.6065C107.549 96.4383 107.777 96.3438 108.015 96.3438V96.3513Z" fill="#455A64"/>
<path d="M108.015 65.1328H108.25V89.0198H108.015C107.777 89.0198 107.549 88.9253 107.381 88.757C107.213 88.5888 107.118 88.3605 107.118 88.1226V66.03C107.118 65.792 107.213 65.5638 107.381 65.3956C107.549 65.2273 107.777 65.1328 108.015 65.1328Z" fill="#455A64"/>
<path d="M108.074 41.6953H108.25V52.8098H108.074C107.863 52.8098 107.66 52.7258 107.511 52.5764C107.361 52.4269 107.277 52.2242 107.277 52.0129V42.4922C107.277 42.2808 107.361 42.0781 107.511 41.9287C107.66 41.7793 107.863 41.6953 108.074 41.6953Z" fill="#455A64"/>
<path d="M231.707 17.2305H230.567V18.8318H231.707V17.2305Z" fill="#263238"/>
<path d="M233.558 16.5195H232.419V18.8249H233.558V16.5195Z" fill="#263238"/>
<path d="M235.411 15.9805H234.271V18.8215H235.411V15.9805Z" fill="#263238"/>
<path d="M237.263 14.9531H236.123V18.8258H237.263V14.9531Z" fill="#263238"/>
<path d="M254.084 18.909H248.36C248.251 18.909 248.147 18.8657 248.07 18.7887C247.993 18.7116 247.949 18.6072 247.949 18.4982V15.659C247.949 15.5501 247.993 15.4456 248.07 15.3686C248.147 15.2916 248.251 15.2483 248.36 15.2483H254.084C254.105 15.2401 254.129 15.2401 254.15 15.2483C254.16 15.2726 254.16 15.2997 254.15 15.324V16.2761H254.761C254.789 16.276 254.816 16.2862 254.836 16.3048C254.856 16.3234 254.869 16.349 254.871 16.3764V17.7506C254.871 17.7646 254.868 17.7784 254.863 17.7913C254.857 17.8041 254.849 17.8156 254.839 17.8251C254.828 17.8345 254.816 17.8417 254.803 17.8461C254.789 17.8506 254.775 17.8522 254.761 17.8509H254.15V18.7973C254.152 18.8205 254.147 18.8439 254.135 18.864C254.123 18.8841 254.105 18.8998 254.084 18.909ZM254.008 15.4565H248.385C248.331 15.4565 248.28 15.4776 248.243 15.5153C248.205 15.5529 248.184 15.6039 248.184 15.6572V18.4963C248.184 18.5495 248.205 18.6006 248.243 18.6382C248.28 18.6758 248.331 18.697 248.385 18.697H254.001V17.7506C254.001 17.7215 254.012 17.6935 254.033 17.6729C254.053 17.6524 254.081 17.6408 254.11 17.6408H254.722V16.4843H254.11C254.081 16.4843 254.053 16.4727 254.033 16.4521C254.012 16.4315 254.001 16.4036 254.001 16.3745L254.008 15.4565Z" fill="#263238"/>
<path d="M248.628 18.227V15.9141H253.506V18.227H248.628Z" fill="#263238"/>
<path d="M242.719 18.6917C242.719 18.609 242.695 18.5281 242.649 18.4593C242.603 18.3906 242.538 18.3369 242.461 18.3053C242.385 18.2736 242.301 18.2653 242.22 18.2815C242.138 18.2976 242.064 18.3374 242.005 18.3959C241.947 18.4545 241.907 18.529 241.891 18.6101C241.875 18.6913 241.883 18.7754 241.915 18.8518C241.946 18.9283 242 18.9936 242.069 19.0395C242.137 19.0855 242.218 19.11 242.301 19.11C242.356 19.11 242.41 19.0992 242.461 19.0782C242.512 19.0572 242.558 19.0264 242.597 18.9875C242.636 18.9487 242.667 18.9026 242.688 18.8518C242.709 18.8011 242.719 18.7467 242.719 18.6917Z" fill="#263238"/>
<path d="M240.876 17.6766L241.404 18.2123C241.643 17.9766 241.965 17.8441 242.301 17.8432C242.634 17.8447 242.953 17.9773 243.189 18.2123L243.725 17.6766C243.345 17.3019 242.833 17.0912 242.299 17.0899C242.035 17.0889 241.773 17.1403 241.529 17.241C241.285 17.3417 241.063 17.4897 240.876 17.6766Z" fill="#263238"/>
<path d="M242.274 15.8984C241.422 15.9005 240.605 16.2409 240.003 16.8448L240.539 17.3824C240.765 17.1541 241.035 16.9729 241.332 16.8493C241.629 16.7257 241.948 16.662 242.27 16.662C242.591 16.662 242.91 16.7257 243.207 16.8493C243.504 16.9729 243.774 17.1541 244 17.3824L244.536 16.8467C244.24 16.5478 243.888 16.3102 243.5 16.1475C243.111 15.9848 242.695 15.9001 242.274 15.8984Z" fill="#263238"/>
<path d="M239.166 15.978L239.702 16.5061C240.391 15.8185 241.326 15.4323 242.299 15.4323C243.273 15.4323 244.208 15.8185 244.897 16.5061L245.433 15.978C244.602 15.1467 243.474 14.6797 242.299 14.6797C241.123 14.6797 239.995 15.1467 239.164 15.978H239.166Z" fill="#263238"/>
<path d="M244.791 62.9114H140.862C138.12 62.9114 135.491 61.8228 133.551 59.8849C131.612 57.947 130.522 55.3184 130.52 52.5768C130.522 49.8352 131.612 47.2066 133.551 45.2687C135.491 43.3308 138.12 42.2422 140.862 42.2422H244.791C247.532 42.2422 250.16 43.331 252.099 45.2691C254.037 47.2072 255.126 49.8359 255.126 52.5768C255.126 55.3177 254.037 57.9464 252.099 59.8845C250.16 61.8226 247.532 62.9114 244.791 62.9114Z" fill="#E0E0E0"/>
<path d="M242.083 56.5139C241.302 56.5139 240.538 56.2821 239.889 55.8478C239.239 55.4135 238.733 54.7963 238.434 54.0743C238.136 53.3523 238.058 52.5579 238.211 51.7918C238.364 51.0256 238.741 50.3221 239.295 49.7703C239.848 49.2185 240.552 48.8432 241.319 48.6919C242.085 48.5406 242.879 48.6202 243.601 48.9205C244.322 49.2208 244.938 49.7283 245.371 50.3789C245.803 51.0294 246.033 51.7937 246.031 52.575C246.029 53.6205 245.612 54.6224 244.872 55.3608C244.131 56.0992 243.129 56.5139 242.083 56.5139ZM242.083 49.4141C241.458 49.4141 240.848 49.5993 240.328 49.9465C239.809 50.2936 239.404 50.787 239.164 51.3642C238.925 51.9414 238.863 52.5766 238.985 53.1894C239.107 53.8022 239.408 54.3651 239.849 54.8069C240.291 55.2487 240.854 55.5496 241.467 55.6715C242.08 55.7934 242.715 55.7308 243.292 55.4917C243.869 55.2526 244.363 54.8477 244.71 54.3282C245.057 53.8087 245.242 53.1979 245.242 52.5731C245.242 52.1583 245.16 51.7475 245.002 51.3642C244.843 50.9809 244.61 50.6327 244.317 50.3393C244.024 50.046 243.675 49.8133 243.292 49.6545C242.909 49.4958 242.498 49.4141 242.083 49.4141Z" fill="#263238"/>
<path d="M247.382 57.5249C247.287 57.5276 247.194 57.4945 247.122 57.4322L244.523 55.1608C244.451 55.0871 244.41 54.9879 244.41 54.8845C244.41 54.781 244.451 54.6818 244.523 54.6081C244.559 54.5703 244.602 54.5401 244.649 54.5195C244.697 54.4989 244.748 54.4883 244.8 54.4883C244.852 54.4883 244.903 54.4989 244.95 54.5195C244.998 54.5401 245.041 54.5703 245.076 54.6081L247.675 56.8795C247.748 56.9531 247.788 57.0524 247.788 57.1558C247.788 57.2592 247.748 57.3585 247.675 57.4322C247.635 57.4673 247.589 57.4937 247.538 57.5097C247.488 57.5257 247.434 57.5308 247.382 57.5249Z" fill="#263238"/>
<path d="M179.992 259.922C179.992 260.585 179.796 261.234 179.427 261.785C179.059 262.336 178.536 262.766 177.923 263.019C177.31 263.273 176.636 263.34 175.986 263.21C175.336 263.081 174.739 262.762 174.27 262.293C173.801 261.824 173.482 261.227 173.352 260.576C173.223 259.926 173.29 259.252 173.543 258.64C173.797 258.027 174.227 257.504 174.778 257.135C175.329 256.767 175.977 256.57 176.64 256.57C177.529 256.57 178.382 256.924 179.011 257.552C179.639 258.181 179.992 259.033 179.992 259.922Z" fill="#EBEBEB"/>
<path d="M191.148 259.922C191.148 260.585 190.951 261.234 190.583 261.785C190.214 262.336 189.691 262.766 189.078 263.019C188.466 263.273 187.792 263.34 187.142 263.21C186.491 263.081 185.894 262.762 185.425 262.293C184.956 261.824 184.637 261.227 184.508 260.576C184.378 259.926 184.445 259.252 184.699 258.64C184.952 258.027 185.382 257.504 185.933 257.135C186.484 256.767 187.132 256.57 187.795 256.57C188.685 256.57 189.537 256.924 190.166 257.552C190.794 258.181 191.148 259.033 191.148 259.922Z" fill="#E0E0E0"/>
<path d="M198.969 263.256C200.811 263.256 202.304 261.763 202.304 259.921C202.304 258.079 200.811 256.586 198.969 256.586C197.127 256.586 195.634 258.079 195.634 259.921C195.634 261.763 197.127 263.256 198.969 263.256Z" fill="#E0E0E0"/>
<path d="M213.46 259.922C213.46 260.585 213.264 261.234 212.895 261.785C212.527 262.336 212.003 262.766 211.391 263.019C210.778 263.273 210.104 263.34 209.454 263.21C208.804 263.081 208.206 262.762 207.738 262.293C207.269 261.824 206.95 261.227 206.82 260.576C206.691 259.926 206.757 259.252 207.011 258.64C207.265 258.027 207.694 257.504 208.246 257.135C208.797 256.767 209.445 256.57 210.108 256.57C210.997 256.57 211.85 256.924 212.478 257.552C213.107 258.181 213.46 259.033 213.46 259.922Z" fill="#E0E0E0"/>
<path d="M142.542 276.52C145.2 276.52 147.799 277.308 150.008 278.784C152.218 280.261 153.941 282.36 154.958 284.816C155.975 287.271 156.241 289.973 155.723 292.58C155.204 295.187 153.924 297.582 152.045 299.461C150.166 301.34 147.771 302.62 145.164 303.139C142.557 303.657 139.855 303.391 137.4 302.374C134.944 301.357 132.845 299.635 131.368 297.425C129.892 295.215 129.104 292.616 129.104 289.958C129.104 286.394 130.519 282.976 133.04 280.456C135.56 277.935 138.978 276.52 142.542 276.52Z" fill="#E6AA57"/>
<path d="M189.508 289.713C189.508 282.288 183.489 276.27 176.065 276.27C168.64 276.27 162.621 282.288 162.621 289.713C162.621 297.138 168.64 303.157 176.065 303.157C183.489 303.157 189.508 297.138 189.508 289.713Z" fill="#E0E0E0"/>
<path d="M223.024 289.463C223.024 282.038 217.005 276.02 209.58 276.02C202.156 276.02 196.137 282.038 196.137 289.463C196.137 296.888 202.156 302.907 209.58 302.907C217.005 302.907 223.024 296.888 223.024 289.463Z" fill="#455A64"/>
<path d="M256.534 289.963C256.534 282.538 250.515 276.52 243.09 276.52C235.665 276.52 229.646 282.538 229.646 289.963C229.646 297.388 235.665 303.407 243.09 303.407C250.515 303.407 256.534 297.388 256.534 289.963Z" fill="#263238"/>
<path d="M203.312 295.977L204.293 292.322C203.497 290.895 203.243 289.228 203.577 287.627C203.911 286.027 204.812 284.601 206.113 283.612C207.414 282.622 209.029 282.135 210.66 282.241C212.291 282.346 213.83 283.036 214.993 284.185C216.156 285.333 216.866 286.863 216.992 288.493C217.118 290.123 216.652 291.743 215.679 293.057C214.706 294.371 213.292 295.289 211.696 295.644C210.1 295.998 208.43 295.765 206.992 294.987L203.312 295.977ZM207.168 293.623L207.395 293.765C208.548 294.456 209.914 294.701 211.236 294.454C212.557 294.207 213.743 293.485 214.568 292.424C215.394 291.363 215.803 290.037 215.718 288.695C215.633 287.354 215.06 286.09 214.107 285.141C213.154 284.193 211.887 283.627 210.545 283.548C209.203 283.47 207.879 283.886 206.822 284.717C205.765 285.548 205.049 286.737 204.809 288.059C204.569 289.382 204.821 290.747 205.518 291.896L205.66 292.131L205.114 294.175L207.168 293.623Z" fill="white"/>
<path fill-rule="evenodd" clip-rule="evenodd" d="M212.621 290.058C212.487 289.951 212.331 289.875 212.164 289.838C211.997 289.8 211.824 289.801 211.657 289.84C211.406 289.941 211.247 290.335 211.078 290.537C211.043 290.584 210.992 290.616 210.935 290.628C210.878 290.64 210.819 290.631 210.768 290.603C209.848 290.242 209.077 289.58 208.58 288.726C208.535 288.676 208.511 288.612 208.511 288.546C208.511 288.479 208.535 288.415 208.58 288.366C208.769 288.191 208.908 287.968 208.983 287.721C208.995 287.457 208.935 287.195 208.807 286.963C208.701 286.636 208.504 286.345 208.239 286.125C208.103 286.06 207.95 286.037 207.801 286.059C207.651 286.081 207.512 286.148 207.401 286.25C207.208 286.414 207.055 286.62 206.953 286.853C206.852 287.085 206.804 287.337 206.814 287.59C206.813 287.734 206.83 287.878 206.865 288.018C206.958 288.35 207.096 288.669 207.276 288.964C207.409 289.187 207.552 289.405 207.703 289.617C208.219 290.315 208.861 290.909 209.596 291.368C209.961 291.591 210.348 291.774 210.753 291.913C211.175 292.106 211.641 292.181 212.102 292.131C212.364 292.086 212.612 291.98 212.825 291.821C213.038 291.662 213.21 291.455 213.327 291.217C213.39 291.071 213.41 290.911 213.385 290.755C213.308 290.401 212.89 290.21 212.621 290.058Z" fill="white"/>
<path fill-rule="evenodd" clip-rule="evenodd" d="M147.289 291.577C147.035 291.373 146.737 291.229 146.419 291.158C146.101 291.087 145.77 291.09 145.453 291.166C144.976 291.356 144.673 292.113 144.363 292.491C144.299 292.582 144.203 292.645 144.095 292.67C143.987 292.695 143.873 292.679 143.776 292.626C142.031 291.945 140.569 290.692 139.627 289.073C139.547 288.971 139.508 288.842 139.519 288.713C139.53 288.584 139.589 288.463 139.686 288.376C140.042 288.043 140.303 287.621 140.443 287.154C140.471 286.648 140.355 286.145 140.108 285.704C139.856 285.168 139.58 284.396 139.035 284.095C138.776 283.973 138.487 283.931 138.204 283.973C137.92 284.014 137.656 284.138 137.443 284.33C137.083 284.64 136.796 285.027 136.603 285.461C136.411 285.896 136.317 286.368 136.328 286.843C136.326 287.126 136.36 287.407 136.428 287.682C136.595 288.316 136.858 288.921 137.208 289.476C137.459 289.908 137.739 290.323 138.047 290.716C139.001 292.025 140.199 293.138 141.575 293.992C142.267 294.42 143.003 294.772 143.771 295.041C144.574 295.402 145.46 295.542 146.335 295.444C146.834 295.367 147.305 295.169 147.71 294.868C148.115 294.567 148.44 294.173 148.658 293.718C148.781 293.442 148.82 293.135 148.767 292.838C148.607 292.198 147.785 291.87 147.289 291.577Z" fill="white"/>
<path d="M247.305 285.652C247.149 285.652 246.997 285.699 246.867 285.785C246.738 285.872 246.637 285.995 246.578 286.138C246.518 286.282 246.502 286.441 246.533 286.593C246.563 286.746 246.638 286.886 246.748 286.996C246.858 287.107 246.999 287.182 247.151 287.212C247.304 287.242 247.462 287.227 247.606 287.167C247.75 287.108 247.873 287.007 247.96 286.877C248.046 286.748 248.092 286.595 248.092 286.44C248.092 286.231 248.009 286.031 247.862 285.883C247.714 285.735 247.514 285.652 247.305 285.652Z" fill="white"/>
<path d="M243.809 286.434C243.156 286.432 242.516 286.624 241.972 286.986C241.427 287.347 241.003 287.863 240.751 288.466C240.5 289.069 240.433 289.734 240.559 290.375C240.686 291.016 241 291.606 241.461 292.069C241.923 292.532 242.511 292.847 243.152 292.975C243.793 293.103 244.458 293.039 245.062 292.789C245.666 292.539 246.182 292.116 246.546 291.573C246.909 291.029 247.103 290.39 247.103 289.737C247.103 288.862 246.756 288.024 246.139 287.404C245.521 286.785 244.684 286.436 243.809 286.434ZM243.809 291.849C243.392 291.849 242.983 291.725 242.636 291.493C242.288 291.261 242.018 290.931 241.858 290.545C241.698 290.159 241.656 289.734 241.738 289.324C241.819 288.915 242.02 288.538 242.316 288.243C242.611 287.947 242.988 287.746 243.397 287.665C243.807 287.583 244.232 287.625 244.618 287.785C245.004 287.945 245.334 288.216 245.566 288.563C245.798 288.91 245.922 289.319 245.922 289.737C245.921 290.296 245.699 290.833 245.302 291.229C244.906 291.625 244.369 291.849 243.809 291.849Z" fill="white"/>
<path d="M246.467 296.653H241.12C240.053 296.653 239.03 296.229 238.276 295.475C237.521 294.721 237.098 293.698 237.098 292.631V287.284C237.098 286.217 237.521 285.194 238.276 284.44C239.03 283.685 240.053 283.262 241.12 283.262H246.467C247.534 283.262 248.557 283.685 249.311 284.44C250.065 285.194 250.489 286.217 250.489 287.284V292.631C250.489 293.698 250.065 294.721 249.311 295.475C248.557 296.229 247.534 296.653 246.467 296.653ZM241.118 284.509C240.385 284.509 239.681 284.8 239.163 285.319C238.644 285.838 238.353 286.541 238.353 287.274V292.622C238.353 292.985 238.424 293.344 238.563 293.68C238.702 294.015 238.906 294.32 239.163 294.577C239.419 294.834 239.724 295.037 240.06 295.176C240.395 295.315 240.755 295.387 241.118 295.387H246.465C246.828 295.387 247.188 295.315 247.523 295.176C247.859 295.037 248.164 294.834 248.42 294.577C248.677 294.32 248.881 294.015 249.02 293.68C249.159 293.344 249.23 292.985 249.23 292.622V287.274C249.23 286.541 248.939 285.838 248.421 285.32C247.903 284.801 247.2 284.51 246.467 284.509H241.118Z" fill="white"/>
<path d="M170.111 296.262C169.994 296.258 169.881 296.221 169.785 296.155C169.688 296.088 169.614 295.995 169.569 295.887C169.525 295.779 169.513 295.66 169.535 295.545C169.557 295.43 169.612 295.324 169.693 295.24L172.886 292.046C172.021 290.957 171.607 289.578 171.727 288.193C171.848 286.808 172.494 285.521 173.534 284.598C174.574 283.675 175.928 283.185 177.318 283.229C178.708 283.274 180.028 283.849 181.007 284.837C181.986 285.824 182.549 287.15 182.581 288.54C182.613 289.93 182.111 291.28 181.179 292.311C180.246 293.343 178.954 293.978 177.567 294.086C176.181 294.194 174.806 293.767 173.725 292.892L170.532 296.086C170.421 296.197 170.269 296.261 170.111 296.262ZM177.143 284.36C176.156 284.36 175.2 284.702 174.437 285.329C173.674 285.955 173.152 286.826 172.959 287.794C172.767 288.763 172.916 289.767 173.381 290.638C173.847 291.508 174.6 292.19 175.512 292.568C176.424 292.946 177.438 292.995 178.383 292.709C179.327 292.422 180.143 291.817 180.691 290.996C181.24 290.175 181.486 289.19 181.389 288.207C181.293 287.225 180.858 286.307 180.16 285.609C179.764 285.213 179.293 284.899 178.776 284.684C178.258 284.47 177.703 284.36 177.143 284.36Z" fill="white"/>
<path d="M203.209 115.855C203.304 115.868 203.4 115.868 203.495 115.855C203.762 115.815 204.013 115.705 204.224 115.537C204.374 115.417 204.499 115.269 204.593 115.101C204.644 115.006 204.684 114.905 204.71 114.8C204.737 114.685 204.751 114.567 204.752 114.448C204.752 114.323 204.733 114.198 204.693 114.079C204.665 113.943 204.62 113.811 204.559 113.685C204.412 113.439 204.196 113.242 203.938 113.118C203.939 112.923 203.887 112.732 203.786 112.565C203.686 112.398 203.542 112.262 203.37 112.171C203.178 112.078 202.961 112.047 202.75 112.081C202.539 112.114 202.343 112.212 202.189 112.361V112.319C202.116 112.006 201.968 111.716 201.758 111.473C201.547 111.231 201.281 111.044 200.981 110.928C200.825 110.869 200.661 110.829 200.495 110.81H199.992C199.681 110.872 199.392 111.013 199.153 111.221C198.92 111.422 198.731 111.671 198.6 111.95C198.484 112.214 198.43 112.5 198.441 112.788C198.123 112.714 197.788 112.753 197.495 112.898C197.358 112.968 197.231 113.055 197.116 113.157C197.011 113.254 196.918 113.364 196.84 113.485C196.775 113.603 196.727 113.731 196.698 113.863C196.681 113.989 196.681 114.116 196.698 114.242C196.72 114.463 196.788 114.677 196.899 114.87C197.053 115.147 197.291 115.367 197.578 115.499C197.681 115.544 197.787 115.581 197.896 115.609H197.707L197.565 115.557C197.272 115.427 197.028 115.207 196.868 114.929C196.754 114.731 196.682 114.511 196.658 114.284C196.643 114.158 196.643 114.031 196.658 113.905C196.693 113.773 196.744 113.646 196.81 113.526C196.888 113.398 196.984 113.282 197.096 113.182C197.207 113.076 197.335 112.988 197.474 112.923C197.776 112.767 198.123 112.723 198.455 112.798C198.445 112.509 198.502 112.222 198.623 111.959C198.758 111.67 198.951 111.412 199.191 111.202C199.43 110.993 199.718 110.848 200.029 110.784C200.116 110.775 200.203 110.775 200.289 110.784H200.54C200.714 110.796 200.885 110.838 201.044 110.909C201.351 111.025 201.624 111.215 201.841 111.462C202.057 111.709 202.209 112.005 202.284 112.325C202.443 112.166 202.648 112.06 202.87 112.023C203.092 111.985 203.32 112.017 203.524 112.114C203.705 112.211 203.856 112.356 203.96 112.534C204.064 112.711 204.116 112.914 204.11 113.12C204.376 113.248 204.598 113.452 204.748 113.706C204.815 113.826 204.869 113.953 204.907 114.085C204.941 114.208 204.958 114.336 204.958 114.463C204.979 114.582 204.979 114.704 204.958 114.823C204.93 114.929 204.888 115.03 204.833 115.124C204.742 115.299 204.612 115.451 204.455 115.569C204.24 115.74 203.982 115.848 203.709 115.879C203.637 115.891 203.563 115.891 203.491 115.879L203.209 115.855Z" fill="#263238"/>
<path d="M203.345 115.995H203.186C203.162 115.989 203.141 115.978 203.122 115.963C203.103 115.948 203.088 115.929 203.078 115.907C203.067 115.885 203.062 115.862 203.062 115.838C203.061 115.814 203.066 115.79 203.076 115.768C203.096 115.759 203.117 115.755 203.138 115.755C203.16 115.755 203.181 115.759 203.201 115.768C203.282 115.775 203.363 115.775 203.443 115.768C203.686 115.73 203.914 115.629 204.106 115.474C204.243 115.368 204.358 115.234 204.441 115.081C204.486 114.993 204.522 114.9 204.549 114.804C204.561 114.701 204.561 114.597 204.549 114.494C204.541 114.384 204.524 114.274 204.498 114.166C204.464 114.049 204.416 113.937 204.356 113.831C204.223 113.607 204.025 113.428 203.788 113.32C203.762 113.308 203.74 113.289 203.724 113.265C203.708 113.242 203.698 113.214 203.695 113.186C203.701 113.015 203.658 112.845 203.572 112.697C203.486 112.549 203.36 112.428 203.208 112.348C203.041 112.267 202.853 112.241 202.669 112.273C202.486 112.304 202.318 112.392 202.186 112.524C202.166 112.534 202.142 112.539 202.119 112.539C202.096 112.539 202.073 112.534 202.052 112.524C202.029 112.517 202.008 112.504 201.992 112.486C201.976 112.468 201.964 112.447 201.959 112.423V112.372C201.892 112.083 201.754 111.815 201.558 111.591C201.362 111.368 201.115 111.196 200.837 111.091C200.693 111.029 200.54 110.99 200.384 110.973H200.091C200.038 110.969 199.985 110.969 199.932 110.973C199.623 111.019 199.332 111.15 199.094 111.352C198.875 111.538 198.7 111.77 198.583 112.031C198.47 112.276 198.418 112.543 198.431 112.811C198.432 112.832 198.427 112.853 198.419 112.872C198.41 112.891 198.397 112.908 198.38 112.921C198.362 112.931 198.342 112.936 198.321 112.936C198.301 112.936 198.281 112.931 198.263 112.921C197.98 112.854 197.683 112.89 197.424 113.021C197.298 113.082 197.182 113.161 197.08 113.256C196.983 113.345 196.898 113.446 196.828 113.557C196.769 113.662 196.724 113.775 196.694 113.892C196.673 114 196.673 114.111 196.694 114.219C196.705 114.424 196.766 114.622 196.87 114.799C197.012 115.051 197.229 115.253 197.49 115.378C197.574 115.413 197.661 115.44 197.75 115.461C197.773 115.463 197.795 115.47 197.816 115.481C197.836 115.493 197.854 115.508 197.867 115.527C197.879 115.563 197.879 115.602 197.867 115.637C197.854 115.671 197.829 115.699 197.796 115.717C197.764 115.734 197.727 115.738 197.691 115.73H197.502L197.377 115.679C197.106 115.555 196.872 115.362 196.7 115.119C196.528 114.876 196.423 114.592 196.396 114.295C196.377 114.156 196.377 114.016 196.396 113.877C196.427 113.727 196.481 113.583 196.555 113.449C196.643 113.31 196.747 113.183 196.866 113.071C196.99 112.958 197.128 112.862 197.276 112.785C197.538 112.66 197.826 112.605 198.115 112.626C198.129 112.371 198.188 112.121 198.291 111.888C198.426 111.568 198.629 111.282 198.885 111.049C199.154 110.815 199.481 110.659 199.832 110.597C199.898 110.588 199.966 110.588 200.032 110.597H200.384C200.566 110.613 200.743 110.655 200.913 110.722C201.2 110.837 201.46 111.01 201.676 111.231C201.892 111.452 202.06 111.716 202.169 112.005C202.345 111.892 202.547 111.826 202.756 111.815C202.965 111.803 203.173 111.846 203.36 111.939C203.549 112.037 203.71 112.183 203.826 112.362C203.942 112.541 204.01 112.748 204.022 112.961C204.271 113.104 204.479 113.309 204.626 113.555C204.7 113.682 204.759 113.818 204.802 113.958C204.835 114.096 204.855 114.236 204.861 114.377C204.86 114.504 204.843 114.632 204.81 114.755C204.78 114.879 204.732 114.998 204.668 115.107C204.539 115.333 204.359 115.525 204.142 115.668C203.925 115.811 203.677 115.9 203.419 115.929L203.345 115.995Z" fill="#263238"/>
<path d="M200.002 114.879C199.889 115.109 199.762 115.333 199.623 115.549C199.498 115.775 199.358 115.993 199.205 116.202C199.311 115.965 199.438 115.737 199.584 115.522C199.707 115.298 199.847 115.083 200.002 114.879Z" fill="#263238"/>
<path d="M199.212 116.348C199.187 116.356 199.161 116.356 199.136 116.348C199.002 116.265 199.002 116.239 199.464 115.51C199.926 114.781 199.909 114.813 199.967 114.798C200 114.786 200.035 114.786 200.068 114.798C200.098 114.818 200.121 114.847 200.134 114.881C200.134 114.94 200.134 114.974 199.74 115.661C199.346 116.348 199.297 116.348 199.212 116.348Z" fill="#263238"/>
<path d="M201.249 114.879C201.136 115.109 201.009 115.333 200.87 115.549C200.745 115.775 200.605 115.993 200.452 116.202C200.557 115.966 200.68 115.739 200.821 115.522C200.949 115.299 201.092 115.084 201.249 114.879Z" fill="#263238"/>
<path d="M200.447 116.345H200.372C200.247 116.261 200.247 116.244 200.707 115.506C201.167 114.768 201.152 114.809 201.21 114.794C201.243 114.782 201.278 114.782 201.311 114.794C201.435 114.87 201.435 114.895 200.983 115.633C200.531 116.371 200.538 116.329 200.48 116.345H200.447Z" fill="#263238"/>
<path d="M202.488 114.879C202.384 115.112 202.261 115.336 202.119 115.549C201.992 115.777 201.849 115.995 201.691 116.202C201.805 115.969 201.932 115.742 202.07 115.522C202.197 115.3 202.336 115.085 202.488 114.879Z" fill="#263238"/>
<path d="M201.716 116.348H201.633C201.508 116.265 201.508 116.239 201.96 115.51C202.413 114.781 202.405 114.813 202.464 114.798C202.499 114.786 202.538 114.786 202.573 114.798C202.602 114.818 202.623 114.848 202.632 114.882C202.632 114.94 202.632 114.974 202.238 115.661C201.845 116.348 201.784 116.348 201.716 116.348Z" fill="#263238"/>
<path d="M198.559 116.734C198.445 116.967 198.318 117.194 198.18 117.414C198.056 117.639 197.916 117.854 197.762 118.059C197.868 117.827 197.991 117.603 198.131 117.389C198.26 117.163 198.403 116.944 198.559 116.734Z" fill="#263238"/>
<path d="M197.76 118.203H197.685C197.656 118.182 197.635 118.153 197.626 118.119C197.626 118.061 197.626 118.036 198.02 117.339C198.413 116.643 198.489 116.569 198.623 116.652C198.748 116.728 198.748 116.753 198.296 117.491C197.844 118.229 197.851 118.187 197.793 118.203H197.76Z" fill="#263238"/>
<path d="M199.8 116.734C199.695 116.97 199.572 117.198 199.431 117.414C199.305 117.64 199.162 117.856 199.003 118.059C199.003 118.059 199.162 117.749 199.382 117.389C199.509 117.164 199.649 116.945 199.8 116.734Z" fill="#263238"/>
<path d="M199.01 118.208H198.935C198.919 118.199 198.906 118.187 198.896 118.173C198.886 118.158 198.879 118.142 198.876 118.124C198.876 118.066 198.876 118.041 199.255 117.354C199.633 116.667 199.732 116.574 199.866 116.659C199.991 116.735 199.991 116.76 199.531 117.498C199.071 118.236 199.086 118.194 199.027 118.209L199.01 118.208Z" fill="#263238"/>
<path d="M201.048 116.734C200.813 117.194 200.547 117.637 200.251 118.059C200.251 118.059 200.41 117.749 200.63 117.389C200.757 117.164 200.897 116.945 201.048 116.734Z" fill="#263238"/>
<path d="M200.253 118.203C200.231 118.211 200.208 118.211 200.186 118.203C200.17 118.194 200.156 118.182 200.145 118.168C200.133 118.153 200.125 118.137 200.12 118.119C200.12 118.061 200.12 118.036 200.514 117.339C200.908 116.643 200.991 116.569 201.118 116.652C201.252 116.728 201.252 116.753 200.79 117.491C200.328 118.229 200.345 118.187 200.287 118.203H200.253Z" fill="#263238"/>
<path d="M202.345 116.773C202.241 117.007 202.118 117.231 201.976 117.443C201.749 117.813 201.565 118.106 201.558 118.097C201.662 117.86 201.786 117.633 201.927 117.417C202.053 117.194 202.193 116.98 202.345 116.773Z" fill="#263238"/>
<path d="M201.569 118.228H201.485C201.36 118.145 201.36 118.118 201.813 117.389C202.265 116.661 202.265 116.693 202.316 116.678C202.352 116.665 202.391 116.665 202.426 116.678C202.455 116.698 202.475 116.727 202.485 116.761C202.485 116.82 202.485 116.854 202.106 117.541C201.728 118.228 201.652 118.228 201.569 118.228Z" fill="#263238"/>
<path d="M178.25 109.859V119.155H177.304V110.707H175.108V109.869L178.25 109.859Z" fill="#263238"/>
<path d="M187.612 116.563C187.612 118.24 186.221 119.237 184.001 119.237C181.78 119.237 180.404 118.215 180.404 116.563C180.398 116.034 180.573 115.519 180.899 115.103C181.225 114.687 181.684 114.395 182.199 114.274C181.768 114.137 181.393 113.863 181.13 113.495C180.867 113.126 180.731 112.683 180.741 112.23C180.741 110.716 182.032 109.77 183.993 109.77C185.954 109.77 187.279 110.716 187.279 112.23C187.286 112.687 187.144 113.133 186.875 113.502C186.606 113.87 186.224 114.142 185.788 114.274C186.306 114.393 186.769 114.684 187.1 115.099C187.432 115.515 187.612 116.031 187.612 116.563ZM186.632 116.563C186.632 115.414 185.651 114.702 184.001 114.702C182.35 114.702 181.385 115.414 181.385 116.563C181.385 117.712 182.358 118.431 184.001 118.431C185.644 118.431 186.632 117.702 186.632 116.553V116.563ZM184.001 113.939C185.451 113.939 186.314 113.294 186.314 112.262C186.314 111.231 185.4 110.585 184.001 110.585C182.602 110.585 181.705 111.223 181.705 112.262C181.705 113.301 182.551 113.93 184.001 113.93V113.939Z" fill="#263238"/>
<path d="M188.811 111.35C188.774 110.888 188.877 110.425 189.107 110.022C189.337 109.619 189.683 109.295 190.1 109.092C190.518 108.889 190.986 108.816 191.445 108.884C191.904 108.952 192.332 109.156 192.673 109.471C193.014 109.786 193.252 110.196 193.356 110.648C193.46 111.1 193.425 111.573 193.256 112.005C193.087 112.437 192.791 112.808 192.408 113.07C192.024 113.331 191.571 113.471 191.107 113.47C190.815 113.493 190.52 113.455 190.243 113.359C189.966 113.263 189.712 113.111 189.496 112.912C189.28 112.713 189.108 112.471 188.99 112.203C188.873 111.934 188.812 111.644 188.811 111.35ZM192.718 111.35C192.735 111.029 192.655 110.71 192.488 110.435C192.322 110.16 192.077 109.941 191.785 109.806C191.492 109.671 191.167 109.627 190.849 109.68C190.532 109.732 190.238 109.878 190.004 110.1C189.771 110.321 189.609 110.607 189.54 110.921C189.471 111.235 189.497 111.563 189.616 111.862C189.735 112.161 189.941 112.417 190.207 112.598C190.473 112.779 190.787 112.875 191.109 112.876C191.317 112.891 191.526 112.862 191.722 112.792C191.919 112.722 192.099 112.612 192.25 112.468C192.401 112.324 192.521 112.151 192.602 111.958C192.682 111.766 192.722 111.559 192.718 111.35Z" fill="#263238"/>
<path d="M163.867 81.8945V99.6035H160.581V84.6504H156.835V81.8945H163.867Z" fill="#263238"/>
<path d="M167.388 90.747C167.388 84.9304 170.573 81.6445 174.77 81.6445C178.966 81.6445 182.187 84.9304 182.187 90.747C182.187 96.5635 178.994 99.8569 174.77 99.8569C170.545 99.8569 167.388 96.5635 167.388 90.747ZM178.869 90.747C178.869 86.473 177.192 84.5008 174.771 84.5008C172.351 84.5008 170.698 86.4711 170.698 90.747C170.698 95.0228 172.375 96.9932 174.771 96.9932C177.168 96.9932 178.869 95.0209 178.869 90.747Z" fill="#263238"/>
<path d="M184.311 88.0418C184.339 87.588 184.515 87.1559 184.812 86.8117C185.109 86.4674 185.511 86.2299 185.956 86.1353C186.401 86.0408 186.864 86.0945 187.276 86.2882C187.687 86.4819 188.024 86.8049 188.234 87.208C188.445 87.6111 188.518 88.0719 188.441 88.5203C188.365 88.9686 188.145 89.3797 187.813 89.6907C187.481 90.0018 187.057 90.1956 186.604 90.2428C186.152 90.2899 185.697 90.1877 185.308 89.9517C184.984 89.7546 184.719 89.4724 184.543 89.1358C184.367 88.7992 184.287 88.4209 184.311 88.0418ZM184.311 97.6799C184.339 97.2261 184.515 96.794 184.812 96.4497C185.109 96.1055 185.511 95.8679 185.956 95.7734C186.401 95.6789 186.864 95.7325 187.276 95.9262C187.687 96.1199 188.024 96.443 188.234 96.8461C188.445 97.2491 188.518 97.71 188.441 98.1584C188.365 98.6067 188.145 99.0177 187.813 99.3288C187.481 99.6398 187.057 99.8337 186.604 99.8808C186.152 99.9279 185.697 99.8257 185.308 99.5897C184.984 99.3928 184.72 99.111 184.544 98.7747C184.368 98.4384 184.287 98.0605 184.311 97.6818V97.6799Z" fill="#263238"/>
<path d="M190.588 90.747C190.588 84.9304 193.773 81.6445 197.97 81.6445C202.166 81.6445 205.395 84.9304 205.395 90.747C205.395 96.5635 202.202 99.8569 197.977 99.8569C193.753 99.8569 190.588 96.5635 190.588 90.747ZM202.07 90.747C202.07 86.473 200.393 84.5008 197.972 84.5008C195.551 84.5008 193.898 86.4711 193.898 90.747C193.898 95.0228 195.575 96.9932 197.972 96.9932C200.368 96.9932 202.045 95.0152 202.045 90.747H202.07Z" fill="#263238"/>
<path d="M207.619 90.747C207.619 84.9304 210.805 81.6445 215.001 81.6445C219.197 81.6445 222.409 84.9304 222.409 90.747C222.409 96.5635 219.224 99.8569 215.001 99.8569C210.778 99.8569 207.619 96.5635 207.619 90.747ZM219.101 90.747C219.101 86.473 217.424 84.5008 215.003 84.5008C212.582 84.5008 210.93 86.4711 210.93 90.747C210.93 95.0228 212.607 96.9932 215.003 96.9932C217.399 96.9932 219.101 95.0209 219.101 90.747Z" fill="#263238"/>
<path d="M247.048 140.707H138.705C130.018 140.707 122.976 147.749 122.976 156.436V169.801C122.976 178.488 130.018 185.53 138.705 185.53H247.048C255.735 185.53 262.777 178.488 262.777 169.801V156.436C262.777 147.749 255.735 140.707 247.048 140.707Z" fill="#FAFAFA"/>
<path d="M255.81 185.528C256.117 185.518 256.422 185.487 256.725 185.435C257.612 185.309 258.466 185.01 259.238 184.555C260.502 183.814 261.5 182.693 262.089 181.352C262.457 180.499 262.654 179.582 262.668 178.653V175.462C262.668 170.936 262.668 165.404 262.617 158.985V148.698C262.662 147.79 262.589 146.88 262.399 145.991C262.167 145.093 261.753 144.252 261.184 143.519C260.597 142.756 259.852 142.128 259 141.678C258.148 141.228 257.209 140.967 256.248 140.913L129.967 140.972C128.476 140.973 127.028 141.471 125.852 142.387C124.677 143.294 123.841 144.569 123.48 146.008C123.301 146.726 123.228 147.465 123.262 148.204V179.21C123.337 179.895 123.506 180.566 123.766 181.205C124.313 182.465 125.23 183.53 126.396 184.257C127.562 184.984 128.921 185.34 130.294 185.278H146.729L203.513 185.337L241.791 185.42L252.201 185.471L241.791 185.522L203.513 185.605L146.729 185.757H130.294C128.833 185.816 127.388 185.436 126.145 184.667C124.884 183.888 123.893 182.741 123.306 181.381C123.021 180.695 122.837 179.972 122.761 179.234C122.702 178.477 122.761 177.777 122.719 177.056V148.206C122.687 147.422 122.763 146.638 122.946 145.876C123.347 144.323 124.253 142.947 125.52 141.964C126.788 140.981 128.346 140.447 129.95 140.445L256.272 140.546C257.777 140.644 259.211 141.216 260.371 142.18C261.53 143.143 262.355 144.449 262.727 145.91C262.926 146.826 263.002 147.765 262.954 148.702V158.985C262.954 165.405 262.954 170.936 262.912 175.462V178.655C262.894 179.876 262.556 181.071 261.933 182.121C261.309 183.172 260.421 184.04 259.357 184.64C258.568 185.097 257.692 185.383 256.785 185.478C256.462 185.524 256.136 185.541 255.81 185.528Z" fill="#263238"/>
<path d="M252.711 149.981C252.676 149.982 252.641 149.976 252.609 149.963C252.576 149.95 252.547 149.93 252.522 149.905C252.476 149.858 252.45 149.795 252.45 149.729C252.45 149.664 252.476 149.6 252.522 149.553L255.967 146.25C256.015 146.206 256.079 146.182 256.144 146.184C256.209 146.185 256.272 146.212 256.318 146.259C256.363 146.306 256.389 146.369 256.389 146.434C256.39 146.5 256.364 146.563 256.319 146.61L252.874 149.913C252.83 149.955 252.772 149.98 252.711 149.981Z" fill="#263238"/>
<path d="M256.139 150.002C256.075 150.002 256.012 149.979 255.963 149.936L252.556 146.584C252.532 146.561 252.513 146.534 252.5 146.504C252.487 146.474 252.48 146.441 252.48 146.408C252.48 146.375 252.487 146.342 252.5 146.312C252.513 146.282 252.532 146.255 252.556 146.232C252.603 146.186 252.667 146.16 252.732 146.16C252.798 146.16 252.861 146.186 252.908 146.232L256.315 149.584C256.35 149.619 256.373 149.664 256.383 149.712C256.392 149.76 256.387 149.81 256.368 149.856C256.349 149.901 256.318 149.94 256.277 149.968C256.236 149.996 256.189 150.011 256.139 150.012V150.002Z" fill="#263238"/>
<path d="M153.098 171.824L151.697 169.829C150.85 168.627 150.393 167.193 150.389 165.722V161.255C150.389 159.511 149.764 157.826 148.628 156.503C147.492 155.181 145.92 154.31 144.196 154.047V151.91C144.196 151.65 144.093 151.401 143.909 151.217C143.725 151.033 143.476 150.93 143.216 150.93C142.956 150.93 142.706 151.033 142.522 151.217C142.338 151.401 142.235 151.65 142.235 151.91V154.013C140.459 154.221 138.821 155.074 137.632 156.41C136.444 157.747 135.788 159.474 135.79 161.262V165.898C135.79 167.49 135.257 169.036 134.276 170.289L133.068 171.832L153.098 171.824Z" fill="#E6AA57"/>
<path d="M142.024 175.075C142.569 175.294 143.164 175.357 143.743 175.257C144.322 175.157 144.861 174.897 145.301 174.507C145.68 174.161 145.968 173.726 146.139 173.241L140.271 173.199C140.417 173.617 140.648 173.999 140.949 174.323C141.251 174.646 141.617 174.902 142.024 175.075Z" fill="#E6AA57"/>
<path d="M231.748 155.849C231.748 155.991 216.091 156.108 196.773 156.108C177.455 156.108 161.798 155.991 161.798 155.849C161.798 155.707 177.455 155.59 196.773 155.59C216.091 155.59 231.748 155.707 231.748 155.849Z" fill="#263238"/>
<path d="M248.234 164.314C248.234 164.456 228.882 164.573 205.02 164.573C181.157 164.573 161.798 164.456 161.798 164.314C161.798 164.172 181.142 164.055 205.02 164.055C228.897 164.055 248.234 164.172 248.234 164.314Z" fill="#E0E0E0"/>
<path d="M248.234 169.392C248.234 169.534 228.882 169.651 205.02 169.651C181.157 169.651 161.798 169.534 161.798 169.392C161.798 169.25 181.142 169.133 205.02 169.133C228.897 169.133 248.234 169.244 248.234 169.392Z" fill="#E0E0E0"/>
<path d="M246.511 192.504H139.224C130.537 192.504 123.495 199.546 123.495 208.233V221.255C123.495 229.942 130.537 236.984 139.224 236.984H246.511C255.198 236.984 262.24 229.942 262.24 221.255V208.233C262.24 199.546 255.198 192.504 246.511 192.504Z" fill="#FAFAFA"/>
<path d="M255.283 236.983C255.59 236.973 255.895 236.942 256.197 236.89C257.083 236.781 257.937 236.496 258.711 236.052C259.966 235.32 260.962 234.216 261.561 232.893C261.931 232.048 262.133 231.14 262.156 230.218V227.05C262.156 222.558 262.156 217.077 262.105 210.706V200.505C262.15 199.603 262.077 198.699 261.887 197.816C261.656 196.924 261.248 196.087 260.689 195.355C260.109 194.594 259.372 193.967 258.529 193.514C257.686 193.062 256.756 192.795 255.802 192.732L130.499 192.783C129.023 192.782 127.587 193.269 126.416 194.168C125.244 195.067 124.402 196.327 124.02 197.753C123.835 198.464 123.758 199.198 123.793 199.932V230.691C123.866 231.371 124.036 232.037 124.297 232.669C124.829 233.926 125.733 234.989 126.886 235.719C128.039 236.448 129.388 236.808 130.751 236.75H147.029L203.368 236.809L241.352 236.892L251.687 236.943L241.352 236.994L203.368 237.078L147.029 237.136H130.751C129.304 237.214 127.866 236.861 126.619 236.122C125.372 235.341 124.393 234.198 123.812 232.845C123.535 232.164 123.351 231.447 123.267 230.716C123.216 229.97 123.267 229.274 123.267 228.554V199.945C123.239 199.166 123.324 198.387 123.519 197.632C123.936 196.098 124.845 194.743 126.106 193.776C127.367 192.809 128.911 192.282 130.501 192.277L255.836 192.378C257.328 192.49 258.747 193.068 259.893 194.031C261.039 194.993 261.854 196.291 262.222 197.742C262.418 198.653 262.492 199.586 262.44 200.517V210.717C262.44 217.086 262.44 222.568 262.398 227.061V230.237C262.375 231.179 262.158 232.106 261.76 232.961C261.144 234.307 260.117 235.422 258.826 236.146C258.042 236.603 257.171 236.888 256.269 236.985C255.941 237.015 255.611 237.014 255.283 236.983Z" fill="#263238"/>
<path d="M252.257 201.678C252.206 201.679 252.156 201.664 252.114 201.636C252.071 201.608 252.038 201.568 252.019 201.521C252 201.474 251.996 201.422 252.007 201.372C252.018 201.323 252.043 201.278 252.081 201.243L255.501 197.974C255.548 197.928 255.611 197.902 255.677 197.902C255.743 197.902 255.806 197.928 255.853 197.974C255.877 197.997 255.895 198.024 255.908 198.054C255.921 198.085 255.928 198.117 255.928 198.15C255.928 198.183 255.921 198.216 255.908 198.246C255.895 198.276 255.877 198.303 255.853 198.326L252.425 201.678C252.371 201.698 252.311 201.698 252.257 201.678Z" fill="#263238"/>
<path d="M255.685 201.729C255.652 201.729 255.619 201.722 255.589 201.709C255.559 201.696 255.532 201.677 255.509 201.653L252.157 198.35C252.111 198.303 252.085 198.24 252.085 198.174C252.085 198.108 252.111 198.045 252.157 197.998C252.205 197.952 252.27 197.926 252.337 197.926C252.404 197.926 252.468 197.952 252.516 197.998L255.869 201.301C255.915 201.349 255.941 201.414 255.941 201.481C255.941 201.548 255.915 201.612 255.869 201.661C255.844 201.684 255.815 201.702 255.784 201.713C255.752 201.725 255.718 201.73 255.685 201.729Z" fill="#263238"/>
<path d="M153.433 223.386L152.034 221.408C151.194 220.215 150.744 218.793 150.743 217.334V212.892C150.743 211.162 150.123 209.488 148.996 208.175C147.869 206.862 146.309 205.996 144.599 205.733V203.614C144.599 203.485 144.574 203.358 144.524 203.239C144.475 203.121 144.402 203.013 144.311 202.923C144.22 202.833 144.112 202.761 143.993 202.713C143.874 202.664 143.747 202.64 143.619 202.641C143.36 202.641 143.113 202.743 142.931 202.926C142.748 203.108 142.646 203.356 142.646 203.614V205.696C140.884 205.905 139.261 206.752 138.082 208.077C136.903 209.403 136.251 211.114 136.25 212.888V217.501C136.25 219.079 135.721 220.612 134.749 221.854L133.551 223.38L153.433 223.386Z" fill="#E0E0E0"/>
<path d="M142.414 226.616C142.955 226.831 143.546 226.891 144.119 226.791C144.693 226.691 145.228 226.434 145.665 226.048C146.047 225.707 146.335 225.275 146.504 224.792L140.712 224.75C140.851 225.162 141.073 225.541 141.366 225.862C141.659 226.183 142.016 226.44 142.414 226.616Z" fill="#E0E0E0"/>
<path d="M231.455 207.544C231.455 207.686 215.915 207.804 196.747 207.804C177.579 207.804 162.031 207.686 162.031 207.544C162.031 207.402 177.571 207.285 196.747 207.285C215.923 207.285 231.455 207.385 231.455 207.544Z" fill="#263238"/>
<path d="M247.816 215.931C247.816 216.083 228.614 216.2 204.929 216.2C181.245 216.2 162.033 216.083 162.033 215.931C162.033 215.78 181.236 215.672 204.929 215.672C228.623 215.672 247.816 215.789 247.816 215.931Z" fill="#E0E0E0"/>
<path d="M247.816 220.959C247.816 221.1 228.614 221.218 204.929 221.218C181.245 221.218 162.033 221.1 162.033 220.959C162.033 220.817 181.236 220.699 204.929 220.699C228.623 220.699 247.816 220.824 247.816 220.959Z" fill="#E0E0E0"/>
<path d="M340.23 36.0977H310.433C308.864 36.0977 307.359 36.721 306.25 37.8307C305.14 38.9403 304.517 40.4453 304.517 42.0145V60.2439C304.53 61.8046 305.159 63.297 306.267 64.396C307.375 65.495 308.873 66.1116 310.433 66.1116H311.817L311.289 71.735L318.052 66.1116H340.23C341.79 66.1116 343.287 65.4948 344.394 64.3956C345.501 63.2963 346.128 61.8039 346.139 60.2439V42.0145C346.139 40.4466 345.517 38.9427 344.409 37.8333C343.301 36.7239 341.798 36.0997 340.23 36.0977Z" fill="white"/>
<path d="M340.227 36.0928C340.325 36.0837 340.423 36.0837 340.521 36.0928C340.802 36.0971 341.083 36.1249 341.359 36.1761C342.473 36.3797 343.503 36.901 344.327 37.6771C344.928 38.242 345.407 38.9234 345.735 39.6797C346.108 40.5873 346.276 41.5655 346.229 42.5453V60.7161C346.169 61.5644 345.929 62.3902 345.525 63.1389C345.097 63.9299 344.499 64.6166 343.775 65.1499C343.05 65.6833 342.217 66.05 341.335 66.2241C340.432 66.3489 339.521 66.3907 338.611 66.349H318.034L318.169 66.2979L311.406 71.9214L311.003 72.2564L311.054 71.7283C311.137 70.8141 311.23 69.8261 311.323 68.8362C311.415 67.8462 311.499 66.9755 311.582 66.1124L311.8 66.3471H310.015C309.409 66.314 308.813 66.1863 308.247 65.9686C307.12 65.5337 306.144 64.7791 305.44 63.7975C304.75 62.8276 304.36 61.6766 304.317 60.4871V42.8198C304.302 42.3147 304.316 41.8091 304.359 41.3056C304.485 40.3005 304.856 39.3417 305.44 38.5137C306.001 37.7251 306.74 37.0807 307.598 36.6336C308.457 36.1864 309.409 35.9492 310.376 35.9414H320.434L334.935 36.0076H339.889C340.006 35.9966 340.124 35.9966 340.241 36.0076C340.124 36.0187 340.006 36.0187 339.889 36.0076H334.935L320.434 36.0739H310.376C308.988 36.0913 307.654 36.61 306.619 37.5343C305.583 38.4586 304.917 39.7261 304.743 41.103C304.66 42.0494 304.743 43.0886 304.743 44.0955V60.2467C304.784 61.3613 305.154 62.439 305.805 63.3442C306.457 64.2495 307.362 64.9419 308.406 65.3345C309.49 65.7566 310.65 65.9536 311.813 65.9137H312.048V66.156C311.964 66.9945 311.879 67.9503 311.788 68.8797C311.697 69.809 311.599 70.8576 311.512 71.7719L311.16 71.5826L317.932 65.9667L317.991 65.9156H338.743C339.628 65.9562 340.515 65.9195 341.393 65.8058C342.214 65.6353 342.987 65.2896 343.662 64.7924C344.336 64.2952 344.895 63.6582 345.3 62.925C345.679 62.2228 345.907 61.4492 345.97 60.6536C346.021 59.8662 345.97 59.0523 345.97 58.2725V42.5075C346.024 41.5541 345.876 40.6 345.535 39.708C345.165 38.834 344.592 38.0609 343.863 37.4532C343.134 36.8454 342.27 36.4205 341.344 36.214C340.631 36.0928 340.22 36.1269 340.227 36.0928Z" fill="#263238"/>
<path d="M320.265 50.7135C320.267 51.0751 320.161 51.429 319.961 51.7303C319.761 52.0317 319.477 52.267 319.143 52.4064C318.809 52.5458 318.442 52.583 318.087 52.5134C317.732 52.4438 317.406 52.2705 317.15 52.0153C316.894 51.7602 316.719 51.4347 316.648 51.0802C316.577 50.7257 316.613 50.3581 316.751 50.0239C316.889 49.6897 317.123 49.4039 317.423 49.2029C317.724 49.0019 318.077 48.8945 318.439 48.8945C318.922 48.8945 319.385 49.0859 319.728 49.4268C320.07 49.7678 320.263 50.2304 320.265 50.7135Z" fill="#263238"/>
<path d="M327.155 50.7135C327.157 51.0751 327.051 51.429 326.851 51.7303C326.651 52.0317 326.366 52.267 326.033 52.4064C325.699 52.5458 325.332 52.583 324.977 52.5134C324.622 52.4438 324.296 52.2705 324.04 52.0153C323.783 51.7602 323.609 51.4347 323.538 51.0802C323.467 50.7257 323.502 50.3581 323.64 50.0239C323.778 49.6897 324.012 49.4039 324.313 49.2029C324.614 49.0019 324.967 48.8945 325.329 48.8945C325.812 48.8945 326.275 49.0859 326.617 49.4268C326.96 49.7678 327.153 50.2304 327.155 50.7135Z" fill="#263238"/>
<path d="M334.036 50.7135C334.036 51.0733 333.93 51.4249 333.73 51.7241C333.53 52.0232 333.246 52.2563 332.913 52.394C332.581 52.5317 332.215 52.5677 331.863 52.4975C331.51 52.4273 331.186 52.2541 330.931 51.9997C330.677 51.7453 330.504 51.4212 330.433 51.0684C330.363 50.7155 330.399 50.3498 330.537 50.0174C330.675 49.685 330.908 49.401 331.207 49.2011C331.506 49.0012 331.858 48.8945 332.217 48.8945C332.7 48.8945 333.162 49.0862 333.504 49.4273C333.845 49.7684 334.036 50.2311 334.036 50.7135Z" fill="#263238"/>
<path d="M309.569 0.851853H289.455C287.894 0.864835 286.401 1.49395 285.302 2.60217C284.203 3.71039 283.587 5.20795 283.587 6.76871V24.9981C283.598 26.551 284.22 28.0371 285.318 29.1351C286.416 30.2332 287.902 30.8549 289.455 30.8658H290.821L290.293 36.4893L297.065 30.8658H309.637C311.197 30.8658 312.694 30.249 313.801 29.1497C314.908 28.0505 315.536 26.5582 315.547 24.9981V6.76871C315.547 5.98673 315.392 5.21251 315.091 4.4908C314.79 3.76908 314.349 3.11419 313.793 2.56399C313.237 2.01378 312.578 1.57917 311.853 1.28529C311.129 0.991419 310.353 0.844099 309.571 0.851853H309.569Z" fill="white"/>
<path d="M309.57 0.852682H309.812C310.054 0.848817 310.296 0.868465 310.533 0.911355C311.467 1.04256 312.354 1.4028 313.115 1.95996C314.355 2.83867 315.205 4.16381 315.487 5.65658C315.603 6.58487 315.643 7.52122 315.604 8.45601V25.0425C315.603 25.8005 315.458 26.5515 315.176 27.2552C314.732 28.3749 313.966 29.3387 312.977 30.0258C311.987 30.7129 310.816 31.0929 309.612 31.1183H297.025L297.159 31.0673L290.4 36.6907L289.989 37.0257L290.04 36.5052C290.133 35.5834 290.23 34.603 290.317 33.6055C290.404 32.608 290.493 31.7449 290.576 30.8817L290.786 31.1165H289.272C288.749 31.1067 288.231 31.0277 287.729 30.8817C286.737 30.6037 285.832 30.0779 285.099 29.3538C284.366 28.6297 283.829 27.731 283.539 26.7422C283.304 25.7862 283.217 24.8002 283.279 23.8179V7.72918C283.233 6.88611 283.301 6.04071 283.48 5.21556C283.773 4.06917 284.395 3.03361 285.269 2.23675C286.144 1.43988 287.233 0.91662 288.401 0.731552C289.108 0.64635 289.82 0.618486 290.531 0.648257H292.55L304.988 0.714512H309.479C309.379 0.72547 309.278 0.72547 309.178 0.714512H304.988L292.55 0.780752H290.531C289.835 0.75285 289.139 0.783883 288.448 0.873505C287.002 1.1121 285.703 1.89833 284.82 3.06915C284.357 3.68102 284.02 4.37921 283.83 5.12282C283.668 5.90554 283.609 6.70595 283.654 7.50394V23.5926C283.59 24.5352 283.672 25.4819 283.896 26.3996C284.169 27.3147 284.667 28.1466 285.345 28.8187C286.023 29.4908 286.859 29.9816 287.776 30.2458C288.741 30.4592 289.732 30.5325 290.718 30.4635H290.968V30.6982C290.892 31.5367 290.799 32.4925 290.716 33.4219C290.633 34.3512 290.527 35.3998 290.44 36.3141L290.088 36.1248L296.851 30.5089L296.909 30.4578H307.202C308.77 30.6468 310.36 30.4806 311.855 29.9713C313.222 29.3624 314.299 28.244 314.855 26.8539C315.258 25.4962 315.398 24.0736 315.265 22.6633C315.307 21.2796 315.265 19.9055 315.265 18.5976V8.21941C315.304 7.29912 315.273 6.37724 315.173 5.46163C314.956 4.28686 314.385 3.20631 313.538 2.36445C312.69 1.52258 311.606 0.9595 310.429 0.75047C310.151 0.835835 309.86 0.870459 309.57 0.852682Z" fill="#263238"/>
<path d="M306.376 14.2927C306.257 13.4234 305.877 12.6108 305.286 11.9627C304.728 11.306 303.976 10.8423 303.139 10.6378C302.695 10.5395 302.236 10.5326 301.789 10.6176C301.342 10.7025 300.917 10.8775 300.54 11.1318C300.093 11.4406 299.725 11.8512 299.467 12.3299C299.121 11.7146 298.586 11.2269 297.942 10.9385C297.297 10.6502 296.577 10.5766 295.888 10.7286C295.051 10.9291 294.298 11.3864 293.734 12.0365C293.131 12.6796 292.742 13.4935 292.619 14.3665C292.48 15.4798 292.704 16.6081 293.257 17.5843C293.892 18.5716 294.754 19.3931 295.771 19.9806C297.448 20.9951 299.609 22.2519 299.609 22.2519C299.609 22.2519 301.462 20.8853 303.13 19.8878C304.147 19.3119 305.009 18.4982 305.643 17.5161C306.231 16.5496 306.488 15.4182 306.376 14.2927Z" fill="#E6AA57"/>
<path d="M52.0189 30.2151L49.0359 25.1273C50.5479 20.6904 50.3454 15.8484 48.4683 11.5532C46.5912 7.25798 43.1753 3.82031 38.8921 1.91601C34.6089 0.0117039 29.7683 -0.221474 25.3219 1.26231C20.8754 2.7461 17.1449 5.83951 14.8637 9.9344C12.5824 14.0293 11.9155 18.8294 12.994 23.3911C14.0725 27.9528 16.8184 31.9461 20.6918 34.5858C24.5653 37.2256 29.2862 38.3209 33.9263 37.6564C38.5664 36.9919 42.7901 34.6157 45.767 30.9949L52.0189 30.2151Z" fill="white"/>
<path d="M52.019 30.2196H51.6007L50.3856 30.354L45.7501 30.8991L45.8334 31.0089C45.84 31.0028 45.8453 30.9955 45.8491 30.9873C45.8528 30.9792 45.8549 30.9704 45.8553 30.9614C45.8556 30.9524 45.8542 30.9435 45.8511 30.9351C45.848 30.9267 45.8433 30.9189 45.8372 30.9123C45.8311 30.9058 45.8238 30.9004 45.8156 30.8967C45.8075 30.8929 45.7987 30.8908 45.7897 30.8904C45.7808 30.8901 45.7718 30.8915 45.7634 30.8946C45.755 30.8977 45.7473 30.9025 45.7407 30.9086C43.7611 33.3028 41.2144 35.1643 38.3323 36.3238C36.4803 37.0724 34.5178 37.5111 32.5233 37.6223C29.2177 37.8409 25.9139 37.1704 22.9551 35.6802C19.9964 34.19 17.4907 31.9346 15.6985 29.1485C13.9063 26.3623 12.8929 23.147 12.7637 19.8367C12.6346 16.5264 13.3943 13.2419 14.9639 10.3245C16.3869 7.66508 18.4464 5.39947 20.9584 3.73002C23.3498 2.1315 26.077 1.10497 28.9289 0.729957C31.6133 0.381869 34.3414 0.633995 36.9165 1.46814C39.2689 2.21824 41.4488 3.42802 43.33 5.0273C45.2111 6.62658 46.7558 8.5835 47.8747 10.7845C48.9935 12.9855 49.6641 15.3869 49.8475 17.8491C50.031 20.3113 49.7236 22.7855 48.9433 25.128C48.9394 25.1373 48.9374 25.1473 48.9374 25.1573C48.9374 25.1674 48.9394 25.1774 48.9433 25.1867C49.9237 26.805 50.679 28.0618 51.19 28.9154C51.4493 29.3338 51.6424 29.6612 51.7843 29.8959L51.9944 30.2309L51.8184 29.9035C51.684 29.6764 51.5004 29.3508 51.2657 28.9306L49.0701 25.1091V25.1677C50.0921 22.2067 50.3525 19.0361 49.8272 15.948C49.2448 12.5479 47.7414 9.37265 45.4805 6.76735C43.2196 4.16204 40.2877 2.22643 37.0036 1.17098C34.3855 0.321257 31.6116 0.0626753 28.8816 0.413862C25.9784 0.797714 23.2008 1.83794 20.7597 3.45558C18.2044 5.15355 16.1081 7.45654 14.6573 10.1598C13.0512 13.1232 12.2695 16.4633 12.3937 19.8317C12.5178 23.2 13.5434 26.4734 15.3634 29.3105C17.1834 32.1476 19.7312 34.4445 22.7411 35.9617C25.751 37.4789 29.1128 38.1609 32.476 37.9365C34.4919 37.8127 36.4739 37.36 38.3437 36.5964C41.2479 35.4032 43.8067 33.5011 45.7861 31.0638L45.6612 30.9805C45.649 30.9929 45.6422 31.0095 45.6422 31.0269C45.6422 31.0442 45.649 31.0608 45.6612 31.0732L50.3382 30.4278L51.5193 30.2593L52.019 30.2196Z" fill="#263238"/>
<path d="M36.2529 19.1328C36.2529 19.4843 36.3572 19.8279 36.5525 20.1202C36.7478 20.4125 37.0253 20.6403 37.3501 20.7748C37.6749 20.9094 38.0322 20.9445 38.377 20.876C38.7218 20.8074 39.0385 20.6381 39.287 20.3896C39.5356 20.141 39.7049 19.8243 39.7734 19.4795C39.842 19.1348 39.8068 18.7774 39.6723 18.4526C39.5378 18.1279 39.31 17.8503 39.0177 17.655C38.7254 17.4597 38.3818 17.3555 38.0303 17.3555C37.5589 17.3555 37.1068 17.5427 36.7735 17.876C36.4402 18.2093 36.2529 18.6614 36.2529 19.1328Z" fill="#263238"/>
<path d="M29.1299 19.1328C29.1284 19.4865 29.232 19.8326 29.4276 20.1273C29.6231 20.422 29.9018 20.6519 30.2282 20.788C30.5547 20.924 30.9142 20.96 31.2611 20.8913C31.6081 20.8227 31.9268 20.6526 32.1769 20.4025C32.427 20.1524 32.5971 19.8337 32.6658 19.4867C32.7344 19.1398 32.6984 18.7803 32.5624 18.4538C32.4263 18.1274 32.1964 17.8487 31.9017 17.6531C31.607 17.4576 31.2609 17.354 30.9072 17.3555C30.4365 17.3575 29.9856 17.5454 29.6527 17.8783C29.3198 18.2111 29.1319 18.6621 29.1299 19.1328Z" fill="#263238"/>
<path d="M22.0291 18.2398C21.8243 18.5963 21.7495 19.0127 21.8173 19.4182C21.8852 19.8237 22.0915 20.1932 22.4011 20.4636C22.7108 20.7341 23.1046 20.8888 23.5155 20.9015C23.9265 20.9141 24.3291 20.784 24.6548 20.5331C24.9805 20.2822 25.2092 19.9262 25.3019 19.5257C25.3946 19.1251 25.3455 18.7048 25.1631 18.3364C24.9807 17.968 24.6762 17.6741 24.3015 17.505C23.9267 17.3359 23.505 17.3019 23.108 17.4088C22.8824 17.4696 22.6709 17.5743 22.4858 17.7169C22.3007 17.8595 22.1455 18.0372 22.0291 18.2398Z" fill="#263238"/>
<path d="M75.2393 245.479L94.5154 248.488C94.5154 248.488 97.9224 269.082 101.43 269.977L108.603 232.839L78.775 226.922L75.2393 245.479Z" fill="#455A64"/>
<path d="M95.1124 236.687C95.2917 236.352 95.588 236.094 95.945 235.962C96.3021 235.831 96.6949 235.836 97.0487 235.975C97.391 236.141 97.6566 236.432 97.7907 236.787C97.9249 237.143 97.9175 237.537 97.7699 237.887C97.5828 238.243 97.2698 238.517 96.8919 238.655C96.5139 238.793 96.0982 238.785 95.7257 238.633C95.3842 238.426 95.1372 238.093 95.0371 237.706C94.9371 237.32 94.992 236.909 95.19 236.562" fill="#E0E0E0"/>
<path d="M108.599 232.84L105.571 232.363L99.79 268.152C99.79 268.152 100.193 269.946 101.391 269.979L108.599 232.84Z" fill="#263238"/>
<path d="M94.1989 249.051C94.3882 249.051 94.6437 248.213 95.3971 247.416C96.1504 246.619 97.0059 246.301 96.9643 246.125C96.9227 245.949 95.8286 246.008 94.9276 246.964C94.0267 247.919 94.0229 249.061 94.1989 249.051Z" fill="#263238"/>
<path d="M95.0606 253.26C95.2291 253.336 95.689 252.615 96.5748 252.145C97.4607 251.676 98.3105 251.659 98.3351 251.475C98.3597 251.292 97.3622 250.981 96.2739 251.585C95.1855 252.189 94.8846 253.226 95.0606 253.26Z" fill="#263238"/>
<path d="M99.2957 256.378C99.3619 256.219 98.5083 255.791 97.4275 256.067C96.3467 256.344 95.7505 257.106 95.9132 257.216C96.076 257.326 96.6836 256.898 97.5903 256.688C98.4969 256.478 99.2446 256.554 99.2957 256.378Z" fill="#263238"/>
<path d="M89.8828 247.888C90.0721 247.837 89.9755 246.957 90.2424 245.952C90.5093 244.947 90.9882 244.201 90.8538 244.074C90.7194 243.947 89.9074 244.595 89.6216 245.793C89.3358 246.991 89.7314 247.947 89.8828 247.888Z" fill="#263238"/>
<path d="M61.596 299.621L61.914 319.117C61.914 319.117 42.2006 325.982 41.9072 329.586L79.7327 330.343L80.4898 299.945L61.596 299.621Z" fill="#455A64"/>
<path d="M73.6388 317.712C74.0006 317.83 74.3061 318.077 74.4965 318.407C74.6869 318.736 74.7489 319.124 74.6704 319.497C74.5645 319.862 74.3233 320.172 73.9962 320.365C73.6691 320.558 73.2806 320.619 72.9101 320.536C72.5321 320.401 72.2151 320.134 72.0168 319.785C71.8184 319.436 71.7519 319.028 71.8293 318.634C71.9853 318.27 72.2749 317.98 72.6385 317.824C73.002 317.668 73.4116 317.658 73.7826 317.795" fill="#E0E0E0"/>
<path d="M79.7336 330.342L79.6825 327.273L43.4413 327.701C43.4413 327.701 41.7643 328.396 41.9082 329.594L79.7336 330.342Z" fill="#263238"/>
<path d="M61.3016 318.915C61.3016 319.104 62.2233 319.201 63.1205 319.812C64.0177 320.424 64.4871 321.213 64.6631 321.137C64.8392 321.061 64.5799 320.002 63.4821 319.277C62.3842 318.552 61.2353 318.747 61.3016 318.915Z" fill="#263238"/>
<path d="M57.3051 320.477C57.254 320.653 58.0508 320.981 58.6622 321.776C59.2736 322.571 59.442 323.402 59.6256 323.394C59.8092 323.386 59.9436 322.347 59.1638 321.374C58.384 320.401 57.3145 320.301 57.3051 320.477Z" fill="#263238"/>
<path d="M54.9576 325.178C55.126 325.178 55.4024 324.298 54.9576 323.285C54.5128 322.273 53.6497 321.843 53.5664 321.994C53.4831 322.146 54.0112 322.699 54.4049 323.545C54.7986 324.391 54.774 325.154 54.9576 325.178Z" fill="#263238"/>
<path d="M61.7223 314.458C61.798 314.627 62.6535 314.392 63.6927 314.458C64.7318 314.524 65.5457 314.894 65.646 314.735C65.7464 314.576 64.976 313.896 63.7438 313.813C62.5116 313.729 61.639 314.314 61.7223 314.458Z" fill="#263238"/>
<path d="M42.7976 163.208C42.7976 163.208 13.8986 200.53 11.4342 210.831C9.5319 218.752 11.9206 223.495 21.6003 228.331C31.28 233.167 90.2139 252.252 90.2139 252.252L94.3212 228.735L46.0078 209.951L64.5893 196.65L72.5844 157.526L44.734 156.688L42.7976 163.208Z" fill="#263238"/>
<path d="M50.9774 171.629C50.9774 171.629 54.657 232.669 56.334 238.385C58.011 244.101 61.9158 252.013 61.9158 259.925C61.9158 267.837 59.124 317.068 59.124 317.068L82.0267 317.856C82.0267 317.856 89.2439 259.043 88.129 248.055C87.0142 237.068 92.0339 201.455 93.7109 192.218C95.3879 182.981 97.9848 179.026 97.4321 164.517V156.605H48.5225L50.9774 171.629Z" fill="#263238"/>
<path d="M93.7141 192.223C93.7036 192.432 93.6726 192.64 93.6213 192.844C93.5286 193.255 93.4623 193.883 93.3355 194.687C93.0838 196.306 92.7147 198.694 92.2793 201.787C91.4408 207.98 90.1765 216.982 89.0862 228.239C88.8345 231.063 88.5751 234.014 88.3897 237.107C88.1555 240.319 88.0993 243.541 88.2212 246.76C88.4557 250.226 88.4557 253.704 88.2212 257.17C88.0452 260.766 87.7688 264.437 87.4641 268.226C86.1978 283.38 84.3637 300.076 82.2343 317.877V318.067H82.045L60.454 317.329L59.1291 317.277H58.9114V317.081C59.4641 306.956 60.0016 297.074 60.5127 287.536C61.0237 277.998 61.5178 268.798 61.7203 260.045C61.5854 255.788 60.7674 251.581 59.2975 247.583C58.6521 245.613 57.9404 243.693 57.2684 241.791C56.9334 240.845 56.5984 239.898 56.322 238.941C56.1737 238.466 56.0586 237.981 55.9776 237.491C55.8772 236.997 55.7883 236.51 55.7429 236.024C55.2072 232.151 54.9044 228.405 54.5693 224.802C54.2343 221.198 54.0015 217.736 53.7308 214.425C52.7409 201.216 52.0538 190.514 51.6185 183.121C51.4008 179.433 51.2399 176.566 51.115 174.614C51.0639 173.651 51.0223 172.937 50.9976 172.402C50.98 172.15 50.98 171.897 50.9976 171.645C51.0048 171.898 51.0269 172.151 51.0639 172.402C51.1301 172.905 51.1472 173.641 51.2153 174.607C51.3497 176.568 51.5503 179.426 51.8021 183.113C52.3056 190.495 53.0248 201.191 54.0488 214.408C54.3277 217.711 54.6072 221.164 54.8873 224.768C55.2223 228.364 55.5403 232.127 56.0779 235.973C56.1328 236.454 56.2137 236.933 56.3202 237.406C56.398 237.888 56.51 238.364 56.6552 238.831C56.941 239.777 57.276 240.724 57.6016 241.67C58.2811 243.572 58.9928 245.492 59.6553 247.462C61.1377 251.495 61.9683 255.739 62.1159 260.034C61.9266 268.818 61.4042 278.004 60.9348 287.549C60.4654 297.095 59.8881 306.969 59.3429 317.077L59.1328 316.85L60.4578 316.901L82.0356 317.647L81.8084 317.836C83.9454 300.083 85.7984 283.347 87.0893 268.218C87.3997 264.433 87.6836 260.751 87.8691 257.172C88.0995 253.715 88.0995 250.246 87.8691 246.788C87.7535 243.557 87.8167 240.323 88.0584 237.099C88.2477 233.999 88.5108 231.042 88.7796 228.224C89.9152 216.96 91.1853 207.971 92.1317 201.781C92.5935 198.689 92.9702 196.292 93.2674 194.682C93.4093 193.885 93.5267 193.273 93.6024 192.855C93.6781 192.437 93.7141 192.223 93.7141 192.223Z" fill="#455A64"/>
<path d="M46.2651 209.894C45.2592 209.842 44.251 209.862 43.248 209.953C42.2698 210.186 41.307 210.48 40.3652 210.833C41.1635 210.142 42.1385 209.688 43.1806 209.521C44.2227 209.354 45.2909 209.48 46.2651 209.886V209.894Z" fill="#455A64"/>
<path d="M86.5468 180.497C86.2197 180.576 85.8855 180.621 85.5493 180.632C85.1578 180.683 84.763 180.705 84.3682 180.698C83.9064 180.698 83.3783 180.698 82.801 180.656C81.44 180.571 80.0902 180.357 78.7693 180.018C77.1561 179.591 75.5893 179.005 74.0922 178.267C72.6074 177.503 71.2035 176.59 69.9016 175.544C68.843 174.683 67.8689 173.723 66.9924 172.678C66.6548 172.285 66.3388 171.873 66.046 171.446C65.804 171.133 65.5857 170.802 65.393 170.456C65.2018 170.181 65.0418 169.886 64.916 169.576C64.9917 169.525 65.7129 170.766 67.2385 172.475C70.338 175.93 74.3689 178.415 78.8469 179.634C80.1442 179.98 81.4671 180.221 82.8028 180.355C85.1064 180.556 86.5392 180.404 86.5468 180.497Z" fill="#455A64"/>
<path d="M70.4548 59.9529L67.6156 62.6936L63.425 58.6279L62.2515 55.5862L56.9517 50.8164C56.8907 51.8326 56.8907 52.8514 56.9517 53.8676L53.9686 59.6179V70.3538L50.9932 76.1703L62.5089 79.5224L64.6042 72.4491C66.4134 71.3665 68.0633 70.0377 69.5065 68.5007C71.1835 66.4717 72.8586 59.281 72.8586 59.281C72.4341 59.1739 71.9891 59.1796 71.5674 59.2975C71.1458 59.4153 70.7623 59.6412 70.4548 59.9529Z" fill="#FFBF9D"/>
<path d="M61.6204 62.3349C61.477 62.1989 61.3732 62.0265 61.3202 61.8362C61.2672 61.6458 61.2669 61.4446 61.3194 61.2541L62.9113 55.6211L67.6432 40.4599C67.6958 40.2874 67.791 40.1308 67.92 40.0047C68.049 39.8787 68.2077 39.7872 68.3815 39.7387C68.5552 39.6902 68.7384 39.6863 68.9141 39.7274C69.0897 39.7684 69.2522 39.853 69.3865 39.9735L75.8655 45.7408C76.0223 45.8792 76.1352 46.0605 76.1904 46.2623C76.2455 46.464 76.2405 46.6775 76.1759 46.8765L69.5512 67.5192C69.4946 67.6899 69.3964 67.8438 69.2654 67.9669C69.1344 68.0901 68.9747 68.1786 68.8009 68.2244C68.627 68.2703 68.4445 68.272 68.2698 68.2295C68.0951 68.187 67.9337 68.1016 67.8004 67.981L61.6204 62.3349Z" fill="#E0E0E0"/>
<path d="M62.4263 61.844C62.2942 61.7204 62.1985 61.5629 62.1498 61.3887C62.1011 61.2144 62.1011 61.0301 62.1499 60.8559L63.6074 55.5751L67.94 41.3262C67.9885 41.17 68.0753 41.0284 68.1926 40.9144C68.3098 40.8003 68.4537 40.7174 68.6112 40.6732C68.7687 40.629 68.9347 40.6249 69.0942 40.6612C69.2536 40.6976 69.4015 40.7733 69.5242 40.8814L75.5092 46.1206C75.6517 46.2464 75.7546 46.4108 75.8053 46.594C75.8561 46.7771 75.8525 46.971 75.795 47.1522L69.4069 66.5873C69.3557 66.7427 69.2666 66.8829 69.1474 66.995C69.0282 67.1071 68.8829 67.1877 68.7247 67.2293C68.5664 67.2708 68.4003 67.2722 68.2414 67.2331C68.0825 67.194 67.936 67.1158 67.815 67.0056L62.4263 61.844Z" fill="#263238"/>
<path d="M62.233 55.5835C62.233 55.5835 62.8368 55.7728 64.421 56.422C66.2987 57.1508 66.7586 56.1703 66.7586 56.1703C66.8892 55.8421 66.8848 55.4756 66.7466 55.1506C66.6084 54.8256 66.3474 54.5682 66.0205 54.4346L62.2349 52.892L62.286 52.0951C62.286 52.0951 64.2564 52.3374 65.7062 52.3374C68.7347 52.3374 67.599 49.731 67.599 49.731L64.1049 49.2787L65.8823 46.7064C66.0591 46.504 66.1919 46.2671 66.2721 46.0106C66.3524 45.7542 66.3784 45.4838 66.3485 45.2167C66.3186 44.9497 66.2334 44.6918 66.0984 44.4594C65.9634 44.2271 65.7815 44.0254 65.5643 43.8672L58.9925 49.29C58.9925 49.29 57.0808 50.0774 56.9559 50.8648C56.8949 51.8809 56.8949 52.8998 56.9559 53.916L62.233 55.5835Z" fill="#FFBF9D"/>
<path d="M66.0545 56.6177C65.566 56.7492 65.0514 56.7492 64.5629 56.6177C63.3818 56.397 62.2312 56.0367 61.1351 55.5444L60.6581 55.3344L60.9269 55.2511C60.2569 56.3072 59.778 57.3331 59.3521 58.0429C59.1624 58.444 58.8977 58.8051 58.5723 59.1067C58.7024 58.6856 58.8795 58.2805 59.1004 57.8991C59.5257 56.904 60.0157 55.9379 60.5673 55.0069L60.66 54.8555L60.836 54.9312L61.3055 55.1318C62.3916 55.6071 63.5122 55.9994 64.6576 56.3054C65.4942 56.523 66.0545 56.5495 66.0545 56.6177Z" fill="#FF9A6C"/>
<path d="M62.274 53.0494C61.9884 52.9668 61.7084 52.8663 61.4355 52.7484C60.8087 52.5275 60.1342 52.4785 59.4821 52.6065C58.8303 52.7495 58.23 53.0683 57.7464 53.5283C57.3679 53.8803 57.1786 54.1661 57.1256 54.1321C57.0726 54.098 57.1256 53.763 57.5193 53.2936C57.9936 52.7123 58.6531 52.3114 59.3875 52.1579C60.1228 52.0074 60.8872 52.1081 61.5585 52.4437C62.0733 52.7314 62.3005 53.0153 62.274 53.0494Z" fill="#FF9A6C"/>
<path d="M67.0535 49.6446C67.0535 49.7696 65.2269 49.3683 62.9878 49.285C60.7486 49.2017 58.9221 49.427 58.8975 49.285C60.2205 48.8516 61.6191 48.6975 63.0048 48.8326C64.3951 48.8294 65.7719 49.1055 67.0535 49.6446Z" fill="#FF9A6C"/>
<path d="M62.3585 70.6072C62.2922 70.6072 62.4512 69.9863 62.4834 68.9983C62.5435 67.7112 62.2904 66.4288 61.7458 65.261C61.2011 64.0933 60.3813 63.0752 59.3565 62.294C58.5691 61.6827 57.9994 61.4555 58.0316 61.3477C58.5835 61.4537 59.1025 61.6892 59.5458 62.0347C60.6754 62.7874 61.5767 63.8356 62.1518 65.0651C62.7268 66.2946 62.9535 67.6583 62.8071 69.0078C62.7866 69.5689 62.6328 70.1172 62.3585 70.6072Z" fill="#FF9A6C"/>
<path d="M69.1238 74.4766C66.0887 76.1038 63.6755 78.6874 62.2587 81.8263L59.745 90.6258L63.0215 79.5871L46.912 74.4766C46.912 74.4766 38.9339 91.7009 37.0695 101.439C35.6366 108.94 35.8032 118.914 41.7219 120.432C48.4943 122.578 53.8925 119.744 58.4845 113.903L70.0702 97.3225L69.1238 74.4766Z" fill="#455A64"/>
<path d="M48.0938 75.2891C48.1902 75.2933 48.2859 75.3073 48.3796 75.3307L49.2181 75.5408L52.3033 76.3793L63.0392 79.3964L63.2398 79.4475L63.1812 79.6482L60.465 88.8679C59.4751 92.22 58.4946 95.3375 57.7072 98.2297C57.0438 100.812 56.2465 103.358 55.3185 105.858C54.6736 107.539 53.8653 109.153 52.9052 110.677C52.6468 111.093 52.3669 111.496 52.0667 111.884C51.9748 112.029 51.8682 112.164 51.7487 112.287C51.7487 112.287 52.1178 111.684 52.7462 110.61C53.6448 109.069 54.4049 107.45 55.0176 105.774C55.805 103.654 56.5091 101.042 57.3059 98.1558C58.1028 95.2693 59.0416 92.0876 60.0391 88.7695C61.0366 85.4515 61.9319 82.4078 62.7723 79.5497L62.9143 79.8015L52.22 76.633L49.1613 75.6866L48.3228 75.4178C48.2417 75.384 48.1648 75.3408 48.0938 75.2891Z" fill="#263238"/>
<path d="M88.6365 15.4298C88.1608 14.7062 87.4727 14.1477 86.6667 13.8311C85.8607 13.5146 84.9764 13.4555 84.1354 13.6619C83.059 12.9746 81.7823 12.6703 80.5115 12.798C79.2408 12.9258 78.0502 13.4782 77.1321 14.3661C76.3401 13.9826 75.4621 13.8111 74.584 13.8683C73.7058 13.9255 72.8576 14.2096 72.122 14.6926C71.3865 15.1757 70.7888 15.8413 70.3873 16.6243C69.9859 17.4074 69.7944 18.2813 69.8316 19.1605C68.9429 19.1091 68.0599 19.3315 67.3014 19.7975C66.543 20.2635 65.9456 20.9509 65.5899 21.7669C65.265 22.5983 65.1996 23.5087 65.4023 24.3781C65.605 25.2475 66.0664 26.035 66.7256 26.637C65.7913 27.0315 65.0359 27.7577 64.605 28.6757C64.1741 29.5938 64.0981 30.6388 64.3916 31.6096C64.6851 32.5804 65.3274 33.4082 66.1948 33.9338C67.0622 34.4593 68.0933 34.6454 69.0897 34.4561L88.2655 20.2829C88.8249 19.6133 89.1613 18.7857 89.2278 17.9157C89.2943 17.0457 89.0876 16.1767 88.6365 15.4298Z" fill="#263238"/>
<path d="M68.5431 35.0751C68.5239 30.7066 70.1527 26.4916 73.1044 23.2712C76.0561 20.0507 80.1136 18.0617 84.4672 17.7012L85.3549 17.6255C95.044 17.3983 98.8145 26.073 98.7653 35.8208L100.868 71.8614L86.6192 86.4359L81.2627 76.8981L79.351 67.3603C79.351 67.3603 69.9646 66.6638 69.0845 57.3607C68.6946 52.8521 68.5602 43.5245 68.5431 35.0751Z" fill="#FFBF9D"/>
<path d="M79.3057 67.3346C83.6111 66.9783 87.7227 65.3894 91.1488 62.7578C91.1488 62.7578 89.1955 69.9315 79.8849 69.8482L79.3057 67.3346Z" fill="#FF9A6C"/>
<path d="M71.9392 43.4855C71.9611 43.8337 72.1195 44.1592 72.38 44.3913C72.6405 44.6234 72.982 44.7434 73.3304 44.7253C73.5002 44.7254 73.6683 44.6913 73.8248 44.6251C73.9812 44.5588 74.1227 44.4618 74.2408 44.3398C74.359 44.2178 74.4513 44.0732 74.5125 43.9147C74.5736 43.7563 74.6022 43.5871 74.5966 43.4173C74.5747 43.0692 74.4163 42.7437 74.1558 42.5116C73.8953 42.2795 73.5539 42.1594 73.2054 42.1776C73.0356 42.1775 72.8675 42.2116 72.7111 42.2778C72.5546 42.344 72.4131 42.441 72.295 42.5631C72.1769 42.6851 72.0845 42.8296 72.0233 42.9881C71.9622 43.1466 71.9336 43.3157 71.9392 43.4855Z" fill="#263238"/>
<path d="M70.8486 39.9244C71.0246 40.0834 71.9634 39.2544 73.3622 39.1446C74.761 39.0348 75.8758 39.6651 76.0273 39.472C76.1787 39.279 75.9099 39.0935 75.4235 38.7925C74.7722 38.4144 74.0195 38.2478 73.2695 38.3156C72.5299 38.3755 71.8285 38.6691 71.2669 39.1541C70.8827 39.5648 70.7653 39.9244 70.8486 39.9244Z" fill="#263238"/>
<path d="M84.1921 43.0959C84.2141 43.4427 84.3715 43.767 84.6303 43.9989C84.8891 44.2308 85.2286 44.3518 85.5758 44.3357C85.7468 44.3348 85.9159 44.2995 86.073 44.2318C86.2301 44.1642 86.372 44.0656 86.4901 43.942C86.6083 43.8183 86.7004 43.6721 86.7608 43.5121C86.8213 43.3521 86.8489 43.1816 86.8421 43.0107C86.8201 42.6639 86.6627 42.3396 86.4039 42.1077C86.1451 41.8758 85.8056 41.7549 85.4584 41.771C85.2877 41.7729 85.1191 41.8089 84.9625 41.8769C84.8059 41.9449 84.6644 42.0435 84.5464 42.1669C84.4285 42.2904 84.3364 42.4361 84.2755 42.5956C84.2147 42.7552 84.1863 42.9253 84.1921 43.0959Z" fill="#263238"/>
<path d="M84.4513 38.635C84.6274 38.794 85.5738 37.9649 86.965 37.8552C88.3562 37.7454 89.4786 38.3662 89.63 38.1826C89.7814 37.999 89.5126 37.8041 89.0262 37.5031C88.3745 37.1259 87.6222 36.9593 86.8722 37.0261C86.1326 37.0859 85.4312 37.3796 84.8696 37.8646C84.4835 38.2413 84.368 38.5593 84.4513 38.635Z" fill="#263238"/>
<path d="M80.639 49.6336C79.8699 49.4556 79.0808 49.3793 78.2919 49.4064C77.9228 49.4064 77.5708 49.3478 77.4534 49.1055C77.3968 48.7288 77.4521 48.3437 77.6124 47.9982C77.8812 47.0934 78.1575 46.13 78.4509 45.1325C79.2555 42.6909 79.8606 40.188 80.2604 37.6484C79.2619 40.0185 78.4574 42.4657 77.8547 44.9659C77.5689 45.971 77.3096 46.9363 77.0162 47.8487C76.825 48.3093 76.8016 48.8224 76.9499 49.2986C77.0112 49.4236 77.1008 49.5326 77.2115 49.617C77.3222 49.7015 77.4511 49.759 77.5878 49.785C77.7961 49.8168 78.008 49.8168 78.2162 49.785C79.0269 49.8448 79.842 49.7938 80.639 49.6336Z" fill="#263238"/>
<path d="M84.9045 50.2779C84.6698 50.2779 84.7947 51.8376 83.5644 53.0527C82.3341 54.2679 80.6722 54.2263 80.6817 54.4439C80.6911 54.6616 81.0754 54.7127 81.7719 54.6786C82.6776 54.6162 83.5322 54.2361 84.1852 53.6054C84.8171 52.9951 85.1841 52.1612 85.2073 51.283C85.2225 50.63 85.0124 50.2609 84.9045 50.2779Z" fill="#263238"/>
<path d="M84.0996 34.5518C84.2889 34.9115 85.4908 34.4761 86.9823 34.3758C88.4738 34.2755 89.7477 34.4932 89.865 34.107C89.9161 33.9178 89.6379 33.6036 89.0947 33.3367C88.3871 33.0017 87.6034 32.86 86.8233 32.9259C86.0576 32.9812 85.3202 33.2386 84.6863 33.6717C84.2169 34.0559 84.0068 34.3815 84.0996 34.5518Z" fill="#263238"/>
<path d="M70.8491 36.0019C71.1008 36.3293 72.0813 36.0019 73.2718 36.0019C74.4624 36.0019 75.4504 36.229 75.6851 35.8845C75.7854 35.7161 75.6265 35.3905 75.1911 35.046C74.6036 34.6753 73.9189 34.4885 73.2246 34.5094C72.5302 34.5303 71.858 34.758 71.2939 35.1634C70.8737 35.5079 70.7393 35.8429 70.8491 36.0019Z" fill="#263238"/>
<path d="M69.0891 30.7024C69.0891 30.7024 71.05 24.6588 73.7321 23.0745C76.9839 21.1477 78.7612 24.7515 81.9033 23.595C85.0453 22.4385 88.1646 20.5666 91.6681 22.8152C95.4992 25.2626 93.9641 27.3238 94.5338 31.4387C96.8052 48.1255 100.242 52.619 100.46 44.6561C100.46 43.8176 102.815 42.8958 102.866 39.2162C102.942 34.4388 102.648 28.6639 101.316 25.3875C100.134 22.606 98.0378 20.3115 95.3742 18.8839C90.5457 15.8554 84.2939 16.2851 80.0862 17.0649C75.8785 17.8447 68.0992 23.4606 69.0891 30.7024Z" fill="#263238"/>
<path d="M98.6745 44.5791C98.6538 44.2357 98.7037 43.8917 98.8213 43.5684C98.9389 43.2451 99.1217 42.9494 99.3582 42.6996C99.5947 42.4497 99.88 42.2511 100.196 42.116C100.513 41.9809 100.854 41.9122 101.198 41.9141C102.941 41.9141 104.943 42.7526 105.129 46.3735C105.447 52.7597 99.0019 51.7547 98.9849 51.5786C98.9678 51.4026 98.7843 47.2517 98.6745 44.5791Z" fill="#FFBF9D"/>
<path d="M100.234 49.1374C100.334 49.1916 100.438 49.239 100.544 49.2794C100.814 49.3864 101.113 49.3864 101.383 49.2794C101.774 48.9953 102.085 48.614 102.284 48.1732C102.483 47.7324 102.564 47.2473 102.518 46.7658C102.506 46.2181 102.372 45.6801 102.125 45.191C102.063 44.994 101.954 44.8149 101.808 44.6689C101.662 44.5229 101.483 44.4143 101.286 44.3525C101.158 44.3259 101.024 44.3448 100.907 44.4059C100.791 44.467 100.699 44.5665 100.648 44.6875C100.573 44.8768 100.648 44.9979 100.59 45.015C100.531 45.032 100.448 44.9147 100.48 44.6459C100.508 44.4858 100.591 44.3405 100.715 44.2351C100.883 44.0956 101.1 44.0277 101.318 44.0459C101.581 44.0854 101.829 44.1918 102.039 44.3548C102.249 44.5179 102.413 44.7322 102.517 44.9771C102.815 45.517 102.978 46.1208 102.994 46.7374C103.047 47.3023 102.936 47.8707 102.675 48.3743C102.413 48.8779 102.012 49.2954 101.519 49.5766C101.351 49.6342 101.172 49.6535 100.995 49.6332C100.818 49.6129 100.648 49.5535 100.497 49.4592C100.258 49.2548 100.217 49.1374 100.234 49.1374Z" fill="#FF9A6C"/>
<path d="M98.7044 32.153C97.9815 32.8473 97.0977 33.3513 96.1321 33.6199C95.6438 33.7337 95.131 33.6675 94.6876 33.4335C94.2443 33.1995 93.9003 32.8134 93.7188 32.3461C93.609 31.9107 93.6677 31.3826 93.3497 31.0647C93.0317 30.7467 92.3446 30.864 91.8241 30.9643C90.9017 31.1123 89.9564 30.9381 89.1474 30.471C88.3383 30.0039 87.7148 29.2724 87.3817 28.3996C87.127 28.74 86.7526 28.9711 86.3341 29.0459C85.9156 29.1207 85.4843 29.0338 85.1274 28.8028C84.4285 28.3313 83.7969 27.7671 83.2498 27.1258C82.9754 26.7985 82.6246 26.5439 82.2285 26.3844C81.8323 26.225 81.403 26.1656 80.9784 26.2116C80.5421 26.3986 80.0872 26.5389 79.6213 26.6299C78.7828 26.6299 78.2963 25.6835 78.107 24.8525C77.9178 24.0216 77.7379 23.0752 77.0017 22.6815C76.2555 22.438 75.4453 22.4826 74.7303 22.8064C73.9732 22.9825 72.97 22.8821 72.7107 22.144C72.663 21.9443 72.6551 21.7372 72.6876 21.5345C72.7201 21.3319 72.7923 21.1376 72.9 20.9629C73.3504 20.152 74.0616 19.5171 74.9181 19.1612C75.7746 18.8052 76.7263 18.7491 77.6187 19.0019C77.8384 17.9183 78.3759 16.9248 79.1627 16.1479C79.9495 15.3711 80.9498 14.8463 82.0361 14.6403C83.1224 14.4344 84.2454 14.5567 85.2618 14.9917C86.2783 15.4267 87.1422 16.1546 87.7432 17.0826C88.3635 16.4062 89.1394 15.8914 90.0037 15.5828C90.8679 15.2742 91.7944 15.1811 92.7028 15.3117C93.6112 15.4422 94.474 15.7924 95.2164 16.3319C95.9588 16.8714 96.5583 17.5839 96.963 18.4076C97.7241 18.1521 98.5426 18.1207 99.3211 18.317C100.1 18.5133 100.805 18.9291 101.354 19.5149C101.887 20.1188 102.237 20.8618 102.363 21.6572C102.489 22.4526 102.386 23.2674 102.066 24.0065C102.68 24.2547 103.221 24.6536 103.64 25.1664C104.059 25.6792 104.342 26.2893 104.462 26.9403C104.497 27.2639 104.462 27.5913 104.359 27.9002C104.257 28.2091 104.089 28.4924 103.867 28.7307C103.646 28.9691 103.375 29.157 103.075 29.2818C102.774 29.4066 102.45 29.4653 102.125 29.4539C102.442 29.9488 102.555 30.5476 102.44 31.1243C102.326 31.701 101.991 32.2107 101.508 32.5461C101.025 32.8815 100.431 33.0165 99.8507 32.9227C99.2702 32.8289 98.7486 32.5137 98.3958 32.0432" fill="#263238"/>
<path d="M102.563 29.3555C102.606 29.5738 102.602 29.7988 102.552 30.0155C102.501 30.2322 102.405 30.4356 102.27 30.6123C101.982 31.0293 101.553 31.3274 101.062 31.4508C100.744 31.5285 100.413 31.5349 100.093 31.4695C99.7726 31.404 99.4706 31.2683 99.2089 31.0722L99.4777 31.006C99.1926 31.6229 98.809 32.1893 98.342 32.683C98.0371 33.0313 97.6667 33.3162 97.2518 33.5215C96.8576 33.7091 96.4203 33.7876 95.9855 33.7486C95.619 33.7469 95.2573 33.665 94.9257 33.5087C94.5942 33.3524 94.3008 33.1255 94.0662 32.8439C93.7803 32.4597 93.5697 32.0249 93.4454 31.5625C93.3819 31.3997 93.3504 31.2261 93.3527 31.0514C93.4377 31.2006 93.5136 31.3548 93.5798 31.5132C93.7449 31.9362 93.9769 32.3298 94.2668 32.6792C94.5236 32.9311 94.8301 33.1265 95.1668 33.253C95.5035 33.3795 95.8629 33.4343 96.222 33.4138C96.5811 33.3933 96.9319 33.298 97.252 33.134C97.5721 32.97 97.8544 32.741 98.0808 32.4615C98.5177 31.9872 98.882 31.4508 99.1616 30.8697L99.2619 30.6804L99.4304 30.8148C99.6501 30.9845 99.904 31.1046 100.175 31.1667C100.445 31.2288 100.726 31.2314 100.998 31.1744C101.435 31.0772 101.824 30.8277 102.095 30.4703C102.322 30.1324 102.481 29.7538 102.563 29.3555Z" fill="#455A64"/>
<path d="M89.3962 15.7861C89.2547 15.8605 89.1094 15.9275 88.9609 15.9867C88.5709 16.1957 88.2524 16.5168 88.0467 16.9085L87.988 17.0335L87.8877 16.9237C87.0037 15.9147 85.8794 15.1452 84.6188 14.6864C83.8146 14.3956 82.9585 14.2757 82.1052 14.3343C81.2582 14.4139 80.4427 14.6963 79.7278 15.1575C79.0129 15.6187 78.4195 16.2453 77.9979 16.9842C77.6616 17.5904 77.4777 18.2692 77.4622 18.9622V19.1628H77.2729C76.3676 18.9954 75.4326 19.1876 74.6666 19.6985C74.0662 20.1072 73.6088 20.6936 73.3587 21.3755C73.1508 21.9927 73.0684 22.6453 73.1164 23.2948C73.0379 23.1359 72.9977 22.9609 72.999 22.7837C72.9342 22.1412 73.04 21.4929 73.3059 20.9043C73.5718 20.3157 73.9882 19.8077 74.5133 19.4316C75.3329 18.8532 76.3486 18.6238 77.3373 18.7937L77.148 18.9622C77.1573 18.2084 77.3524 17.4686 77.7159 16.8082C78.1566 16.0141 78.7863 15.341 79.5493 14.8484C80.3123 14.3558 81.185 14.059 82.0901 13.9842C82.9996 13.9204 83.9121 14.0548 84.7646 14.3779C86.0758 14.8694 87.2295 15.7066 88.1035 16.8006H87.9445C88.176 16.3842 88.5425 16.059 88.9836 15.8789C89.1084 15.8064 89.2524 15.774 89.3962 15.7861Z" fill="#455A64"/>
<path d="M79.9856 70.9813C81.7365 77.6855 92.2642 78.9689 100.67 69.4141C105.585 71.5713 110.378 73.9971 115.027 76.6805C117.65 78.507 102.396 145.408 102.396 145.408L99.9924 171.984C99.9924 171.984 93.0951 173.71 89.0142 172.153C80.8431 169.026 70.3324 160.855 66.0661 161.877C33.989 169.561 44.5583 155.176 44.5583 155.176L53.7781 127.224L63.367 91.0505L69.1173 74.3637L79.9856 70.9813Z" fill="#455A64"/>
<path d="M46.0068 150.826C46.044 150.605 46.0972 150.386 46.1658 150.173C46.3077 149.711 46.4838 149.1 46.7109 148.337C47.2144 146.703 47.9185 144.406 48.793 141.633C49.6674 138.86 50.7463 135.405 51.9198 131.66L53.7804 125.792L54.7704 122.682C55.0884 121.626 55.3155 120.521 55.6089 119.421C57.7799 110.629 59.7484 102.658 61.1831 96.8493C61.9119 93.9988 62.5081 91.6782 62.9188 90.0183C63.1289 89.2479 63.2974 88.6271 63.4128 88.1652C63.464 87.948 63.531 87.7347 63.6135 87.5273C63.5958 87.7478 63.5591 87.9663 63.5037 88.1804C63.3939 88.6498 63.2614 89.2782 63.0854 90.058C62.7068 91.735 62.1541 94.0556 61.4841 96.9231C60.0759 102.791 58.132 110.727 56.0272 119.553C55.7508 120.651 55.5237 121.758 55.1887 122.815C54.8537 123.871 54.5186 124.91 54.1912 125.924L52.2984 131.792L49.0807 141.691C48.1589 144.483 47.4037 146.762 46.8756 148.396L46.2472 150.205C46.1847 150.419 46.1055 150.626 46.0068 150.826Z" fill="#263238"/>
<path d="M102.738 95.5382C102.738 99.3238 101.951 129.767 101.951 129.767L92.4302 141.559L73.0859 158.263L83.5114 173.3C83.5114 173.3 119.317 142.741 120.741 139.296C121.672 137.049 121.276 103.617 121.662 86.4869C121.814 79.8829 114.865 76.2204 111.286 74.4336" fill="#455A64"/>
<path d="M111.281 74.4766C111.281 74.4766 111.457 74.5428 111.784 74.7037C112.112 74.8646 112.623 75.0974 113.227 75.4419C115.075 76.3985 116.786 77.5992 118.315 79.0117C119.419 80.0429 120.318 81.2741 120.964 82.6402C121.327 83.4387 121.572 84.2853 121.693 85.1538C121.759 85.5986 121.744 86.0585 121.776 86.5279C121.809 86.9974 121.776 87.4592 121.776 87.9438C121.71 91.7748 121.676 96.1414 121.659 100.96C121.642 105.779 121.659 111.077 121.608 116.75C121.557 122.423 121.608 128.485 121.356 134.87L121.231 137.283L121.122 138.506C121.099 138.719 121.058 138.929 120.997 139.134C120.963 139.355 120.876 139.565 120.745 139.746C119.721 141.06 118.601 142.295 117.393 143.442C115.012 145.789 112.498 148.102 109.933 150.445C104.796 155.123 99.398 159.875 93.8446 164.694L83.669 173.469L83.4797 173.628L83.3453 173.428C79.749 168.257 76.272 163.227 72.935 158.391L72.8252 158.232L72.9671 158.098L92.3285 141.411L101.866 129.676V129.769C102.135 119.216 102.36 110.667 102.512 104.733C102.595 101.791 102.663 99.4935 102.712 97.9188C102.712 97.1484 102.763 96.5616 102.771 96.1414C102.779 95.7212 102.771 95.5376 102.771 95.5376V97.9188C102.771 99.486 102.705 101.782 102.654 104.733C102.536 110.667 102.36 119.224 102.15 129.776V129.835C99.2258 133.463 96.0478 137.419 92.654 141.644L73.3192 158.355V158.081L83.6784 173.184L83.3604 173.142L93.5266 164.367C99.0838 159.531 104.48 154.778 109.615 150.118C112.18 147.78 114.686 145.466 117.067 143.128C118.258 142.009 119.362 140.802 120.37 139.517C120.661 138.795 120.809 138.023 120.805 137.245L120.93 134.849C121.158 128.48 121.173 122.419 121.224 116.744C121.275 111.07 121.299 105.781 121.324 100.955C121.349 96.1282 121.417 91.735 121.513 87.9305V86.5147C121.526 86.0667 121.501 85.6184 121.438 85.1746C121.324 84.3351 121.089 83.5165 120.741 82.7443C120.118 81.3943 119.245 80.1741 118.169 79.148C116.654 77.7333 114.964 76.5195 113.14 75.5365C112.519 75.1845 112.042 74.9327 111.724 74.7662L111.281 74.4766Z" fill="#263238"/>
<path d="M60.1363 163.181C61.6663 163.448 63.2412 163.246 64.6544 162.602C67.0539 161.384 69.6351 160.563 72.2975 160.172H74.3795L81.7292 171.228L77.5386 179.457C74.5295 178.741 71.8402 177.053 69.8861 174.655C67.8537 172.216 66.7465 169.139 66.7592 165.964C64.8899 166.572 62.9196 166.808 60.9597 166.658C58.889 166.189 57.8744 164.805 58.3874 163.969C58.6015 163.715 58.8698 163.513 59.1724 163.377C59.4751 163.24 59.8045 163.174 60.1363 163.181Z" fill="#FFBF9D"/>
</svg>
