<svg width="23" height="23" viewBox="0 0 23 23" fill="none" xmlns="http://www.w3.org/2000/svg">
<path d="M9.25781 2.823C9.25781 2.823 7.24115 3.00633 4.67448 5.573C2.10781 8.13967 1.92448 10.1563 1.92448 10.1563" stroke="#F9B233" stroke-width="1.5" stroke-linecap="round"/>
<path d="M9.06738 6.06396C9.06738 6.06396 8.15993 6.32324 6.79875 7.68442C5.43757 9.0456 5.1783 9.95305 5.1783 9.95305" stroke="#F9B233" stroke-width="1.5" stroke-linecap="round"/>
<path d="M18.4178 8.26182C18.4841 10.0109 18.0415 12.9814 15.0618 15.9611C14.3429 16.68 13.6246 17.2512 12.9238 17.7032M17.0142 5.51562C15.7373 4.23875 13.7001 4.41031 12.8894 5.86298L12.2944 6.929C11.7575 7.89103 11.9731 9.15304 12.8187 9.99864C12.8187 9.99864 12.8187 9.99864 12.8187 9.99865C12.8188 9.99876 13.8443 11.0244 11.9847 12.884C10.1258 14.7429 9.10013 13.7188 9.09931 13.718C9.09929 13.718 9.0993 13.718 9.09928 13.718C8.25367 12.8724 6.99168 12.6569 6.02967 13.1938L4.96365 13.7887C3.51098 14.5994 3.33942 16.6366 4.61629 17.9135C5.38354 18.6808 6.32346 19.2778 7.36249 19.3172C8.10869 19.3454 9.07717 19.2811 10.1738 18.9667" stroke="#F9B233" stroke-width="1.5" stroke-linecap="round"/>
</svg>
