<svg width="236" height="76" viewBox="0 0 236 76" fill="none" xmlns="http://www.w3.org/2000/svg">
<rect y="0.5" width="236" height="75" rx="37.5" fill="#FBFBFB"/>
<g clip-path="url(#clip0_4137_4821)">
<path d="M22.95 13.5H51.05C57.0977 13.5 62 18.4023 62 24.45V52.55C62 58.5977 57.0977 63.5 51.05 63.5H22.95C16.9023 63.5 12 58.5977 12 52.55V24.45C12 18.4023 16.9023 13.5 22.95 13.5Z" fill="#E5A552"/>
<path d="M28.0238 49.791L28.0285 49.7925L26.319 52.7535C25.6949 53.8343 24.3129 54.2046 23.232 53.5806C22.1514 52.9566 21.7809 51.5746 22.4049 50.4937L23.6643 48.3125L23.7852 48.1031C24.001 47.7929 24.5336 47.2574 25.599 47.3582C25.599 47.3582 28.1063 47.6302 28.2877 48.9334C28.2877 48.9334 28.3123 49.3621 28.0238 49.791ZM52.2705 42.2285H46.9397C46.5766 42.2041 46.4182 42.0744 46.3557 41.999L46.3518 41.9921L40.6453 32.1082L40.6379 32.113L40.2957 31.6224C39.7348 30.7646 38.8441 32.9584 38.8441 32.9584C37.7807 35.4029 38.9951 38.182 39.4184 39.022L47.3445 52.7505C47.9684 53.8312 49.3504 54.2017 50.4314 53.5775C51.5121 52.9535 51.8826 51.5714 51.2584 50.4906L49.2766 47.0578C49.2381 46.9746 49.1713 46.7488 49.5777 46.7478H52.2705C53.5186 46.7478 54.5303 45.7361 54.5303 44.488C54.5303 43.24 53.5186 42.2285 52.2705 42.2285ZM41.9162 45.3004C41.9162 45.3004 42.2008 46.7478 41.0998 46.7478H21.393C20.1449 46.7478 19.1332 45.7361 19.1332 44.488C19.1332 43.24 20.1449 42.2283 21.393 42.2283H26.4594C27.2773 42.181 27.4711 41.7087 27.4711 41.7087L27.4758 41.7111L34.0891 30.2564L34.0871 30.256C34.2076 30.0347 34.1072 29.8255 34.0899 29.7925L31.9057 26.0095C31.2816 24.9289 31.652 23.5466 32.7328 22.9228C33.8137 22.2988 35.1957 22.6689 35.8197 23.7498L36.8326 25.5043L37.8438 23.7529C38.4678 22.6722 39.8498 22.3017 40.9307 22.9259C42.0115 23.55 42.3818 24.9318 41.7578 26.0127L32.5551 41.9521C32.5148 42.0492 32.5025 42.2015 32.802 42.2283H38.3027L38.3039 42.282C38.3039 42.282 41.4832 42.3314 41.9162 45.3004Z" fill="white"/>
</g>
<path d="M73.6698 49.5L80.6898 28.32H84.5898L91.6698 49.5H87.9798L86.3898 44.55H78.7398L77.1498 49.5H73.6698ZM79.3998 41.76H85.7598L82.5798 31.29L79.3998 41.76ZM93.6248 55.8V33.24H96.5648L96.6548 34.8C97.5748 34.2 98.4648 33.76 99.3248 33.48C100.185 33.18 101.055 33.03 101.935 33.03C103.695 33.03 105.045 33.73 105.985 35.13C106.925 36.51 107.395 38.49 107.395 41.07C107.395 43.05 107.125 44.69 106.585 45.99C106.045 47.29 105.225 48.25 104.125 48.87C103.025 49.49 101.635 49.8 99.9548 49.8C99.4948 49.8 99.0048 49.77 98.4848 49.71C97.9848 49.65 97.4448 49.57 96.8648 49.47V55.8H93.6248ZM99.7148 47.4C100.715 47.4 101.525 47.21 102.145 46.83C102.785 46.43 103.255 45.79 103.555 44.91C103.875 44.01 104.035 42.83 104.035 41.37C104.035 40.09 103.905 39.04 103.645 38.22C103.385 37.38 103.005 36.76 102.505 36.36C102.025 35.94 101.425 35.73 100.705 35.73C100.305 35.73 99.8948 35.78 99.4748 35.88C99.0748 35.96 98.6648 36.1 98.2448 36.3C97.8248 36.48 97.3648 36.73 96.8648 37.05V47.01C97.4248 47.13 97.9348 47.23 98.3948 47.31C98.8548 47.37 99.2948 47.4 99.7148 47.4ZM110.148 55.8V33.24H113.088L113.178 34.8C114.098 34.2 114.988 33.76 115.848 33.48C116.708 33.18 117.578 33.03 118.458 33.03C120.218 33.03 121.568 33.73 122.508 35.13C123.448 36.51 123.918 38.49 123.918 41.07C123.918 43.05 123.648 44.69 123.108 45.99C122.568 47.29 121.748 48.25 120.648 48.87C119.548 49.49 118.158 49.8 116.478 49.8C116.018 49.8 115.528 49.77 115.008 49.71C114.508 49.65 113.968 49.57 113.388 49.47V55.8H110.148ZM116.238 47.4C117.238 47.4 118.048 47.21 118.668 46.83C119.308 46.43 119.778 45.79 120.078 44.91C120.398 44.01 120.558 42.83 120.558 41.37C120.558 40.09 120.428 39.04 120.168 38.22C119.908 37.38 119.528 36.76 119.028 36.36C118.548 35.94 117.948 35.73 117.228 35.73C116.828 35.73 116.418 35.78 115.998 35.88C115.598 35.96 115.188 36.1 114.768 36.3C114.348 36.48 113.888 36.73 113.388 37.05V47.01C113.948 47.13 114.458 47.23 114.918 47.31C115.378 47.37 115.818 47.4 116.238 47.4ZM148.709 29.16L148.019 31.8C147.659 31.66 147.239 31.54 146.759 31.44C146.279 31.32 145.779 31.22 145.259 31.14C144.739 31.06 144.219 31 143.699 30.96C143.179 30.92 142.689 30.9 142.229 30.9C140.809 30.9 139.679 31.15 138.839 31.65C137.999 32.15 137.579 32.86 137.579 33.78C137.579 34.24 137.679 34.65 137.879 35.01C138.099 35.35 138.429 35.67 138.869 35.97C139.329 36.27 139.929 36.57 140.669 36.87C141.409 37.15 142.299 37.45 143.339 37.77C144.459 38.11 145.419 38.48 146.219 38.88C147.019 39.28 147.679 39.72 148.199 40.2C148.719 40.66 149.099 41.2 149.339 41.82C149.579 42.42 149.699 43.12 149.699 43.92C149.699 45.18 149.369 46.25 148.709 47.13C148.049 47.99 147.089 48.65 145.829 49.11C144.569 49.57 143.019 49.8 141.179 49.8C140.579 49.8 139.939 49.77 139.259 49.71C138.579 49.65 137.889 49.57 137.189 49.47C136.509 49.35 135.849 49.21 135.209 49.05C134.589 48.89 134.029 48.72 133.529 48.54L134.249 45.93C134.729 46.11 135.269 46.27 135.869 46.41C136.469 46.55 137.089 46.68 137.729 46.8C138.369 46.9 138.999 46.98 139.619 47.04C140.239 47.1 140.819 47.13 141.359 47.13C142.439 47.13 143.339 47.02 144.059 46.8C144.779 46.56 145.329 46.22 145.709 45.78C146.089 45.34 146.279 44.81 146.279 44.19C146.279 43.73 146.149 43.32 145.889 42.96C145.629 42.6 145.239 42.28 144.719 42C144.219 41.7 143.569 41.4 142.769 41.1C141.969 40.8 141.029 40.47 139.949 40.11C138.929 39.77 138.049 39.4 137.309 39C136.589 38.6 135.989 38.16 135.509 37.68C135.049 37.2 134.699 36.66 134.459 36.06C134.239 35.46 134.129 34.77 134.129 33.99C134.129 33.15 134.299 32.38 134.639 31.68C134.979 30.96 135.479 30.34 136.139 29.82C136.819 29.3 137.669 28.9 138.689 28.62C139.709 28.34 140.889 28.2 142.229 28.2C143.009 28.2 143.799 28.25 144.599 28.35C145.399 28.43 146.159 28.54 146.879 28.68C147.619 28.82 148.229 28.98 148.709 29.16ZM157.361 49.8C156.341 49.8 155.491 49.61 154.811 49.23C154.131 48.85 153.621 48.27 153.281 47.49C152.961 46.69 152.801 45.69 152.801 44.49V35.76H150.161V33.6L152.801 33.33L153.221 29.64H156.041V33.33H161.021V35.76H156.041V44.25C156.041 45.23 156.231 45.94 156.611 46.38C156.991 46.82 157.601 47.04 158.441 47.04C158.861 47.04 159.291 47 159.731 46.92C160.191 46.82 160.661 46.71 161.141 46.59L161.591 49.08C160.831 49.34 160.091 49.52 159.371 49.62C158.651 49.74 157.981 49.8 157.361 49.8ZM162.426 41.4C162.426 40 162.546 38.78 162.786 37.74C163.046 36.7 163.456 35.84 164.016 35.16C164.576 34.46 165.326 33.93 166.266 33.57C167.206 33.21 168.366 33.03 169.746 33.03C171.126 33.03 172.286 33.21 173.226 33.57C174.166 33.93 174.916 34.46 175.476 35.16C176.036 35.84 176.436 36.7 176.676 37.74C176.936 38.78 177.066 40 177.066 41.4C177.066 42.82 176.926 44.06 176.646 45.12C176.386 46.18 175.966 47.06 175.386 47.76C174.806 48.44 174.046 48.95 173.106 49.29C172.186 49.63 171.066 49.8 169.746 49.8C168.426 49.8 167.296 49.63 166.356 49.29C165.436 48.95 164.686 48.44 164.106 47.76C163.526 47.06 163.096 46.18 162.816 45.12C162.556 44.06 162.426 42.82 162.426 41.4ZM165.756 41.4C165.756 42.86 165.886 44.02 166.146 44.88C166.426 45.74 166.856 46.36 167.436 46.74C168.036 47.12 168.806 47.31 169.746 47.31C170.686 47.31 171.446 47.12 172.026 46.74C172.606 46.36 173.026 45.74 173.286 44.88C173.566 44.02 173.706 42.86 173.706 41.4C173.706 39.94 173.586 38.79 173.346 37.95C173.106 37.09 172.686 36.48 172.086 36.12C171.506 35.74 170.726 35.55 169.746 35.55C168.746 35.55 167.956 35.74 167.376 36.12C166.796 36.48 166.376 37.09 166.116 37.95C165.876 38.79 165.756 39.94 165.756 41.4ZM182.756 33.33V35.31C183.336 34.77 183.876 34.34 184.376 34.02C184.896 33.68 185.416 33.43 185.936 33.27C186.456 33.11 187.006 33.03 187.586 33.03C187.966 33.03 188.346 33.06 188.726 33.12C189.126 33.18 189.496 33.26 189.836 33.36L189.296 36.33C188.936 36.23 188.566 36.16 188.186 36.12C187.826 36.06 187.476 36.03 187.136 36.03C186.496 36.03 185.836 36.16 185.156 36.42C184.496 36.68 183.786 37.12 183.026 37.74V49.5H179.816V33.33H182.756ZM197.285 49.8C196.105 49.8 195.065 49.65 194.165 49.35C193.285 49.03 192.525 48.55 191.885 47.91C191.265 47.27 190.795 46.45 190.475 45.45C190.155 44.43 189.995 43.23 189.995 41.85C189.995 40.23 190.185 38.86 190.565 37.74C190.965 36.6 191.505 35.69 192.185 35.01C192.885 34.31 193.695 33.81 194.615 33.51C195.555 33.19 196.575 33.03 197.675 33.03C199.835 33.03 201.425 33.59 202.445 34.71C203.485 35.83 204.005 37.65 204.005 40.17C204.005 40.31 203.995 40.51 203.975 40.77C203.975 41.01 203.975 41.25 203.975 41.49C203.515 41.53 202.925 41.58 202.205 41.64C201.505 41.7 200.695 41.76 199.775 41.82C198.855 41.88 197.855 41.93 196.775 41.97C195.695 42.01 194.565 42.04 193.385 42.06C193.365 42.14 193.355 42.23 193.355 42.33C193.355 42.41 193.355 42.5 193.355 42.6C193.355 43.7 193.525 44.59 193.865 45.27C194.205 45.93 194.705 46.42 195.365 46.74C196.025 47.04 196.855 47.19 197.855 47.19C198.455 47.19 199.075 47.16 199.715 47.1C200.375 47.02 201.015 46.93 201.635 46.83C202.255 46.71 202.845 46.58 203.405 46.44L203.825 48.87C203.225 49.05 202.575 49.22 201.875 49.38C201.195 49.52 200.475 49.62 199.715 49.68C198.955 49.76 198.145 49.8 197.285 49.8ZM193.415 39.87C194.255 39.87 195.055 39.86 195.815 39.84C196.595 39.8 197.315 39.76 197.975 39.72C198.635 39.68 199.195 39.65 199.655 39.63C200.135 39.59 200.495 39.56 200.735 39.54C200.715 38.54 200.585 37.74 200.345 37.14C200.105 36.54 199.745 36.11 199.265 35.85C198.785 35.57 198.175 35.43 197.435 35.43C196.975 35.43 196.525 35.5 196.085 35.64C195.645 35.76 195.235 35.99 194.855 36.33C194.495 36.65 194.185 37.1 193.925 37.68C193.665 38.24 193.495 38.97 193.415 39.87Z" fill="#272727"/>
<defs>
<clipPath id="clip0_4137_4821">
<rect x="12" y="13.5" width="50" height="50" rx="25" fill="white"/>
</clipPath>
</defs>
</svg>
