<svg width="178" height="178" viewBox="0 0 178 178" fill="none" xmlns="http://www.w3.org/2000/svg">
<path d="M56.9559 0H64.075V21.3574H56.9559V0ZM71.1942 0H78.3133V7.12188H71.1942V0ZM85.4325 0H113.909V28.4766H121.028V35.5957H92.5516V28.4766H106.79V14.2383H99.668V7.12188H92.5516V14.2383H85.4325V0ZM0 0V49.834H49.834V0H0ZM42.7176 42.7176H7.12188V7.12188H42.7176V42.7176ZM128.147 0V49.834H177.984V0H128.147ZM170.865 42.7176H135.266V7.12188H170.865V42.7176Z" fill="black"/>
<path d="M14.2383 14.2363H35.5957V35.5938H14.2383V14.2363ZM78.3133 14.2363H85.4352V21.3555H78.3133V14.2363ZM142.386 14.2363H163.746V35.5938H142.386V14.2363ZM64.0723 21.3555H78.3133V28.4746H71.1942V35.5938H78.3133V49.832H85.4324V64.0703H78.3133V56.9539H71.1942V42.7156H64.0723V56.9539H71.1942V64.0703H56.9559V35.5938H64.0723V21.3555Z" fill="black"/>
<path d="M85.4325 42.7188H92.5516V49.8379H85.4325V42.7188ZM99.668 42.7188H106.79V49.8379H99.668V42.7188ZM113.909 42.7188H121.031V49.8379H113.909V42.7188ZM14.2383 56.957H35.5957V64.0734H42.7176V71.1953H35.5957V78.3145H28.4766V64.0734H14.2383V56.957ZM42.7176 56.957H49.8367V64.0762L42.7176 64.0734V56.957ZM92.5516 56.957H99.6707V64.0762H92.5516V56.957ZM106.79 56.957H113.909V71.1953H106.79V56.957ZM121.028 56.957H142.386V71.1953H135.266V64.0734H121.028V56.957ZM156.624 56.957H177.984V64.0734H163.746V71.1953H177.984V92.5527H156.624V85.4336H163.746V78.3145H149.505V71.1953H156.624V56.957Z" fill="black"/>
<path d="M49.834 64.0723H56.9559V78.3133H71.1942V64.0723H78.3133V71.1941H99.668V78.3133H78.3133V85.4324H64.0723V92.5516H28.4766V99.668H21.3574V78.3133H28.4766V85.4324H49.834V78.3133H42.7176V71.1941H49.834V64.0723ZM14.2383 71.1941H21.3574V78.3133H14.2383V71.1941ZM113.909 71.1941H121.031V78.3133H113.909V71.1941ZM0 78.3133H14.2383V92.5516H7.12188V121.028H0V78.3133ZM99.668 78.3133H106.79V85.4352H99.668V78.3133Z" fill="black"/>
<path d="M85.4325 85.4316H99.668V99.6672H92.5516V92.5508H85.4325V85.4316ZM113.909 85.4316H121.031V92.5508H113.909V85.4316ZM149.505 92.5508H156.627V99.6699H149.505V92.5508ZM14.2383 99.6672H21.3574V106.789H35.5957V113.908H28.4766V121.027H21.3574V113.908H14.2383V99.6672ZM42.7176 99.6672H49.8367V106.789H42.7176V99.6672Z" fill="black"/>
<path d="M156.624 99.666H177.984V121.026H170.865V106.788H156.624V99.666Z" fill="black"/>
<path d="M149.505 113.91V99.6719H142.386V92.5527H135.266V85.4336H142.386V92.5527H149.505V78.3145H135.266V71.1953H128.147V78.3145H121.028V85.4336H128.147V99.6691H135.266V113.907H113.909V106.791H128.147V99.6691H113.909V92.55H106.79V99.6691H99.668V113.907H92.5488V121.029H85.4297V113.91L92.5488 113.907V99.6719H85.4297V106.791H78.3133V99.6691H85.4324V92.55H64.0723V99.6691H71.1942V106.791H49.834V113.91H35.5957V121.029H56.9559V113.91H78.3133V121.029H56.9559V128.148H71.1942V135.268H64.0723V142.387H56.9531V163.747H64.0723V156.625H71.1942V142.387H78.3133V135.268H85.4324V128.148H99.668V121.029H106.79V135.268H113.909V149.506H106.79V135.268H92.5516V142.387H78.3133V156.625H85.4324V149.506H99.668V156.625H113.906V163.747H121.028V156.625H128.147V149.506H142.386V156.625H156.624V149.506H149.505V142.387H156.624V135.268H149.505V128.148H156.624V121.029H163.746V113.91H149.505ZM142.386 142.387H121.028V121.029H142.386V142.387ZM163.746 121.029H170.865V128.148H177.984V135.268H163.746V121.029Z" fill="black"/>
<path d="M128.147 128.148H135.269V135.27H128.147V128.148ZM0 128.148V177.985H49.834V128.148H0ZM42.7176 170.866H7.12188V135.268H42.7176V170.866Z" fill="black"/>
<path d="M14.2383 142.385H35.5957V163.745H14.2383V142.385ZM156.624 142.385H163.746V149.504H156.624V142.385ZM170.865 149.504H177.984V177.983H149.505V170.864H170.865V149.504ZM85.4325 156.623H99.668V163.745H85.4325V156.623ZM128.147 156.623H142.386V163.745H149.505V170.864H135.266V177.983H121.028V170.864H128.147V156.623Z" fill="black"/>
<path d="M156.624 156.625H163.745V163.747H156.624V156.625ZM78.313 163.747H85.4349V170.869H78.313V163.747ZM99.6677 170.866H113.906V177.985H99.6677V170.866Z" fill="black"/>
</svg>
