<svg width="349" height="260" viewBox="0 0 349 260" fill="none" xmlns="http://www.w3.org/2000/svg">
<path d="M348.391 227.891H0.608398V228.065H348.391V227.891Z" fill="#EBEBEB"/>
<path d="M313.543 239.082H290.506V239.256H313.543V239.082Z" fill="#EBEBEB"/>
<path d="M230.993 240.973H224.948V241.147H230.993V240.973Z" fill="#EBEBEB"/>
<path d="M289.811 232.625H276.463V232.799H289.811V232.625Z" fill="#EBEBEB"/>
<path d="M67.1391 233.797H37.0977V233.971H67.1391V233.797Z" fill="#EBEBEB"/>
<path d="M77.7389 233.797H73.3359V233.971H77.7389V233.797Z" fill="#EBEBEB"/>
<path d="M157.215 236.73H92.0547V236.904H157.215V236.73Z" fill="#EBEBEB"/>
<path d="M165.458 196.87H31.1512C30.0991 196.868 29.0907 196.449 28.3473 195.704C27.604 194.959 27.1865 193.95 27.1865 192.898V4.10096C27.1957 3.05485 27.6172 2.05459 28.3596 1.31746C29.1019 0.580329 30.1051 0.165855 31.1512 0.164062H165.458C166.511 0.164063 167.521 0.582505 168.266 1.32734C169.011 2.07217 169.429 3.08238 169.429 4.13573V192.898C169.429 193.951 169.011 194.962 168.266 195.706C167.521 196.451 166.511 196.87 165.458 196.87ZM31.1512 0.303176C30.1452 0.305018 29.181 0.705952 28.4703 1.41797C27.7596 2.13 27.3604 3.09493 27.3604 4.10096V192.898C27.3604 193.904 27.7596 194.869 28.4703 195.581C29.181 196.293 30.1452 196.694 31.1512 196.696H165.458C166.464 196.694 167.429 196.293 168.141 195.581C168.853 194.87 169.254 193.905 169.256 192.898V4.10096C169.254 3.09429 168.853 2.12937 168.141 1.41755C167.429 0.705726 166.464 0.305015 165.458 0.303176H31.1512Z" fill="#EBEBEB"/>
<path d="M315.915 196.87H181.602C180.549 196.868 179.54 196.449 178.795 195.704C178.051 194.96 177.632 193.951 177.63 192.898V4.10096C177.641 3.05421 178.064 2.05396 178.807 1.31702C179.551 0.580086 180.555 0.165835 181.602 0.164062H315.915C316.96 0.167683 317.961 0.582965 318.702 1.3199C319.443 2.05684 319.864 3.05605 319.873 4.10096V192.898C319.873 193.949 319.456 194.957 318.714 195.701C317.973 196.446 316.966 196.866 315.915 196.87ZM181.602 0.303176C180.595 0.305015 179.63 0.705726 178.918 1.41755C178.206 2.12937 177.806 3.09429 177.804 4.10096V192.898C177.806 193.905 178.206 194.87 178.918 195.581C179.63 196.293 180.595 196.694 181.602 196.696H315.915C316.922 196.694 317.887 196.293 318.598 195.581C319.31 194.87 319.711 193.905 319.713 192.898V4.10096C319.711 3.09429 319.31 2.12937 318.598 1.41755C317.887 0.705726 316.922 0.305015 315.915 0.303176H181.602Z" fill="#EBEBEB"/>
<path d="M274.02 14.8828H71.0615V109.841H274.02V14.8828Z" fill="#E6E6E6"/>
<path d="M277.075 14.8828H72.4883V109.841H277.075V14.8828Z" fill="#F0F0F0"/>
<path d="M274.02 109.844H71.0615V114.685H274.02V109.844Z" fill="#E6E6E6"/>
<path d="M282.165 109.844H77.5791V114.685H282.165V109.844Z" fill="#F0F0F0"/>
<path d="M272.797 105.56V19.1641L76.773 19.1641V105.56L272.797 105.56Z" fill="#FAFAFA"/>
<path d="M97.7988 105.56L109.714 19.1641H128.306L116.391 105.56H97.7988Z" fill="white"/>
<path d="M78.7484 101.301C78.6673 101.301 78.5894 101.268 78.532 101.211C78.4746 101.154 78.4424 101.076 78.4424 100.995V21.9506C78.4424 21.8694 78.4746 21.7916 78.532 21.7342C78.5894 21.6768 78.6673 21.6445 78.7484 21.6445C78.7886 21.6445 78.8284 21.6524 78.8655 21.6678C78.9027 21.6832 78.9364 21.7058 78.9648 21.7342C78.9933 21.7626 79.0158 21.7963 79.0312 21.8335C79.0466 21.8706 79.0545 21.9104 79.0545 21.9506V101.022C79.0491 101.099 79.0143 101.171 78.9573 101.223C78.9003 101.275 78.8255 101.303 78.7484 101.301Z" fill="#F0F0F0"/>
<path d="M120.385 105.56L132.3 19.1641H139.548L127.633 105.56H120.385Z" fill="white"/>
<path d="M272.797 105.56V19.1641H272.254V105.56H272.797Z" fill="#E6E6E6"/>
<path opacity="0.6" d="M278.083 25.6206H75.1308L74.7344 20.8281H277.693L278.083 25.6206Z" fill="#EBEBEB"/>
<path opacity="0.6" d="M278.083 33.4721H75.1308L74.7344 28.6797H277.693L278.083 33.4721Z" fill="#EBEBEB"/>
<path opacity="0.6" d="M278.083 41.3315H75.1308L74.7344 36.5391H277.693L278.083 41.3315Z" fill="#EBEBEB"/>
<path opacity="0.6" d="M278.083 49.187H75.1308L74.7344 44.3945H277.693L278.083 49.187Z" fill="#EBEBEB"/>
<path opacity="0.6" d="M278.083 57.0503H75.1308L74.7344 52.2578H277.693L278.083 57.0503Z" fill="#EBEBEB"/>
<path opacity="0.6" d="M278.083 64.9018H75.1308L74.7344 60.1094H277.693L278.083 64.9018Z" fill="#EBEBEB"/>
<path d="M305.962 133.711H274.988V227.89H305.962V133.711Z" fill="#E6E6E6"/>
<path d="M297.691 227.891H305.962V214.891H289.018L297.691 227.891Z" fill="#FAFAFA"/>
<path d="M221.513 133.711H190.539V227.89H221.513V133.711Z" fill="#E6E6E6"/>
<path d="M305.961 133.711H214.293V223.418H305.961V133.711Z" fill="#FAFAFA"/>
<path d="M222.563 227.891H214.293V214.891H231.237L222.563 227.891Z" fill="#FAFAFA"/>
<path d="M299.541 167.141H220.706V189.586H299.541V167.141Z" fill="#F0F0F0"/>
<path d="M299.541 194.387H220.706V216.833H299.541V194.387Z" fill="#F0F0F0"/>
<path d="M233.094 165.191H287.181V166.283C287.181 167.145 286.839 167.971 286.229 168.58C285.62 169.19 284.794 169.532 283.933 169.532H236.349C235.488 169.532 234.661 169.19 234.052 168.58C233.443 167.971 233.101 167.145 233.101 166.283V165.191H233.094Z" fill="#FAFAFA"/>
<path d="M299.541 139.891H220.706V162.336H299.541V139.891Z" fill="#F0F0F0"/>
<path d="M233.094 137.945H287.181V139.037C287.181 139.899 286.839 140.725 286.229 141.334C285.62 141.943 284.794 142.286 283.933 142.286H236.349C235.488 142.286 234.661 141.943 234.052 141.334C233.443 140.725 233.101 139.899 233.101 139.037V137.945H233.094Z" fill="#FAFAFA"/>
<path d="M233.094 192.438H287.181V193.53C287.181 194.391 286.839 195.217 286.229 195.826C285.62 196.436 284.794 196.778 283.933 196.778H236.349C235.488 196.778 234.661 196.436 234.052 195.826C233.443 195.217 233.101 194.391 233.101 193.53V192.438H233.094Z" fill="#FAFAFA"/>
<path d="M37.7653 153.79C39.4903 148.83 53.0677 155.57 58.6322 163.778C62.3117 169.245 64.5584 175.081 65.5878 182.92C65.4626 173.975 65.3235 164.369 65.1844 155.299C64.0645 153.038 61.5118 147.822 59.6825 143.69C53.5615 129.904 39.0103 124.771 33.9466 116.069C27.3596 104.662 27.4013 87.551 33.0076 81.3883C37.8765 76.0186 54.0136 112.292 55.836 116.347C62.0961 130.259 63.9046 140.63 65.0731 150.653C64.9409 142.132 64.8158 134.314 64.7114 128.276C64.3706 108.592 63.9393 102.262 63.7446 100.315C63.049 99.3617 62.2769 98.2279 61.8109 97.6576C57.9088 92.6287 49.2421 86.6468 44.9157 79.3364C38.593 68.6665 39.6155 55.8959 44.0462 51.1382C48.7204 46.165 56.9489 57.8922 61.2684 69.5637C65.5878 81.2353 63.7585 92.3504 64.9827 102.026C65.24 103.918 65.4974 111.124 65.7478 121.119C67.0694 110.366 69.6986 103.159 74.5676 96.4473C80.5633 88.1909 85.7383 78.14 90.6768 79.4407C95.6153 80.7415 92.9583 94.0476 89.0492 103.382C85.5714 111.694 68.4049 119.992 65.873 126.677C66.1721 140.226 66.4364 157.386 66.6312 173.363C67.9806 165.106 67.0485 164.418 72.5991 151.8C75.8961 144.288 89.4109 135.03 91.0246 140.191C92.6383 145.352 90.183 155.104 85.0845 161.935C80.9667 167.45 71.8688 167.444 69.7195 170.859C69.2256 171.659 67.6328 174.719 66.666 176.472C66.8816 195.983 66.9859 213.198 66.8746 219.068L65.9843 219.131C66.033 217.615 65.9217 207.689 65.7478 194.557C63.529 187.601 48.6021 183.497 43.9906 176.229C39.1633 168.605 35.6925 159.73 37.7653 153.79Z" fill="#E6E6E6"/>
<path d="M51.8019 227.889H80.4592C81.2184 227.888 81.9542 227.626 82.5422 227.145C83.1302 226.665 83.5344 225.997 83.6866 225.253L85.7176 215.223H46.5156L48.6023 225.253C48.7535 225.992 49.1536 226.657 49.7359 227.137C50.3182 227.616 51.0475 227.882 51.8019 227.889Z" fill="#F0F0F0"/>
<path d="M45.7227 219.117H86.5384C87.0117 219.116 87.4684 218.942 87.8211 218.626C88.1739 218.31 88.3982 217.876 88.4512 217.406L89.2859 209.991C89.3152 209.722 89.2875 209.45 89.2048 209.193C89.122 208.935 88.986 208.698 88.8056 208.497C88.6252 208.295 88.4044 208.134 88.1576 208.024C87.9108 207.913 87.6435 207.856 87.3731 207.855H44.888C44.6176 207.856 44.3503 207.913 44.1035 208.024C43.8567 208.134 43.6359 208.295 43.4554 208.497C43.275 208.698 43.139 208.935 43.0563 209.193C42.9735 209.45 42.9459 209.722 42.9752 209.991L43.8099 217.406C43.8629 217.876 44.0871 218.31 44.4399 218.626C44.7927 218.942 45.2493 219.116 45.7227 219.117Z" fill="#F0F0F0"/>
<path d="M124.308 182.836H99.8174V227.895H124.308V182.836Z" fill="#E0E0E0"/>
<path d="M186.727 227.89H104.727L96.1094 166.75H178.109L186.727 227.89Z" fill="#E6E6E6"/>
<path d="M198.692 227.89H107.983L99.3721 166.75H190.074L198.692 227.89Z" fill="#F0F0F0"/>
<path d="M116.857 218.335L109.603 176.309H181.197L188.452 218.335H116.857Z" fill="white"/>
<path d="M147.623 218.335L123.292 176.309H130.922L155.26 218.335H147.623Z" fill="#FAFAFA"/>
<path d="M158.495 218.335L134.157 176.309H147.178L171.509 218.335H158.495Z" fill="#FAFAFA"/>
<path d="M174.5 259.302C248.982 259.302 309.363 255.777 309.363 251.428C309.363 247.08 248.982 243.555 174.5 243.555C100.017 243.555 39.6367 247.08 39.6367 251.428C39.6367 255.777 100.017 259.302 174.5 259.302Z" fill="#F5F5F5"/>
<path d="M89.997 115.993C89.9222 115.994 89.8501 115.966 89.7947 115.916C89.7394 115.866 89.7048 115.797 89.6979 115.722L88.1537 97.1506C88.1498 97.0754 88.1751 97.0015 88.2244 96.9445C88.2736 96.8874 88.343 96.8516 88.418 96.8446C88.4963 96.8388 88.5737 96.864 88.6335 96.9147C88.6934 96.9655 88.7309 97.0377 88.738 97.1158L90.2821 115.687C90.2879 115.766 90.2627 115.843 90.212 115.903C90.1613 115.963 90.089 116 90.0109 116.007L89.997 115.993Z" fill="#6E3EA5"/>
<path d="M90.9159 127.025C90.8412 127.026 90.7691 126.998 90.7137 126.948C90.6583 126.898 90.6238 126.828 90.6168 126.754L90.1508 121.134C90.147 121.095 90.151 121.056 90.1627 121.018C90.1744 120.981 90.1934 120.946 90.2187 120.916C90.244 120.887 90.2751 120.862 90.31 120.845C90.3449 120.827 90.383 120.816 90.4221 120.814C90.461 120.81 90.5003 120.814 90.5377 120.826C90.575 120.837 90.6096 120.857 90.6395 120.882C90.6693 120.907 90.6938 120.938 90.7114 120.973C90.729 121.008 90.7394 121.046 90.742 121.085L91.2081 126.705C91.2139 126.784 91.1887 126.861 91.1379 126.921C91.0872 126.981 91.0149 127.018 90.9368 127.025H90.9159Z" fill="#6E3EA5"/>
<path d="M247.396 179.873H103.776C101.966 179.838 100.233 179.14 98.9035 177.912C97.5741 176.684 96.7413 175.011 96.5629 173.21L88.4735 75.9766C88.387 75.1273 88.4813 74.2694 88.75 73.4591C89.0187 72.6488 89.4558 71.9046 90.0326 71.2752C90.6094 70.6459 91.3128 70.1457 92.0966 69.8076C92.8804 69.4694 93.727 69.3009 94.5805 69.3131H238.194C240.004 69.3484 241.738 70.046 243.069 71.274C244.399 72.5019 245.234 74.175 245.414 75.9766L253.503 173.196C253.59 174.046 253.497 174.905 253.229 175.716C252.961 176.528 252.524 177.273 251.947 177.904C251.37 178.535 250.667 179.036 249.882 179.375C249.098 179.715 248.251 179.884 247.396 179.873Z" fill="white"/>
<path d="M247.397 180.154H103.777C101.896 180.123 100.094 179.401 98.7118 178.126C97.33 176.851 96.4663 175.112 96.2853 173.24L88.1959 76.014C88.1142 75.1269 88.2186 74.2325 88.5025 73.3881C88.7864 72.5437 89.2434 71.7679 89.8444 71.1103C90.4423 70.4483 91.1734 69.9202 91.9897 69.5606C92.8061 69.201 93.6892 69.018 94.5812 69.0236H238.194C240.082 69.0535 241.892 69.7804 243.276 71.0645C244.661 72.3485 245.521 74.099 245.693 75.9792L253.775 173.198C253.864 174.085 253.765 174.98 253.484 175.826C253.203 176.672 252.746 177.448 252.144 178.105C251.542 178.762 250.808 179.284 249.989 179.637C249.171 179.99 248.288 180.166 247.397 180.154ZM94.5812 69.6078C93.7647 69.5946 92.9547 69.7547 92.2047 70.0775C91.4547 70.4004 90.7817 70.8787 90.2302 71.4809C89.6786 72.083 89.2611 72.7953 89.0052 73.5707C88.7492 74.3462 88.6607 75.167 88.7454 75.9792L96.8348 173.191C97.0069 174.926 97.8105 176.537 99.093 177.719C100.375 178.9 102.047 179.568 103.79 179.597H247.397C248.211 179.609 249.019 179.449 249.767 179.126C250.515 178.804 251.187 178.327 251.737 177.726C252.288 177.126 252.705 176.416 252.962 175.642C253.218 174.869 253.308 174.05 253.225 173.24L245.136 76.014C244.965 74.2784 244.162 72.6663 242.88 71.4849C241.597 70.3035 239.924 69.6353 238.18 69.6078H94.5812Z" fill="#6E3EA5"/>
<path d="M238.193 69.3287H94.5801C93.7278 69.3167 92.8826 69.4849 92.0998 69.8222C91.3171 70.1595 90.6144 70.6584 90.0378 71.2862C89.4613 71.914 89.0238 72.6565 88.7542 73.4651C88.4845 74.2737 88.3887 75.1301 88.4731 75.9783H245.413C245.23 74.1792 244.394 72.5095 243.064 71.2844C241.734 70.0593 240.001 69.3636 238.193 69.3287Z" fill="#6E3EA5"/>
<path d="M97.9399 72.6586C97.9597 72.8419 97.9402 73.0273 97.8829 73.2026C97.8255 73.3778 97.7316 73.5388 97.6073 73.6749C97.4829 73.8111 97.3311 73.9193 97.1618 73.9923C96.9925 74.0653 96.8097 74.1015 96.6253 74.0985C96.2346 74.0902 95.8603 73.9392 95.5733 73.6739C95.2863 73.4087 95.1062 73.0475 95.0672 72.6586C95.0486 72.4755 95.0689 72.2906 95.1267 72.1159C95.1844 71.9412 95.2784 71.7806 95.4025 71.6447C95.5266 71.5088 95.678 71.4006 95.8467 71.3272C96.0155 71.2538 96.1978 71.2169 96.3819 71.2188C96.7735 71.224 97.1494 71.374 97.4371 71.6398C97.7248 71.9057 97.9039 72.2686 97.9399 72.6586Z" fill="white"/>
<path d="M103.783 72.6586C103.803 72.8419 103.783 73.0273 103.726 73.2026C103.669 73.3778 103.575 73.5388 103.451 73.6749C103.326 73.8111 103.174 73.9193 103.005 73.9923C102.836 74.0653 102.653 74.1015 102.469 74.0985C102.083 74.0836 101.715 73.9296 101.434 73.665C101.153 73.4003 100.977 73.0429 100.938 72.6586C100.92 72.4755 100.94 72.2906 100.998 72.1159C101.056 71.9412 101.15 71.7806 101.274 71.6447C101.398 71.5088 101.549 71.4006 101.718 71.3272C101.887 71.2538 102.069 71.2169 102.253 71.2188C102.64 71.2308 103.009 71.3838 103.291 71.649C103.573 71.9142 103.748 72.2733 103.783 72.6586Z" fill="white"/>
<path d="M109.625 72.6586C109.645 72.8419 109.626 73.0273 109.568 73.2026C109.511 73.3778 109.417 73.5388 109.293 73.6749C109.168 73.8111 109.017 73.9193 108.847 73.9923C108.678 74.0653 108.495 74.1015 108.311 74.0985C107.92 74.0902 107.546 73.9392 107.259 73.6739C106.972 73.4087 106.792 73.0475 106.753 72.6586C106.734 72.4755 106.754 72.2906 106.812 72.1159C106.87 71.9412 106.964 71.7806 107.088 71.6447C107.212 71.5088 107.364 71.4006 107.532 71.3272C107.701 71.2538 107.883 71.2169 108.067 71.2188C108.459 71.224 108.835 71.374 109.123 71.6398C109.41 71.9057 109.589 72.2686 109.625 72.6586Z" fill="white"/>
<path d="M234.931 167.136H114.153C112.715 167.109 111.336 166.556 110.278 165.58C109.221 164.605 108.557 163.275 108.415 161.843L102.739 94.0673C102.671 93.3914 102.747 92.7088 102.962 92.0643C103.177 91.4198 103.526 90.8282 103.986 90.3282C104.446 89.8282 105.006 89.4312 105.63 89.1634C106.255 88.8955 106.929 88.7628 107.608 88.7741H228.407C229.845 88.8011 231.224 89.3548 232.281 90.3304C233.339 91.3059 234.002 92.6356 234.145 94.0673L239.786 161.878C239.848 162.55 239.769 163.228 239.552 163.867C239.336 164.506 238.988 165.093 238.53 165.589C238.072 166.084 237.515 166.479 236.895 166.745C236.275 167.012 235.606 167.145 234.931 167.136Z" fill="#F0F0F0"/>
<path opacity="0.1" d="M197.566 100.607L160.145 145.666C158.969 147.081 158.177 148.775 157.846 150.585C157.516 152.395 157.657 154.26 158.257 155.999C158.857 157.738 159.895 159.294 161.271 160.515C162.647 161.737 164.314 162.583 166.113 162.972L226.835 176.097C228.735 176.509 230.71 176.396 232.55 175.771C234.39 175.145 236.025 174.031 237.28 172.547C238.534 171.062 239.361 169.265 239.672 167.346C239.982 165.428 239.765 163.461 239.043 161.657L215.762 103.466C215.074 101.74 213.949 100.222 212.496 99.0621C211.044 97.9024 209.315 97.1408 207.479 96.8524C205.643 96.5639 203.763 96.7585 202.025 97.4169C200.287 98.0753 198.75 99.1749 197.566 100.607Z" fill="#263238"/>
<path opacity="0.1" d="M114.265 106.923L101.23 142.056C100.84 143.129 100.727 144.283 100.903 145.411C101.079 146.539 101.538 147.603 102.236 148.506C102.935 149.409 103.851 150.12 104.898 150.573C105.946 151.027 107.091 151.207 108.227 151.099L146.296 147.363C147.507 147.245 148.664 146.802 149.644 146.081C150.625 145.36 151.393 144.387 151.866 143.266C152.34 142.145 152.502 140.916 152.336 139.711C152.169 138.505 151.681 137.366 150.921 136.415L125.881 105.045C125.133 104.112 124.15 103.393 123.034 102.963C121.917 102.533 120.706 102.407 119.525 102.598C118.344 102.789 117.235 103.29 116.311 104.05C115.387 104.81 114.681 105.801 114.265 106.923Z" fill="#263238"/>
<path d="M210.475 89.2635L175.488 140.04C174.395 141.626 173.728 143.466 173.549 145.383C173.371 147.301 173.688 149.232 174.47 150.993C175.251 152.753 176.472 154.283 178.014 155.437C179.556 156.59 181.369 157.329 183.278 157.582L247.59 166.144C249.613 166.414 251.67 166.128 253.543 165.318C255.416 164.508 257.033 163.204 258.222 161.546C259.411 159.888 260.127 157.937 260.293 155.904C260.459 153.87 260.069 151.829 259.164 150L229.839 90.6407C228.969 88.8822 227.654 87.3818 226.024 86.2884C224.395 85.1949 222.508 84.5465 220.551 84.4073C218.594 84.2681 216.634 84.643 214.867 85.4948C213.099 86.3467 211.585 87.6459 210.475 89.2635Z" fill="#ED3052"/>
<path d="M184.802 153.052C183.641 152.894 182.537 152.452 181.587 151.763C180.638 151.075 179.874 150.163 179.363 149.108C178.836 148.111 178.588 146.99 178.646 145.864C178.703 144.737 179.064 143.647 179.69 142.709L214.767 91.7799C215.402 90.8715 216.279 90.16 217.299 89.727C218.318 89.2939 219.44 89.1569 220.534 89.3315C221.696 89.4883 222.801 89.9306 223.75 90.6188C224.699 91.307 225.463 92.2198 225.973 93.2754L255.354 152.781C255.881 153.778 256.128 154.899 256.071 156.026C256.013 157.152 255.653 158.242 255.027 159.18C254.394 160.09 253.517 160.804 252.497 161.238C251.477 161.672 250.355 161.81 249.26 161.635L184.802 153.052Z" fill="white"/>
<path d="M217.55 107.329L221.647 107.872C222.928 108.053 224.098 108.699 224.933 109.686C225.768 110.674 226.21 111.935 226.175 113.228L225.897 118.57C225.891 118.764 225.87 118.956 225.835 119.147L222.92 135.249C222.712 136.359 222.078 137.344 221.154 137.993C220.231 138.643 219.09 138.906 217.975 138.727C216.791 138.559 215.7 137.995 214.877 137.128C214.055 136.26 213.551 135.14 213.447 133.949L212.271 117.311C212.257 117.119 212.257 116.926 212.271 116.734L212.542 111.385C212.572 110.777 212.729 110.182 213.004 109.64C213.279 109.097 213.666 108.619 214.139 108.236C214.611 107.853 215.16 107.574 215.748 107.418C216.336 107.262 216.95 107.232 217.55 107.329ZM217.224 143.193L218.336 143.339C219.483 143.501 220.53 144.079 221.277 144.962C222.025 145.846 222.422 146.974 222.392 148.131C222.367 148.677 222.228 149.211 221.982 149.699C221.737 150.187 221.391 150.618 220.967 150.963C220.543 151.308 220.051 151.559 219.524 151.7C218.996 151.842 218.445 151.87 217.905 151.783L216.792 151.63C215.647 151.47 214.6 150.893 213.852 150.011C213.104 149.128 212.707 148.001 212.737 146.845C212.761 146.298 212.899 145.763 213.145 145.275C213.39 144.786 213.736 144.355 214.16 144.01C214.584 143.665 215.076 143.414 215.604 143.273C216.132 143.132 216.684 143.105 217.224 143.193Z" fill="#ED3052"/>
<path d="M127.717 97.0267L118.111 133.453C117.821 134.56 117.817 135.723 118.099 136.831C118.381 137.94 118.94 138.96 119.723 139.794C120.507 140.628 121.489 141.249 122.578 141.6C123.667 141.951 124.827 142.02 125.95 141.8L163.211 134.532C164.394 134.296 165.491 133.748 166.391 132.945C167.29 132.143 167.958 131.114 168.327 129.966C168.695 128.818 168.749 127.593 168.485 126.417C168.22 125.241 167.646 124.157 166.821 123.277L139.193 94.0984C138.365 93.2179 137.315 92.5754 136.154 92.2379C134.993 91.9003 133.763 91.8799 132.592 92.1788C131.42 92.4778 130.35 93.0851 129.493 93.9376C128.635 94.7902 128.022 95.8568 127.717 97.0267Z" fill="#ED3052"/>
<path d="M125.874 138.865C125.19 138.989 124.486 138.938 123.827 138.716C123.167 138.495 122.575 138.111 122.104 137.599C121.618 137.106 121.267 136.497 121.085 135.83C120.902 135.162 120.894 134.459 121.061 133.787L130.687 97.2634C130.854 96.6252 131.199 96.0476 131.682 95.5981C132.165 95.1485 132.766 94.8456 133.414 94.7245C134.099 94.6022 134.803 94.6548 135.462 94.8773C136.121 95.0998 136.714 95.4851 137.184 95.9974L164.909 125.211C165.396 125.704 165.747 126.313 165.931 126.98C166.115 127.647 166.125 128.351 165.959 129.023C165.791 129.66 165.446 130.236 164.963 130.684C164.481 131.132 163.88 131.434 163.233 131.555L125.874 138.865Z" fill="white"/>
<path d="M135.222 105.838L137.594 105.372C138.36 105.249 139.144 105.413 139.796 105.832C140.449 106.252 140.923 106.898 141.127 107.647L141.976 110.825C142.008 110.942 142.034 111.061 142.052 111.18L143.562 121.189C143.679 121.863 143.526 122.556 143.135 123.118C142.745 123.679 142.148 124.064 141.475 124.187C140.77 124.304 140.045 124.176 139.423 123.825C138.8 123.473 138.317 122.918 138.053 122.254L134.2 112.738C134.153 112.627 134.113 112.513 134.081 112.397L133.205 109.212C133.091 108.858 133.054 108.483 133.096 108.114C133.138 107.744 133.259 107.388 133.45 107.068C133.641 106.749 133.898 106.474 134.203 106.262C134.509 106.05 134.856 105.905 135.222 105.838ZM141.934 126.9L142.581 126.775C143.267 126.656 143.973 126.799 144.559 127.175C145.144 127.551 145.568 128.133 145.746 128.806C145.844 129.119 145.875 129.45 145.836 129.776C145.798 130.102 145.691 130.417 145.523 130.699C145.355 130.981 145.13 131.225 144.861 131.414C144.593 131.603 144.288 131.733 143.965 131.797L143.318 131.922C142.633 132.041 141.928 131.899 141.343 131.525C140.757 131.15 140.333 130.57 140.154 129.898C140.055 129.584 140.025 129.253 140.063 128.926C140.101 128.6 140.208 128.285 140.376 128.002C140.544 127.719 140.769 127.475 141.038 127.285C141.306 127.095 141.612 126.964 141.934 126.9Z" fill="#ED3052"/>
</svg>
