<svg width="336" height="252" viewBox="0 0 336 252" fill="none" xmlns="http://www.w3.org/2000/svg">
<path d="M336 220.979H0V221.147H336V220.979Z" fill="#EBEBEB"/>
<path d="M261.039 226.023H238.782V226.191H261.039V226.023Z" fill="#EBEBEB"/>
<path d="M202.944 231.709H173.355V231.877H202.944V231.709Z" fill="#EBEBEB"/>
<path d="M291.809 232.262H261.717V232.43H291.809V232.262Z" fill="#EBEBEB"/>
<path d="M65.1038 225.855H36.0801V226.023H65.1038V225.855Z" fill="#EBEBEB"/>
<path d="M75.3446 225.855H71.0908V226.023H75.3446V225.855Z" fill="#EBEBEB"/>
<path d="M152.127 228.691H89.1738V228.859H152.127V228.691Z" fill="#EBEBEB"/>
<path d="M159.264 191.006H29.5072C28.4907 191.005 27.5164 190.6 26.7982 189.88C26.0801 189.161 25.6768 188.186 25.6768 187.169V4.76836C25.6856 3.75769 26.0929 2.79133 26.81 2.07917C27.5272 1.36701 28.4964 0.966575 29.5072 0.964844H159.264C160.281 0.964844 161.257 1.36911 161.977 2.08871C162.697 2.80831 163.101 3.7843 163.101 4.80196V187.169C163.101 188.187 162.697 189.163 161.977 189.883C161.257 190.602 160.281 191.006 159.264 191.006ZM29.5072 1.09924C28.5352 1.10102 27.6037 1.48838 26.917 2.17628C26.2304 2.86418 25.8448 3.79642 25.8448 4.76836V187.169C25.8448 188.141 26.2304 189.074 26.917 189.761C27.6037 190.449 28.5352 190.837 29.5072 190.838H159.264C160.236 190.837 161.168 190.45 161.856 189.762C162.544 189.074 162.931 188.142 162.933 187.169V4.76836C162.931 3.7958 162.544 2.86357 161.856 2.17587C161.168 1.48816 160.236 1.10102 159.264 1.09924H29.5072Z" fill="#EBEBEB"/>
<path d="M304.625 191.006H174.862C173.844 191.005 172.869 190.6 172.15 189.881C171.431 189.161 171.026 188.186 171.024 187.169V4.76836C171.035 3.75708 171.444 2.79072 172.162 2.07875C172.88 1.36677 173.85 0.966556 174.862 0.964844H304.625C305.634 0.968341 306.602 1.36956 307.318 2.08152C308.033 2.79349 308.44 3.75885 308.448 4.76836V187.169C308.448 188.185 308.046 189.159 307.329 189.878C306.613 190.597 305.64 191.003 304.625 191.006ZM174.862 1.09924C173.889 1.10102 172.957 1.48816 172.269 2.17587C171.581 2.86357 171.194 3.7958 171.192 4.76836V187.169C171.194 188.142 171.581 189.074 172.269 189.762C172.957 190.45 173.889 190.837 174.862 190.838H304.625C305.597 190.837 306.53 190.45 307.217 189.762C307.905 189.074 308.292 188.142 308.294 187.169V4.76836C308.292 3.7958 307.905 2.86357 307.217 2.17587C306.53 1.48816 305.597 1.10102 304.625 1.09924H174.862Z" fill="#EBEBEB"/>
<path d="M229.636 132.664H292.441V17.1943L229.636 17.1943V132.664Z" fill="#E6E6E6"/>
<path d="M222.472 132.664H290.728V17.1943L222.472 17.1943V132.664Z" fill="#F0F0F0"/>
<path d="M285.016 126.939V22.9062L228.198 22.9063V126.939H285.016Z" fill="white"/>
<path d="M85.5393 21.8633H36.0801V79.3462H85.5393V21.8633Z" fill="#E0E0E0"/>
<path d="M88.4957 21.8633H37.7529V79.3462H88.4957V21.8633Z" fill="#F5F5F5"/>
<path d="M84.2422 74.8189V26.3945L42.0003 26.3945V74.8189H84.2422Z" fill="white"/>
<path d="M154.916 55.418H105.457V112.901H154.916V55.418Z" fill="#E0E0E0"/>
<path d="M157.873 55.418H107.13V112.901H157.873V55.418Z" fill="#F5F5F5"/>
<path d="M153.619 108.377V59.9531H111.377V108.377H153.619Z" fill="white"/>
<path d="M126.638 160.773C126.302 160.773 125.966 160.773 125.617 160.807C123.473 160.961 121.389 161.586 119.515 162.639C117.641 163.691 116.023 165.145 114.776 166.896C113.529 168.647 112.684 170.652 112.302 172.767C111.921 174.882 112.011 177.056 112.567 179.132C114.159 185.33 114.927 191.711 114.852 198.11V216.751C114.852 217.073 114.915 217.391 115.038 217.689C115.162 217.986 115.343 218.256 115.57 218.483C115.798 218.71 116.069 218.89 116.366 219.013C116.664 219.135 116.983 219.198 117.304 219.197H176.44V160.773H126.638Z" fill="#F0F0F0"/>
<path d="M191.03 175.348C190.945 171.625 189.438 168.076 186.818 165.429C184.198 162.782 180.664 161.239 176.942 161.117C173.22 160.995 169.593 162.303 166.805 164.772C164.017 167.241 162.281 170.684 161.952 174.394C161.851 175.99 162.01 177.593 162.423 179.138C164.012 185.337 164.78 191.717 164.707 198.115V216.757C164.707 217.405 164.965 218.028 165.424 218.486C165.883 218.945 166.505 219.203 167.154 219.203H185.835C186.484 219.203 187.106 218.945 187.565 218.486C188.024 218.028 188.281 217.405 188.281 216.757V197.027C188.226 191.023 188.986 185.039 190.539 179.239C190.877 177.97 191.042 176.661 191.03 175.348Z" fill="#F5F5F5"/>
<path d="M156.381 183.729H103.279V219.203H156.381V183.729Z" fill="#F0F0F0"/>
<path d="M110.007 133.484H60.9911C54.896 133.484 50.7565 138.424 51.7443 144.512L59.3917 191.747H130.469L122.822 144.512C121.834 138.424 116.095 133.484 110.007 133.484Z" fill="#EBEBEB"/>
<path d="M124.421 133.484H74.3436C68.5442 133.484 64.6063 138.188 65.5471 143.981L73.2818 191.747H144.353L136.618 143.981C135.677 138.188 130.22 133.484 124.421 133.484Z" fill="#F5F5F5"/>
<path d="M106.754 180.488H155.703C156.551 180.488 157.364 180.825 157.964 181.425C158.564 182.025 158.901 182.839 158.901 183.687V191.751C158.901 192.599 158.564 193.413 157.964 194.013C157.364 194.613 156.551 194.95 155.703 194.95H106.754C106.501 194.95 106.258 194.849 106.079 194.67C105.9 194.491 105.8 194.249 105.8 193.995V181.443C105.8 181.189 105.9 180.947 106.079 180.768C106.258 180.589 106.501 180.488 106.754 180.488Z" fill="#EBEBEB"/>
<path d="M54.1561 160.773C53.8201 160.773 53.4841 160.773 53.1346 160.807C49.6285 161.072 46.3353 162.591 43.8583 165.087C41.3813 167.582 39.8865 170.887 39.6476 174.395C39.5467 175.991 39.7056 177.594 40.118 179.139C41.7105 185.337 42.4787 191.718 42.4028 198.116V216.758C42.4028 217.407 42.6605 218.029 43.1192 218.487C43.578 218.946 44.2001 219.204 44.8489 219.204H103.985V160.773H54.1561Z" fill="#F0F0F0"/>
<path d="M118.547 175.35C118.545 173.276 118.1 171.227 117.242 169.34C116.385 167.452 115.134 165.769 113.574 164.404C112.014 163.038 110.181 162.021 108.196 161.421C106.212 160.821 104.122 160.651 102.067 160.923C100.012 161.195 98.0379 161.902 96.2778 162.998C94.5178 164.094 93.012 165.553 91.8609 167.277C90.7098 169.002 89.94 170.952 89.603 172.997C89.2659 175.043 89.3694 177.137 89.9064 179.14C91.4956 185.338 92.2638 191.718 92.1913 198.117V216.758C92.1913 217.407 92.449 218.029 92.9077 218.488C93.3664 218.947 93.9886 219.204 94.6373 219.204H113.319C113.968 219.204 114.59 218.947 115.049 218.488C115.507 218.029 115.765 217.407 115.765 216.758V197.028C115.711 191.025 116.468 185.041 118.016 179.241C118.371 177.974 118.55 176.665 118.547 175.35Z" fill="#F5F5F5"/>
<path d="M175.392 220.977H55.1979C54.7274 220.977 54.2761 220.79 53.9434 220.458C53.6107 220.125 53.4238 219.674 53.4238 219.203H177.193C177.193 219.438 177.146 219.671 177.055 219.888C176.964 220.105 176.831 220.302 176.664 220.467C176.496 220.632 176.297 220.762 176.079 220.85C175.861 220.938 175.627 220.981 175.392 220.977Z" fill="#E0E0E0"/>
<path d="M304.913 193.633H275.99V196.005H304.913V193.633Z" fill="#E6E6E6"/>
<path d="M221.438 220.977H226.78V166.363H221.438V220.977Z" fill="#E6E6E6"/>
<path d="M202.944 196.012H275.99V193.64H202.944V196.012Z" fill="#F5F5F5"/>
<path d="M304.913 206.625H275.99V208.997H304.913V206.625Z" fill="#E6E6E6"/>
<path d="M202.944 208.996H275.99V206.624H202.944V208.996Z" fill="#F5F5F5"/>
<path d="M304.913 167.66H275.99V170.032H304.913V167.66Z" fill="#E6E6E6"/>
<path d="M202.944 170.039H275.99V167.667H202.944V170.039Z" fill="#F5F5F5"/>
<path d="M304.913 180.652H275.99V183.025H304.913V180.652Z" fill="#E6E6E6"/>
<path d="M202.944 183.023H275.99V180.651H202.944V183.023Z" fill="#F5F5F5"/>
<path d="M294.484 220.979H299.826V166.365H294.484V220.979Z" fill="#E6E6E6"/>
<path d="M270.648 220.977H275.99V166.363H270.648V220.977Z" fill="#F5F5F5"/>
<path d="M202.944 220.979H208.286V166.365H202.944V220.979Z" fill="#F5F5F5"/>
<path d="M255.481 165.727H258.337V133.88H255.481V165.727Z" fill="#E6E6E6"/>
<path d="M255.851 165.699H256.657V133.853H255.851V165.699Z" fill="#F0F0F0"/>
<path d="M246.328 167.661H267.455C267.455 166.948 267.172 166.264 266.668 165.76C266.164 165.256 265.48 164.973 264.767 164.973H248.996C248.283 164.973 247.599 165.256 247.095 165.76C246.591 166.264 246.308 166.948 246.308 167.661H246.328Z" fill="#F0F0F0"/>
<path d="M252.142 166.875H253.21C253.37 166.875 253.499 166.746 253.499 166.586V164.362C253.499 164.202 253.37 164.073 253.21 164.073H252.142C251.982 164.073 251.853 164.202 251.853 164.362V166.586C251.853 166.746 251.982 166.875 252.142 166.875Z" fill="#F0F0F0"/>
<path d="M244.117 141.413H269.7L267.254 121.011C267.118 119.858 266.564 118.796 265.697 118.025C264.83 117.253 263.711 116.826 262.55 116.824H251.281C250.121 116.829 249.003 117.257 248.137 118.028C247.271 118.799 246.716 119.86 246.577 121.011L244.117 141.413Z" fill="#F5F5F5"/>
<path d="M168 251.325C239.96 251.325 298.294 247.92 298.294 243.718C298.294 239.517 239.96 236.111 168 236.111C96.0407 236.111 37.7061 239.517 37.7061 243.718C37.7061 247.92 96.0407 251.325 168 251.325Z" fill="#F5F5F5"/>
<path d="M198.717 73.1176L198.482 73.9106L198.267 74.5826C198.119 75.0328 197.958 75.4495 197.797 75.8795C197.474 76.7195 197.125 77.5394 196.742 78.3525C195.996 79.9693 195.154 81.5401 194.222 83.0565C193.758 83.8159 193.267 84.5483 192.77 85.2808C192.273 86.0133 191.742 86.7189 191.184 87.4111C190.09 88.8104 188.917 90.1454 187.67 91.4095L187.407 91.6783C187.046 92.0491 186.617 92.3479 186.144 92.5586C184.744 93.1711 183.222 93.4539 181.695 93.3851C180.366 93.3132 179.06 93.0061 177.838 92.4779C176.814 92.0452 175.846 91.4901 174.955 90.8248C174.156 90.241 173.399 89.601 172.691 88.9096C171.403 87.6211 170.242 86.2125 169.223 84.7029C168.726 83.9771 168.269 83.2312 167.832 82.4786C167.395 81.7259 167.019 80.9733 166.609 80.1064C166.342 79.5416 166.279 78.9012 166.433 78.2954C166.587 77.6896 166.947 77.1563 167.451 76.7872C167.955 76.4181 168.573 76.2363 169.196 76.273C169.82 76.3097 170.412 76.5626 170.87 76.9883L171.044 77.1496L172.684 78.6549C173.242 79.1656 173.813 79.6562 174.384 80.1266C175.466 81.0442 176.611 81.8841 177.811 82.6399C178.75 83.2657 179.792 83.7207 180.889 83.9839C181.168 84.0625 181.463 84.0625 181.743 83.9839C181.835 83.9427 181.911 83.8717 181.958 83.7823L180.412 84.9515C181.265 83.7957 182.092 82.6264 182.851 81.4168C183.611 80.2072 184.336 78.9573 185.015 77.7007C185.694 76.444 186.319 75.1471 186.897 73.8501C187.192 73.1781 187.455 72.5464 187.723 71.9013L188.395 70.1407L188.583 69.6568C189.12 68.4173 190.103 67.4252 191.338 66.8776C192.572 66.3301 193.968 66.2673 195.247 66.7018C196.525 67.1362 197.594 68.0361 198.239 69.2223C198.885 70.4086 199.06 71.7945 198.731 73.1042L198.717 73.1176Z" fill="black"/>
<path d="M168.511 80.1398L163.968 78.5606L163.014 72.3379C163.014 72.3379 170.627 74.3539 170.594 78.023L168.511 80.1398Z" fill="#CE7A63"/>
<path d="M195.269 47.7226C192.306 46.681 188.213 43.1328 189.82 38.543C191.043 35.0621 195.572 34.753 197.353 35.7946C199.133 36.8362 199.207 34.6992 201.485 33.8794C203.764 33.0595 205.37 35.1226 206.525 36.2045C207.681 37.2864 209.032 36.4666 210.746 36.5405C212.459 36.6144 213.682 38.8589 212.728 40.4986C211.048 43.3747 213.823 45.2026 211.72 47.447C208.622 50.7062 211.048 53.905 206.68 57.1507C204.026 59.1398 196.486 55.4909 195.269 47.7226Z" fill="black"/>
<path d="M195.216 50.7589C195.105 50.8247 194.981 50.8638 194.853 50.8732C194.63 50.8918 194.409 50.8218 194.238 50.6783C194.067 50.5348 193.959 50.3295 193.939 50.1071C193.791 48.7735 193.965 47.4238 194.447 46.1715C194.929 44.9191 195.704 43.8006 196.707 42.91C196.794 42.8408 196.894 42.7897 197.001 42.7596C197.108 42.7296 197.22 42.7212 197.33 42.735C197.44 42.7487 197.546 42.7844 197.643 42.8398C197.739 42.8953 197.823 42.9694 197.89 43.0578C197.959 43.1442 198.011 43.2434 198.041 43.3497C198.072 43.4559 198.081 43.5672 198.069 43.6771C198.056 43.787 198.022 43.8933 197.968 43.99C197.915 44.0867 197.842 44.1718 197.756 44.2405C196.971 44.955 196.368 45.8467 195.997 46.8415C195.626 47.8363 195.499 48.9053 195.626 49.9593C195.639 50.1176 195.608 50.2766 195.535 50.418C195.463 50.5594 195.352 50.6775 195.216 50.7589Z" fill="black"/>
<path d="M190.385 66.3984C190.385 66.3984 184.424 81.6528 190.082 110.078H217.103C217.292 105.932 214.684 85.6982 218.683 66.1565C215.695 65.582 212.674 65.2004 209.637 65.0141C205.813 64.7922 201.978 64.7922 198.153 65.0141C195.531 65.2712 192.934 65.7341 190.385 66.3984Z" fill="white"/>
<path d="M208.502 52.0371C207.776 55.7331 207.057 62.5069 209.638 64.9731C209.638 64.9731 205.31 68.4809 200.76 72.0291C199.755 71.177 198.987 70.0797 198.53 68.8435C198.073 67.6074 197.943 66.2742 198.153 64.9731C202.272 63.992 202.185 60.9411 201.453 58.0582L208.502 52.0371Z" fill="#CE7A63"/>
<path opacity="0.2" d="M205.632 54.5156L201.459 58.0772C201.637 58.7374 201.756 59.412 201.815 60.0932C203.159 61.37 205.551 58.1377 205.719 56.4913C205.808 55.8328 205.779 55.1637 205.632 54.5156Z" fill="black"/>
<path d="M208.455 45.8215C208.643 50.8346 209.006 53.7578 206.748 56.5735C203.341 60.7937 196.97 59.1204 195.29 54.2618C193.778 49.8938 193.725 42.4346 198.408 39.9751C199.436 39.4274 200.586 39.1513 201.751 39.1731C202.915 39.1948 204.054 39.5136 205.061 40.0993C206.067 40.6849 206.907 41.518 207.501 42.5195C208.095 43.5209 208.423 44.6576 208.455 45.8215Z" fill="#CE7A63"/>
<path d="M208.32 50.458C206.942 53.146 205.356 44.6452 205.759 43.2272C200.887 44.5712 193.415 44.1277 193.993 40.7274C194.665 36.8903 199.127 36.7424 204.073 37.2128C212.237 37.9991 209.811 47.5415 208.32 50.458Z" fill="black"/>
<path d="M205.908 50.9351C205.781 50.9423 205.654 50.9193 205.538 50.8679C205.436 50.8233 205.344 50.7591 205.267 50.679C205.19 50.5988 205.129 50.5042 205.089 50.4006C205.048 50.297 205.028 50.1864 205.03 50.0752C205.033 49.964 205.057 49.8543 205.101 49.7523C205.61 48.5111 206.408 47.4098 207.43 46.541C208.452 45.6723 209.668 45.0613 210.975 44.7594C211.193 44.7201 211.418 44.7687 211.6 44.8946C211.783 45.0205 211.908 45.2134 211.949 45.4314C211.985 45.6492 211.935 45.8723 211.809 46.054C211.684 46.2357 211.493 46.3618 211.277 46.4058C210.243 46.6615 209.285 47.1609 208.483 47.8623C207.681 48.5637 207.058 49.4468 206.667 50.4378C206.603 50.5857 206.497 50.7116 206.362 50.8C206.227 50.8883 206.069 50.9353 205.908 50.9351Z" fill="black"/>
<path d="M210.954 49.3488C210.689 50.5561 209.991 51.6246 208.992 52.3526C207.682 53.2665 206.647 52.1443 206.68 50.5651C206.714 49.1472 207.44 46.9699 208.905 46.6876C210.37 46.4054 211.284 47.8636 210.954 49.3488Z" fill="#CE7A63"/>
<path d="M187.339 237.085C186.715 237.239 186.09 237.3 185.821 237.085C185.752 237.021 185.705 236.938 185.685 236.847C185.666 236.755 185.676 236.66 185.713 236.574C185.736 236.497 185.775 236.425 185.827 236.364C185.879 236.303 185.943 236.253 186.016 236.218C186.775 235.795 188.704 236.346 188.791 236.373C188.816 236.379 188.838 236.393 188.853 236.413C188.869 236.433 188.878 236.458 188.878 236.483C188.878 236.509 188.869 236.534 188.853 236.554C188.838 236.574 188.816 236.588 188.791 236.594C188.322 236.799 187.837 236.963 187.339 237.085ZM186.345 236.325C186.27 236.343 186.198 236.37 186.13 236.406C186.086 236.427 186.046 236.457 186.014 236.494C185.981 236.531 185.957 236.574 185.942 236.621C185.888 236.789 185.942 236.85 185.975 236.883C186.278 237.145 187.514 236.85 188.395 236.493C187.728 236.306 187.033 236.249 186.345 236.325Z" fill="black"/>
<path d="M188.785 236.581H188.738C188.066 236.467 186.668 235.694 186.628 235.116C186.628 234.982 186.675 234.794 186.984 234.686C187.205 234.611 187.446 234.625 187.656 234.727C188.395 235.083 188.832 236.373 188.852 236.427C188.864 236.445 188.87 236.466 188.87 236.487C188.87 236.509 188.864 236.53 188.852 236.548C188.834 236.565 188.81 236.577 188.785 236.581ZM187.132 234.888H187.065C186.856 234.955 186.863 235.042 186.87 235.069C186.87 235.419 187.878 236.05 188.563 236.266C188.38 235.725 188.032 235.255 187.569 234.922C187.431 234.862 187.277 234.85 187.132 234.888Z" fill="black"/>
<path d="M196.13 238.182L191.07 238.928L191.232 227.329L196.292 226.59L196.13 238.182Z" fill="#CE7A63"/>
<path d="M190.311 235.93H196.943C197.041 235.927 197.136 235.961 197.21 236.024C197.285 236.087 197.333 236.176 197.346 236.273L198.018 240.741C198.032 240.853 198.021 240.967 197.987 241.075C197.954 241.182 197.897 241.282 197.822 241.366C197.748 241.451 197.656 241.518 197.553 241.565C197.45 241.611 197.338 241.635 197.225 241.635C195.243 241.602 192.394 241.487 189.901 241.487C186.991 241.487 184.377 241.642 180.963 241.642C178.9 241.642 178.517 239.686 179.37 239.37C183.187 237.939 185.23 237.697 189.094 236.32C189.475 236.123 189.886 235.991 190.311 235.93Z" fill="black"/>
<path opacity="0.2" d="M191.231 227.336L191.144 233.31L196.21 232.564L196.298 226.59L191.231 227.336Z" fill="black"/>
<path d="M193.536 236.284C193.503 234.141 194.175 230.693 188.832 232.803C185.647 234.053 189.968 237.729 189.968 237.729L193.536 236.284Z" fill="black"/>
<path d="M190.082 110.058C190.082 110.058 187.394 150.761 188.154 165.236C188.893 178.952 189.31 217.86 189.404 228.068C189.407 228.378 189.477 228.684 189.608 228.966C189.739 229.247 189.929 229.498 190.164 229.7C190.399 229.903 190.674 230.053 190.972 230.142C191.27 230.23 191.582 230.254 191.89 230.212L195.465 229.728C195.942 229.663 196.385 229.443 196.725 229.102C197.065 228.76 197.283 228.317 197.347 227.84C199.658 209.823 202.407 182.029 203.005 167.151C203.677 150.17 207.857 110.031 207.857 110.031L190.082 110.058Z" fill="#F9B233"/>
<path opacity="0.2" d="M190.082 110.058C190.082 110.058 187.394 150.761 188.154 165.236C188.893 178.952 189.31 217.86 189.404 228.068C189.407 228.378 189.477 228.684 189.608 228.966C189.739 229.247 189.929 229.498 190.164 229.7C190.399 229.903 190.674 230.053 190.972 230.142C191.27 230.23 191.582 230.254 191.89 230.212L195.465 229.728C195.942 229.663 196.385 229.443 196.725 229.102C197.065 228.76 197.283 228.317 197.347 227.84C199.658 209.823 202.407 182.029 203.005 167.151C203.677 150.17 207.857 110.031 207.857 110.031L190.082 110.058Z" fill="white"/>
<path d="M223.817 236.42C223.232 236.682 222.627 236.857 222.318 236.676C222.239 236.627 222.178 236.555 222.143 236.469C222.108 236.383 222.101 236.288 222.123 236.198C222.13 236.117 222.155 236.038 222.196 235.968C222.236 235.897 222.292 235.836 222.358 235.788C223.03 235.237 225.046 235.439 225.114 235.446C225.138 235.448 225.162 235.457 225.181 235.472C225.2 235.488 225.214 235.509 225.221 235.533C225.226 235.557 225.224 235.581 225.216 235.604C225.208 235.626 225.193 235.646 225.174 235.661C224.745 235.954 224.291 236.208 223.817 236.42ZM222.701 235.849C222.632 235.882 222.567 235.923 222.506 235.97C222.465 235.998 222.43 236.035 222.405 236.078C222.379 236.121 222.363 236.169 222.358 236.219C222.358 236.387 222.399 236.447 222.439 236.467C222.782 236.676 223.944 236.158 224.751 235.661C224.062 235.591 223.366 235.655 222.701 235.849Z" fill="black"/>
<path d="M225.12 235.674C224.448 235.674 222.929 235.17 222.788 234.606C222.754 234.478 222.788 234.283 223.064 234.122C223.164 234.063 223.276 234.026 223.391 234.012C223.507 233.998 223.624 234.008 223.736 234.041C224.529 234.263 225.194 235.446 225.221 235.499C225.231 235.518 225.236 235.539 225.236 235.56C225.236 235.581 225.231 235.602 225.221 235.62C225.208 235.635 225.193 235.648 225.176 235.657C225.158 235.667 225.139 235.672 225.12 235.674ZM223.191 234.33H223.131C222.943 234.438 222.963 234.518 222.969 234.545C223.057 234.881 224.139 235.331 224.851 235.425C224.576 234.923 224.151 234.519 223.635 234.27C223.496 234.233 223.349 234.244 223.218 234.303L223.191 234.33Z" fill="black"/>
<path d="M232.956 235.97L228.185 237.589L225.02 226.373L229.784 224.754L232.956 235.97Z" fill="#CE7A63"/>
<path opacity="0.2" d="M202.621 124.613C201.23 130.184 201.599 153.335 203.038 166.385C203.38 158.744 204.348 146.964 205.329 136.145L202.621 124.613Z" fill="black"/>
<path d="M226.35 234.868L232.882 233.692C232.979 233.672 233.081 233.688 233.168 233.736C233.255 233.784 233.323 233.861 233.359 233.954L235.072 238.187C235.114 238.29 235.132 238.401 235.125 238.512C235.119 238.623 235.087 238.73 235.033 238.827C234.978 238.924 234.903 239.007 234.812 239.071C234.721 239.135 234.617 239.177 234.508 239.195C232.552 239.518 229.717 239.908 227.264 240.351C224.401 240.869 224.381 241.023 221.021 241.641C219.005 242.011 218.138 240.176 218.897 239.713C222.311 237.643 221.753 237.502 225.221 235.472C225.559 235.206 225.941 235.002 226.35 234.868Z" fill="black"/>
<path opacity="0.2" d="M225.02 226.381L226.652 232.16L231.424 230.541L229.791 224.762L225.02 226.381Z" fill="black"/>
<path d="M199.671 110.058C199.671 110.058 203.152 150.768 205.833 165.236C208.414 179.16 220.086 218.821 223.527 227.833C223.727 228.359 224.122 228.787 224.631 229.029C225.139 229.271 225.721 229.307 226.255 229.13L229.703 228.008C230.209 227.842 230.638 227.498 230.909 227.039C231.18 226.58 231.274 226.038 231.174 225.514C227.747 207.821 222.29 181.962 220.933 167.151C219.381 150.17 217.103 110.031 217.103 110.031L199.671 110.058Z" fill="#F9B233"/>
<path opacity="0.2" d="M199.671 110.058C199.671 110.058 203.152 150.768 205.833 165.236C208.414 179.16 220.086 218.821 223.527 227.833C223.727 228.359 224.122 228.787 224.631 229.029C225.139 229.271 225.721 229.307 226.255 229.13L229.703 228.008C230.209 227.842 230.638 227.498 230.909 227.039C231.18 226.58 231.274 226.038 231.174 225.514C227.747 207.821 222.29 181.962 220.933 167.151C219.381 150.17 217.103 110.031 217.103 110.031L199.671 110.058Z" fill="white"/>
<path d="M201.042 47.958C201.082 48.3679 200.901 48.7174 200.632 48.7443C200.363 48.7711 200.121 48.462 200.081 48.0723C200.04 47.6825 200.222 47.3196 200.491 47.2927C200.76 47.2659 201.001 47.5548 201.042 47.958Z" fill="black"/>
<path d="M196.46 48.4148C196.5 48.818 196.319 49.1674 196.05 49.1943C195.781 49.2212 195.539 48.9121 195.499 48.5223C195.458 48.1325 195.64 47.763 195.909 47.7361C196.177 47.7092 196.419 48.0049 196.46 48.4148Z" fill="black"/>
<path d="M197.937 48.4688C197.575 49.7573 197.037 50.9898 196.338 52.1311C196.635 52.3013 196.966 52.4045 197.307 52.4335C197.648 52.4625 197.992 52.4167 198.314 52.2991L197.937 48.4688Z" fill="#BA4D3C"/>
<path d="M199.584 53.3064C199.553 53.3084 199.522 53.2983 199.498 53.2782C199.474 53.2582 199.459 53.2298 199.456 53.1989C199.454 53.183 199.455 53.1669 199.46 53.1515C199.464 53.1361 199.472 53.1218 199.482 53.1093C199.492 53.0968 199.504 53.0864 199.518 53.0787C199.532 53.071 199.548 53.0662 199.563 53.0645C200.069 53.027 200.558 52.8705 200.991 52.6077C201.425 52.3449 201.79 51.9833 202.057 51.5525C202.071 51.5241 202.096 51.5026 202.126 51.4925C202.156 51.4825 202.189 51.4847 202.218 51.4988C202.245 51.5144 202.266 51.5394 202.275 51.5692C202.285 51.5989 202.284 51.6313 202.272 51.66C201.988 52.1295 201.596 52.5241 201.128 52.8106C200.66 53.0971 200.131 53.2671 199.584 53.3064Z" fill="black"/>
<path d="M202.272 46.3445C202.235 46.3475 202.198 46.3425 202.163 46.3297C202.128 46.317 202.096 46.2968 202.07 46.2705C201.875 46.0388 201.628 45.8568 201.349 45.74C201.069 45.6231 200.766 45.5746 200.464 45.5985C200.402 45.6084 200.338 45.5935 200.287 45.5571C200.235 45.5207 200.2 45.4656 200.189 45.4037C200.183 45.3727 200.183 45.3409 200.19 45.3102C200.197 45.2795 200.21 45.2504 200.228 45.2247C200.246 45.199 200.269 45.1772 200.296 45.1606C200.323 45.1441 200.352 45.133 200.383 45.1281C200.758 45.0888 201.136 45.1397 201.487 45.2764C201.838 45.4132 202.151 45.632 202.399 45.9144C202.423 45.9364 202.441 45.9629 202.454 45.9924C202.467 46.0219 202.474 46.0536 202.474 46.0857C202.474 46.1179 202.467 46.1496 202.454 46.1791C202.441 46.2086 202.423 46.2351 202.399 46.2571C202.366 46.2981 202.322 46.3285 202.272 46.3445Z" fill="black"/>
<path d="M194.242 46.9896C194.206 46.9967 194.17 46.9967 194.134 46.9896C194.077 46.9632 194.032 46.9154 194.009 46.8563C193.987 46.7973 193.988 46.7318 194.013 46.6738C194.159 46.3238 194.386 46.0138 194.676 45.7695C194.966 45.5251 195.31 45.3537 195.68 45.2693C195.713 45.2577 195.748 45.2536 195.783 45.257C195.818 45.2605 195.852 45.2716 195.882 45.2894C195.912 45.3073 195.938 45.3315 195.958 45.3604C195.978 45.3894 195.992 45.4223 195.998 45.4569C196.004 45.4915 196.002 45.527 195.993 45.561C195.983 45.5949 195.967 45.6264 195.944 45.6533C195.922 45.6802 195.894 45.7019 195.862 45.7168C195.83 45.7317 195.795 45.7395 195.76 45.7397C195.468 45.8109 195.197 45.9503 194.969 46.1466C194.741 46.3428 194.563 46.5903 194.45 46.8687C194.429 46.9057 194.399 46.9365 194.362 46.9578C194.326 46.9791 194.284 46.9901 194.242 46.9896Z" fill="black"/>
<path d="M210.336 64.1328C212.97 64.1328 219.32 64.2739 219.938 66.6259C220.557 68.9779 219.878 72.7882 219.038 75.0259C220.274 78.4397 219.878 83.4797 218.702 85.0522C219.992 88.8557 219.152 91.6579 218.366 93.0019C218.984 94.5139 219.542 98.8282 218.594 100.952C219.374 103.976 220.268 109.016 218.87 110.03C216.968 111.374 211.908 112.046 208.333 111.2C204.758 110.353 206.162 103.136 206.438 101.456C204.872 99.3859 206.552 93.1699 206.552 93.1699C205.766 91.4362 206.942 84.9379 206.942 84.9379C205.994 83.3722 207.224 74.8579 207.224 74.8579C206.203 73.1511 205.759 64.1328 210.336 64.1328Z" fill="black"/>
<path d="M190.989 65.6972C193.059 64.7832 199.994 63.1234 198.65 64.9512C196.701 67.6056 197.897 70.4012 196.742 73.6872C197.763 76.8255 197.414 81.9528 196.466 83.7672C197.307 86.3996 197.222 89.2407 196.224 91.8178C196.728 93.1618 197.192 97.3752 196.406 99.7138C197.078 102.563 197.588 108.309 196.406 109.606C195.554 110.543 194.426 111.185 193.185 111.438C191.944 111.69 190.654 111.541 189.504 111.01C187.858 110.338 187.125 104.841 187.938 102.946C186.339 99.4584 187.643 94.2908 187.643 94.2908C186.097 91.6028 187.293 85.9647 187.293 85.9647C185.761 80.965 187.643 75.4345 187.643 75.4345C186.816 73.9359 187.69 67.1554 190.989 65.6972Z" fill="black"/>
<path d="M195.551 66.3168C195.276 66.1127 195.052 65.8474 194.897 65.5418C194.742 65.2363 194.66 64.8989 194.658 64.5562C194.652 64.3265 194.693 64.098 194.776 63.884C194.859 63.6699 194.984 63.4744 195.144 63.3089C195.303 63.1433 195.493 63.0109 195.704 62.9194C195.915 62.8278 196.142 62.7789 196.371 62.7754C197.158 62.8407 197.923 63.0696 198.616 63.4474C199.671 63.9648 200.061 64.442 200.108 65.2215C200.155 66.001 198.233 68.7428 197.178 68.0909C196.123 67.4391 196.143 66.9888 195.551 66.3168Z" fill="black"/>
<path opacity="0.2" d="M215.941 75.9279C216.465 73.6633 217.795 73.8649 219.119 74.7922L219.025 75.0543C220.262 78.4681 219.865 83.5081 218.689 85.0805C218.763 85.2956 218.83 85.5106 218.891 85.7525C217.244 84.1397 214.959 80.2018 215.941 75.9279Z" fill="black"/>
<path d="M216.169 81.457L211.7 83.4999L211.263 97.9345L199.12 105.757L212.715 110.635L216.404 124.593L220.879 122.557L223.379 99.7892L216.169 81.457Z" fill="#F9B233"/>
<path opacity="0.3" d="M216.169 81.457L211.7 83.4999L211.263 97.9345L199.12 105.757L212.715 110.635L216.404 124.593L220.879 122.557L223.379 99.7892L216.169 81.457Z" fill="black"/>
<path d="M244.138 111.937L239.662 113.98L225.241 113.174L231.276 109.102L244.138 111.937Z" fill="#F9B233"/>
<path opacity="0.3" d="M244.138 111.937L239.662 113.98L225.241 113.174L231.276 109.102L244.138 111.937Z" fill="black"/>
<path d="M216.169 81.457L227.364 90.5828L241.228 86.5373L236.006 100.004L244.137 111.939L229.716 111.133L220.88 122.557L217.184 108.592L203.596 103.714L215.732 95.8916L216.169 81.457Z" fill="#F9B233"/>
<path d="M223.205 110.151L223.104 114.714L228.48 114.412C228.48 114.412 229.206 111.556 226.115 109.566L223.205 110.151Z" fill="#CE7A63"/>
<path d="M224.832 119.284L228.554 117.14L228.487 114.412L223.104 114.715L224.832 119.284Z" fill="#CE7A63"/>
<path d="M220.12 66.4912C220.557 66.8944 220.886 67.2035 221.249 67.5597C221.612 67.9158 221.921 68.2317 222.297 68.608C222.969 69.3136 223.641 70.0394 224.313 70.7718C225.627 72.2753 226.863 73.8453 228.016 75.4758C229.234 77.1794 230.315 78.9771 231.248 80.8518C232.372 83.0223 233.091 85.3791 233.372 87.807C233.413 88.1662 233.433 88.5274 233.432 88.8889V89.4534V89.8432L233.318 91.3686C233.197 92.3699 233.076 93.3846 232.908 94.3322C232.597 96.2489 232.189 98.1486 231.685 100.024C230.718 103.711 229.437 107.308 227.855 110.776C227.596 111.36 227.139 111.833 226.564 112.11C225.988 112.388 225.333 112.451 224.716 112.289C224.098 112.128 223.558 111.751 223.192 111.228C222.827 110.704 222.66 110.068 222.721 109.432V109.324C223.01 105.776 223.393 102.161 223.587 98.6531C223.722 96.8925 223.776 95.152 223.816 93.4518C223.816 92.5984 223.816 91.7651 223.816 90.9318L223.762 89.7222V89.4265V89.2989C223.748 89.2036 223.728 89.1093 223.702 89.0166C223.352 87.8344 222.846 86.7043 222.196 85.6566C221.378 84.3166 220.48 83.0263 219.508 81.7926C218.494 80.5024 217.405 79.2189 216.276 77.9555C215.712 77.3238 215.127 76.7056 214.549 76.0806L213.675 75.16L212.849 74.3065L212.714 74.1654C211.756 73.1571 211.226 71.8166 211.235 70.4257C211.245 69.0347 211.793 67.7015 212.765 66.7062C213.737 65.7109 215.056 65.1311 216.447 65.0885C217.837 65.0459 219.19 65.5438 220.221 66.4778L220.12 66.4912Z" fill="black"/>
<path d="M212.352 65.7239C213.024 65.6298 213.199 64.0573 212.661 63.0359C212.225 62.1959 210.645 62.3101 209.234 62.673C208.098 62.9261 207.011 63.3618 206.015 63.9632C204.591 64.7495 205.108 65.697 205.437 66.4429C205.767 67.1888 206.392 68.9024 207.736 67.9952C209.08 67.088 211.411 65.865 212.352 65.7239Z" fill="black"/>
<path d="M229.3 234.571C229.199 232.427 229.764 228.967 224.489 231.211C221.337 232.555 225.765 236.103 225.765 236.103L229.3 234.571Z" fill="black"/>
<path d="M163.229 67.4926H170.446C170.646 67.4998 170.84 67.568 171.001 67.6881C171.162 67.8081 171.282 67.9743 171.346 68.1646L175.123 81.6046C175.147 81.6829 175.153 81.7659 175.139 81.8468C175.125 81.9276 175.092 82.004 175.043 82.0697C174.994 82.1353 174.93 82.1883 174.856 82.2243C174.782 82.2603 174.701 82.2782 174.619 82.2766H167.395C167.196 82.2662 167.005 82.1967 166.845 82.0769C166.686 81.9572 166.566 81.7928 166.501 81.6046L162.725 68.1646C162.698 68.0862 162.692 68.0027 162.705 67.9212C162.718 67.8396 162.751 67.7625 162.8 67.6965C162.85 67.6304 162.915 67.5773 162.989 67.5418C163.064 67.5063 163.146 67.4894 163.229 67.4926Z" fill="#F9B233"/>
<path d="M167.16 76.5508L165.648 71.2891L163.014 72.3374L163.968 78.5601L167.16 76.5508Z" fill="#CE7A63"/>
<path opacity="0.3" d="M171.024 67.9766C171.095 67.9808 171.163 68.0071 171.218 68.0516C171.274 68.0962 171.314 68.1568 171.333 68.2252L175.117 81.6047C175.128 81.6323 175.132 81.6625 175.129 81.6923C175.126 81.7221 175.115 81.7505 175.097 81.7748C175.08 81.799 175.056 81.8184 175.029 81.831C175.002 81.8436 174.972 81.849 174.942 81.8466C174.871 81.8438 174.804 81.8189 174.748 81.7755C174.693 81.7321 174.652 81.6724 174.633 81.6047L170.863 68.205C170.856 68.1793 170.855 68.1523 170.859 68.1259C170.864 68.0996 170.874 68.0747 170.89 68.0528C170.905 68.031 170.925 68.0129 170.948 67.9997C170.972 67.9865 170.997 67.9786 171.024 67.9766Z" fill="black"/>
<path d="M82.3673 15.2773H77.2803V15.9493H82.3673V15.2773Z" fill="#F9B233"/>
<path d="M58.464 22.8978H57.792C57.7937 20.8831 58.5926 18.9509 60.014 17.5231C61.4355 16.0953 63.3642 15.288 65.3789 15.2773H74.5181V15.9493H65.3789C63.5424 15.96 61.7847 16.6965 60.4892 17.9983C59.1938 19.3 58.4657 21.0613 58.464 22.8978Z" fill="#F9B233"/>
<path d="M144.722 17.6289H65.3789C62.473 17.6289 60.1172 19.9847 60.1172 22.8907V35.9543C60.1172 38.8603 62.473 41.2161 65.3789 41.2161H144.722C147.628 41.2161 149.984 38.8603 149.984 35.9543V22.8907C149.984 19.9847 147.628 17.6289 144.722 17.6289Z" fill="#F9B233"/>
<path d="M94.3153 25.8691L95.4712 28.2077L98.0583 28.584L96.1835 30.4051L96.627 32.9856L94.3153 31.7693L92.0036 32.9856L92.4472 30.4051L90.5723 28.584L93.1595 28.2077L94.3153 25.8691Z" fill="white"/>
<path d="M104.812 25.8691L105.968 28.2077L108.555 28.584L106.681 30.4051L107.124 32.9856L104.812 31.7693L102.501 32.9856L102.944 30.4051L101.069 28.584L103.657 28.2077L104.812 25.8691Z" fill="white"/>
<path d="M115.308 25.8691L116.464 28.2077L119.052 28.584L117.183 30.4051L117.62 32.9856L115.308 31.7693L112.997 32.9856L113.44 30.4051L111.565 28.584L114.153 28.2077L115.308 25.8691Z" fill="white"/>
<path d="M125.806 25.8691L126.961 28.2077L129.549 28.584L127.68 30.4051L128.117 32.9856L125.806 31.7693L123.494 32.9856L123.937 30.4051L122.062 28.584L124.65 28.2077L125.806 25.8691Z" fill="white"/>
<path opacity="0.3" d="M136.302 27.387L136.853 28.5092C136.902 28.6067 136.974 28.6906 137.063 28.7538C137.152 28.8171 137.255 28.8577 137.363 28.8721L138.6 29.0536L137.706 29.9272C137.628 30.0027 137.57 30.0959 137.536 30.1989C137.502 30.3019 137.493 30.4115 137.511 30.5185L137.719 31.755L136.617 31.204C136.519 31.1567 136.411 31.1314 136.302 31.13C136.194 31.1296 136.088 31.155 135.992 31.204L134.884 31.7886L135.072 30.532C135.089 30.425 135.081 30.3153 135.047 30.2123C135.013 30.1094 134.955 30.0161 134.877 29.9406L133.983 29.067L135.22 28.8856C135.331 28.8725 135.437 28.8319 135.529 28.7673C135.62 28.7028 135.694 28.6164 135.744 28.516L136.295 27.3937M136.295 25.875L135.139 28.2136L132.552 28.5899L134.427 30.4177L133.983 32.9915L136.295 31.7752L138.606 32.9915L138.163 30.4177L140.038 28.5899L137.451 28.2136L136.295 25.875Z" fill="white"/>
<path opacity="0.2" d="M76.5072 37.495C80.9646 37.495 84.578 33.8816 84.578 29.4242C84.578 24.9669 80.9646 21.3535 76.5072 21.3535C72.0499 21.3535 68.4365 24.9669 68.4365 29.4242C68.4365 33.8816 72.0499 37.495 76.5072 37.495Z" fill="white"/>
<path d="M83.1734 29.4234C83.1752 30.9063 82.6819 32.3473 81.7718 33.5181C80.8618 34.6889 79.587 35.5225 78.1495 35.8867C76.712 36.2509 75.1941 36.1249 73.8363 35.5286C72.4786 34.9324 71.3586 33.9 70.6541 32.5952C70.1216 31.6231 69.8441 30.5318 69.8477 29.4234C69.9027 27.6929 70.6287 26.0517 71.8723 24.847C73.1158 23.6423 74.7792 22.9688 76.5106 22.9688C78.2419 22.9688 79.9054 23.6423 81.1489 24.847C82.3924 26.0517 83.1185 27.6929 83.1734 29.4234Z" fill="white"/>
<path d="M82.3673 32.595C81.7975 33.6522 80.9523 34.5354 79.9212 35.151C78.8901 35.7666 77.7117 36.0917 76.5108 36.0917C75.3099 36.0917 74.1314 35.7666 73.1003 35.151C72.0692 34.5354 71.224 33.6522 70.6543 32.595C72.3883 31.4379 74.4262 30.8203 76.5108 30.8203C78.5954 30.8203 80.6333 31.4379 82.3673 32.595Z" fill="black"/>
<path d="M79.4776 27.1734C79.4776 27.7608 79.3034 28.3351 78.977 28.8235C78.6506 29.312 78.1868 29.6927 77.644 29.9175C77.1013 30.1423 76.5041 30.2011 75.9279 30.0865C75.3517 29.9719 74.8225 29.689 74.4071 29.2736C73.9917 28.8582 73.7088 28.329 73.5942 27.7528C73.4796 27.1767 73.5384 26.5794 73.7632 26.0367C73.988 25.494 74.3687 25.0301 74.8572 24.7037C75.3456 24.3773 75.9199 24.2031 76.5073 24.2031C77.2951 24.2031 78.0506 24.5161 78.6076 25.0731C79.1647 25.6301 79.4776 26.3856 79.4776 27.1734Z" fill="#FFC3BD"/>
<path d="M139.251 99.6016H125.805V100.274H139.251V99.6016Z" fill="#F9B233"/>
<path d="M144.722 74.334H65.3789C62.473 74.334 60.1172 76.6898 60.1172 79.5957V92.6594C60.1172 95.5654 62.473 97.9212 65.3789 97.9212H144.722C147.628 97.9212 149.984 95.5654 149.984 92.6594V79.5957C149.984 76.6898 147.628 74.334 144.722 74.334Z" fill="#F9B233"/>
<path d="M94.3153 82.5664L95.4712 84.9117L98.0583 85.2813L96.1835 87.1091L96.627 89.6829L94.3153 88.4666L92.0036 89.6829L92.4472 87.1091L90.5723 85.2813L93.1595 84.9117L94.3153 82.5664Z" fill="white"/>
<path d="M104.811 82.5664L105.967 84.9117L108.554 85.2813L106.68 87.1091L107.123 89.6829L104.811 88.4666L102.5 89.6829L102.943 87.1091L101.068 85.2813L103.656 84.9117L104.811 82.5664Z" fill="white"/>
<path d="M115.308 82.5664L116.464 84.9117L119.052 85.2813L117.183 87.1091L117.62 89.6829L115.308 88.4666L112.997 89.6829L113.44 87.1091L111.565 85.2813L114.153 84.9117L115.308 82.5664Z" fill="white"/>
<path d="M125.806 82.5664L126.961 84.9117L129.549 85.2813L127.68 87.1091L128.117 89.6829L125.806 88.4666L123.494 89.6829L123.937 87.1091L122.062 85.2813L124.65 84.9117L125.806 82.5664Z" fill="white"/>
<path d="M136.302 82.5664L137.457 84.9117L140.045 85.2813L138.177 87.1091L138.613 89.6829L136.302 88.4666L133.99 89.6829L134.433 87.1091L132.559 85.2813L135.146 84.9117L136.302 82.5664Z" fill="white"/>
<path opacity="0.2" d="M82.2182 91.8319C85.3701 88.68 85.37 83.5699 82.2182 80.4181C79.0664 77.2663 73.9563 77.2663 70.8045 80.4181C67.6527 83.57 67.6527 88.68 70.8045 91.8319C73.9563 94.9837 79.0664 94.9837 82.2182 91.8319Z" fill="white"/>
<path d="M83.1734 86.1206C83.1767 87.6041 82.6845 89.0462 81.775 90.2181C80.8654 91.3901 79.5906 92.2248 78.1527 92.5899C76.7149 92.9549 75.1963 92.8294 73.8379 92.2333C72.4794 91.6372 71.3589 90.6045 70.6541 89.2992C70.1216 88.3246 69.8442 87.2312 69.8477 86.1206C69.9027 84.3902 70.6287 82.7489 71.8723 81.5443C73.1158 80.3396 74.7792 79.666 76.5106 79.666C78.2419 79.666 79.9054 80.3396 81.1489 81.5443C82.3924 82.7489 83.1185 84.3902 83.1734 86.1206Z" fill="white"/>
<path opacity="0.5" d="M82.3673 89.2982C81.796 90.3534 80.9502 91.2348 79.9193 91.8489C78.8884 92.4631 77.7108 92.7874 76.5108 92.7874C75.3108 92.7874 74.1331 92.4631 73.1022 91.8489C72.0713 91.2348 71.2256 90.3534 70.6543 89.2982C72.3883 88.141 74.4262 87.5234 76.5108 87.5234C78.5954 87.5234 80.6333 88.141 82.3673 89.2982Z" fill="#F9B233"/>
<path d="M79.4776 83.8424C79.4789 84.4302 79.3058 85.0051 78.9803 85.4944C78.6547 85.9838 78.1913 86.3655 77.6487 86.5914C77.106 86.8172 76.5086 86.877 75.932 86.7631C75.3554 86.6493 74.8255 86.3669 74.4095 85.9518C73.9934 85.5367 73.7098 85.0074 73.5947 84.4311C73.4795 83.8547 73.5379 83.2572 73.7626 82.714C73.9872 82.1709 74.3679 81.7066 74.8565 81.38C75.3451 81.0533 75.9196 80.8789 76.5073 80.8789C77.2939 80.8789 78.0484 81.1909 78.6052 81.7465C79.1621 82.3021 79.4758 83.0558 79.4776 83.8424Z" fill="#FFB573"/>
<path d="M144.722 45.9824H65.3789C62.473 45.9824 60.1172 48.3382 60.1172 51.2442V64.3079C60.1172 67.2138 62.473 69.5696 65.3789 69.5696H144.722C147.628 69.5696 149.984 67.2138 149.984 64.3079V51.2442C149.984 48.3382 147.628 45.9824 144.722 45.9824Z" fill="#F9B233"/>
<path d="M147.544 59.791L141.899 69.5686H156.011L147.544 59.791Z" fill="#F9B233"/>
<path d="M94.3153 54.2148L95.4712 56.5601L98.0583 56.9364L96.1835 58.7576L96.627 61.3313L94.3153 60.115L92.0036 61.3313L92.4472 58.7576L90.5723 56.9364L93.1595 56.5601L94.3153 54.2148Z" fill="white"/>
<path d="M104.811 54.2148L105.967 56.5601L108.554 56.9364L106.68 58.7576L107.123 61.3313L104.811 60.115L102.5 61.3313L102.943 58.7576L101.068 56.9364L103.656 56.5601L104.811 54.2148Z" fill="white"/>
<path opacity="0.3" d="M115.308 55.7327L115.859 56.8549C115.908 56.9536 115.98 57.0389 116.069 57.1034C116.158 57.1678 116.261 57.2094 116.37 57.2245L117.6 57.4127L116.706 58.2863C116.628 58.3618 116.57 58.4551 116.536 58.5581C116.502 58.661 116.494 58.7707 116.511 58.8777L116.72 60.1141L115.617 59.5295C115.52 59.4771 115.412 59.4494 115.302 59.4489C115.193 59.4485 115.087 59.4763 114.993 59.5295L113.884 60.1141L114.092 58.8777C114.11 58.7707 114.101 58.661 114.067 58.5581C114.033 58.4551 113.975 58.3618 113.897 58.2863L113.003 57.4127L114.24 57.2313C114.349 57.2161 114.452 57.1745 114.541 57.1101C114.63 57.0456 114.702 56.9603 114.751 56.8617L115.302 55.7394M115.302 54.2207L114.146 56.566L111.559 56.9423L113.433 58.7634L112.99 61.3372L115.302 60.1209L117.613 61.3372L117.17 58.7634L119.045 56.9423L116.457 56.566L115.302 54.2207Z" fill="white"/>
<path opacity="0.3" d="M125.806 55.7336L126.357 56.8558C126.405 56.9545 126.477 57.0398 126.566 57.1042C126.655 57.1686 126.758 57.2103 126.867 57.2254L128.104 57.4068L127.21 58.2804C127.132 58.356 127.074 58.4492 127.04 58.5522C127.006 58.6552 126.998 58.7648 127.015 58.8718L127.223 60.1083L126.121 59.5236C126.024 59.4712 125.916 59.4436 125.806 59.443C125.697 59.4426 125.591 59.4704 125.496 59.5236L124.388 60.1083L124.596 58.8718C124.614 58.7648 124.605 58.6552 124.571 58.5522C124.537 58.4492 124.479 58.356 124.401 58.2804L123.507 57.4068L124.744 57.2254C124.853 57.2103 124.956 57.1686 125.045 57.1042C125.134 57.0398 125.206 56.9545 125.255 56.8558L125.806 55.7336ZM125.806 54.2148L124.65 56.5601L122.062 56.9364L123.937 58.7576L123.494 61.3313L125.806 60.115L128.117 61.3313L127.68 58.7576L129.555 56.9364L126.968 56.5601L125.812 54.2148H125.806Z" fill="white"/>
<path opacity="0.3" d="M136.302 55.7336L136.853 56.8558C136.901 56.9545 136.973 57.0398 137.062 57.1042C137.151 57.1686 137.255 57.2103 137.363 57.2254L138.6 57.4068L137.706 58.2804C137.628 58.356 137.57 58.4492 137.536 58.5522C137.502 58.6552 137.494 58.7648 137.511 58.8718L137.72 60.1083L136.617 59.5236C136.52 59.4712 136.412 59.4436 136.302 59.443C136.193 59.4426 136.087 59.4704 135.993 59.5236L134.884 60.1083L135.092 58.8718C135.11 58.7648 135.101 58.6552 135.067 58.5522C135.033 58.4492 134.975 58.356 134.897 58.2804L134.003 57.4068L135.24 57.2254C135.349 57.2103 135.452 57.1686 135.541 57.1042C135.63 57.0398 135.702 56.9545 135.751 56.8558L136.302 55.7336ZM136.302 54.2148L135.146 56.5601L132.559 56.9364L134.433 58.7576L133.99 61.3313L136.302 60.115L138.613 61.3313L138.17 58.7576L140.045 56.9364L137.457 56.5601L136.302 54.2148Z" fill="white"/>
<path opacity="0.2" d="M76.5072 65.8465C80.9646 65.8465 84.578 62.2331 84.578 57.7758C84.578 53.3185 80.9646 49.7051 76.5072 49.7051C72.0499 49.7051 68.4365 53.3185 68.4365 57.7758C68.4365 62.2331 72.0499 65.8465 76.5072 65.8465Z" fill="white"/>
<path d="M83.1738 57.7763C83.1756 59.2592 82.6823 60.7003 81.7722 61.8711C80.8622 63.0419 79.5874 63.8754 78.1499 64.2396C76.7124 64.6038 75.1945 64.4778 73.8367 63.8816C72.479 63.2853 71.359 62.253 70.6545 60.9481C70.122 59.976 69.8445 58.8847 69.8481 57.7763C69.8197 56.8835 69.9711 55.9941 70.2932 55.161C70.6152 54.3278 71.1015 53.5679 71.723 52.9264C72.3445 52.2848 73.0886 51.7747 73.9111 51.4263C74.7336 51.078 75.6177 50.8984 76.511 50.8984C77.4042 50.8984 78.2883 51.078 79.1108 51.4263C79.9333 51.7747 80.6774 52.2848 81.2989 52.9264C81.9205 53.5679 82.4067 54.3278 82.7288 55.161C83.0508 55.9941 83.2022 56.8835 83.1738 57.7763Z" fill="white"/>
<path d="M82.3673 60.9466C81.796 62.0019 80.9502 62.8832 79.9193 63.4974C78.8884 64.1116 77.7108 64.4358 76.5108 64.4358C75.3108 64.4358 74.1331 64.1116 73.1022 63.4974C72.0713 62.8832 71.2256 62.0019 70.6543 60.9466C72.3883 59.7894 74.4262 59.1719 76.5108 59.1719C78.5954 59.1719 80.6333 59.7894 82.3673 60.9466Z" fill="#F9B233"/>
<path d="M79.4776 55.4976C79.4776 56.085 79.3034 56.6593 78.977 57.1478C78.6506 57.6362 78.1868 58.0169 77.644 58.2417C77.1013 58.4666 76.5041 58.5254 75.9279 58.4108C75.3517 58.2962 74.8225 58.0133 74.4071 57.5979C73.9917 57.1825 73.7088 56.6532 73.5942 56.0771C73.4796 55.5009 73.5384 54.9037 73.7632 54.3609C73.988 53.8182 74.3687 53.3543 74.8572 53.0279C75.3456 52.7016 75.9199 52.5274 76.5073 52.5274C76.8977 52.5265 77.2843 52.6027 77.6451 52.7516C78.0058 52.9006 78.3336 53.1194 78.6096 53.3953C78.8856 53.6713 79.1043 53.9991 79.2533 54.3599C79.4023 54.7207 79.4785 55.1073 79.4776 55.4976Z" fill="#B55B52"/>
</svg>
