<svg width="25" height="25" viewBox="0 0 25 25" fill="none" xmlns="http://www.w3.org/2000/svg">
<path d="M12.0469 24.979C18.6743 24.979 24.0469 19.6064 24.0469 12.979C24.0469 6.35159 18.6743 0.979004 12.0469 0.979004C5.41946 0.979004 0.046875 6.35159 0.046875 12.979C0.046875 19.6064 5.41946 24.979 12.0469 24.979Z" fill="#438611"/>
<path d="M11.9266 10.8592C11.8866 10.4992 12.0866 10.1392 12.4466 10.2192C12.7266 10.2592 13.0466 10.5392 12.8866 10.8192C12.6466 11.2592 12.0066 11.2592 11.6066 11.4992C11.6466 11.7392 12.8066 11.4592 13.0066 11.4592C13.2066 11.4592 13.4066 11.5392 13.2866 11.7792C13.1666 12.0192 12.7666 12.0192 12.5266 12.0592C12.2866 12.0992 11.8866 12.0992 11.7666 12.2992C11.5266 12.6192 12.0066 12.6592 12.1666 12.7392C12.5666 12.9392 11.9266 13.1392 11.7666 13.0992C11.1666 12.9792 11.0466 12.6592 10.6866 12.2592C10.3266 12.7392 9.20656 13.8192 8.96656 12.6992C8.56656 12.8592 8.16656 13.0592 7.72656 13.0992C7.92656 12.8192 8.32656 12.6992 8.64656 12.5392C9.04656 12.3392 9.04656 11.9792 9.28656 11.6592C9.36656 11.7792 9.28656 11.9392 9.32656 12.0992C9.64656 11.9392 10.0466 11.6192 9.88656 11.2192C9.88656 11.1792 9.40656 10.2192 9.80656 10.3792C10.1666 10.5392 10.0466 10.8992 10.1266 11.1792C10.2466 11.6992 10.0066 11.9792 9.60656 12.2992C9.44656 12.4192 9.00656 12.8992 9.52656 12.8992C9.88656 12.8992 10.2066 12.4992 10.4066 12.2592C10.6466 11.9392 10.5666 11.6192 10.4066 11.2592C10.2866 10.9792 10.0066 10.3792 10.3666 10.1792C10.6466 10.6192 10.7666 11.1392 10.8866 11.6592C10.9666 12.0992 11.0466 12.5392 11.5266 12.6592C11.4866 12.3392 11.6866 12.0992 11.9666 11.9792C11.7666 11.8192 10.6466 12.0192 11.0866 11.4192C11.1266 11.1392 11.9266 11.0192 11.9266 10.8592Z" fill="white"/>
<path d="M5.80653 12.3385C6.00653 12.8985 6.68653 12.6985 7.08653 12.5385C7.72653 12.2185 7.72653 11.7385 7.72653 11.0985C7.48653 11.2185 7.52653 11.6585 7.44653 11.8585C7.28653 12.1785 6.76653 12.4585 6.40653 12.4185C5.88653 12.3385 5.64653 11.4585 6.04653 11.1385C6.12653 11.4185 5.92653 12.0185 6.40653 12.0585C6.76653 12.0985 7.48653 11.6585 7.36653 11.2585C6.88653 11.4185 6.60653 11.2585 6.76653 10.7385C6.88653 10.2585 7.36653 10.6185 7.56653 10.8585C8.32653 10.4185 6.96653 8.73846 7.76653 8.29846C7.92653 8.57846 8.16653 8.93847 7.96653 9.21847C7.72653 9.53847 7.96653 10.2185 8.00653 10.5785C8.40653 10.2185 8.08653 10.8585 8.40653 10.8985C8.60653 10.9385 8.68653 10.4185 8.80653 10.4185C8.84653 10.5385 8.84653 10.8985 9.04653 10.8585C9.28653 10.7785 9.00653 10.4585 9.24653 10.3785C9.32653 10.5785 9.28653 11.1785 9.00653 11.1385C8.76653 11.0985 8.80653 10.9385 8.52653 11.0985C8.28653 11.2185 8.20653 11.0985 8.04653 10.9785C8.00653 11.4585 8.16653 11.9785 7.88653 12.4185C7.64653 12.7785 7.16653 12.9785 6.76653 13.0585C5.72653 13.2585 5.44653 12.2185 5.80653 11.3785C5.88653 11.6185 5.72653 12.0585 5.80653 12.3385ZM15.5665 12.5385C15.7665 13.0585 16.1665 11.9785 16.2865 11.8185C16.6065 11.3385 17.0865 12.5785 17.2865 11.7785C17.4065 11.2585 17.2465 10.7385 17.2065 10.2185C17.1665 9.85847 17.0465 9.53847 16.8065 9.25847C16.5665 8.93847 16.3265 8.65847 16.4465 8.25847C16.8465 8.41847 16.8465 8.73847 17.0465 9.05847C17.0865 8.81847 16.9265 8.49846 17.0865 8.29846C17.2865 8.01846 17.4465 8.77847 17.4465 8.85847C17.4865 9.05847 17.2865 9.13847 17.4065 9.45847C17.4865 9.69847 17.6465 9.93846 17.8065 10.1385C17.7665 9.89846 17.4065 8.25847 17.8065 8.25847C17.9265 8.25847 18.0465 8.73847 18.0465 8.81846C18.1265 9.05847 17.9665 9.25846 17.9665 9.53846C17.9265 10.0185 18.0065 10.5785 18.3265 10.9385C18.4865 11.1385 19.0865 11.8585 18.7665 12.0985C18.5265 11.8185 18.3665 11.4985 18.1665 11.2185C18.1665 11.5385 18.2465 11.8985 18.0865 12.1385C17.9265 12.0585 18.0065 11.5385 18.0065 11.4185C18.0065 10.9785 17.7265 10.6185 17.4865 10.2585C17.4065 10.8585 17.8865 11.9785 17.3265 12.4185C16.9665 12.7385 16.4865 12.0185 16.3665 12.2985C16.2465 12.4985 15.9665 13.2185 15.6465 13.1385C15.2465 13.0585 14.9665 11.9385 15.4065 11.8185C15.4465 12.0185 15.4465 12.2985 15.5665 12.5385Z" fill="white"/>
<path d="M7.00663 9.81878C7.28663 9.85878 7.00663 8.89878 7.00663 8.73878C7.04663 8.57878 7.16663 8.49878 7.24663 8.65878C7.36663 8.89878 7.36663 9.17878 7.40663 9.41878C7.40663 9.61878 7.44663 9.85878 7.28663 10.0188C7.04663 10.2588 6.72663 10.1388 6.60663 9.81878C6.04663 10.2988 6.76663 11.1388 6.28663 11.6188C6.20663 11.1788 6.28663 10.6988 6.12663 10.2988C6.04663 10.0988 5.68663 10.1788 5.64663 9.81878C5.64663 9.65878 5.76663 9.21878 5.60663 9.09878C5.52663 9.25878 5.44663 10.4988 5.04663 10.1388C4.72663 9.89878 4.80663 9.09878 4.92663 8.77878C5.16663 8.89878 4.88663 9.77878 5.20663 9.81878C5.36663 9.85878 5.40663 9.17878 5.44663 9.05878C5.56663 8.85878 5.96663 8.29878 5.88663 8.85878C5.84663 9.09878 5.64663 9.85878 6.12663 9.81878C6.08663 9.41878 6.04663 9.01878 5.96663 8.61878C5.92663 8.41878 6.04663 8.01878 6.20663 8.37878C6.32663 8.61878 6.24663 8.73878 6.20663 8.97878C6.16663 9.25878 6.28663 9.53878 6.32663 9.77878C6.56663 9.57878 6.24663 8.81878 6.44663 8.49878C6.92663 8.77878 6.40663 9.73878 7.00663 9.81878ZM12.1666 9.89878C11.9666 10.1788 11.6066 9.93878 11.4466 9.73878C11.2466 9.97878 10.8466 10.3788 10.5266 10.0588C10.2866 9.81878 10.5666 9.37878 10.3666 9.17878C10.2466 9.37878 10.0466 10.3388 9.68663 9.89878C9.48663 9.65878 9.20663 8.81878 9.64663 8.61878C9.60663 8.93878 9.52663 9.29878 9.72663 9.57878C9.92663 9.85878 10.1266 9.13878 10.2066 8.97878C10.3266 8.69878 10.7266 8.21878 10.6466 8.81878C10.6066 9.05878 10.5266 9.61878 10.7666 9.77878C10.9266 9.89878 11.1266 9.69878 11.2066 9.57878C11.3666 9.37878 11.2866 9.05878 11.2466 8.81878C11.2066 8.61878 11.1266 8.37878 11.2466 8.17878C11.4066 7.93878 11.5266 8.49878 11.5266 8.61878C11.5266 8.73878 11.6866 9.97878 11.9666 9.57878C12.2466 9.21878 11.4866 8.41878 12.0066 8.21878C12.2066 8.13878 12.5666 8.93878 12.1666 8.69878C12.2866 9.05878 12.4466 9.57878 12.1666 9.89878ZM13.6866 10.3788C13.7266 10.8988 14.1666 12.3388 13.5666 12.6588C13.4866 12.4988 13.5666 12.2588 13.6066 12.0588C13.6466 11.6988 13.5666 11.3388 13.5266 11.0188C13.4466 10.2588 13.3666 9.69878 12.8466 9.09878C12.7266 8.93878 12.5266 8.81878 12.4866 8.57878C12.4866 8.49878 12.4466 8.13878 12.6066 8.21878C12.7266 8.25878 13.4066 8.85878 13.0466 8.85878C13.0866 8.93878 13.2466 9.25878 13.3266 9.25878C13.3266 9.05878 13.0866 8.45878 13.3266 8.33878C13.5266 8.21878 13.7666 8.97878 13.6866 9.13878C13.6066 9.33878 13.6066 9.45878 13.6866 9.73878C13.7666 10.0588 13.9666 10.3388 14.1266 10.6188C14.3666 11.0188 14.8466 11.5788 14.7266 12.0988C14.4866 11.9788 14.3266 11.4188 14.2066 11.1788C14.1266 10.9788 14.0466 10.7788 13.9266 10.6188C13.8866 10.5788 13.6466 10.2588 13.6866 10.4588V10.3788ZM19.2466 11.1388C19.2866 11.9788 19.0066 13.0588 17.9666 13.0588C17.9666 12.8188 18.4866 12.5788 18.6466 12.4588C19.0466 12.1388 19.0066 11.5388 18.9666 11.0988C18.9266 10.4988 18.8866 9.89878 18.7666 9.29878C18.7266 8.93878 18.5266 8.41878 18.8466 8.17878C19.0466 8.33878 19.3266 8.77878 19.2066 8.93878C19.0066 9.17878 19.2066 10.9788 19.2466 11.1388Z" fill="white"/>
<path d="M14.1268 12.9384C15.1668 12.3384 14.8468 11.0584 14.7668 10.0584C14.7268 9.77843 14.7268 9.49843 14.6868 9.21843C14.6868 9.01843 14.5268 8.73843 14.6068 8.53843C14.8068 8.01843 14.9668 8.49843 15.0068 8.81843C15.0468 9.01843 14.8868 9.05843 14.9268 9.21843C14.9668 9.53843 14.9668 9.85843 15.0068 10.1784C15.0468 10.6984 15.1268 11.2184 15.0868 11.6984C15.0068 12.4584 14.6068 13.2984 13.6868 13.1384C13.7268 13.0584 14.0068 13.0184 14.1268 12.9384ZM15.8068 10.9384C15.8468 11.3384 16.0068 12.0584 15.8068 12.4184C15.6468 12.6584 15.6468 12.2584 15.6068 12.2184C15.5668 11.8984 15.5668 11.5784 15.5668 11.2184C15.4868 10.3384 15.2068 9.45843 15.2068 8.61843C15.2068 7.53843 16.1268 9.21843 15.6068 9.13843C15.6468 9.73843 15.7268 10.3384 15.8068 10.9384ZM9.2868 8.89842C9.3668 9.09842 8.3668 9.61843 8.2468 9.61843C8.2068 9.41843 8.6868 9.13843 8.8068 9.05843C8.9268 8.93843 9.0068 8.93843 8.9668 8.77843C8.8868 8.61843 8.9268 8.33843 9.1268 8.25843C9.5268 8.13843 9.2468 8.73842 9.2868 8.89842ZM5.1668 12.4584C5.1668 12.7784 5.2868 12.6184 5.4468 12.5384C5.5268 12.6984 5.3268 13.1384 5.1268 12.9384C4.8468 12.6584 5.0868 12.0184 5.2068 11.7384C5.2868 11.9384 5.1268 12.2584 5.1668 12.4584ZM16.4468 9.97843C16.4868 9.81843 16.3668 9.65842 16.4868 9.49842C16.6468 9.29842 16.8068 9.53843 16.7268 9.61843C16.6468 9.69843 16.5268 9.53843 16.5268 9.77843C16.5268 9.89843 16.6068 10.1384 16.4868 10.2584C16.4068 10.2184 16.0468 9.69843 16.0868 9.61843C16.2468 9.45843 16.4068 9.93843 16.4468 9.97843ZM6.0068 10.6584C5.9268 10.8184 5.0068 11.3384 4.9668 11.2184C4.9668 11.0984 6.1268 10.4184 6.0068 10.6584ZM12.8068 12.6984C12.6868 13.0584 13.2068 12.7384 13.3268 12.6984C13.1668 12.9784 12.6068 13.2184 12.6868 12.6984C12.6468 12.6984 12.5668 12.7384 12.5268 12.7384C12.4468 12.6584 12.9268 12.3384 12.8068 12.6984ZM17.1668 12.5784C17.2868 12.5784 17.4868 12.9384 17.3668 13.0184C17.2868 13.0984 16.9268 13.1384 17.1268 12.9784C17.3668 12.7384 17.1668 12.5784 17.1668 12.5784ZM11.5268 10.5384C11.5668 10.4584 11.5668 10.3384 11.6068 10.2584C12.0068 10.5784 10.9668 11.0984 11.1668 10.3384C11.2468 10.4184 11.2468 10.5384 11.3268 10.5784C11.3268 10.4984 11.3668 10.3784 11.3668 10.2984C11.4468 10.3784 11.4468 10.4984 11.5268 10.5384ZM16.2068 11.0584C16.0868 10.8984 16.8068 10.4584 16.9268 10.3784C17.0068 10.4984 16.4468 10.9384 16.2068 11.0584ZM18.4468 9.45843C18.3668 9.21843 18.1268 8.73843 18.3668 8.53843C18.5268 8.65843 18.6068 9.25843 18.4468 9.45843ZM14.0868 8.65843C14.0468 8.57843 13.9268 8.49843 13.9268 8.37843C13.9668 8.21843 14.0468 8.25843 14.1268 8.33843C14.2468 8.49843 14.3268 8.93843 14.1268 9.05843C14.1268 8.93843 14.1668 8.77843 14.0868 8.65843ZM9.2068 9.73843C9.2068 9.97843 8.8068 10.2184 8.7668 9.89842C8.7268 9.77842 8.9268 9.33843 9.0068 9.45843C8.8468 9.81843 8.8468 9.93843 9.2068 9.73843Z" fill="white"/>
<path d="M14.2066 9.29923C14.3666 9.69923 14.2866 9.33923 14.4466 9.25923C14.7266 9.77923 13.8466 9.65923 14.0466 9.33923C14.0866 9.37923 14.1266 9.45923 14.1266 9.49923C14.1666 9.45923 14.1666 9.37923 14.2066 9.29923ZM16.7666 11.1392C16.5666 10.9792 16.8066 10.7792 16.9266 10.9792C17.0066 11.0992 17.0066 11.4192 16.8466 11.4992C16.8466 11.3792 16.8866 11.2192 16.7666 11.1392ZM8.56655 12.0192C8.56655 11.9392 8.52656 11.3392 8.64655 11.4192C8.80656 11.4992 8.76655 11.9392 8.56655 12.0192ZM6.88656 8.25923C6.92656 8.37923 6.96655 8.53923 7.04655 8.33923C7.36655 8.69923 6.24655 8.57923 6.64655 8.21923C6.64655 8.25923 6.72656 8.49923 6.88656 8.25923ZM10.9666 9.13923C10.9666 8.97923 10.7266 8.29923 10.9266 8.29923C11.1666 8.33923 11.1266 8.93923 10.9666 9.13923ZM5.36655 8.77923C5.24655 8.73923 5.44656 8.53923 5.36655 8.37923C5.28655 8.41923 5.20656 8.29923 5.28656 8.21923C5.60656 7.97923 5.48656 8.77923 5.36655 8.77923ZM15.7266 16.8992L15.5666 16.4192L15.4066 16.8992H6.64655C6.64655 16.8992 6.72655 17.6192 7.60655 17.6192H15.3666V18.1792H17.4866V16.8992H15.7266ZM17.0866 17.8592H15.6466V17.4592H17.0866V17.8592Z" fill="white"/>
</svg>
