<svg width="40" height="38" viewBox="0 0 40 38" fill="none" xmlns="http://www.w3.org/2000/svg">
<rect x="1.40271" y="1" width="37.1212" height="36" rx="6.5" fill="#F2F2F2" stroke="#B3B3B3"/>
<path d="M27.7591 22.3743C27.6586 22.0945 27.465 21.9433 27.2454 21.8223C27.2045 21.7996 27.1673 21.7769 27.1338 21.7618C27.0668 21.7278 26.9998 21.6938 26.9328 21.6597C26.2479 21.2892 25.712 20.8279 25.3435 20.2759C25.2393 20.1209 25.1462 19.9545 25.0718 19.7843C25.0383 19.6936 25.042 19.6407 25.0643 19.5915C25.0867 19.5537 25.1164 19.5235 25.1537 19.497C25.2728 19.4176 25.3919 19.3382 25.4738 19.2853C25.6189 19.187 25.738 19.1113 25.8125 19.0584C26.0916 18.858 26.2889 18.6463 26.4117 18.4081C26.5866 18.0753 26.609 17.6859 26.475 17.3343C26.2889 16.8352 25.8274 16.5289 25.2653 16.5289C25.1462 16.5289 25.0308 16.5403 24.9117 16.5667C24.882 16.5743 24.8485 16.5818 24.8187 16.5894C24.8224 16.2491 24.815 15.8899 24.7852 15.5345C24.681 14.2906 24.2492 13.6402 23.8026 13.1222C23.516 12.7971 23.181 12.521 22.8051 12.3055C22.1276 11.9123 21.3572 11.7119 20.5197 11.7119C19.6823 11.7119 18.9155 11.9123 18.2381 12.3055C17.8622 12.521 17.5272 12.7971 17.2406 13.1222C16.794 13.6402 16.3659 14.2943 16.258 15.5345C16.2282 15.8899 16.2208 16.2491 16.2245 16.5894C16.1947 16.5818 16.1649 16.5743 16.1315 16.5667C16.0161 16.5403 15.897 16.5289 15.7816 16.5289C15.2196 16.5289 14.758 16.839 14.5719 17.3343C14.4379 17.6859 14.4603 18.0753 14.6352 18.4081C14.758 18.6463 14.9553 18.858 15.2344 19.0584C15.3089 19.1113 15.4243 19.187 15.5731 19.2853C15.6513 19.3382 15.7667 19.4138 15.8821 19.4894C15.923 19.5159 15.9565 19.5499 15.9826 19.5915C16.0049 19.6407 16.0086 19.6936 15.9714 19.7919C15.897 19.9583 15.8076 20.1209 15.7034 20.2721C15.3424 20.809 14.8213 21.2665 14.1588 21.6333C13.8089 21.8223 13.4441 21.9471 13.2878 22.3743C13.1724 22.6957 13.2469 23.0587 13.5409 23.3687C13.6489 23.4822 13.7754 23.5805 13.9131 23.6561C14.1997 23.8149 14.5049 23.9397 14.825 24.0266C14.892 24.0455 14.9516 24.072 15.0074 24.1098C15.1153 24.2043 15.1004 24.348 15.2419 24.5598C15.3126 24.6694 15.4057 24.7639 15.5099 24.8395C15.8114 25.0513 16.1501 25.0626 16.5074 25.0778C16.8312 25.0891 17.196 25.1042 17.6165 25.2441C17.7915 25.3008 17.9701 25.4143 18.1786 25.5466C18.681 25.8604 19.3659 26.2877 20.516 26.2877C21.6661 26.2877 22.3547 25.8566 22.8609 25.5428C23.0693 25.4143 23.248 25.3008 23.4155 25.2441C23.8323 25.1042 24.2008 25.0891 24.5246 25.0778C24.882 25.0626 25.2207 25.0513 25.5221 24.8395C25.6487 24.7488 25.7529 24.6354 25.8274 24.4993C25.9316 24.3216 25.9278 24.1968 26.0246 24.1098C26.0767 24.072 26.1363 24.0455 26.1958 24.0304C26.5159 23.9435 26.8286 23.8187 27.1189 23.6561C27.2641 23.5767 27.3981 23.4708 27.5097 23.3461L27.5134 23.3423C27.8038 23.0398 27.8745 22.6844 27.7591 22.3743ZM26.7392 22.9301C26.1177 23.278 25.7008 23.2402 25.3807 23.4519C25.1053 23.6296 25.269 24.0153 25.0718 24.1552C24.8261 24.3253 24.104 24.1438 23.1735 24.4577C22.4031 24.7148 21.9155 25.4596 20.5309 25.4596C19.1463 25.4596 18.6699 24.7186 17.8883 24.4577C16.9577 24.1438 16.2357 24.3291 15.99 24.1552C15.7927 24.0153 15.9528 23.6296 15.6811 23.4519C15.3573 23.2402 14.9441 23.278 14.3225 22.9301C13.9243 22.7071 14.1513 22.5709 14.2816 22.5067C16.5372 21.3988 16.8982 19.686 16.9131 19.5575C16.9317 19.4025 16.954 19.2815 16.7865 19.1265C16.6265 18.9752 15.9119 18.5253 15.7109 18.3854C15.3833 18.151 15.2382 17.9203 15.3461 17.633C15.4205 17.4363 15.6029 17.3607 15.7927 17.3607C15.8523 17.3607 15.9119 17.3683 15.9714 17.3796C16.3324 17.459 16.6823 17.6405 16.8833 17.6935C16.9094 17.701 16.9317 17.7048 16.9577 17.7048C17.0657 17.7048 17.1029 17.6481 17.0955 17.5233C17.0731 17.1225 17.0173 16.3436 17.0806 15.6139C17.1662 14.6119 17.4825 14.1128 17.8622 13.6743C18.0446 13.4625 18.8969 12.5475 20.5309 12.5475C22.1649 12.5475 23.0172 13.4587 23.1996 13.6705C23.5792 14.1091 23.8956 14.6082 23.9812 15.6101C24.0445 16.3399 23.9887 17.1187 23.9626 17.5195C23.9552 17.6519 23.9924 17.701 24.1003 17.701C24.1264 17.701 24.1487 17.6972 24.1748 17.6897C24.3758 17.6405 24.7256 17.4553 25.0867 17.3759C25.1462 17.3607 25.2058 17.3569 25.2653 17.3569C25.4551 17.3569 25.6375 17.4326 25.712 17.6292C25.8199 17.9165 25.6747 18.1472 25.3472 18.3816C25.1499 18.5215 24.4353 18.9714 24.2715 19.1227C24.104 19.2777 24.1264 19.3987 24.145 19.5537C24.1599 19.6823 24.5209 21.3951 26.7765 22.5029C26.9105 22.5672 27.1338 22.7071 26.7392 22.9301Z" fill="#676767"/>
<path d="M24.1678 14.1878L23.0747 13.4474L21.6171 12.3369H19.4307L17.2444 13.4474L16.5156 16.7789L15.4224 17.1491L15.058 17.5193V18.2596L16.1512 18.9999L16.5156 19.7403L13.6004 22.7016L15.4224 24.1823L20.8883 26.0331L25.261 24.5524L26.7186 23.4419L27.4474 22.7016L24.8966 20.4806V19.3701L25.9898 18.6298V17.8894L25.6254 17.1491H24.5322V16.4088L24.1678 14.1878Z" fill="#676767"/>
</svg>
