<svg width="39" height="37" viewBox="0 0 39 37" fill="none" xmlns="http://www.w3.org/2000/svg">
<rect x="0.863525" y="0.5" width="37.1212" height="36" rx="6.5" fill="#F2F2F2" stroke="#F2F2F2"/>
<path d="M27.2198 21.8746C27.1193 21.5948 26.9258 21.4435 26.7062 21.3226C26.6653 21.2999 26.628 21.2772 26.5945 21.2621C26.5275 21.228 26.4605 21.194 26.3935 21.16C25.7087 20.7894 25.1727 20.3281 24.8042 19.7761C24.7 19.6211 24.607 19.4547 24.5325 19.2846C24.499 19.1939 24.5028 19.1409 24.5251 19.0918C24.5474 19.054 24.5772 19.0237 24.6144 18.9972C24.7335 18.9178 24.8526 18.8384 24.9345 18.7855C25.0797 18.6872 25.1988 18.6116 25.2732 18.5586C25.5524 18.3582 25.7496 18.1465 25.8725 17.9083C26.0474 17.5756 26.0697 17.1861 25.9357 16.8345C25.7496 16.3354 25.2881 16.0292 24.7261 16.0292C24.607 16.0292 24.4916 16.0405 24.3725 16.067C24.3427 16.0745 24.3092 16.0821 24.2794 16.0896C24.2832 15.7494 24.2757 15.3902 24.2459 15.0347C24.1417 13.7908 23.71 13.1405 23.2633 12.6225C22.9767 12.2973 22.6417 12.0213 22.2658 11.8058C21.5884 11.4126 20.8179 11.2122 19.9805 11.2122C19.143 11.2122 18.3763 11.4126 17.6989 11.8058C17.323 12.0213 16.988 12.2973 16.7014 12.6225C16.2547 13.1405 15.8267 13.7946 15.7188 15.0347C15.689 15.3902 15.6815 15.7494 15.6853 16.0896C15.6555 16.0821 15.6257 16.0745 15.5922 16.067C15.4768 16.0405 15.3577 16.0292 15.2423 16.0292C14.6803 16.0292 14.2188 16.3392 14.0327 16.8345C13.8987 17.1861 13.921 17.5756 14.0959 17.9083C14.2188 18.1465 14.416 18.3582 14.6952 18.5586C14.7696 18.6116 14.885 18.6872 15.0339 18.7855C15.1121 18.8384 15.2274 18.9141 15.3428 18.9897C15.3838 19.0161 15.4173 19.0502 15.4433 19.0918C15.4657 19.1409 15.4694 19.1939 15.4322 19.2922C15.3577 19.4585 15.2684 19.6211 15.1642 19.7723C14.8031 20.3092 14.282 20.7667 13.6195 21.1335C13.2697 21.3226 12.9049 21.4473 12.7486 21.8746C12.6332 22.196 12.7076 22.5589 13.0017 22.869C13.1096 22.9824 13.2362 23.0807 13.3739 23.1563C13.6605 23.3151 13.9657 23.4399 14.2858 23.5269C14.3528 23.5458 14.4123 23.5723 14.4682 23.6101C14.5761 23.7046 14.5612 23.8483 14.7026 24.06C14.7734 24.1696 14.8664 24.2642 14.9706 24.3398C15.2721 24.5515 15.6108 24.5629 15.9681 24.578C16.2919 24.5893 16.6567 24.6045 17.0773 24.7444C17.2522 24.8011 17.4309 24.9145 17.6393 25.0468C18.1418 25.3607 18.8267 25.7879 19.9768 25.7879C21.1269 25.7879 21.8154 25.3569 22.3216 25.0431C22.5301 24.9145 22.7087 24.8011 22.8762 24.7444C23.2931 24.6045 23.6616 24.5893 23.9854 24.578C24.3427 24.5629 24.6814 24.5515 24.9829 24.3398C25.1094 24.249 25.2137 24.1356 25.2881 23.9995C25.3923 23.8218 25.3886 23.697 25.4854 23.6101C25.5375 23.5723 25.597 23.5458 25.6566 23.5307C25.9767 23.4437 26.2893 23.3189 26.5797 23.1563C26.7248 23.0769 26.8588 22.9711 26.9705 22.8463L26.9742 22.8425C27.2645 22.54 27.3352 22.1846 27.2198 21.8746ZM26.2 22.4304C25.5784 22.7782 25.1616 22.7404 24.8415 22.9522C24.566 23.1299 24.7298 23.5155 24.5325 23.6554C24.2869 23.8256 23.5648 23.6441 22.6343 23.9579C21.8638 24.215 21.3762 24.9599 19.9917 24.9599C18.6071 24.9599 18.1306 24.2188 17.349 23.9579C16.4185 23.6441 15.6964 23.8294 15.4508 23.6554C15.2535 23.5155 15.4135 23.1299 15.1418 22.9522C14.818 22.7404 14.4049 22.7782 13.7833 22.4304C13.385 22.2073 13.6121 22.0712 13.7424 22.0069C15.9979 20.8991 16.3589 19.1863 16.3738 19.0577C16.3924 18.9027 16.4148 18.7817 16.2473 18.6267C16.0872 18.4755 15.3726 18.0255 15.1716 17.8856C14.8441 17.6512 14.6989 17.4206 14.8069 17.1332C14.8813 16.9366 15.0637 16.861 15.2535 16.861C15.3131 16.861 15.3726 16.8685 15.4322 16.8799C15.7932 16.9593 16.1431 17.1408 16.3441 17.1937C16.3701 17.2013 16.3924 17.205 16.4185 17.205C16.5264 17.205 16.5637 17.1483 16.5562 17.0236C16.5339 16.6228 16.478 15.8439 16.5413 15.1142C16.6269 14.1122 16.9433 13.6131 17.323 13.1745C17.5053 12.9628 18.3577 12.0478 19.9917 12.0478C21.6256 12.0478 22.478 12.959 22.6603 13.1707C23.04 13.6093 23.3564 14.1084 23.442 15.1104C23.5053 15.8401 23.4494 16.619 23.4234 17.0198C23.4159 17.1521 23.4531 17.2013 23.5611 17.2013C23.5871 17.2013 23.6095 17.1975 23.6355 17.1899C23.8365 17.1408 24.1864 16.9555 24.5474 16.8761C24.607 16.861 24.6665 16.8572 24.7261 16.8572C24.9159 16.8572 25.0983 16.9328 25.1727 17.1294C25.2807 17.4168 25.1355 17.6474 24.808 17.8818C24.6107 18.0217 23.8961 18.4717 23.7323 18.6229C23.5648 18.7779 23.5871 18.8989 23.6057 19.054C23.6206 19.1825 23.9817 20.8953 26.2372 22.0031C26.3712 22.0674 26.5945 22.2073 26.2 22.4304Z" fill="#676767"/>
<path d="M23.6286 13.688L22.5354 12.9477L21.0778 11.8372H18.8915L16.7051 12.9477L15.9763 16.2792L14.8831 16.6493L14.5187 17.0195V17.7598L15.6119 18.5002L15.9763 19.2405L13.0612 22.2018L14.8831 23.6825L20.3491 25.5333L24.7218 24.0527L26.1794 22.9422L26.9081 22.2018L24.3574 19.9808V18.8703L25.4506 18.13V17.3897L25.0862 16.6493H23.993V15.909L23.6286 13.688Z" fill="#676767"/>
</svg>
