<svg width="41" height="46" viewBox="0 0 41 46" fill="none" xmlns="http://www.w3.org/2000/svg">
<path d="M27.1297 5.32444H13.8769C13.5796 5.33615 13.283 5.28771 13.0048 5.18201C12.7267 5.07631 12.4728 4.91554 12.2583 4.70933C12.0438 4.50312 11.8732 4.25573 11.7566 3.98197C11.64 3.70821 11.5799 3.41374 11.5799 3.1162C11.5799 2.81866 11.64 2.52419 11.7566 2.25043C11.8732 1.97667 12.0438 1.72928 12.2583 1.52307C12.4728 1.31686 12.7267 1.15609 13.0048 1.05039C13.283 0.944694 13.5796 0.89625 13.8769 0.907963H27.1297C27.4271 0.89625 27.7237 0.944694 28.0018 1.05039C28.2799 1.15609 28.5339 1.31686 28.7483 1.52307C28.9628 1.72928 29.1335 1.97667 29.25 2.25043C29.3666 2.52419 29.4267 2.81866 29.4267 3.1162C29.4267 3.41374 29.3666 3.70821 29.25 3.98197C29.1335 4.25573 28.9628 4.50312 28.7483 4.70933C28.5339 4.91554 28.2799 5.07631 28.0018 5.18201C27.7237 5.28771 27.4271 5.33615 27.1297 5.32444ZM27.1297 45.0693H13.8769C11.536 45.0693 9.29089 44.1401 7.63469 42.4858C5.97848 40.8315 5.04667 38.5875 5.04395 36.2466V9.74091H35.9661V36.2432C35.9666 37.4037 35.7383 38.553 35.2944 39.6252C34.8505 40.6975 34.1996 41.6718 33.379 42.4925C32.5584 43.3131 31.5841 43.9639 30.5118 44.4078C29.4395 44.8518 28.2903 45.08 27.1297 45.0796V45.0693Z" fill="#E63946"/>
<path d="M38.1764 14.1565H2.83779C2.26719 14.134 1.72743 13.8915 1.33166 13.4798C0.935895 13.0682 0.714844 12.5193 0.714844 11.9482C0.714844 11.3772 0.935895 10.8283 1.33166 10.4166C1.72743 10.005 2.26719 9.76248 2.83779 9.73999H38.1764C38.4738 9.72828 38.7704 9.77672 39.0485 9.88242C39.3266 9.98812 39.5806 10.1489 39.7951 10.3551C40.0095 10.5613 40.1802 10.8087 40.2967 11.0825C40.4133 11.3562 40.4734 11.6507 40.4734 11.9482C40.4734 12.2458 40.4133 12.5402 40.2967 12.814C40.1802 13.0878 40.0095 13.3352 39.7951 13.5414C39.5806 13.7476 39.3266 13.9083 39.0485 14.014C38.7704 14.1197 38.4738 14.1682 38.1764 14.1565Z" fill="#C9273A"/>
<path d="M16.0908 36.2464C15.5047 36.2464 14.9426 36.0136 14.5281 35.5991C14.1137 35.1847 13.8809 34.6226 13.8809 34.0364V20.787C13.9033 20.2164 14.1458 19.6766 14.5575 19.2809C14.9692 18.8851 15.518 18.6641 16.0891 18.6641C16.6601 18.6641 17.209 18.8851 17.6207 19.2809C18.0324 19.6766 18.2749 20.2164 18.2973 20.787V34.0399C18.2964 34.6248 18.0637 35.1855 17.6501 35.5991C17.2364 36.0127 16.6757 36.2455 16.0908 36.2464ZM24.9238 36.2464C24.3376 36.2464 23.7755 36.0136 23.3611 35.5991C22.9466 35.1847 22.7138 34.6226 22.7138 34.0364V20.787C22.7363 20.2164 22.9788 19.6766 23.3904 19.2809C23.8021 18.8851 24.351 18.6641 24.922 18.6641C25.4931 18.6641 26.042 18.8851 26.4536 19.2809C26.8653 19.6766 27.1078 20.2164 27.1303 20.787V34.0399C27.1294 34.6248 26.8966 35.1855 26.483 35.5991C26.0694 36.0127 25.5087 36.2455 24.9238 36.2464Z" fill="#EDEBEA"/>
</svg>
