<svg width="39" height="37" viewBox="0 0 39 37" fill="none" xmlns="http://www.w3.org/2000/svg">
<rect x="0.742432" y="0.5" width="37.1212" height="36" rx="6.5" fill="#F2F2F2" stroke="#F2F2F2"/>
<path d="M21.9428 12.3364V12.3334H22.6789L22.9478 12.3901C23.1271 12.427 23.2899 12.4752 23.4361 12.535C23.5824 12.5947 23.7239 12.6644 23.8607 12.744C23.9976 12.8237 24.1217 12.9048 24.233 12.9874C24.3434 13.0691 24.4425 13.1557 24.5302 13.2473C24.617 13.3398 24.7524 13.3637 24.9364 13.3189C25.1205 13.2741 25.3186 13.2119 25.5309 13.1323C25.7432 13.0526 25.9532 12.963 26.1608 12.8635C26.3684 12.7639 26.4948 12.7007 26.5401 12.6738C26.5844 12.646 26.6081 12.631 26.6109 12.629L26.6137 12.6246L26.6278 12.6171L26.642 12.6096L26.6562 12.6022L26.6703 12.5947L26.6731 12.5902L26.6774 12.5872L26.6817 12.5843L26.6845 12.5798L26.6986 12.5753L26.7128 12.5723L26.7099 12.5947L26.7057 12.6171L26.6986 12.6395L26.6916 12.6619L26.6845 12.6768L26.6774 12.6918L26.6703 12.7142C26.6656 12.7291 26.6609 12.749 26.6562 12.7739C26.6515 12.7988 26.6066 12.8983 26.5217 13.0726C26.4368 13.2468 26.3306 13.4235 26.2032 13.6027C26.0758 13.7819 25.9617 13.9173 25.8607 14.0088C25.7588 14.1014 25.6913 14.1661 25.6583 14.203C25.6253 14.2408 25.5852 14.2756 25.538 14.3075L25.4672 14.3568L25.4531 14.3642L25.4389 14.3717L25.4361 14.3762L25.4318 14.3792L25.4276 14.3822L25.4247 14.3866L25.4106 14.3941L25.3965 14.4016L25.3937 14.4061L25.3893 14.409L25.3851 14.412L25.3823 14.4165L25.3795 14.421L25.3752 14.424L25.371 14.427L25.3681 14.4315H25.4389L25.8352 14.3419C26.0995 14.2821 26.3519 14.2099 26.5924 14.1253L26.9747 13.9909L27.0171 13.976L27.0383 13.9685L27.0525 13.9611L27.0666 13.9536L27.0808 13.9461L27.095 13.9387L27.1232 13.9342L27.1516 13.9312V13.9611L27.1445 13.964L27.1374 13.9685L27.1346 13.973L27.1303 13.976L27.1261 13.979L27.1232 13.9835L27.1204 13.9879L27.1162 13.9909L27.1119 13.9939L27.1091 13.9984L27.1063 14.0029L27.102 14.0059L27.095 14.0208L27.0878 14.0357L27.0836 14.0387C27.0817 14.0417 27.0218 14.1263 26.9039 14.2926C26.7859 14.4598 26.7222 14.5444 26.7128 14.5464C26.7033 14.5494 26.6901 14.5643 26.6731 14.5912C26.6571 14.6191 26.5571 14.7301 26.3731 14.9242C26.1891 15.1184 26.0089 15.2911 25.8324 15.4424C25.655 15.5947 25.5654 15.7819 25.5635 16.0039C25.5607 16.2249 25.5498 16.4748 25.5309 16.7535C25.512 17.0323 25.4767 17.3334 25.4247 17.6569C25.3729 17.9805 25.2926 18.3464 25.1841 18.7546C25.0756 19.1626 24.9435 19.5609 24.7878 19.9492C24.6321 20.3374 24.4693 20.6859 24.2995 20.9945C24.1297 21.3031 23.9739 21.5644 23.8324 21.7785C23.6908 21.9925 23.547 22.194 23.4007 22.3832C23.2545 22.5724 23.0695 22.7855 22.8459 23.0223C22.6213 23.2583 22.4987 23.3877 22.4779 23.4106C22.4562 23.4325 22.3637 23.5142 22.2004 23.6555C22.0381 23.7978 21.8636 23.9402 21.6767 24.0826C21.4908 24.2239 21.3201 24.3419 21.1643 24.4365C21.0086 24.5311 20.8209 24.6391 20.601 24.7605C20.3821 24.883 20.1452 24.9965 19.8905 25.101C19.6357 25.2055 19.3668 25.3026 19.0837 25.3922C18.8006 25.4818 18.5269 25.5515 18.2628 25.6012C17.9986 25.651 17.6989 25.6933 17.364 25.7282L16.8615 25.7804V25.7879H15.9415V25.7804L15.8211 25.773C15.741 25.768 15.6749 25.763 15.623 25.7581C15.5711 25.7531 15.3753 25.7257 15.0356 25.6759C14.6959 25.6261 14.4293 25.5763 14.2359 25.5266C14.0425 25.4768 13.7546 25.3823 13.3725 25.2428C12.9903 25.1035 12.6634 24.9627 12.3916 24.8203C12.1208 24.6789 11.9509 24.5893 11.882 24.5514C11.8141 24.5146 11.7377 24.4689 11.6527 24.4141L11.5254 24.332L11.5225 24.3275L11.5183 24.3245L11.514 24.3215L11.5112 24.317L11.4971 24.3096L11.4829 24.3021L11.4801 24.2976L11.4758 24.2946L11.4716 24.2916L11.4687 24.2871L11.4659 24.2827L11.4617 24.2797H11.4546V24.2498L11.4687 24.2528L11.4829 24.2573L11.5466 24.2648C11.5891 24.2697 11.7047 24.2772 11.8934 24.2871C12.0821 24.2972 12.2826 24.2972 12.4949 24.2871C12.7072 24.2772 12.9243 24.2548 13.146 24.22C13.3678 24.1851 13.6296 24.1254 13.9316 24.0408C14.2335 23.9562 14.511 23.8556 14.7638 23.7391C15.0158 23.6217 15.1951 23.534 15.3017 23.4763C15.4074 23.4196 15.5687 23.314 15.7858 23.1597L16.1113 22.9282L16.1141 22.9238L16.1184 22.9208L16.1226 22.9178L16.1255 22.9134L16.1283 22.9088L16.1325 22.9059L16.1368 22.9028L16.1396 22.8984L16.1538 22.8939L16.1679 22.8909L16.1708 22.876L16.175 22.8611L16.1793 22.8581L16.1821 22.8536L16.0688 22.8462C15.9934 22.8412 15.9202 22.8362 15.8495 22.8312C15.7787 22.8262 15.6678 22.8039 15.5168 22.764C15.3659 22.7242 15.2031 22.6644 15.0285 22.5848C14.854 22.5052 14.6841 22.4106 14.519 22.3011C14.3538 22.1916 14.2345 22.1004 14.1609 22.0278C14.0882 21.9561 13.9938 21.8546 13.8778 21.7232C13.7627 21.5908 13.6626 21.4549 13.5777 21.3155C13.4928 21.1761 13.4116 21.0153 13.3343 20.8332L13.2168 20.5614L13.2097 20.539L13.2026 20.5166L13.1984 20.5017L13.1955 20.4867L13.2168 20.4897L13.238 20.4942L13.3937 20.5166C13.4975 20.5316 13.6603 20.5365 13.882 20.5316C14.1038 20.5266 14.2571 20.5166 14.342 20.5017C14.427 20.4867 14.4789 20.4767 14.4977 20.4718L14.526 20.4644L14.5614 20.4569L14.5968 20.4494L14.5996 20.445L14.6039 20.4419L14.6082 20.439L14.611 20.4344L14.5827 20.427L14.5543 20.4196L14.526 20.4121L14.4977 20.4046L14.4694 20.3971C14.4506 20.3921 14.4175 20.3822 14.3703 20.3673C14.3232 20.3524 14.1958 20.2976 13.9882 20.203C13.7806 20.1084 13.6155 20.0163 13.4928 19.9268C13.3698 19.8369 13.2526 19.7386 13.1418 19.6325C13.0314 19.5251 12.9101 19.3867 12.778 19.2175C12.6459 19.0482 12.528 18.8516 12.4242 18.6276C12.3204 18.4036 12.2425 18.1895 12.1906 17.9855C12.1389 17.7825 12.1048 17.5752 12.0887 17.3658L12.0632 17.0522L12.0774 17.0552L12.0915 17.0596L12.1057 17.0671L12.1198 17.0746L12.134 17.082L12.1481 17.0895L12.3675 17.194C12.5138 17.2637 12.6954 17.3235 12.9125 17.3732C13.1295 17.423 13.2592 17.4504 13.3017 17.4554L13.3654 17.4628H13.4928L13.49 17.4584L13.4857 17.4554L13.4815 17.4524L13.4786 17.4479L13.4758 17.4434L13.4716 17.4405L13.4673 17.4374L13.4645 17.433L13.4503 17.4255L13.4362 17.418L13.4334 17.4136L13.4291 17.4105L13.4248 17.4076L13.422 17.4031L13.4079 17.3956L13.3937 17.3882L13.3909 17.3837C13.3881 17.3817 13.3475 17.3498 13.2692 17.2881C13.1918 17.2254 13.1106 17.1443 13.0257 17.0447C12.9408 16.9451 12.8559 16.8406 12.7709 16.7311C12.6858 16.6214 12.6101 16.5039 12.5445 16.3802C12.4784 16.2558 12.4086 16.0975 12.335 15.9053C12.2623 15.7142 12.2071 15.5215 12.1694 15.3274C12.1316 15.1333 12.1104 14.9417 12.1057 14.7525C12.101 14.5633 12.1057 14.4016 12.1198 14.2672C12.134 14.1328 12.1623 13.981 12.2048 13.8117C12.2472 13.6425 12.3086 13.4633 12.3888 13.2741L12.5091 12.9904L12.5162 12.968L12.5232 12.9456L12.5275 12.9426L12.5303 12.9382L12.5331 12.9337L12.5374 12.9307L12.5416 12.9337L12.5445 12.9382L12.5473 12.9426L12.5515 12.9456L12.5558 12.9486L12.5586 12.9531L12.5614 12.9576L12.5657 12.9606L12.5728 12.9755L12.5798 12.9904L12.5841 12.9934L12.5869 12.9979L12.778 13.2219C12.9054 13.3712 13.0564 13.538 13.2309 13.7221C13.4055 13.9063 13.5022 14.0019 13.5211 14.0088C13.54 14.0168 13.5636 14.0397 13.5919 14.0775C13.6202 14.1144 13.7145 14.2025 13.875 14.3419C14.0354 14.4812 14.2453 14.643 14.5048 14.8272C14.7643 15.0113 15.0521 15.193 15.3682 15.3722C15.6843 15.5514 16.024 15.7132 16.3873 15.8575C16.7506 16.0019 17.0054 16.0965 17.1516 16.1413C17.2979 16.1861 17.548 16.2433 17.9018 16.313C18.2557 16.3827 18.5222 16.4275 18.7015 16.4474C18.8808 16.4673 19.0035 16.4787 19.0695 16.4817L19.1686 16.4847L19.1658 16.4623L19.1616 16.4399L19.1332 16.2533C19.1143 16.1288 19.1049 15.9546 19.1049 15.7306C19.1049 15.5066 19.1215 15.3001 19.1544 15.1109C19.1875 14.9217 19.2371 14.7301 19.3031 14.536C19.3692 14.3419 19.4338 14.186 19.497 14.0686C19.5611 13.9521 19.6451 13.8192 19.7489 13.6699C19.8527 13.5205 19.9872 13.3662 20.1524 13.207C20.3175 13.0477 20.5062 12.9058 20.7185 12.7814C20.9308 12.6569 21.1266 12.5623 21.3059 12.4976C21.4852 12.4329 21.6362 12.3906 21.7588 12.3707C21.8815 12.3508 21.9428 12.3393 21.9428 12.3364Z" fill="#676767"/>
</svg>
