<svg width="28" height="28" viewBox="0 0 28 28" fill="none" xmlns="http://www.w3.org/2000/svg">
<g clip-path="url(#clip0_1319_9055)">
<path d="M13.9995 27.9989C21.7312 27.9989 27.9989 21.7313 27.9989 13.9999C27.9989 6.26852 21.7312 0.000976562 13.9995 0.000976562C6.26778 0.000976562 0 6.26852 0 13.9999C0 21.7313 6.26778 27.9989 13.9995 27.9989Z" fill="#F3F2F2"/>
<path d="M10.3665 16.6865L11.4376 10.3612H13.1719L12.1007 16.6865H10.3665ZM18.2734 10.5246C17.7747 10.3452 17.2483 10.2553 16.7184 10.2589C15.0042 10.2589 13.797 11.117 13.7865 12.3462C13.777 13.255 14.6489 13.7621 15.3067 14.0646C15.9815 14.3746 16.2092 14.5728 16.206 14.849C16.206 15.2706 15.6662 15.4667 15.1676 15.4667C14.6049 15.4831 14.0461 15.3694 13.5345 15.1346L13.311 15.0292L13.0675 16.445C13.6863 16.672 14.3408 16.7863 14.9999 16.7824C16.8228 16.7824 18.0067 15.939 18.0204 14.6212C18.0267 13.9023 17.5649 13.3562 16.5645 12.9029C15.9583 12.6108 15.5872 12.4158 15.5903 12.1185C15.5903 11.856 15.9066 11.5746 16.5834 11.5746C17.0285 11.5646 17.4708 11.6472 17.8823 11.817L18.0373 11.8898L18.2734 10.5246ZM21.2253 10.3612C21.0372 10.3399 20.8474 10.3812 20.6851 10.4785C20.5227 10.5759 20.3969 10.7239 20.3271 10.8999L17.7568 16.6865H19.5933L19.9507 15.7176H22.1446L22.3481 16.6865H23.9875L22.559 10.3612H21.2327H21.2253ZM20.4367 14.4515C20.5801 14.0867 21.1273 12.6836 21.1273 12.6836C21.1178 12.7005 21.2696 12.3178 21.3571 12.0806L21.4741 12.6256L21.8758 14.4526H20.4441L20.4367 14.4515ZM7.19633 14.6971L7.04347 13.8295C6.60294 12.6768 5.74698 11.7306 4.64398 11.1771L6.17687 16.6865H8.01339L10.7682 10.3612H8.93902L7.19633 14.6971Z" fill="#293688"/>
<path d="M2.76531 10.3607V10.4661C3.69709 10.6431 4.57271 11.0414 5.3185 11.6274C6.06428 12.2133 6.6584 12.9698 7.05086 13.8333L6.4183 10.9036C6.37065 10.7335 6.26415 10.5859 6.1178 10.4871C5.97144 10.3882 5.79474 10.3445 5.61918 10.3638H2.76214L2.76531 10.3607ZM13.9984 27.9998C16.5614 28.0002 19.0753 27.2967 21.2658 25.9662C23.4564 24.6358 25.2395 22.7293 26.4207 20.4548H1.58032C2.76119 22.7286 4.54365 24.6347 6.7334 25.9652C8.92315 27.2956 11.4361 27.9994 13.9984 27.9998Z" fill="#F7981D"/>
<path d="M13.9984 7.56111e-07C11.4758 -0.000828277 8.99985 0.680099 6.83246 1.97076C4.66507 3.26142 2.8868 5.11384 1.68573 7.33208H26.3121C25.1108 5.11383 23.3323 3.26144 21.1647 1.97079C18.9972 0.68014 16.5211 -0.000791837 13.9984 7.56111e-07Z" fill="#293688"/>
</g>
<defs>
<clipPath id="clip0_1319_9055">
<rect width="28" height="28" fill="white"/>
</clipPath>
</defs>
</svg>
