<svg width="34" height="22" viewBox="0 0 34 22" fill="none" xmlns="http://www.w3.org/2000/svg">
<g clip-path="url(#clip0_1319_9076)">
<path d="M10.4337 22C16.1961 22 20.8674 17.0751 20.8674 11C20.8674 4.92487 16.1961 0 10.4337 0C4.67133 0 0 4.92487 0 11C0 17.0751 4.67133 22 10.4337 22Z" fill="#F93232"/>
<path d="M23.296 0.227544C20.9864 0.226811 18.7393 0.982925 16.8946 2.38154H16.8728V2.39754C16.4526 2.72176 16.0567 3.07672 15.6883 3.45954H18.0573C18.3862 3.79729 18.6919 4.15712 18.9724 4.53654H14.7652C14.5056 4.8807 14.267 5.24036 14.0507 5.61354H19.6849C19.8905 5.96198 20.077 6.32152 20.2434 6.69054H13.5062C13.3524 7.04192 13.2177 7.40145 13.1027 7.76754H20.6408C20.7521 8.11854 20.8396 8.47954 20.9171 8.84454H12.8235C12.7492 9.20241 12.6931 9.56389 12.6556 9.92754H21.092C21.1346 10.2849 21.1562 10.6446 21.1566 11.0045H12.592C12.5956 11.3644 12.6172 11.7239 12.6566 12.0815H21.094C21.0532 12.4465 20.9946 12.8055 20.9201 13.1585H12.8245C12.8989 13.5195 12.9921 13.8764 13.1037 14.2275H20.6408C20.5259 14.5936 20.3912 14.9532 20.2374 15.3045H13.5062C13.6671 15.6737 13.8489 16.0333 14.0507 16.3815H19.6859C19.4693 16.755 19.23 17.1147 18.9695 17.4585H14.7652C15.049 17.8376 15.3574 18.1973 15.6883 18.5355H18.0573C17.6889 18.9184 17.293 19.2734 16.8728 19.5975C18.2283 20.6241 19.8069 21.3116 21.4784 21.6033C23.15 21.8949 24.8664 21.7824 26.4862 21.275C28.106 20.7675 29.5827 19.8797 30.7944 18.6849C32.0061 17.49 32.918 16.0223 33.4551 14.4028C33.9921 12.7834 34.1387 11.0587 33.8829 9.37096C33.6271 7.68325 32.9762 6.08094 31.9838 4.69627C30.9914 3.3116 29.6861 2.18426 28.1755 1.40726C26.665 0.630273 24.9924 0.22591 23.296 0.227544Z" fill="#FED049"/>
</g>
<defs>
<clipPath id="clip0_1319_9076">
<rect width="34" height="22" fill="white"/>
</clipPath>
</defs>
</svg>
