<svg width="39" height="37" viewBox="0 0 39 37" fill="none" xmlns="http://www.w3.org/2000/svg">
<rect x="0.984863" y="0.5" width="37.1212" height="36" rx="6.5" fill="#F2F2F2" stroke="#F2F2F2"/>
<path d="M20.1078 11.2122H20.1042C16.0858 11.2122 12.8181 14.4808 12.8181 18.5C12.8181 20.0943 13.3319 21.5719 14.2055 22.7716L13.2973 25.4791L16.0986 24.5836C17.251 25.347 18.6256 25.7879 20.1078 25.7879C24.1262 25.7879 27.3939 22.5184 27.3939 18.5C27.3939 14.4817 24.1262 11.2122 20.1078 11.2122ZM24.3485 21.5036C24.1726 22 23.4748 22.4118 22.9182 22.5321C22.5374 22.6131 22.04 22.6778 20.3656 21.9836C18.2239 21.0963 16.8447 18.92 16.7372 18.7788C16.6342 18.6376 15.8717 17.6264 15.8717 16.5806C15.8717 15.5348 16.4028 15.0255 16.6169 14.8069C16.7927 14.6274 17.0833 14.5455 17.3621 14.5455C17.4523 14.5455 17.5334 14.55 17.6063 14.5537C17.8203 14.5628 17.9278 14.5755 18.069 14.9135C18.2449 15.3371 18.673 16.3829 18.724 16.4904C18.776 16.5979 18.8279 16.7437 18.755 16.8849C18.6867 17.0306 18.6266 17.0953 18.5191 17.2192C18.4116 17.3431 18.3095 17.4378 18.202 17.5708C18.1036 17.6865 17.9925 17.8104 18.1164 18.0245C18.2403 18.234 18.6685 18.9328 19.2989 19.4939C20.1124 20.2182 20.7719 20.4495 21.0079 20.5479C21.1837 20.6208 21.3932 20.6035 21.5217 20.4669C21.6847 20.291 21.8861 19.9995 22.091 19.7126C22.2368 19.5067 22.4208 19.4812 22.6139 19.554C22.8107 19.6224 23.852 20.1371 24.066 20.2437C24.2801 20.3512 24.4213 20.4022 24.4733 20.4924C24.5243 20.5825 24.5243 21.0062 24.3485 21.5036Z" fill="#676767"/>
</svg>
