<svg width="51" height="90" viewBox="0 0 51 90" fill="none" xmlns="http://www.w3.org/2000/svg">
<path d="M18.7375 62.5427C18.1934 62.0668 17.4789 61.6486 16.594 61.2894C24.5189 56.7678 18.6129 51.3234 11.5415 52.6265C5.82437 52.4809 2.42894 61.6853 8.64558 63.6583L9.07165 62.1284C4.09388 60.0807 8.43583 53.2754 12.7699 54.1551C11.6084 55.6784 8.37028 68.408 7.25333 69.989C4.88833 73.2179 -0.457823 69.5053 2.7462 66.3091C5.09415 63.775 7.49193 67.8744 4.48193 67.6437L3.85528 69.0976C5.62248 69.9431 7.49193 68.5181 7.429 66.6277C5.59626 59.5065 -3.5963 67.8849 1.83769 71.8427C8.79766 76.0837 10.2122 66.2908 11.729 61.8636C23.3718 61.6158 19.1203 75.6052 9.88577 70.0126L8.98251 71.317C15.068 76.325 24.6342 68.8498 18.7375 62.5427ZM12.2311 60.2983L13.6102 55.9734C17.4317 50.2221 23.179 60.5854 12.2311 60.2983Z" fill="#E5A552"/>
<path d="M26.6863 59.3332C28.6567 59.3739 28.6541 56.2551 26.6863 56.2865C24.7146 56.2459 24.7133 59.3831 26.6863 59.3332Z" fill="#E5A552"/>
<path d="M47.6804 68.185C40.0558 76.2684 45.1987 64.0266 45.9447 61.1516L44.4148 60.6875L44.2011 61.402C42.3945 59.8721 38.9952 60.3912 37.5059 62.0798C36.8701 62.7366 36.4467 64.9508 36.1346 65.7702L36.1268 65.7662C35.6129 67.1808 30.9891 73.3777 30.3781 69.6533C30.7111 67.3853 32.5255 62.5963 33.1561 60.3624H36.0652L36.5791 58.7695H33.67C34.1669 57.4415 34.4343 54.7344 36.4034 54.9336V53.3408C33.3724 53.0734 32.6815 56.5317 31.9906 58.7695C31.933 58.7695 29.1498 58.7695 29.0947 58.7695L28.5926 60.3624C28.6922 60.3624 31.385 60.3624 31.4885 60.3624L29.7738 65.7741L29.7581 65.7649C29.2717 67.1296 24.4539 73.5298 24.016 69.5261C23.9426 69.1158 26.3351 61.7573 26.4859 61.1503L24.9691 60.6862C24.5876 62.3393 22.2186 68.5376 22.4494 70.1895C22.8754 73.9546 27.3537 72.093 28.8194 69.9836C29.0252 74.0699 33.8863 72.0694 35.3415 69.8066C35.8593 72.8887 40.2563 73.0972 42.2464 71.3431C45.2616 74.7372 49.2221 69.142 50.5829 66.5659L49.2037 65.7636C48.8026 66.5423 48.2939 67.3486 47.6804 68.185ZM42.1455 68.0342C42.3369 70.7912 37.464 72.1966 36.8675 69.3124C36.7587 68.611 38.2938 64.3373 38.4603 63.5952C39.0398 61.8634 43.172 61.3784 43.6006 63.3567L42.1455 68.0342Z" fill="#E5A552"/>
<path d="M36.9028 5.42989C36.9093 5.46791 36.9159 5.50593 36.9238 5.54526C36.8307 5.84809 37.0064 6.10504 37.0824 6.3751C37.3656 7.38062 37.0863 8.30617 36.6943 9.21074C36.5672 9.50309 36.6288 9.82297 36.9395 9.91867C37.0968 9.96717 37.2672 9.98815 37.4324 9.98815C38.4733 9.9947 39.5156 10.0131 40.5565 9.98684C41.6184 9.95931 42.6632 9.75742 43.6753 9.45458C44.7608 9.12946 45.7401 8.56836 46.5424 7.749C46.9619 7.32163 47.3578 6.8759 47.6764 6.35413C47.8743 6.02901 47.9176 5.62654 48.2335 5.35648C48.5246 5.1087 48.7448 5.01562 48.9729 5.15327C49.3138 5.3591 49.479 5.72486 49.3295 6.05129C48.9939 6.77757 48.6085 7.47763 48.1103 8.10821C47.5256 8.84629 46.84 9.4572 46.0324 9.95931C45.2039 10.4732 44.3006 10.7787 43.379 11.0055C42.4299 11.2388 41.4375 11.2559 40.4608 11.286C39.0239 11.3293 37.5858 11.3096 36.149 11.2441C35.9038 11.2323 35.6403 11.1995 35.4437 11.4106C35.1212 11.7567 34.682 11.9638 34.3857 12.3558C34.1196 12.7071 33.7669 12.9929 33.4484 13.3036C33.3133 13.436 33.3265 13.5855 33.3933 13.7362C33.4562 13.8791 33.5873 13.9316 33.7315 13.9001C34.2232 13.79 34.7253 13.7847 35.2234 13.769C36.2906 13.7336 37.3459 13.6628 38.4025 14.0063C39.1511 14.2501 39.8905 14.4795 40.6063 14.823C41.364 15.1875 41.9854 15.7158 42.5793 16.2651C43.3174 16.9468 43.9322 17.7504 44.4894 18.596C45.1528 19.6055 45.6627 20.6949 45.942 21.8525C46.1989 22.9157 46.4139 24.0051 46.3811 25.1207C46.3706 25.4904 46.2933 25.8431 46.2369 26.201C46.1504 26.7568 46.1845 27.335 46.0049 27.8685C45.7873 28.5188 45.664 29.1926 45.4097 29.8363C45.0099 30.8497 44.6218 31.8657 44.0843 32.8135C43.9362 33.0744 43.8208 33.355 43.6399 33.5975C43.0303 34.4129 42.5203 35.2952 41.9042 36.1093C41.2369 36.9903 40.5237 37.8306 39.7594 38.6198C39.214 39.1849 38.6477 39.7381 38.0551 40.2612C37.5425 40.7121 37.0457 41.1828 36.5239 41.6259C36.2775 41.8343 35.993 41.9917 35.7675 42.2185C35.1015 42.8897 34.3333 43.4364 33.5782 43.9922C32.5307 44.7617 31.3783 45.3766 30.2693 46.0557C29.5679 46.4844 28.8377 46.8554 28.1179 47.2487C27.7247 47.4624 27.275 47.5358 26.8463 47.3719C26.4019 47.2028 25.9811 46.9681 25.5498 46.7662C25.2535 46.6273 24.9926 46.411 24.6976 46.289C24.459 46.1894 24.2165 46.1068 23.9936 45.9705C23.6934 45.7882 23.3814 45.6231 23.0799 45.4395C22.5214 45.1 21.9603 44.7644 21.4123 44.4078C20.9522 44.1089 20.4933 43.8087 20.0555 43.4731C19.438 42.9998 18.7982 42.5554 18.1781 42.086C17.6944 41.719 17.3208 41.23 16.8554 40.8432C16.1828 40.2835 15.5614 39.6712 14.94 39.059C14.3724 38.5018 13.8087 37.9368 13.2803 37.3429C12.9447 36.9667 12.6052 36.5904 12.263 36.2207C11.8645 35.7908 11.5092 35.3319 11.171 34.8613C10.8026 34.35 10.5194 33.7797 10.1642 33.2579C9.75775 32.6615 9.46671 32.006 9.15732 31.3623C8.99739 31.0293 8.78894 30.7068 8.69455 30.3476C8.52543 29.7052 8.28291 29.0851 8.10199 28.4454C7.92501 27.82 7.75721 27.1908 7.73885 26.5562C7.69559 25.0735 7.56187 23.5869 8.0312 22.1225C8.27897 21.3491 8.50053 20.5795 8.89644 19.8611C9.41297 18.9251 10.0068 18.0441 10.6741 17.2169C11.3296 16.4027 12.1398 15.7564 13.0299 15.194C13.9411 14.6185 14.9558 14.3799 15.9757 14.161C17.0009 13.9407 18.0523 14.0404 19.0932 14.0377C19.2492 14.0377 19.4105 14.0469 19.5599 14.0115C19.8234 13.9486 19.8824 13.752 19.7094 13.5461C19.5822 13.3954 19.455 13.2354 19.299 13.1188C18.5164 12.5288 17.8438 11.8274 17.2067 11.0894C16.9524 10.7944 16.6509 10.6476 16.2471 10.6699C15.0003 10.7393 13.7588 10.8101 12.52 11.0094C11.226 11.2165 9.90589 11.2375 8.59492 11.2847C7.37571 11.328 6.16568 11.2545 4.98449 10.8783C4.57154 10.7472 4.19791 10.544 3.82691 10.346C3.58962 10.2202 3.33398 10.0852 3.12422 9.89245C2.47398 9.29464 1.95221 8.60638 1.593 7.7962C1.45797 7.49074 1.30983 7.19315 1.34785 6.84181C1.38063 6.53766 1.58252 6.38428 1.83553 6.28989C2.023 6.2191 2.22227 6.26105 2.35075 6.41574C2.52248 6.62288 2.7152 6.82477 2.79516 7.08958C2.8948 7.42126 3.05474 7.71361 3.24483 8.00464C3.82166 8.88824 4.6751 9.36544 5.6308 9.70367C6.01754 9.84001 6.43443 9.81379 6.83297 9.89245C7.61431 10.0498 8.4022 10.0943 9.19141 9.98422C10.3031 9.82952 11.424 9.743 12.5396 9.63943C13.3865 9.56077 14.2413 9.53848 15.0882 9.42181C15.2888 9.39428 15.4513 9.35364 15.5378 9.15175C15.6283 8.9433 15.5339 8.79254 15.3989 8.64702C15.1249 8.35467 14.9505 7.97842 14.8234 7.62708C14.607 7.03059 14.3199 6.45245 14.2544 5.79565C14.1561 4.79538 14.0695 3.82919 14.5848 2.88529C15.0869 1.96367 15.9036 1.49697 16.82 1.16791C17.3247 0.986998 17.8674 0.87032 18.401 0.823125C19.9781 0.684162 21.4569 1.00273 22.7692 1.93352C22.9894 2.08953 23.2097 2.25209 23.3998 2.44087C23.9333 2.96788 24.4197 3.53291 24.8077 4.18184C25.2692 4.95532 25.7136 5.72748 25.9129 6.62681C26.0151 7.08827 26.2288 7.52745 26.4189 7.964C26.529 8.21702 26.6864 8.22882 26.8804 8.03611C27.0508 7.86699 27.2252 7.6887 27.2802 7.44879C27.3366 7.20626 27.4874 7.02141 27.5909 6.80904C27.8413 6.29251 28.2071 5.85333 28.5086 5.37221C28.7813 4.93696 29.193 4.6302 29.4748 4.20151C29.7016 3.85672 30.0988 3.65221 30.441 3.42803C30.7137 3.25105 30.9824 3.0295 31.3023 2.94166C32.1348 2.71486 32.9528 2.51297 33.8443 2.76468C34.7882 3.03081 35.4712 3.57355 36.052 4.32605C36.3364 4.69443 36.5134 5.14541 36.9028 5.42989ZM20.0607 17.1828C20.0607 17.1749 20.0607 17.167 20.0607 17.1592C20.9155 17.1592 21.7702 17.1592 22.625 17.1592C22.8872 17.1592 23.1454 17.1264 23.3971 17.0556C23.5807 17.0045 23.6488 16.9153 23.544 16.7108C23.4299 16.488 23.2805 16.349 23.0379 16.2926C22.8255 16.2428 22.6092 16.1956 22.41 16.1091C21.7519 15.8233 21.0688 15.6135 20.3688 15.472C19.9834 15.3933 19.5835 15.4012 19.1955 15.3081C18.3525 15.1036 17.4991 15.1127 16.6613 15.3146C15.9783 15.4785 15.2901 15.628 14.6398 15.9164C14.24 16.0947 13.8559 16.2913 13.498 16.5391C12.8241 17.0058 12.2512 17.5918 11.6652 18.1555C11.1395 18.6616 10.7502 19.2961 10.4014 19.9266C10.0199 20.6162 9.66205 21.3255 9.42214 22.0963C9.14553 22.9825 9.0472 23.8832 8.96461 24.793C8.87809 25.7487 9.09571 26.6769 9.23205 27.6142C9.30678 28.1268 9.56897 28.5686 9.69352 29.0589C9.8233 29.5702 10.1078 30.0277 10.2074 30.5508C10.2271 30.6557 10.3123 30.754 10.3831 30.8405C10.484 30.9637 10.5601 31.1001 10.6138 31.2456C10.8249 31.8132 11.0989 32.3599 11.4515 32.8384C11.9851 33.5634 12.3731 34.3867 12.9972 35.0487C13.3603 35.4342 13.65 35.8865 14.0132 36.2706C14.7381 37.0362 15.4539 37.811 16.2169 38.5425C16.9891 39.2845 17.8268 39.9465 18.6213 40.661C19.1443 41.1317 19.7382 41.5236 20.3032 41.9458C21.1016 42.5423 21.9275 43.0968 22.7744 43.6238C23.4535 44.0473 24.1365 44.4589 24.8392 44.8391C25.4422 45.1655 26.0545 45.4736 26.668 45.7804C27.1924 46.0426 27.6971 45.9705 28.1756 45.648C28.253 45.5955 28.3225 45.5287 28.4051 45.4867C29.657 44.8483 30.833 44.0853 31.9984 43.3026C32.9738 42.6471 33.9059 41.934 34.8236 41.2011C35.5368 40.6309 36.2172 40.0239 36.8897 39.4051C37.557 38.7916 38.1548 38.1086 38.8352 37.5121C39.471 36.9549 39.981 36.2837 40.5683 35.6819C41.2631 34.9688 41.7547 34.0786 42.2647 33.2107C42.755 32.377 43.1928 31.5209 43.6176 30.6557C43.7185 30.4498 43.809 30.2401 43.9021 30.0316C44.1499 29.4784 44.3229 28.9003 44.4933 28.3234C44.7201 27.5565 44.9443 26.7778 44.9889 25.9768C45.0623 24.6435 45.0597 23.3103 44.61 22.0216C44.412 21.4526 44.1826 20.8994 43.9349 20.3514C43.6412 19.7012 43.2217 19.1414 42.8127 18.5645C42.4377 18.0336 42.0287 17.538 41.5515 17.1081C40.7623 16.3949 39.8826 15.8259 38.8679 15.4497C38.0355 15.1403 37.1715 15.0524 36.3129 14.9358C35.3676 14.8086 34.4539 15.1114 33.5297 15.2543C32.8139 15.3645 32.1531 15.6516 31.4819 15.9046C31.1909 16.0147 30.8959 16.1209 30.6101 16.2441C30.3807 16.3438 30.2181 16.547 30.2614 16.7829C30.306 17.0268 30.5773 16.9809 30.7622 16.9796C31.2512 16.9783 31.7402 16.9389 32.2292 16.935C33.3854 16.9232 34.543 16.918 35.6993 16.9206C35.9799 16.9206 36.2552 16.8459 36.541 16.893C36.8346 16.9416 36.9696 17.074 36.9723 17.3899C36.9814 18.87 37.0077 20.3488 37.0286 21.8289C37.0509 23.423 37.0745 25.0172 37.0968 26.6113C37.0994 26.7804 37.1204 26.943 37.203 27.0937C37.2895 27.2524 37.3826 27.3074 37.5806 27.234C37.8742 27.1252 38.1036 26.9731 38.32 26.7345C38.7709 26.2377 39.3845 25.9139 39.8249 25.396C40.0059 25.1837 40.2602 25.1312 40.5053 25.219C40.7413 25.3029 40.8895 25.5009 40.8908 25.7736C40.8921 26.0423 40.8357 26.2822 40.6168 26.4737C40.3743 26.686 40.1619 26.9325 39.922 27.1462C39.3228 27.6771 38.7355 28.2212 38.0171 28.5961C37.4219 28.9068 37.1152 29.3421 37.1427 30.0828C37.2174 32.1331 37.2135 34.1874 37.2371 36.2404C37.2423 36.736 37.0614 36.9261 36.5698 36.93C34.5693 36.9457 32.57 36.9732 30.5708 37.0336C27.6762 37.1201 24.7789 37.0375 21.883 37.166C20.4986 37.2276 19.1116 37.1883 17.7245 37.1922C17.3181 37.1935 17.1792 37.0598 17.17 36.6521C17.1477 35.6413 17.1294 34.6318 17.111 33.6211C17.0887 32.4648 17.128 31.3085 17.0612 30.1522C17.0402 29.7826 16.8921 29.5217 16.5892 29.325C16.3284 29.1559 16.0675 28.9868 15.8197 28.8006C15.197 28.3326 14.5769 27.8607 13.966 27.3782C13.6631 27.1396 13.376 26.8801 13.1938 26.5274C13.0444 26.2377 13.0981 26.0174 13.38 25.7552C13.5989 25.5507 13.8336 25.4472 14.1023 25.6622C14.784 26.2062 15.4657 26.7503 16.1383 27.3048C16.3428 27.4739 16.5722 27.6129 16.8187 27.5264C17.0809 27.4346 17.035 27.1449 17.0337 26.9259C17.0297 26.3216 16.9943 25.7185 16.9865 25.1142C16.9563 22.7911 16.9327 20.4668 16.9039 18.1437C16.9026 18.0192 16.8881 17.8946 16.875 17.7701C16.8305 17.306 16.934 17.1854 17.4047 17.1828C18.2896 17.1802 19.1745 17.1828 20.0607 17.1828ZM35.7347 25.7133C35.6692 23.4374 35.7046 21.1249 35.5499 18.8162C35.5197 18.364 35.3401 18.1778 34.8839 18.1844C33.4366 18.2066 31.9893 18.2014 30.5406 18.2355C28.3775 18.2879 26.2131 18.3168 24.0487 18.364C22.4034 18.3994 20.7581 18.4138 19.1116 18.4334C18.4285 18.4413 18.2109 18.6576 18.2122 19.3551C18.2135 21.0003 18.224 22.6469 18.2712 24.2922C18.3079 25.5822 18.3787 26.8709 18.3473 28.1635C18.3368 28.5987 18.6134 28.9094 19.0526 29.0301C19.1116 29.0458 19.1692 29.0746 19.2204 29.1074C20.0043 29.599 20.8958 29.8442 21.761 30.1064C22.6997 30.3908 23.6737 30.5783 24.6596 30.6963C25.8237 30.8353 26.984 30.8654 28.1507 30.7986C28.9963 30.75 29.8065 30.4511 30.6547 30.4511C31.4085 30.4511 32.0745 30.1182 32.7444 29.8756C33.2373 29.696 33.7565 29.5204 34.2337 29.2569C34.5653 29.0733 34.8957 28.8596 35.2562 28.7338C35.6167 28.6092 35.74 28.389 35.736 28.0324C35.7282 27.2694 35.7347 26.5091 35.7347 25.7133ZM33.0367 35.5849C33.6843 35.5849 34.3726 35.6059 35.0596 35.5784C35.6469 35.5561 35.8186 35.3608 35.8199 34.7865C35.8212 34.3919 35.7806 33.996 35.7754 33.6014C35.7636 32.706 35.7714 31.8093 35.7518 30.9139C35.7386 30.3109 35.445 30.1562 34.9154 30.459C34.526 30.6819 34.1012 30.8326 33.6896 30.9926C32.8191 31.3308 31.9132 31.5838 31.0008 31.7883C29.8209 32.0518 28.6161 32.162 27.41 32.2183C26.4098 32.2655 25.416 32.141 24.4184 32.0663C23.0235 31.9601 21.7007 31.5629 20.3832 31.1473C19.9453 31.0096 19.4852 30.8851 19.0853 30.6229C18.8743 30.4839 18.6134 30.6124 18.5059 30.8654C18.443 31.0136 18.4456 31.1709 18.4482 31.3269C18.4652 32.2747 18.4823 33.2212 18.5006 34.1691C18.5072 34.5021 18.4784 34.8364 18.5347 35.1667C18.633 35.7318 18.751 35.8563 19.3161 35.8327C20.7109 35.7724 22.1058 35.7658 23.5007 35.7475C26.6667 35.7042 29.8314 35.6597 33.0367 35.5849ZM19.1561 2.14852C18.4915 2.09739 17.8792 2.28093 17.2539 2.46447C16.8173 2.59294 16.4293 2.78172 16.1225 3.08456C15.3045 3.89343 15.2337 4.77571 15.589 5.8494C15.7607 6.36724 15.9508 6.88245 16.2091 7.37275C16.5237 7.96794 16.9288 8.50806 17.2264 9.11242C17.246 9.15306 17.3024 9.18583 17.3483 9.20419C17.6577 9.32086 17.9618 9.42574 18.3079 9.43885C18.9293 9.46114 19.5717 9.47425 20.1577 9.67876C21.0216 9.98028 21.9105 10.2031 22.7233 10.6699C23.3106 11.0068 23.8769 11.3489 24.3673 11.8104C24.6622 12.0883 24.9349 12.3885 25.2325 12.6625C25.4685 12.8802 25.7398 12.7871 25.8224 12.4777C25.8355 12.4279 25.8395 12.3741 25.8408 12.323C25.867 11.3267 25.7621 10.35 25.4187 9.40608C25.3728 9.28022 25.3085 9.16355 25.2915 9.02327C25.205 8.32583 24.9218 7.68477 24.6924 7.03059C24.5285 6.56388 24.286 6.12208 24.067 5.67504C23.6724 4.87141 23.1756 4.17267 22.5398 3.5434C21.5919 2.60736 20.4645 2.17081 19.1561 2.14852ZM35.7531 7.24821C35.7871 6.88376 35.6652 6.55995 35.5643 6.21778C35.344 5.46922 34.8865 4.90681 34.3044 4.43748C33.9413 4.14382 33.5414 3.91834 33.0315 3.91309C32.2475 3.90523 31.6353 4.27099 31.0034 4.6669C30.1919 5.17556 29.7108 5.96608 29.1222 6.66876C28.898 6.9362 28.7852 7.26263 28.6096 7.55629C28.1442 8.33501 27.844 9.18452 27.608 10.055C27.5372 10.3159 27.4782 10.5781 27.3969 10.8363C27.195 11.4813 27.2265 12.1342 27.3851 12.7805C27.448 13.0401 27.6381 13.0938 27.8662 12.9496C28.0275 12.8474 28.1691 12.7242 28.2255 12.5328C28.253 12.4397 28.2936 12.361 28.367 12.2955C28.9766 11.754 29.5351 11.1575 30.3125 10.8206C30.888 10.5715 31.4754 10.3605 32.0797 10.2202C32.768 10.0603 33.4785 10.0104 34.1838 9.94882C34.4854 9.9226 34.7856 9.80461 34.9403 9.56077C35.3873 8.85809 35.7622 8.11608 35.7531 7.24821ZM19.792 10.9583C19.6097 10.9543 19.4393 11.0081 19.3226 11.1838C19.2518 11.2899 19.2728 11.3778 19.3606 11.4604C19.944 12.0228 20.4723 12.6429 21.1409 13.1135C21.2589 13.1974 21.4005 13.2433 21.4988 13.3613C21.7204 13.6261 22.0088 13.8083 22.288 14.005C22.722 14.3078 23.1651 14.5962 23.6148 14.8755C24.067 15.156 24.4879 15.4811 24.9991 15.6647C25.2377 15.7499 25.3361 15.6384 25.4029 15.4602C25.4658 15.2937 25.399 15.1481 25.3085 14.9921C24.99 14.4468 24.6032 13.9512 24.2126 13.457C23.7629 12.8906 23.2228 12.4239 22.6027 12.0582C22.0848 11.7527 21.5355 11.5115 20.9718 11.2899C20.5864 11.1405 20.2102 11.0199 19.792 10.9583ZM32.6225 11.5639C32.5713 11.5718 32.5189 11.5784 32.4678 11.5849C31.6589 11.6911 30.9418 12.0084 30.2732 12.4751C29.3961 13.0873 28.7511 13.866 28.3867 14.8728C28.3408 15.0013 28.2333 15.1652 28.3946 15.2701C28.5401 15.3645 28.7289 15.3448 28.8639 15.2307C29.1654 14.9751 29.5128 14.785 29.8262 14.549C30.479 14.0587 31.1096 13.5383 31.7415 13.0191C32.102 12.7215 32.4442 12.403 32.7955 12.0936C32.924 11.9795 32.9279 11.8458 32.8715 11.6963C32.8257 11.5797 32.7378 11.5482 32.6225 11.5639Z" fill="#E5A552"/>
<path d="M17.0498 88.7717C16.5897 88.9369 15.6799 89.2083 14.6049 89.2083C13.4001 89.2083 12.4077 88.9015 11.629 88.1569C10.9433 87.4948 10.5186 86.4316 10.5186 85.1915C10.5304 82.8173 12.1599 81.0815 14.829 81.0815C15.7507 81.0815 16.4704 81.2821 16.8125 81.4473L16.5648 82.2863C16.14 82.0975 15.6078 81.9442 14.8054 81.9442C12.8678 81.9442 11.604 83.149 11.604 85.1456C11.604 87.1645 12.8206 88.3575 14.6743 88.3575C15.3469 88.3575 15.8083 88.2631 16.0443 88.1451V85.7709H14.4266V84.9437H17.0485V88.7717H17.0498Z" fill="#E5A552"/>
<path d="M22.0092 81.1636V89.1238H20.9814V81.1636H22.0092Z" fill="#E5A552"/>
<path d="M26.166 81.1636H30.4542V82.0262H27.1938V84.6717H30.2051V85.5226H27.1938V89.1251H26.166V81.1636Z" fill="#E5A552"/>
<path d="M35.7915 82.038H33.3701V81.1636H39.2643V82.038H36.8311V89.1238H35.7915V82.038Z" fill="#E5A552"/>
</svg>
